%FSDAX24Y24*%
%MOIN*%
%SFA1B1*%

%IPPOS*%
%ADD98C,0.002000*%
%LNde-260924-1*%
%LPD*%
G54D98*
X038076Y032898D02*
X038470D01*
X038273Y032701D02*
Y033094D01*
X038076Y030898D02*
X038470D01*
X038273Y030701D02*
Y031094D01*
X038076Y028898D02*
X038470D01*
X038273Y028701D02*
Y029094D01*
X038076Y034913D02*
X038470D01*
X038273Y034717D02*
Y035110D01*
X038076Y036882D02*
X038470D01*
X038273Y036685D02*
Y037079D01*
X028096Y031498D02*
X028450D01*
X028273Y031320D02*
Y031675D01*
X028096Y032498D02*
X028450D01*
X028273Y032320D02*
Y032675D01*
X025096Y031498D02*
X025450D01*
X025273Y031320D02*
Y031675D01*
X025096Y032498D02*
X025450D01*
X025273Y032320D02*
Y032675D01*
X025155Y035898D02*
X025391D01*
X025273Y035780D02*
Y036016D01*
X025155Y034898D02*
X025391D01*
X025273Y034780D02*
Y035016D01*
X025155Y033898D02*
X025391D01*
X025273Y033780D02*
Y034016D01*
X028155Y035898D02*
X028391D01*
X028273Y035780D02*
Y036016D01*
X028155Y034898D02*
X028391D01*
X028273Y034780D02*
Y035016D01*
X028155Y033898D02*
X028391D01*
X028273Y033780D02*
Y034016D01*
X029996Y032198D02*
X030350D01*
X030173Y032020D02*
Y032375D01*
X029996Y033198D02*
X030350D01*
X030173Y033020D02*
Y033375D01*
X019776Y035898D02*
X020170D01*
X019973Y035701D02*
Y036094D01*
X020776Y035898D02*
X021170D01*
X020973Y035701D02*
Y036094D01*
X021776Y035898D02*
X022170D01*
X021973Y035701D02*
Y036094D01*
X038076Y024913D02*
X038470D01*
X038273Y024717D02*
Y025110D01*
X038076Y026882D02*
X038470D01*
X038273Y026685D02*
Y027079D01*
X035796Y023098D02*
X036150D01*
X035973Y022920D02*
Y023275D01*
X034796Y023098D02*
X035150D01*
X034973Y022920D02*
Y023275D01*
X033796Y023098D02*
X034150D01*
X033973Y022920D02*
Y023275D01*
X035796Y020098D02*
X036150D01*
X035973Y019920D02*
Y020275D01*
X034796Y020098D02*
X035150D01*
X034973Y019920D02*
Y020275D01*
X033796Y020098D02*
X034150D01*
X033973Y019920D02*
Y020275D01*
X023896Y022866D02*
X024250D01*
X024073Y022689D02*
Y023043D01*
X023896Y020898D02*
X024250D01*
X024073Y020720D02*
Y021075D01*
X019265Y041186D02*
X019776D01*
X019520Y040930D02*
Y041442D01*
X021249Y041186D02*
X021761D01*
X021505Y040930D02*
Y041442D01*
X023233Y041186D02*
X023745D01*
X023489Y040930D02*
Y041442D01*
X019265Y038209D02*
X019776D01*
X019520Y037954D02*
Y038465D01*
X021249Y038209D02*
X021761D01*
X021505Y037954D02*
Y038465D01*
X023233Y038209D02*
X023745D01*
X023489Y037954D02*
Y038465D01*
X029186Y041186D02*
X029698D01*
X029442Y040930D02*
Y041442D01*
X029186Y038209D02*
X029698D01*
X029442Y037954D02*
Y038465D01*
X029996Y035898D02*
X030350D01*
X030173Y035720D02*
Y036075D01*
X029996Y034898D02*
X030350D01*
X030173Y034720D02*
Y035075D01*
X015181Y037898D02*
X016165D01*
X015673Y037406D02*
Y038390D01*
X015181Y035398D02*
X016165D01*
X015673Y034906D02*
Y035890D01*
X015181Y032898D02*
X016165D01*
X015673Y032406D02*
Y033390D01*
X015181Y030398D02*
X016165D01*
X015673Y029906D02*
Y030890D01*
X015181Y023898D02*
X016165D01*
X015673Y023406D02*
Y024390D01*
X015181Y026398D02*
X016165D01*
X015673Y025906D02*
Y026890D01*
X028496Y029698D02*
X028850D01*
X028673Y029520D02*
Y029875D01*
X028496Y028698D02*
X028850D01*
X028673Y028520D02*
Y028875D01*
X028496Y027698D02*
X028850D01*
X028673Y027520D02*
Y027875D01*
X038189Y040551D02*
X039764D01*
X038976Y039764D02*
Y041339D01*
X015354Y040551D02*
X016929D01*
X016142Y039764D02*
Y041339D01*
X015354Y020866D02*
X016929D01*
X016142Y020079D02*
Y021654D01*
X038189Y020866D02*
X039764D01*
X038976Y020079D02*
Y021654D01*
X035623Y030698D02*
X035723D01*
X035673Y030648D02*
Y030748D01*
X036123Y030698D02*
X036223D01*
X036173Y030648D02*
Y030748D01*
X030995Y028201D02*
X031095D01*
X031045Y028151D02*
Y028251D01*
X031380Y028104D02*
X031480D01*
X031430Y028054D02*
Y028154D01*
X031936Y028077D02*
X032036D01*
X031986Y028026D02*
Y028126D01*
X032660Y027334D02*
X032760D01*
X032710Y027284D02*
Y027384D01*
X033123Y027298D02*
X033223D01*
X033173Y027248D02*
Y027348D01*
X033923Y025505D02*
X034023D01*
X033973Y025455D02*
Y025555D01*
X030623Y030598D02*
X030723D01*
X030673Y030548D02*
Y030648D01*
X034973Y038114D02*
X035073D01*
X035023Y038064D02*
Y038164D01*
X034823Y035998D02*
X034923D01*
X034873Y035948D02*
Y036048D01*
X032221Y035098D02*
X032321D01*
X032271Y035048D02*
Y035148D01*
X024323Y026398D02*
X024423D01*
X024373Y026348D02*
Y026448D01*
X024323Y025748D02*
X024423D01*
X024373Y025698D02*
Y025798D01*
X032023Y019898D02*
X032123D01*
X032073Y019848D02*
Y019948D01*
X027423Y023098D02*
X027523D01*
X027473Y023048D02*
Y023148D01*
X032223Y033698D02*
X032323D01*
X032273Y033648D02*
Y033748D01*
X031823Y029098D02*
X031923D01*
X031873Y029048D02*
Y029148D01*
X036203Y029698D02*
X036303D01*
X036253Y029648D02*
Y029748D01*
X035850Y024863D02*
X035950D01*
X035900Y024813D02*
Y024913D01*
X030123Y028798D02*
X030223D01*
X030173Y028748D02*
Y028848D01*
X029723Y028798D02*
X029823D01*
X029773Y028748D02*
Y028848D01*
X034523Y023898D02*
X034623D01*
X034573Y023848D02*
Y023948D01*
X030123Y028198D02*
X030223D01*
X030173Y028148D02*
Y028248D01*
X029723Y028198D02*
X029823D01*
X029773Y028148D02*
Y028248D01*
X032223Y032398D02*
X032323D01*
X032273Y032348D02*
Y032448D01*
X032523Y040798D02*
X032623D01*
X032573Y040748D02*
Y040848D01*
X032523Y040398D02*
X032623D01*
X032573Y040348D02*
Y040448D01*
X036323Y041098D02*
X036423D01*
X036373Y041048D02*
Y041148D01*
X020966Y031095D02*
X021066D01*
X021016Y031045D02*
Y031145D01*
X021923Y029298D02*
X022023D01*
X021973Y029248D02*
Y029348D01*
M02*