%FSDAX24Y24*%
%MOIN*%
%SFA1B1*%

%IPPOS*%
%ADD17R,0.039400X0.043300*%
%ADD18R,0.133900X0.063000*%
%ADD19R,0.031500X0.031500*%
%ADD20R,0.043300X0.039400*%
%ADD21R,0.051200X0.059100*%
%ADD22R,0.063000X0.133900*%
%ADD23O,0.023600X0.086600*%
%ADD24R,0.059100X0.051200*%
%ADD25R,0.021700X0.057100*%
%ADD26R,0.023600X0.051200*%
%ADD27R,0.051200X0.015700*%
%ADD28R,0.031500X0.063000*%
%ADD29R,0.059100X0.023600*%
%ADD30R,0.137800X0.047200*%
%ADD31R,0.043300X0.061000*%
%ADD32R,0.043300X0.061000*%
%ADD33R,0.135800X0.061000*%
%ADD34R,0.039400X0.027600*%
%ADD35R,0.090600X0.090600*%
%ADD36R,0.057100X0.021700*%
%ADD37R,0.063000X0.031500*%
%ADD38R,0.074800X0.145700*%
%ADD39O,0.013800X0.070900*%
%LNde-260924-1*%
%LPD*%
G54D17*
X037173Y022763D03*
Y023432D03*
X029173Y033163D03*
Y033832D03*
X032473Y029132D03*
Y028463D03*
X031773Y032332D03*
Y031663D03*
X031073Y032332D03*
Y031663D03*
X031773Y034463D03*
Y035132D03*
X031073D03*
Y034463D03*
X035773Y039932D03*
Y039263D03*
X036373D03*
Y039932D03*
Y026132D03*
Y025463D03*
Y024832D03*
Y024163D03*
X029673Y025863D03*
Y026532D03*
Y022132D03*
Y021463D03*
X024473Y032632D03*
Y031963D03*
G54D18*
X035873Y032905D03*
Y031291D03*
G54D19*
X033978Y030498D03*
X034569D03*
G54D20*
X033108Y029898D03*
X032439D03*
X033808Y028398D03*
X033139D03*
X033808Y027798D03*
X033139D03*
X035708Y023898D03*
X035039D03*
X031808Y033098D03*
X031139D03*
Y033698D03*
X031808D03*
Y035898D03*
X031139D03*
Y036498D03*
X031808D03*
X031708Y037098D03*
X031039D03*
X031708Y037798D03*
X031039D03*
X035739Y040598D03*
X036408D03*
Y038598D03*
X035739D03*
X036208Y029198D03*
X035539D03*
X035639Y026898D03*
X036308D03*
X034339D03*
X035008D03*
X032708Y019498D03*
X032039D03*
X030639D03*
X031308D03*
X027339Y020698D03*
X028008D03*
X027339Y020098D03*
X028008D03*
X019539Y028198D03*
X020208D03*
X020939D03*
X021608D03*
X024808D03*
X024139D03*
X032439Y030498D03*
X033108D03*
G54D21*
X033947Y029098D03*
X033199D03*
X022899Y032398D03*
X023647D03*
X021947D03*
X021199D03*
X020347D03*
X019599D03*
X020499Y033898D03*
X021247D03*
X023499D03*
X024247D03*
X021999D03*
X022747D03*
G54D22*
X023580Y026098D03*
X021966D03*
G54D23*
X024323Y030943D03*
X023823D03*
X023323D03*
X022823D03*
X024323Y029053D03*
X023823D03*
X023323D03*
X022823D03*
X033523Y038753D03*
X034023D03*
X034523D03*
X035023D03*
X033523Y040643D03*
X034023D03*
X034523D03*
X035023D03*
G54D24*
X018073Y032024D03*
Y032772D03*
Y030424D03*
Y031172D03*
Y033524D03*
Y034272D03*
X036173Y036924D03*
Y037672D03*
Y035072D03*
Y034324D03*
X019573Y033224D03*
Y033972D03*
G54D25*
X031073Y040635D03*
Y041560D03*
X025173Y030460D03*
Y029535D03*
G54D26*
X030999Y038584D03*
X031747D03*
X031373Y039411D03*
X036247Y028511D03*
X035499D03*
X035873Y027684D03*
G54D27*
X036128Y035742D03*
Y036254D03*
X035419Y035998D03*
G54D28*
X035373Y024859D03*
Y026198D03*
G54D29*
X030399Y026098D03*
X031147Y026472D03*
Y025724D03*
G54D30*
X029015Y025068D03*
X026912D03*
X031932Y025069D03*
X034034D03*
G54D31*
X030568Y020469D03*
G54D32*
X031473Y020469D03*
X032379D03*
G54D33*
X031473Y023126D03*
G54D34*
X028673Y020598D03*
Y020224D03*
Y019850D03*
X029697Y020598D03*
Y020224D03*
Y019850D03*
G54D35*
X020659Y024598D03*
X018887D03*
X020659Y023098D03*
X018887D03*
X018787Y021498D03*
X020559D03*
X018787Y026098D03*
X020559D03*
G54D36*
X019311Y031498D03*
X020236D03*
X021936D03*
X021011D03*
Y030498D03*
X021936D03*
X020236D03*
X019311D03*
X022511Y028198D03*
X023436D03*
G54D37*
X021243Y029298D03*
X019904D03*
G54D38*
X027497Y021974D03*
X028915D03*
G54D39*
X031825Y029820D03*
X031569D03*
X031313D03*
X031057D03*
X030801D03*
X030545D03*
X030289D03*
X030033D03*
X029778D03*
X029522D03*
X031825Y027576D03*
X031569D03*
X031313D03*
X031057D03*
X030801D03*
X030545D03*
X030289D03*
X030033D03*
X029778D03*
X029522D03*
M02*