%FSDAX24Y24*%
%MOIN*%
%SFA1B1*%

%IPPOS*%
%ADD14C,0.010000*%
%ADD15C,0.006000*%
%ADD96C,0.003900*%
%LNde-260924-1*%
%LPD*%
G54D14*
X039061Y032882D02*
D01*
X039059Y032936*
X039053Y032991*
X039043Y033045*
X039030Y033098*
X039013Y033151*
X038992Y033202*
X038968Y033251*
X038941Y033299*
X038910Y033344*
X038876Y033387*
X038840Y033428*
X038800Y033466*
X038758Y033502*
X038714Y033534*
X038667Y033563*
X038618Y033589*
X038568Y033611*
X038517Y033630*
X038464Y033645*
X038410Y033657*
X038356Y033664*
X038301Y033668*
X038246*
X038191Y033664*
X038137Y033657*
X038083Y033645*
X038030Y033630*
X037979Y033611*
X037929Y033589*
X037880Y033563*
X037833Y033534*
X037789Y033502*
X037747Y033466*
X037707Y033428*
X037671Y033387*
X037637Y033344*
X037606Y033299*
X037579Y033251*
X037555Y033202*
X037534Y033151*
X037517Y033098*
X037504Y033045*
X037494Y032991*
X037488Y032936*
X037487Y032882*
X037488Y032827*
X037494Y032772*
X037504Y032718*
X037517Y032665*
X037534Y032612*
X037555Y032561*
X037579Y032512*
X037606Y032464*
X037637Y032419*
X037671Y032376*
X037707Y032335*
X037747Y032297*
X037789Y032261*
X037833Y032229*
X037880Y032200*
X037929Y032174*
X037979Y032152*
X038030Y032133*
X038083Y032118*
X038137Y032106*
X038191Y032099*
X038246Y032095*
X038301*
X038356Y032099*
X038410Y032106*
X038464Y032118*
X038517Y032133*
X038568Y032152*
X038618Y032174*
X038667Y032200*
X038714Y032229*
X038758Y032261*
X038800Y032297*
X038840Y032335*
X038876Y032376*
X038910Y032419*
X038941Y032464*
X038968Y032512*
X038992Y032561*
X039013Y032612*
X039030Y032665*
X039043Y032718*
X039053Y032772*
X039059Y032827*
X039061Y032882*
Y028882D02*
D01*
X039059Y028936*
X039053Y028991*
X039043Y029045*
X039030Y029098*
X039013Y029151*
X038992Y029202*
X038968Y029251*
X038941Y029299*
X038910Y029344*
X038876Y029387*
X038840Y029428*
X038800Y029466*
X038758Y029502*
X038714Y029534*
X038667Y029563*
X038618Y029589*
X038568Y029611*
X038517Y029630*
X038464Y029645*
X038410Y029657*
X038356Y029664*
X038301Y029668*
X038246*
X038191Y029664*
X038137Y029657*
X038083Y029645*
X038030Y029630*
X037979Y029611*
X037929Y029589*
X037880Y029563*
X037833Y029534*
X037789Y029502*
X037747Y029466*
X037707Y029428*
X037671Y029387*
X037637Y029344*
X037606Y029299*
X037579Y029251*
X037555Y029202*
X037534Y029151*
X037517Y029098*
X037504Y029045*
X037494Y028991*
X037488Y028936*
X037487Y028882*
X037488Y028827*
X037494Y028772*
X037504Y028718*
X037517Y028665*
X037534Y028612*
X037555Y028561*
X037579Y028512*
X037606Y028464*
X037637Y028419*
X037671Y028376*
X037707Y028335*
X037747Y028297*
X037789Y028261*
X037833Y028229*
X037880Y028200*
X037929Y028174*
X037979Y028152*
X038030Y028133*
X038083Y028118*
X038137Y028106*
X038191Y028099*
X038246Y028095*
X038301*
X038356Y028099*
X038410Y028106*
X038464Y028118*
X038517Y028133*
X038568Y028152*
X038618Y028174*
X038667Y028200*
X038714Y028229*
X038758Y028261*
X038800Y028297*
X038840Y028335*
X038876Y028376*
X038910Y028419*
X038941Y028464*
X038968Y028512*
X038992Y028561*
X039013Y028612*
X039030Y028665*
X039043Y028718*
X039053Y028772*
X039059Y028827*
X039061Y028882*
Y030898D02*
D01*
X039059Y030952*
X039053Y031007*
X039043Y031061*
X039030Y031114*
X039013Y031167*
X038992Y031218*
X038968Y031267*
X038941Y031315*
X038910Y031360*
X038876Y031403*
X038840Y031444*
X038800Y031482*
X038758Y031518*
X038714Y031550*
X038667Y031579*
X038618Y031605*
X038568Y031627*
X038517Y031646*
X038464Y031661*
X038410Y031673*
X038356Y031680*
X038301Y031684*
X038246*
X038191Y031680*
X038137Y031673*
X038083Y031661*
X038030Y031646*
X037979Y031627*
X037929Y031605*
X037880Y031579*
X037833Y031550*
X037789Y031518*
X037747Y031482*
X037707Y031444*
X037671Y031403*
X037637Y031360*
X037606Y031315*
X037579Y031267*
X037555Y031218*
X037534Y031167*
X037517Y031114*
X037504Y031061*
X037494Y031007*
X037488Y030952*
X037487Y030898*
X037488Y030843*
X037494Y030788*
X037504Y030734*
X037517Y030681*
X037534Y030628*
X037555Y030577*
X037579Y030528*
X037606Y030480*
X037637Y030435*
X037671Y030392*
X037707Y030351*
X037747Y030313*
X037789Y030277*
X037833Y030245*
X037880Y030216*
X037929Y030190*
X037979Y030168*
X038030Y030149*
X038083Y030134*
X038137Y030122*
X038191Y030115*
X038246Y030111*
X038301*
X038356Y030115*
X038410Y030122*
X038464Y030134*
X038517Y030149*
X038568Y030168*
X038618Y030190*
X038667Y030216*
X038714Y030245*
X038758Y030277*
X038800Y030313*
X038840Y030351*
X038876Y030392*
X038910Y030435*
X038941Y030480*
X038968Y030528*
X038992Y030577*
X039013Y030628*
X039030Y030681*
X039043Y030734*
X039053Y030788*
X039059Y030843*
X039061Y030898*
Y034898D02*
D01*
X039059Y034952*
X039053Y035007*
X039043Y035061*
X039030Y035114*
X039013Y035167*
X038992Y035218*
X038968Y035267*
X038941Y035315*
X038910Y035360*
X038876Y035403*
X038840Y035444*
X038800Y035482*
X038758Y035518*
X038714Y035550*
X038667Y035579*
X038618Y035605*
X038568Y035627*
X038517Y035646*
X038464Y035661*
X038410Y035673*
X038356Y035680*
X038301Y035684*
X038246*
X038191Y035680*
X038137Y035673*
X038083Y035661*
X038030Y035646*
X037979Y035627*
X037929Y035605*
X037880Y035579*
X037833Y035550*
X037789Y035518*
X037747Y035482*
X037707Y035444*
X037671Y035403*
X037637Y035360*
X037606Y035315*
X037579Y035267*
X037555Y035218*
X037534Y035167*
X037517Y035114*
X037504Y035061*
X037494Y035007*
X037488Y034952*
X037487Y034898*
X037488Y034843*
X037494Y034788*
X037504Y034734*
X037517Y034681*
X037534Y034628*
X037555Y034577*
X037579Y034528*
X037606Y034480*
X037637Y034435*
X037671Y034392*
X037707Y034351*
X037747Y034313*
X037789Y034277*
X037833Y034245*
X037880Y034216*
X037929Y034190*
X037979Y034168*
X038030Y034149*
X038083Y034134*
X038137Y034122*
X038191Y034115*
X038246Y034111*
X038301*
X038356Y034115*
X038410Y034122*
X038464Y034134*
X038517Y034149*
X038568Y034168*
X038618Y034190*
X038667Y034216*
X038714Y034245*
X038758Y034277*
X038800Y034313*
X038840Y034351*
X038876Y034392*
X038910Y034435*
X038941Y034480*
X038968Y034528*
X038992Y034577*
X039013Y034628*
X039030Y034681*
X039043Y034734*
X039053Y034788*
X039059Y034843*
X039061Y034898*
Y036882D02*
D01*
X039059Y036936*
X039053Y036991*
X039043Y037045*
X039030Y037098*
X039013Y037151*
X038992Y037202*
X038968Y037251*
X038941Y037299*
X038910Y037344*
X038876Y037387*
X038840Y037428*
X038800Y037466*
X038758Y037502*
X038714Y037534*
X038667Y037563*
X038618Y037589*
X038568Y037611*
X038517Y037630*
X038464Y037645*
X038410Y037657*
X038356Y037664*
X038301Y037668*
X038246*
X038191Y037664*
X038137Y037657*
X038083Y037645*
X038030Y037630*
X037979Y037611*
X037929Y037589*
X037880Y037563*
X037833Y037534*
X037789Y037502*
X037747Y037466*
X037707Y037428*
X037671Y037387*
X037637Y037344*
X037606Y037299*
X037579Y037251*
X037555Y037202*
X037534Y037151*
X037517Y037098*
X037504Y037045*
X037494Y036991*
X037488Y036936*
X037487Y036882*
X037488Y036827*
X037494Y036772*
X037504Y036718*
X037517Y036665*
X037534Y036612*
X037555Y036561*
X037579Y036512*
X037606Y036464*
X037637Y036419*
X037671Y036376*
X037707Y036335*
X037747Y036297*
X037789Y036261*
X037833Y036229*
X037880Y036200*
X037929Y036174*
X037979Y036152*
X038030Y036133*
X038083Y036118*
X038137Y036106*
X038191Y036099*
X038246Y036095*
X038301*
X038356Y036099*
X038410Y036106*
X038464Y036118*
X038517Y036133*
X038568Y036152*
X038618Y036174*
X038667Y036200*
X038714Y036229*
X038758Y036261*
X038800Y036297*
X038840Y036335*
X038876Y036376*
X038910Y036419*
X038941Y036464*
X038968Y036512*
X038992Y036561*
X039013Y036612*
X039030Y036665*
X039043Y036718*
X039053Y036772*
X039059Y036827*
X039061Y036882*
Y024898D02*
D01*
X039059Y024952*
X039053Y025007*
X039043Y025061*
X039030Y025114*
X039013Y025167*
X038992Y025218*
X038968Y025267*
X038941Y025315*
X038910Y025360*
X038876Y025403*
X038840Y025444*
X038800Y025482*
X038758Y025518*
X038714Y025550*
X038667Y025579*
X038618Y025605*
X038568Y025627*
X038517Y025646*
X038464Y025661*
X038410Y025673*
X038356Y025680*
X038301Y025684*
X038246*
X038191Y025680*
X038137Y025673*
X038083Y025661*
X038030Y025646*
X037979Y025627*
X037929Y025605*
X037880Y025579*
X037833Y025550*
X037789Y025518*
X037747Y025482*
X037707Y025444*
X037671Y025403*
X037637Y025360*
X037606Y025315*
X037579Y025267*
X037555Y025218*
X037534Y025167*
X037517Y025114*
X037504Y025061*
X037494Y025007*
X037488Y024952*
X037487Y024898*
X037488Y024843*
X037494Y024788*
X037504Y024734*
X037517Y024681*
X037534Y024628*
X037555Y024577*
X037579Y024528*
X037606Y024480*
X037637Y024435*
X037671Y024392*
X037707Y024351*
X037747Y024313*
X037789Y024277*
X037833Y024245*
X037880Y024216*
X037929Y024190*
X037979Y024168*
X038030Y024149*
X038083Y024134*
X038137Y024122*
X038191Y024115*
X038246Y024111*
X038301*
X038356Y024115*
X038410Y024122*
X038464Y024134*
X038517Y024149*
X038568Y024168*
X038618Y024190*
X038667Y024216*
X038714Y024245*
X038758Y024277*
X038800Y024313*
X038840Y024351*
X038876Y024392*
X038910Y024435*
X038941Y024480*
X038968Y024528*
X038992Y024577*
X039013Y024628*
X039030Y024681*
X039043Y024734*
X039053Y024788*
X039059Y024843*
X039061Y024898*
Y026882D02*
D01*
X039059Y026936*
X039053Y026991*
X039043Y027045*
X039030Y027098*
X039013Y027151*
X038992Y027202*
X038968Y027251*
X038941Y027299*
X038910Y027344*
X038876Y027387*
X038840Y027428*
X038800Y027466*
X038758Y027502*
X038714Y027534*
X038667Y027563*
X038618Y027589*
X038568Y027611*
X038517Y027630*
X038464Y027645*
X038410Y027657*
X038356Y027664*
X038301Y027668*
X038246*
X038191Y027664*
X038137Y027657*
X038083Y027645*
X038030Y027630*
X037979Y027611*
X037929Y027589*
X037880Y027563*
X037833Y027534*
X037789Y027502*
X037747Y027466*
X037707Y027428*
X037671Y027387*
X037637Y027344*
X037606Y027299*
X037579Y027251*
X037555Y027202*
X037534Y027151*
X037517Y027098*
X037504Y027045*
X037494Y026991*
X037488Y026936*
X037487Y026882*
X037488Y026827*
X037494Y026772*
X037504Y026718*
X037517Y026665*
X037534Y026612*
X037555Y026561*
X037579Y026512*
X037606Y026464*
X037637Y026419*
X037671Y026376*
X037707Y026335*
X037747Y026297*
X037789Y026261*
X037833Y026229*
X037880Y026200*
X037929Y026174*
X037979Y026152*
X038030Y026133*
X038083Y026118*
X038137Y026106*
X038191Y026099*
X038246Y026095*
X038301*
X038356Y026099*
X038410Y026106*
X038464Y026118*
X038517Y026133*
X038568Y026152*
X038618Y026174*
X038667Y026200*
X038714Y026229*
X038758Y026261*
X038800Y026297*
X038840Y026335*
X038876Y026376*
X038910Y026419*
X038941Y026464*
X038968Y026512*
X038992Y026561*
X039013Y026612*
X039030Y026665*
X039043Y026718*
X039053Y026772*
X039059Y026827*
X039061Y026882*
X037848Y033523D02*
X038923Y032448D01*
X037673Y033348D02*
X038723Y032298D01*
X037848Y029523D02*
X038923Y028448D01*
X037673Y029348D02*
X038723Y028298D01*
X037623Y030498D02*
X038673Y031548D01*
X037823Y030298D02*
X038873Y031348D01*
X037673Y037348D02*
X038723Y036298D01*
X037848Y037523D02*
X038923Y036448D01*
X037823Y034298D02*
X038873Y035348D01*
X038923*
X037623Y034498D02*
X038673Y035548D01*
X037673Y027348D02*
X038723Y026298D01*
X037848Y027523D02*
X038923Y026448D01*
X037823Y024298D02*
X038873Y025348D01*
X038923*
X037623Y024498D02*
X038673Y025548D01*
X019048Y042198D02*
X030465D01*
X019048Y037198D02*
Y042198D01*
Y037198D02*
X030465D01*
Y042198*
X012573Y042520D02*
X012773Y041920D01*
X012373D02*
X012573Y042520D01*
X012373Y019498D02*
X012573Y018898D01*
X012773Y019498*
X012573Y032058D02*
Y042520D01*
Y018898D02*
Y029039D01*
X012473Y042520D02*
X014023D01*
X012473Y018898D02*
X014023D01*
X014173Y045198D02*
X014773Y045398D01*
X014173Y045198D02*
X014773Y044998D01*
X040345D02*
X040945Y045198D01*
X040345Y045398D02*
X040945Y045198D01*
X014173D02*
X025889D01*
X028909D02*
X040945D01*
X014173Y042670D02*
Y045298D01*
X040945Y042670D02*
Y045298D01*
G54D15*
X012333Y029599D02*
X012433Y029399D01*
X012633Y029199*
X012833*
X012933Y029299*
Y029499*
X012833Y029599*
X012733*
X012633Y029499*
Y029199*
X012433Y029799D02*
X012333Y029899D01*
Y030099*
X012433Y030199*
X012833*
X012933Y030099*
Y029899*
X012833Y029799*
X012433*
X012933Y030399D02*
X012833D01*
Y030499*
X012933*
Y030399*
X012433Y030899D02*
X012333Y030999D01*
Y031198*
X012433Y031298*
X012833*
X012933Y031198*
Y030999*
X012833Y030899*
X012433*
Y031498D02*
X012333Y031598D01*
Y031798*
X012433Y031898*
X012833*
X012933Y031798*
Y031598*
X012833Y031498*
X012433*
X026449Y045438D02*
X026249Y045338D01*
X026049Y045138*
Y044938*
X026149Y044838*
X026349*
X026449Y044938*
Y045038*
X026349Y045138*
X026049*
X026649Y045338D02*
X026749Y045438D01*
X026949*
X027049Y045338*
Y045238*
X026949Y045138*
X027049Y045038*
Y044938*
X026949Y044838*
X026749*
X026649Y044938*
Y045038*
X026749Y045138*
X026649Y045238*
Y045338*
X026749Y045138D02*
X026949D01*
X027249Y044838D02*
Y044938D01*
X027349*
Y044838*
X027249*
X027749Y045338D02*
X027849Y045438D01*
X028049*
X028149Y045338*
Y044938*
X028049Y044838*
X027849*
X027749Y044938*
Y045338*
X028349D02*
X028449Y045438D01*
X028649*
X028749Y045338*
Y044938*
X028649Y044838*
X028449*
X028349Y044938*
Y045338*
G54D96*
X034194Y030498D02*
X034352D01*
X034273Y030419D02*
Y030576D01*
X019694Y024598D02*
X019852D01*
X019773Y024519D02*
Y024676D01*
X019694Y023098D02*
X019852D01*
X019773Y023019D02*
Y023176D01*
X019594Y021498D02*
X019752D01*
X019673Y021419D02*
Y021576D01*
X019594Y026098D02*
X019752D01*
X019673Y026019D02*
Y026176D01*
M02*