%FSDAX24Y24*%
%MOIN*%
%SFA1B1*%

%IPPOS*%
%ADD14C,0.010000*%
%ADD75C,0.030000*%
%ADD76C,0.020000*%
%ADD78C,0.040000*%
%ADD80C,0.100000*%
%ADD84C,0.098400*%
%ADD85C,0.059100*%
%ADD86R,0.059100X0.059100*%
%ADD87O,0.098400X0.047200*%
%ADD88R,0.098400X0.047200*%
%ADD89R,0.059100X0.059100*%
%ADD90C,0.063000*%
%ADD91R,0.063000X0.063000*%
%ADD92C,0.059100*%
%ADD93C,0.157500*%
%ADD94C,0.060000*%
%ADD95C,0.030000*%
%ADD100C,0.005000*%
%ADD101C,0.080000*%
%ADD102C,0.160000*%
%ADD103C,0.320000*%
%LNde-260924-1*%
%LPD*%
G54D100*
X040767Y019076D02*
X019798D01*
Y026773*
X026783*
X027098Y027087*
Y042342*
X040767*
Y019076*
G54D14*
X040717Y019126D02*
X019848D01*
Y026723*
X026804*
X027148Y027066*
Y042292*
X040717*
Y019126*
G54D76*
X040617Y019226D02*
X019948D01*
Y026623*
X026845*
X027248Y027025*
Y042192*
X040617*
Y019226*
G54D78*
X040417Y019426D02*
X020148D01*
Y026423*
X026928*
X027448Y026942*
Y041992*
X040417*
Y019426*
G54D101*
X040017Y019826D02*
X020548D01*
Y026023*
X027093*
X027848Y026776*
Y041592*
X040017*
Y019826*
G54D102*
X039217Y020626D02*
X021348D01*
Y025223*
X027425*
X028648Y026445*
Y040792*
X039217*
Y020626*
G54D103*
X037617Y022226D02*
X022948D01*
Y023623*
X028087*
X030248Y025782*
Y039192*
X037617*
Y022226*
X024550Y022240D02*
Y023030D01*
X027750Y022240D02*
Y023030D01*
X030950Y022240D02*
Y039190D01*
X034150Y022240D02*
Y039190D01*
X037350Y022240D02*
Y039190D01*
%LNde-260924-2*%
%LPC*%
G36*
X029500Y041778D02*
X029383D01*
X029269Y041755*
X029161Y041711*
X029064Y041646*
X028982Y041563*
X028917Y041466*
X028872Y041359*
X028850Y041244*
Y041128*
X028872Y041013*
X028917Y040905*
X028982Y040808*
X029064Y040726*
X029161Y040661*
X029269Y040616*
X029383Y040594*
X029500*
X029614Y040616*
X029722Y040661*
X029819Y040726*
X029902Y040808*
X029966Y040905*
X030011Y041013*
X030034Y041128*
Y041244*
X030011Y041359*
X029966Y041466*
X029902Y041563*
X029819Y041646*
X029722Y041711*
X029614Y041755*
X029500Y041778*
G37*
G36*
X036423Y041348D02*
X036323D01*
X036232Y041310*
X036161Y041239*
X036123Y041147*
Y041064*
X035210Y040151*
X032821*
X032780Y040251*
X032785Y040256*
X032823Y040348*
Y040447*
X032785Y040539*
X032727Y040598*
X032785Y040656*
X032823Y040748*
Y040847*
X032785Y040939*
X032715Y041010*
X032623Y041048*
X032524*
X032432Y041010*
X032373Y040951*
X032273*
X032215Y040939*
X032165Y040906*
X030948Y039688*
X030914Y039639*
X030903Y039580*
Y030870*
X030803Y030829*
X030428Y031203*
Y031802*
X030568*
Y032098*
X030173*
X029778*
Y031802*
X029918*
Y031098*
X029938Y031000*
X029993Y030917*
X030493Y030417*
X030576Y030362*
X030673Y030343*
X030771Y030362*
X030803Y030384*
X030903Y030330*
Y028815*
X030886Y028808*
X030803Y028798*
X030781Y028830*
X030406Y029206*
X030356Y029239*
X030297Y029251*
X030049*
X029990Y029239*
X029941Y029206*
X029783Y029048*
X029723*
X029632Y029010*
X029561Y028939*
X029523Y028847*
Y028748*
X029561Y028656*
X029632Y028586*
X029723Y028548*
X029823*
X029915Y028586*
X029973Y028644*
X030032Y028586*
X030102Y028556*
X030113Y028543*
X030114Y028535*
X030077Y028428*
X030032Y028410*
X029973Y028351*
X029915Y028410*
X029823Y028448*
X029723*
X029632Y028410*
X029561Y028339*
X029523Y028247*
Y028148*
X029561Y028056*
X029620Y027997*
Y025198*
X029632Y025139*
X029665Y025089*
X030565Y024189*
X030615Y024156*
X030644Y024151*
X030634Y024051*
X029937*
X028826Y025161*
Y027330*
X028916Y027381*
X028990Y027455*
X029042Y027545*
X029069Y027646*
Y027750*
X029042Y027850*
X028990Y027940*
X028916Y028014*
X028826Y028066*
X028725Y028093*
X028621*
X028521Y028066*
X028431Y028014*
X028357Y027940*
X028305Y027850*
X028278Y027750*
Y027646*
X028305Y027545*
X028357Y027455*
X028431Y027381*
X028520Y027330*
Y025098*
X028532Y025039*
X028565Y024989*
X029765Y023789*
X029815Y023756*
X029873Y023745*
X034290*
X034294Y023736*
X034315Y023639*
X034265Y023606*
X034125Y023466*
X034025Y023493*
X033921*
X033821Y023466*
X033731Y023414*
X033657Y023340*
X033605Y023250*
X033578Y023150*
Y023046*
X033605Y022945*
X033657Y022855*
X033731Y022781*
X033821Y022729*
X033921Y022702*
X034025*
X034126Y022729*
X034216Y022781*
X034290Y022855*
X034342Y022945*
X034369Y023046*
Y023150*
X034342Y023250*
X034437Y023345*
X034544*
X034604Y023251*
X034603Y023245*
X034578Y023150*
Y023046*
X034605Y022945*
X034657Y022855*
X034731Y022781*
X034821Y022729*
X034921Y022702*
X035025*
X035126Y022729*
X035216Y022781*
X035290Y022855*
X035342Y022945*
X035368Y023046*
Y023150*
X035342Y023250*
X035307Y023310*
X035315Y023321*
X035326Y023380*
Y024098*
X035315Y024156*
X035281Y024206*
X035035Y024452*
X035073Y024545*
X035735*
X035793Y024556*
X035843Y024589*
X035866Y024613*
X035949*
X036041Y024651*
X036112Y024721*
X036150Y024813*
Y024912*
X036112Y025004*
X036041Y025075*
X035949Y025113*
X035850*
X035843Y025110*
X035786Y025195*
X035881Y025289*
X035915Y025339*
X035926Y025398*
Y027834*
X036361Y028269*
X036394Y028319*
X036406Y028377*
Y029498*
X036465Y029557*
X036503Y029648*
Y029748*
X036465Y029840*
X036395Y029910*
X036303Y029948*
X036203*
X036111Y029910*
X036041Y029840*
X036003Y029748*
Y029648*
X036041Y029557*
X036100Y029498*
Y028441*
X035665Y028006*
X035632Y027956*
X035620Y027898*
Y025461*
X035210Y025051*
X031053*
X030826Y025277*
Y027925*
X030854Y027947*
X030926Y027979*
X030995Y027951*
X031095*
X031187Y027989*
X031209Y027984*
X031218Y027962*
X031288Y027892*
X031380Y027854*
X031480*
X031572Y027892*
X031642Y027962*
X031648Y027977*
X031756*
X031774Y027935*
X031844Y027865*
X031936Y027826*
X031995*
X032017Y027809*
X032063Y027749*
X032068Y027734*
X032055Y027667*
Y027168*
X032074Y027071*
X032129Y026988*
X033793Y025325*
X033814Y025311*
X033832Y025293*
X033855Y025283*
X033876Y025269*
X033900Y025264*
X033923Y025255*
X033949*
X033973Y025250*
X033998Y025255*
X034023*
X034046Y025264*
X034071Y025269*
X034092Y025283*
X034115Y025293*
X034133Y025311*
X034153Y025325*
X034167Y025345*
X034185Y025363*
X034195Y025386*
X034209Y025407*
X034214Y025432*
X034223Y025455*
Y025480*
X034228Y025505*
X034223Y025529*
Y025555*
X034214Y025578*
X034209Y025602*
X034195Y025623*
X034185Y025646*
X034167Y025664*
X034153Y025685*
X032832Y027006*
X032851Y027122*
X032862Y027133*
X032960Y027156*
X032989Y027129*
X033032Y027086*
X033124Y027048*
X033223*
X033315Y027086*
X033385Y027156*
X033423Y027248*
Y027347*
X033385Y027439*
X033326Y027498*
Y034198*
X033315Y034256*
X033281Y034306*
X032521Y035066*
Y035147*
X032483Y035239*
X032413Y035310*
X032321Y035348*
X032222*
X032130Y035310*
X032059Y035239*
X032021Y035147*
Y035048*
X032059Y034956*
X032130Y034886*
X032222Y034848*
X032307*
X033020Y034134*
Y027498*
X032923Y027476*
X032894Y027503*
X032851Y027546*
X032826Y027556*
Y031998*
X032815Y032056*
X032781Y032106*
X032523Y032364*
Y032447*
X032485Y032539*
X032415Y032610*
X032323Y032648*
X032223*
X032128Y032716*
Y033192*
X032453Y033517*
X032467Y033538*
X032485Y033556*
X032495Y033579*
X032509Y033600*
X032514Y033625*
X032523Y033648*
Y033673*
X032528Y033698*
X032523Y033722*
Y033747*
X032514Y033771*
X032509Y033795*
X032495Y033816*
X032485Y033839*
X032467Y033857*
X032453Y033878*
X032433Y033892*
X032415Y033910*
X032392Y033919*
X032371Y033933*
X032346Y033938*
X032323Y033948*
X032298*
X032273Y033953*
X032249Y033948*
X032223*
X032200Y033938*
X032176Y033933*
X032155Y033919*
X032132Y033910*
X032114Y033892*
X032093Y033878*
X031726Y033511*
X031626Y033552*
Y039034*
X032437Y039845*
X035273*
X035332Y039856*
X035381Y039889*
X036340Y040848*
X036423*
X036515Y040886*
X036585Y040956*
X036623Y041048*
Y041147*
X036585Y041239*
X036515Y041310*
X036423Y041348*
G37*
G36*
X039062Y041417D02*
X038891D01*
X038724Y041384*
X038566Y041319*
X038424Y041224*
X038304Y041103*
X038209Y040961*
X038144Y040804*
X038110Y040636*
Y040466*
X038144Y040299*
X038209Y040141*
X038304Y039999*
X038424Y039878*
X038566Y039784*
X038724Y039718*
X038891Y039685*
X039062*
X039229Y039718*
X039387Y039784*
X039529Y039878*
X039649Y039999*
X039744Y040141*
X039809Y040299*
X039843Y040466*
Y040636*
X039809Y040804*
X039744Y040961*
X039649Y041103*
X039529Y041224*
X039387Y041319*
X039229Y041384*
X039062Y041417*
G37*
G36*
X029500Y038802D02*
X029383D01*
X029269Y038779*
X029161Y038734*
X029064Y038669*
X028982Y038587*
X028917Y038490*
X028872Y038382*
X028850Y038268*
Y038151*
X028872Y038037*
X028917Y037929*
X028982Y037832*
X029064Y037750*
X029161Y037685*
X029269Y037640*
X029383Y037617*
X029500*
X029614Y037640*
X029722Y037685*
X029819Y037750*
X029902Y037832*
X029966Y037929*
X030011Y038037*
X030034Y038151*
Y038268*
X030011Y038382*
X029966Y038490*
X029902Y038587*
X029819Y038669*
X029722Y038734*
X029614Y038779*
X029500Y038802*
G37*
G36*
X038332Y037474D02*
X038215D01*
X038101Y037451*
X037993Y037407*
X037896Y037342*
X037813Y037259*
X037748Y037162*
X037704Y037055*
X037681Y036940*
Y036824*
X037704Y036709*
X037748Y036601*
X037813Y036504*
X037896Y036422*
X037993Y036357*
X038101Y036313*
X038215Y036290*
X038332*
X038446Y036313*
X038554Y036357*
X038651Y036422*
X038733Y036504*
X038798Y036601*
X038843Y036709*
X038865Y036824*
Y036940*
X038843Y037055*
X038798Y037162*
X038733Y037259*
X038651Y037342*
X038554Y037407*
X038446Y037451*
X038332Y037474*
G37*
G36*
X028529Y036237D02*
X028017D01*
X027930Y036225*
X027848Y036191*
X027778Y036137*
X027724Y036067*
X027690Y035985*
X027678Y035898*
X027690Y035810*
X027724Y035728*
X027778Y035658*
X027848Y035604*
X027930Y035570*
X028017Y035559*
X028529*
X028617Y035570*
X028699Y035604*
X028769Y035658*
X028823Y035728*
X028857Y035810*
X028868Y035898*
X028857Y035985*
X028823Y036067*
X028769Y036137*
X028699Y036191*
X028617Y036225*
X028529Y036237*
G37*
G36*
X030225Y036293D02*
X030121D01*
X030021Y036266*
X029931Y036214*
X029857Y036140*
X029805Y036050*
X029778Y035950*
Y035846*
X029805Y035745*
X029857Y035655*
X029931Y035581*
X030021Y035529*
X030121Y035502*
X030225*
X030326Y035529*
X030416Y035581*
X030490Y035655*
X030542Y035745*
X030568Y035846*
Y035950*
X030542Y036050*
X030490Y036140*
X030416Y036214*
X030326Y036266*
X030225Y036293*
G37*
G36*
X028529Y035237D02*
X028373D01*
Y034998*
X028852*
X028823Y035067*
X028769Y035137*
X028699Y035191*
X028617Y035225*
X028529Y035237*
G37*
G36*
X028173D02*
X028017D01*
X027930Y035225*
X027848Y035191*
X027778Y035137*
X027724Y035067*
X027695Y034998*
X028173*
Y035237*
G37*
G36*
X030568Y035293D02*
X030273D01*
Y034998*
X030568*
Y035293*
G37*
G36*
X030073D02*
X029778D01*
Y034998*
X030073*
Y035293*
G37*
G36*
X028852Y034798D02*
X028373D01*
Y034559*
X028529*
X028617Y034570*
X028699Y034604*
X028769Y034658*
X028823Y034728*
X028852Y034798*
G37*
G36*
X028173D02*
X027695D01*
X027724Y034728*
X027778Y034658*
X027848Y034604*
X027930Y034570*
X028017Y034559*
X028173*
Y034798*
G37*
G36*
X030568D02*
X030273D01*
Y034502*
X030568*
Y034798*
G37*
G36*
X030073D02*
X029778D01*
Y034502*
X030073*
Y034798*
G37*
G36*
X038332Y035506D02*
X038215D01*
X038101Y035483*
X037993Y035438*
X037896Y035373*
X037813Y035291*
X037748Y035194*
X037704Y035086*
X037681Y034972*
Y034855*
X037704Y034741*
X037748Y034633*
X037813Y034536*
X037896Y034453*
X037993Y034389*
X038101Y034344*
X038215Y034321*
X038332*
X038446Y034344*
X038554Y034389*
X038651Y034453*
X038733Y034536*
X038798Y034633*
X038843Y034741*
X038865Y034855*
Y034972*
X038843Y035086*
X038798Y035194*
X038733Y035291*
X038651Y035373*
X038554Y035438*
X038446Y035483*
X038332Y035506*
G37*
G36*
X028865Y034234D02*
X027681D01*
Y033561*
X028865*
Y034234*
G37*
G36*
X030225Y033593D02*
X030121D01*
X030021Y033566*
X029931Y033514*
X029857Y033440*
X029805Y033350*
X029778Y033250*
Y033146*
X029805Y033045*
X029857Y032955*
X029931Y032881*
X030021Y032829*
X030121Y032802*
X030225*
X030326Y032829*
X030416Y032881*
X030490Y032955*
X030542Y033045*
X030568Y033146*
Y033250*
X030542Y033350*
X030490Y033440*
X030416Y033514*
X030326Y033566*
X030225Y033593*
G37*
G36*
X038332Y033490D02*
X038215D01*
X038101Y033467*
X037993Y033422*
X037896Y033358*
X037813Y033275*
X037748Y033178*
X037704Y033070*
X037681Y032956*
Y032839*
X037704Y032725*
X037748Y032617*
X037813Y032520*
X037896Y032438*
X037993Y032373*
X038101Y032328*
X038215Y032306*
X038332*
X038446Y032328*
X038554Y032373*
X038651Y032438*
X038733Y032520*
X038798Y032617*
X038843Y032725*
X038865Y032839*
Y032956*
X038843Y033070*
X038798Y033178*
X038733Y033275*
X038651Y033358*
X038554Y033422*
X038446Y033467*
X038332Y033490*
G37*
G36*
X030568Y032593D02*
X030273D01*
Y032298*
X030568*
Y032593*
G37*
G36*
X030073D02*
X029778D01*
Y032298*
X030073*
Y032593*
G37*
G36*
X028325Y032893D02*
X028221D01*
X028121Y032866*
X028031Y032814*
X027957Y032740*
X027905Y032650*
X027878Y032550*
Y032446*
X027905Y032345*
X027957Y032255*
X028031Y032181*
X028121Y032129*
X028221Y032102*
X028325*
X028426Y032129*
X028516Y032181*
X028590Y032255*
X028642Y032345*
X028668Y032446*
Y032550*
X028642Y032650*
X028590Y032740*
X028516Y032814*
X028426Y032866*
X028325Y032893*
G37*
G36*
Y031893D02*
X028221D01*
X028121Y031866*
X028031Y031814*
X027957Y031740*
X027905Y031650*
X027878Y031550*
Y031446*
X027905Y031345*
X027957Y031255*
X028031Y031181*
X028121Y031129*
X028221Y031102*
X028325*
X028426Y031129*
X028516Y031181*
X028590Y031255*
X028642Y031345*
X028668Y031446*
Y031550*
X028642Y031650*
X028590Y031740*
X028516Y031814*
X028426Y031866*
X028325Y031893*
G37*
G36*
X038373Y031481D02*
Y030998D01*
X038857*
X038843Y031070*
X038798Y031178*
X038733Y031275*
X038651Y031358*
X038554Y031422*
X038446Y031467*
X038373Y031481*
G37*
G36*
X038173D02*
X038101Y031467D01*
X037993Y031422*
X037896Y031358*
X037813Y031275*
X037748Y031178*
X037704Y031070*
X037689Y030998*
X038173*
Y031481*
G37*
G36*
X038857Y030798D02*
X038373D01*
Y030314*
X038446Y030328*
X038554Y030373*
X038651Y030438*
X038733Y030520*
X038798Y030617*
X038843Y030725*
X038857Y030798*
G37*
G36*
X038173D02*
X037689D01*
X037704Y030725*
X037748Y030617*
X037813Y030520*
X037896Y030438*
X037993Y030373*
X038101Y030328*
X038173Y030314*
Y030798*
G37*
G36*
X029069Y030093D02*
X028278D01*
Y029302*
X029069*
Y030093*
G37*
G36*
X028773Y029080D02*
Y028798D01*
X029056*
X029042Y028850*
X028990Y028940*
X028916Y029014*
X028826Y029066*
X028773Y029080*
G37*
G36*
X028573D02*
X028521Y029066D01*
X028431Y029014*
X028357Y028940*
X028305Y028850*
X028291Y028798*
X028573*
Y029080*
G37*
G36*
X029056Y028598D02*
X028773D01*
Y028315*
X028826Y028329*
X028916Y028381*
X028990Y028455*
X029042Y028545*
X029056Y028598*
G37*
G36*
X028573D02*
X028291D01*
X028305Y028545*
X028357Y028455*
X028431Y028381*
X028521Y028329*
X028573Y028315*
Y028598*
G37*
G36*
X035023Y038369D02*
X034998Y038364D01*
X034973*
X034950Y038354*
X034926Y038349*
X034905Y038335*
X034881Y038326*
X034864Y038308*
X034843Y038294*
X034829Y038273*
X034811Y038255*
X034802Y038232*
X034788Y038211*
X034783Y038187*
X034773Y038164*
Y038138*
X034768Y038114*
X034773Y038089*
Y038064*
X034783Y038041*
X034788Y038016*
X034802Y037995*
X034811Y037972*
X034829Y037954*
X034843Y037934*
X035418Y037358*
Y030698*
X035423Y030673*
Y030648*
X035433Y030625*
X035438Y030600*
X035452Y030579*
X035461Y030556*
X035479Y030538*
X035493Y030517*
X035514Y030503*
X035532Y030486*
X035555Y030476*
X035576Y030462*
X035600Y030457*
X035624Y030448*
X035649*
X035673Y030443*
X036068*
X036793Y029717*
X036876Y029662*
X036973Y029643*
X038568*
X039018Y029192*
Y024703*
X038858Y024543*
X038781Y024607*
X038798Y024633*
X038843Y024741*
X038865Y024855*
Y024972*
X038843Y025086*
X038798Y025194*
X038733Y025291*
X038651Y025373*
X038554Y025438*
X038446Y025483*
X038332Y025506*
X038215*
X038101Y025483*
X037993Y025438*
X037896Y025373*
X037813Y025291*
X037748Y025194*
X037704Y025086*
X037681Y024972*
Y024855*
X037704Y024741*
X037748Y024633*
X037813Y024536*
X037896Y024453*
X037993Y024389*
X038101Y024344*
X038215Y024321*
X038332*
X038446Y024344*
X038554Y024389*
X038580Y024406*
X038643Y024328*
X037610Y023294*
X037517Y023344*
X037528Y023398*
Y027792*
X038075Y028339*
X038101Y028328*
X038215Y028306*
X038332*
X038446Y028328*
X038554Y028373*
X038651Y028438*
X038733Y028520*
X038798Y028617*
X038843Y028725*
X038865Y028839*
Y028956*
X038843Y029070*
X038798Y029178*
X038733Y029275*
X038651Y029358*
X038554Y029422*
X038446Y029467*
X038332Y029490*
X038215*
X038101Y029467*
X037993Y029422*
X037896Y029358*
X037813Y029275*
X037748Y029178*
X037704Y029070*
X037681Y028956*
Y028839*
X037704Y028725*
X037714Y028699*
X037093Y028078*
X037038Y027995*
X037018Y027898*
Y023503*
X036461Y022946*
X036369Y022984*
Y023493*
X035578*
Y022702*
X036087*
X036125Y022610*
X035268Y021753*
X028779*
X028328Y022203*
Y023698*
X028309Y023795*
X028253Y023878*
X025553Y026578*
X025471Y026633*
X025373Y026653*
X024373*
X024349Y026648*
X024323*
X024300Y026638*
X024276Y026633*
X024255Y026619*
X024232Y026610*
X024214Y026592*
X024193Y026578*
X024179Y026557*
X024161Y026539*
X024152Y026516*
X024138Y026495*
X024133Y026471*
X024123Y026447*
Y026422*
X024118Y026398*
Y025748*
X024123Y025723*
Y025698*
X024133Y025675*
X024138Y025650*
X024152Y025629*
X024161Y025606*
X024179Y025588*
X024193Y025567*
X024214Y025553*
X024232Y025536*
X024255Y025526*
X024276Y025512*
X024300Y025507*
X024323Y025498*
X024349*
X024373Y025493*
X024398Y025498*
X024423*
X024446Y025507*
X024471Y025512*
X024492Y025526*
X024515Y025536*
X024533Y025553*
X024553Y025567*
X024567Y025588*
X024585Y025606*
X024595Y025629*
X024609Y025650*
X024614Y025675*
X024623Y025698*
Y025723*
X024628Y025748*
Y026143*
X025268*
X027818Y023592*
Y023159*
X027723Y023147*
X027714Y023171*
X027709Y023195*
X027695Y023216*
X027685Y023239*
X027667Y023257*
X027653Y023278*
X027633Y023292*
X027615Y023310*
X027592Y023319*
X027571Y023333*
X027546Y023338*
X027523Y023348*
X027498*
X027473Y023353*
X027449Y023348*
X027424*
X027400Y023338*
X027376Y023333*
X027355Y023319*
X027332Y023310*
X027314Y023292*
X027293Y023278*
X027279Y023257*
X027261Y023239*
X027252Y023216*
X027238Y023195*
X027233Y023171*
X027223Y023147*
Y023122*
X027218Y023098*
Y020498*
X027238Y020400*
X027293Y020317*
X027893Y019717*
X027976Y019662*
X028073Y019643*
X032073*
X032098Y019648*
X032123*
X032146Y019657*
X032171Y019662*
X032192Y019676*
X032215Y019686*
X032233Y019703*
X032253Y019717*
X033279Y020743*
X035673*
X035771Y020762*
X035853Y020817*
X039453Y024417*
X039509Y024500*
X039528Y024598*
Y029298*
X039509Y029395*
X039453Y029478*
X038853Y030078*
X038771Y030133*
X038673Y030153*
X037079*
X036353Y030878*
X036333Y030892*
X036315Y030910*
X036292Y030919*
X036271Y030933*
X036246Y030938*
X036223Y030948*
X036198*
X036173Y030953*
X035928*
Y037464*
X035909Y037561*
X035853Y037644*
X035203Y038294*
X035182Y038308*
X035165Y038326*
X035142Y038335*
X035121Y038349*
X035096Y038354*
X035073Y038364*
X035048*
X035023Y038369*
G37*
G36*
X038332Y027474D02*
X038215D01*
X038101Y027451*
X037993Y027407*
X037896Y027342*
X037813Y027259*
X037748Y027162*
X037704Y027055*
X037681Y026940*
Y026824*
X037704Y026709*
X037748Y026601*
X037813Y026504*
X037896Y026422*
X037993Y026357*
X038101Y026313*
X038215Y026290*
X038332*
X038446Y026313*
X038554Y026357*
X038651Y026422*
X038733Y026504*
X038798Y026601*
X038843Y026709*
X038865Y026824*
Y026940*
X038843Y027055*
X038798Y027162*
X038733Y027259*
X038651Y027342*
X038554Y027407*
X038446Y027451*
X038332Y027474*
G37*
G36*
X024173Y023249D02*
Y022966D01*
X024456*
X024442Y023019*
X024390Y023109*
X024316Y023182*
X024226Y023234*
X024173Y023249*
G37*
G36*
X023973D02*
X023921Y023234D01*
X023831Y023182*
X023757Y023109*
X023705Y023019*
X023691Y022966*
X023973*
Y023249*
G37*
G36*
X024456Y022766D02*
X024173D01*
Y022484*
X024226Y022498*
X024316Y022550*
X024390Y022623*
X024442Y022714*
X024456Y022766*
G37*
G36*
X023973D02*
X023691D01*
X023705Y022714*
X023757Y022623*
X023831Y022550*
X023921Y022498*
X023973Y022484*
Y022766*
G37*
G36*
X024469Y021293D02*
X023678D01*
Y020502*
X024469*
Y021293*
G37*
G36*
X036073Y020480D02*
Y020198D01*
X036356*
X036342Y020250*
X036290Y020340*
X036216Y020414*
X036126Y020466*
X036073Y020480*
G37*
G36*
X035073D02*
Y020198D01*
X035356*
X035342Y020250*
X035290Y020340*
X035216Y020414*
X035126Y020466*
X035073Y020480*
G37*
G36*
X034073D02*
Y020198D01*
X034356*
X034342Y020250*
X034290Y020340*
X034216Y020414*
X034126Y020466*
X034073Y020480*
G37*
G36*
X035873D02*
X035821Y020466D01*
X035731Y020414*
X035657Y020340*
X035605Y020250*
X035591Y020198*
X035873*
Y020480*
G37*
G36*
X034873D02*
X034821Y020466D01*
X034731Y020414*
X034657Y020340*
X034605Y020250*
X034591Y020198*
X034873*
Y020480*
G37*
G36*
X033873D02*
X033821Y020466D01*
X033731Y020414*
X033657Y020340*
X033605Y020250*
X033591Y020198*
X033873*
Y020480*
G37*
G36*
X039062Y021732D02*
X038891D01*
X038724Y021699*
X038566Y021634*
X038424Y021539*
X038304Y021418*
X038209Y021276*
X038144Y021119*
X038110Y020951*
Y020781*
X038144Y020614*
X038209Y020456*
X038304Y020314*
X038424Y020193*
X038566Y020099*
X038724Y020033*
X038891Y020000*
X039062*
X039229Y020033*
X039387Y020099*
X039529Y020193*
X039649Y020314*
X039744Y020456*
X039809Y020614*
X039843Y020781*
Y020951*
X039809Y021119*
X039744Y021276*
X039649Y021418*
X039529Y021539*
X039387Y021634*
X039229Y021699*
X039062Y021732*
G37*
G36*
X036356Y019998D02*
X036073D01*
Y019715*
X036126Y019729*
X036216Y019781*
X036290Y019855*
X036342Y019945*
X036356Y019998*
G37*
G36*
X035356D02*
X035073D01*
Y019715*
X035126Y019729*
X035216Y019781*
X035290Y019855*
X035342Y019945*
X035356Y019998*
G37*
G36*
X034356D02*
X034073D01*
Y019715*
X034126Y019729*
X034216Y019781*
X034290Y019855*
X034342Y019945*
X034356Y019998*
G37*
G36*
X035873D02*
X035591D01*
X035605Y019945*
X035657Y019855*
X035731Y019781*
X035821Y019729*
X035873Y019715*
Y019998*
G37*
G36*
X034873D02*
X034591D01*
X034605Y019945*
X034657Y019855*
X034731Y019781*
X034821Y019729*
X034873Y019715*
Y019998*
G37*
G36*
X033873D02*
X033591D01*
X033605Y019945*
X033657Y019855*
X033731Y019781*
X033821Y019729*
X033873Y019715*
Y019998*
G37*
%LNde-260924-3*%
%LPD*%
G54D14*
X034773Y024498D02*
X035173Y024098D01*
X030173Y025107D02*
X030782Y024498D01*
X034773*
X034673Y024298D02*
X034973Y023998D01*
X030673Y024298D02*
X034673D01*
X029773Y025198D02*
X030673Y024298D01*
X035735Y024698D02*
X035900Y024863D01*
X030473Y025098D02*
X030873Y024698D01*
X035735*
X030673Y025214D02*
X030990Y024898D01*
X035273D02*
X035773Y025398D01*
X030990Y024898D02*
X035273D01*
X035173Y023380D02*
Y024098D01*
X034973Y023180D02*
X035173Y023380D01*
X030673Y025214D02*
Y028722D01*
X029773Y025198D02*
Y028198D01*
X030473Y025098D02*
Y028498D01*
X031473Y028698D02*
X031835Y028336D01*
X031473Y039098D02*
X032373Y039998D01*
X031473Y028698D02*
Y039098D01*
X031273Y028576D02*
X031473Y028376D01*
Y028243D02*
Y028376D01*
X031430Y028104D02*
X031468Y028142D01*
X031056Y028211D02*
Y039580D01*
X031468Y028142D02*
Y028238D01*
X031273Y039398D02*
X032273Y040398D01*
X031273Y028576D02*
Y039398D01*
X031468Y028238D02*
X031473Y028243D01*
X031045Y028201D02*
X031056Y028211D01*
Y039580D02*
X032273Y040798D01*
X031835Y028236D02*
X031986Y028085D01*
X031835Y028236D02*
Y028336D01*
X031986Y028077D02*
Y028085D01*
X032673Y027371D02*
Y031998D01*
Y027371D02*
X032710Y027334D01*
X032273Y032398D02*
X032673Y031998D01*
X032273Y035098D02*
X033173Y034198D01*
Y027298D02*
Y034198D01*
X032271Y035098D02*
X032273D01*
X036253Y028377D02*
Y029698D01*
X035773Y027898D02*
X036253Y028377D01*
X035773Y025398D02*
Y027898D01*
X030297Y029098D02*
X030673Y028722D01*
X029773Y028798D02*
Y028822D01*
X030049Y029098*
X030297*
X030173Y025107D02*
Y028198D01*
Y028798D02*
X030473Y028498D01*
X034973Y023098D02*
Y023180D01*
X029873Y023898D02*
X034573D01*
X034973Y023698D02*
Y023998D01*
X034773Y023498D02*
X034973Y023698D01*
X034373Y023498D02*
X034773D01*
X033973Y023098D02*
X034373Y023498D01*
X028673Y025098D02*
Y027698D01*
Y025098D02*
X029873Y023898D01*
X032273Y040798D02*
X032573D01*
X032273Y040398D02*
X032573D01*
X032373Y039998D02*
X035273D01*
X036373Y041098*
G54D75*
X035673Y030698D02*
X036173D01*
X035023Y038114D02*
X035673Y037464D01*
Y030698D02*
Y037464D01*
X036173Y030698D02*
X036973Y029898D01*
X032310Y027168D02*
Y027667D01*
X031873Y028898D02*
X032386Y028385D01*
X032310Y027667D02*
X032386Y027743D01*
Y028385*
X032310Y027168D02*
X033973Y025505D01*
X031873Y028898D02*
Y029098D01*
X030173Y031098D02*
X030673Y030598D01*
X030173Y031098D02*
Y032198D01*
X032073Y019898D02*
X033173Y020998D01*
X035673*
X035373Y021498D02*
X037273Y023398D01*
X028073Y022098D02*
X028673Y021498D01*
X035373*
X024373Y025748D02*
Y026398D01*
X025373*
X028073Y023698*
Y022098D02*
Y023698D01*
X037273Y023398D02*
Y027898D01*
X038273Y028898*
X039273Y024598D02*
Y029298D01*
X035673Y020998D02*
X039273Y024598D01*
X038673Y029898D02*
X039273Y029298D01*
X036973Y029898D02*
X038673D01*
X027473Y020498D02*
Y023098D01*
Y020498D02*
X028073Y019898D01*
X032073*
X031873Y029098D02*
Y033298D01*
X032273Y033698*
G54D76*
X021973Y029298D02*
Y030138D01*
X021016Y031095D02*
X021973Y030138D01*
X019973Y035098D02*
X020273Y034798D01*
X019973Y035098D02*
Y035898D01*
X020273Y034798D02*
X023073D01*
X024173Y035898*
X025273*
G54D80*
X021505Y039698D02*
Y041186D01*
Y038209D02*
Y039698D01*
X018273D02*
X021505D01*
X017773Y039198D02*
X018273Y039698D01*
X017773Y036298D02*
Y039198D01*
X015673Y035398D02*
X016873D01*
X017773Y036298*
G54D84*
X038273Y032898D03*
Y030898D03*
Y028898D03*
Y034913D03*
Y036882D03*
Y024913D03*
Y026882D03*
X019520Y041186D03*
X021505D03*
X023489D03*
X019520Y038209D03*
X021505D03*
X023489D03*
X029442Y041186D03*
Y038209D03*
G54D85*
X028273Y031498D03*
Y032498D03*
X025273Y031498D03*
X030173Y033198D03*
X034973Y023098D03*
X033973D03*
X035973Y020098D03*
X034973D03*
X033973D03*
X030173Y035898D03*
X028673Y028698D03*
Y027698D03*
G54D86*
X025273Y032498D03*
G54D87*
X025273Y035898D03*
Y034898D03*
Y033898D03*
X028273Y035898D03*
Y034898D03*
G54D88*
X028273Y033898D03*
G54D89*
X030173Y032198D03*
X035973Y023098D03*
X024073Y020898D03*
X030173Y034898D03*
X028673Y029698D03*
G54D90*
X019973Y035898D03*
X020973D03*
G54D91*
X021973Y035898D03*
G54D92*
X024073Y022866D03*
G54D93*
X015673Y037898D03*
Y035398D03*
Y032898D03*
Y030398D03*
Y023898D03*
Y026398D03*
G54D94*
X038976Y040551D03*
X016142D03*
Y020866D03*
X038976D03*
G54D95*
X035673Y030698D03*
X036173D03*
X031045Y028201D03*
X031430Y028104D03*
X031986Y028077D03*
X032710Y027334D03*
X033173Y027298D03*
X033973Y025505D03*
X030673Y030598D03*
X035023Y038114D03*
X034873Y035998D03*
X032271Y035098D03*
X024373Y026398D03*
Y025748D03*
X032073Y019898D03*
X027473Y023098D03*
X032273Y033698D03*
X031873Y029098D03*
X036253Y029698D03*
X035900Y024863D03*
X030173Y028798D03*
X029773D03*
X034573Y023898D03*
X030173Y028198D03*
X029773D03*
X032273Y032398D03*
X032573Y040798D03*
Y040398D03*
X036373Y041098D03*
X021016Y031095D03*
X021973Y029298D03*
M02*