%FSDAX24Y24*%
%MOIN*%
%SFA1B1*%

%IPPOS*%
%ADD40R,0.047400X0.051300*%
%ADD41R,0.141900X0.071000*%
%ADD42R,0.039500X0.039500*%
%ADD43R,0.051300X0.047400*%
%ADD44R,0.059200X0.067100*%
%ADD45R,0.071000X0.141900*%
%ADD46O,0.031600X0.094600*%
%ADD47R,0.067100X0.059200*%
%ADD48R,0.029700X0.065100*%
%ADD49R,0.031600X0.059200*%
%ADD50R,0.059200X0.023700*%
%ADD51R,0.039500X0.071000*%
%ADD52R,0.067100X0.031600*%
%ADD53R,0.141800X0.051200*%
%ADD54R,0.051300X0.069000*%
%ADD55R,0.051300X0.069000*%
%ADD56R,0.143800X0.069000*%
%ADD57R,0.047400X0.035600*%
%ADD58R,0.098600X0.098600*%
%ADD59R,0.065100X0.029700*%
%ADD60R,0.071000X0.039500*%
%ADD61R,0.078800X0.149700*%
%ADD62O,0.021800X0.078900*%
%ADD63C,0.106400*%
%ADD64C,0.067100*%
%ADD65R,0.067100X0.067100*%
%ADD66O,0.106400X0.055200*%
%ADD67R,0.106400X0.055200*%
%ADD68R,0.067100X0.067100*%
%ADD69C,0.071000*%
%ADD70R,0.071000X0.071000*%
%ADD71C,0.067100*%
%ADD72C,0.165500*%
%ADD73C,0.068000*%
%ADD74C,0.038000*%
%LNde-260924-1*%
%LPD*%
G54D40*
X037173Y022763D03*
Y023432D03*
X029173Y033163D03*
Y033832D03*
X032473Y029132D03*
Y028463D03*
X031773Y032332D03*
Y031663D03*
X031073Y032332D03*
Y031663D03*
X031773Y034463D03*
Y035132D03*
X031073D03*
Y034463D03*
X035773Y039932D03*
Y039263D03*
X036373D03*
Y039932D03*
Y026132D03*
Y025463D03*
Y024832D03*
Y024163D03*
X029673Y025863D03*
Y026532D03*
Y022132D03*
Y021463D03*
X024473Y032632D03*
Y031963D03*
G54D41*
X035873Y032905D03*
Y031291D03*
G54D42*
X033978Y030498D03*
X034569D03*
G54D43*
X033108Y029898D03*
X032439D03*
X033808Y028398D03*
X033139D03*
X033808Y027798D03*
X033139D03*
X035708Y023898D03*
X035039D03*
X031808Y033098D03*
X031139D03*
Y033698D03*
X031808D03*
Y035898D03*
X031139D03*
Y036498D03*
X031808D03*
X031708Y037098D03*
X031039D03*
X031708Y037798D03*
X031039D03*
X035739Y040598D03*
X036408D03*
Y038598D03*
X035739D03*
X036208Y029198D03*
X035539D03*
X035639Y026898D03*
X036308D03*
X034339D03*
X035008D03*
X032708Y019498D03*
X032039D03*
X030639D03*
X031308D03*
X027339Y020698D03*
X028008D03*
X027339Y020098D03*
X028008D03*
X019539Y028198D03*
X020208D03*
X020939D03*
X021608D03*
X024808D03*
X024139D03*
X032439Y030498D03*
X033108D03*
G54D44*
X033947Y029098D03*
X033199D03*
X022899Y032398D03*
X023647D03*
X021947D03*
X021199D03*
X020347D03*
X019599D03*
X020499Y033898D03*
X021247D03*
X023499D03*
X024247D03*
X021999D03*
X022747D03*
G54D45*
X023580Y026098D03*
X021966D03*
G54D46*
X024323Y030943D03*
X023823D03*
X023323D03*
X022823D03*
X024323Y029053D03*
X023823D03*
X023323D03*
X022823D03*
X033523Y038753D03*
X034023D03*
X034523D03*
X035023D03*
X033523Y040643D03*
X034023D03*
X034523D03*
X035023D03*
G54D47*
X018073Y032024D03*
Y032772D03*
Y030424D03*
Y031172D03*
Y033524D03*
Y034272D03*
X036173Y036924D03*
Y037672D03*
Y035072D03*
Y034324D03*
X019573Y033224D03*
Y033972D03*
G54D48*
X031073Y040635D03*
Y041560D03*
X025173Y030460D03*
Y029535D03*
G54D49*
X030999Y038584D03*
X031747D03*
X031373Y039411D03*
X036247Y028511D03*
X035499D03*
X035873Y027684D03*
G54D50*
X036128Y035742D03*
Y036254D03*
X035419Y035998D03*
G54D51*
X035373Y024859D03*
Y026198D03*
G54D52*
X030399Y026098D03*
X031147Y026472D03*
Y025724D03*
G54D53*
X029015Y025068D03*
X026912D03*
X031932Y025069D03*
X034034D03*
G54D54*
X030568Y020469D03*
G54D55*
X031473Y020469D03*
X032379D03*
G54D56*
X031473Y023126D03*
G54D57*
X028673Y020598D03*
Y020224D03*
Y019850D03*
X029697Y020598D03*
Y020224D03*
Y019850D03*
G54D58*
X020659Y024598D03*
X018887D03*
X020659Y023098D03*
X018887D03*
X018787Y021498D03*
X020559D03*
X018787Y026098D03*
X020559D03*
G54D59*
X019311Y031498D03*
X020236D03*
X021936D03*
X021011D03*
Y030498D03*
X021936D03*
X020236D03*
X019311D03*
X022511Y028198D03*
X023436D03*
G54D60*
X021243Y029298D03*
X019904D03*
G54D61*
X027497Y021974D03*
X028915D03*
G54D62*
X031825Y029820D03*
X031569D03*
X031313D03*
X031057D03*
X030801D03*
X030545D03*
X030289D03*
X030033D03*
X029778D03*
X029522D03*
X031825Y027576D03*
X031569D03*
X031313D03*
X031057D03*
X030801D03*
X030545D03*
X030289D03*
X030033D03*
X029778D03*
X029522D03*
G54D63*
X038273Y032898D03*
Y030898D03*
Y028898D03*
Y034913D03*
Y036882D03*
Y024913D03*
Y026882D03*
X019520Y041186D03*
X021505D03*
X023489D03*
X019520Y038209D03*
X021505D03*
X023489D03*
X029442Y041186D03*
Y038209D03*
G54D64*
X028273Y031498D03*
Y032498D03*
X025273Y031498D03*
X030173Y033198D03*
X034973Y023098D03*
X033973D03*
X035973Y020098D03*
X034973D03*
X033973D03*
X030173Y035898D03*
X028673Y028698D03*
Y027698D03*
G54D65*
X025273Y032498D03*
G54D66*
X025273Y035898D03*
Y034898D03*
Y033898D03*
X028273Y035898D03*
Y034898D03*
G54D67*
X028273Y033898D03*
G54D68*
X030173Y032198D03*
X035973Y023098D03*
X024073Y020898D03*
X030173Y034898D03*
X028673Y029698D03*
G54D69*
X019973Y035898D03*
X020973D03*
G54D70*
X021973Y035898D03*
G54D71*
X024073Y022866D03*
G54D72*
X015673Y037898D03*
Y035398D03*
Y032898D03*
Y030398D03*
Y023898D03*
Y026398D03*
G54D73*
X038976Y040551D03*
X016142D03*
Y020866D03*
X038976D03*
G54D74*
X035673Y030698D03*
X036173D03*
X031045Y028201D03*
X031430Y028104D03*
X031986Y028077D03*
X032710Y027334D03*
X033173Y027298D03*
X033973Y025505D03*
X030673Y030598D03*
X035023Y038114D03*
X034873Y035998D03*
X032271Y035098D03*
X024373Y026398D03*
Y025748D03*
X032073Y019898D03*
X027473Y023098D03*
X032273Y033698D03*
X031873Y029098D03*
X036253Y029698D03*
X035900Y024863D03*
X030173Y028798D03*
X029773D03*
X034573Y023898D03*
X030173Y028198D03*
X029773D03*
X032273Y032398D03*
X032573Y040798D03*
Y040398D03*
X036373Y041098D03*
X021016Y031095D03*
X021973Y029298D03*
M02*