%FSDAX24Y24*%
%MOIN*%
%SFA1B1*%

%IPPOS*%
%ADD10C,0.023600*%
%ADD11C,0.009800*%
%ADD12C,0.007900*%
%ADD13C,0.015700*%
%ADD14C,0.010000*%
%ADD15C,0.006000*%
%ADD16C,0.008000*%
%ADD100C,0.005000*%
%LNde-260924-1*%
%LPD*%
G54D100*
X029160Y024457D02*
X028898D01*
Y024485*
X029160*
Y024457*
X026912Y024485D02*
X027029D01*
Y024457*
X026912*
Y024236*
X026884*
Y024457*
X026767*
Y024485*
X026884*
Y024706*
X026912*
Y024485*
G54D14*
X026862Y024435D02*
X026979D01*
Y024507*
X026862*
Y024286*
X026934*
Y024507*
X026817*
Y024435*
X026934*
Y024656*
X026862*
Y024435*
G54D100*
X032049Y025652D02*
X031787D01*
Y025680*
X032049*
Y025652*
X034062Y025680D02*
X034179D01*
Y025652*
X034062*
Y025431*
X034034*
Y025652*
X033918*
Y025680*
X034034*
Y025901*
X034062*
Y025680*
G54D14*
X034012Y025630D02*
X034129D01*
Y025702*
X034012*
Y025481*
X034084*
Y025702*
X033968*
Y025630*
X034084*
Y025851*
X034012*
Y025630*
G54D100*
X025565Y019331D02*
X025617D01*
Y019359*
X025565*
Y019307*
X025593*
Y019359*
X025541*
Y019331*
X025593*
Y019383*
X025565*
Y019331*
X025615Y019381D02*
X025567D01*
Y019309*
X025615*
Y019357*
X025543*
Y019309*
X025591*
Y019381*
X025543*
Y019333*
X025615*
Y019381*
X025550Y019330D02*
X025620D01*
X035288Y036358D02*
X035302Y036346D01*
Y036374*
X035289Y036361*
X035281Y036328*
X035303*
Y036374*
X035219*
Y036363*
X035294Y036470*
X035276*
X035288Y036358*
X035250Y036380D02*
Y036400D01*
X039681Y038156D02*
X039695Y038144D01*
Y038173*
X039682Y038160*
X039674Y038127*
X039696*
Y038173*
X039612*
Y038161*
X039687Y038268*
X039669*
X039681Y038156*
X039640Y038180D02*
Y038200D01*
X039690Y038140D02*
Y038160D01*
X033892Y029856D02*
X033906Y029844D01*
Y029873*
X033893Y029860*
X033885Y029827*
X033907*
Y029873*
X033823*
Y029861*
X033898Y029968*
X033880*
X033892Y029856*
X033850Y029880D02*
Y029900D01*
X033900Y029840D02*
Y029860D01*
X036563Y023658D02*
X036577Y023646D01*
Y023674*
X036564Y023661*
X036556Y023628*
X036577*
Y023674*
X036494*
Y023663*
X036569Y023770*
X036551*
X036563Y023658*
X036520Y023680D02*
Y023700D01*
X036570Y023640D02*
Y023660D01*
X032598Y030985D02*
X032612Y030973D01*
Y031001*
X032599Y030988*
X032591Y030955*
X032613*
Y031001*
X032529*
Y030990*
X032604Y031097*
X032586*
X032598Y030985*
X032560Y031010D02*
Y031030D01*
X019763Y027756D02*
X019777Y027744D01*
Y027772*
X019764Y027759*
X019756Y027726*
X019777*
Y027772*
X019694*
Y027761*
X019769Y027868*
X019751*
X019763Y027756*
X019720Y027780D02*
Y027800D01*
X019770Y027740D02*
Y027760D01*
X018769Y034470D02*
X018771D01*
X018768*
X018772Y034469*
X018773Y034469*
X018776Y034468*
X018783Y034465*
X018784Y034464*
X018786Y034463*
X018783Y034472*
X018787Y034462*
X018788Y034461*
X018789Y034460*
X018790Y034459*
X018790Y034458*
X018792Y034454*
X018794Y034450*
X018795Y034449*
Y034449*
Y034445*
Y034443*
Y034444*
X018794Y034440*
X018794Y034441*
X018792Y034437*
X018789Y034427*
X018790Y034433*
X018797Y034440*
X018792Y034438*
X018789Y034434*
X018786Y034431*
X018747Y034416*
X018784Y034384*
X018794Y034381*
X018789Y034382*
X018783Y034383*
X018790Y034379*
X018791Y034379*
X018796Y034375*
X018798Y034373*
X018797Y034374*
X018798Y034373*
X018799Y034370*
X018801Y034365*
X018803Y034361*
Y034358*
Y034357*
Y034355*
Y034363*
X018802Y034362*
Y034349*
Y034350*
X018802Y034350*
X018800Y034344*
X018799Y034344*
X018797Y034340*
X018796Y034338*
X018792Y034333*
X018794Y034335*
X018788Y034332*
X018787Y034330*
X018792Y034333*
X018789Y034332*
X018784Y034328*
X018785Y034329*
X018779Y034327*
X018775Y034325*
X018772Y034325*
X018765Y034324*
X018765Y034325*
X018762*
X018760*
X018762*
X018758Y034325*
X018754Y034326*
X018747Y034328*
X018745Y034328*
X018744Y034329*
X018742Y034330*
X018737Y034333*
X018740Y034325*
X018729Y034333*
X018754Y034316*
X018734Y034335*
X018736Y034333*
X018735Y034335*
X018733Y034337*
X018733Y034337*
X018732Y034339*
X018731Y034341*
X018729Y034344*
X018726Y034350*
X018727Y034351*
X018727Y034352*
Y034354*
Y034358*
Y034359*
Y034360*
Y034361*
Y034363*
X018727Y034363*
X018728Y034369*
X018729Y034369*
X018730Y034372*
X018734Y034382*
X018722Y034373*
X018772Y034414*
X018732Y034375*
X018732Y034375*
X018736Y034378*
X018739Y034380*
X018741Y034407*
X018734Y034444*
X018749Y034429*
X018744Y034431*
X018742Y034432*
X018740Y034433*
X018739Y034434*
X018734Y034439*
X018735Y034437*
X018737Y034435*
X018736Y034437*
X018736Y034436*
X018735Y034441*
X018734Y034443*
X018734Y034444*
X018734Y034447*
X018733Y034442*
X018734Y034446*
X018735Y034451*
Y034453*
X018734Y034451*
X018735Y034453*
X018739Y034460*
X018739Y034461*
X018737Y034459*
X018749Y034474*
X018734Y034461*
X018742Y034471*
X018722Y034443*
X018724Y034450*
X018719Y034440*
X018745Y034466*
X018743Y034464*
X018748Y034466*
X018748Y034467*
X018750Y034467*
X018754Y034468*
X018758Y034470*
X018763*
X018767Y034471*
X018758Y034474*
X018769Y034470*
X018750Y034340D02*
Y034410D01*
Y034440D02*
Y034470D01*
X019088Y033956D02*
X019102Y033944D01*
Y033973*
X019089Y033960*
X019081Y033927*
X019103*
Y033973*
X019019*
Y033961*
X019094Y034068*
X019076*
X019088Y033956*
X019050Y033980D02*
Y034000D01*
X021845Y024211D02*
X021859Y024199D01*
Y024227*
X021846Y024214*
X021838Y024181*
X021859*
Y024227*
X021776*
Y024216*
X021851Y024323*
X021833*
X021845Y024211*
X021810Y024240D02*
Y024260D01*
X034420Y029969D02*
X034429Y029969D01*
X034435Y029968*
X034440Y029967*
X034445Y029967*
X034437Y029970*
X034469Y029957*
X034443Y029965*
X034446Y029964*
X034451Y029961*
X034453Y029960*
X034462Y029956*
X034456Y029959*
X034456Y029959*
X034457Y029958*
X034461Y029954*
X034463Y029950*
X034467Y029945*
X034469Y029941*
X034472Y029934*
X034471Y029938*
X034472Y029932*
X034472Y029934*
Y029933*
X034474Y029927*
X034475Y029924*
X034475Y029921*
X034477Y029915*
Y029907*
X034478Y029898*
X034478Y029899*
Y029897*
X034478Y029901*
X034477Y029892*
X034476Y029881*
Y029878*
X034475Y029875*
X034472Y029864*
X034472Y029860*
Y029859*
X034472Y029860*
X034472Y029862*
X034471Y029862*
X034469Y029857*
X034467Y029854*
X034462Y029845*
X034462Y029845*
X034463Y029846*
X034459Y029842*
X034456Y029837*
X034456Y029838*
X034461Y029839*
X034452Y029837*
X034450Y029835*
X034448Y029834*
X034448Y029834*
X034448Y029834*
X034441Y029831*
X034440Y029830*
X034442Y029830*
X034443Y029831*
X034438Y029830*
X034429Y029829*
X034424Y029828*
X034422Y029828*
X034419Y029828*
X034413*
X034369*
Y029970*
X034418*
X034420Y029969*
X034390Y029840D02*
Y029970D01*
X034440Y029840D02*
Y029970D01*
X031594Y040869D02*
X031603Y040869D01*
X031609Y040868*
X031614Y040867*
X031619Y040867*
X031611Y040870*
X031643Y040857*
X031617Y040865*
X031620Y040865*
X031620Y040865*
X031624Y040862*
X031627Y040860*
X031636Y040856*
X031630Y040859*
X031630Y040859*
X031631Y040858*
X031637Y040851*
X031638Y040850*
X031640Y040846*
X031643Y040841*
X031646Y040834*
X031645Y040838*
X031646Y040832*
X031648Y040828*
X031647Y040832*
Y040830*
X031649Y040824*
X031649Y040821*
X031651Y040813*
X031652Y040807*
Y040800*
Y040799*
Y040798*
Y040796*
Y040794*
Y040792*
X031651Y040791*
X031650Y040783*
Y040778*
X031648Y040773*
X031648Y040772*
X031647Y040766*
X031646Y040759*
X031646Y040760*
X031646Y040762*
X031645Y040762*
X031643Y040757*
X031636Y040744*
X031647Y040751*
X031634Y040742*
X031636Y040744*
X031637Y040746*
X031633Y040742*
X031630Y040737*
X031630Y040738*
X031629Y040738*
X031627Y040737*
X031622Y040734*
X031622Y040734*
X031620Y040734*
X031614Y040729*
X031613Y040730*
X031615Y040730*
X031617Y040731*
X031612Y040730*
X031603Y040729*
X031601Y040729*
X031597*
X031591Y040728*
X031587*
X031543*
Y040870*
X031592*
X031594Y040869*
X031560Y040740D02*
Y040870D01*
X031610Y040740D02*
Y040870D01*
X018494Y036769D02*
X018503Y036769D01*
X018509Y036768*
X018514Y036767*
X018519Y036767*
X018511Y036770*
X018543Y036757*
X018517Y036765*
X018520Y036765*
X018520Y036765*
X018524Y036762*
X018527Y036760*
X018536Y036756*
X018530Y036759*
X018530Y036759*
X018531Y036758*
X018537Y036751*
X018538Y036750*
X018540Y036746*
X018543Y036741*
X018546Y036734*
X018545Y036738*
X018546Y036732*
X018548Y036728*
X018547Y036732*
Y036730*
X018549Y036724*
X018549Y036721*
X018551Y036713*
X018552Y036707*
Y036700*
Y036699*
Y036697*
Y036696*
Y036694*
Y036692*
X018551Y036691*
X018550Y036683*
Y036678*
X018548Y036673*
X018548Y036672*
X018547Y036666*
X018546Y036659*
X018546Y036660*
X018546Y036662*
X018545Y036662*
X018543Y036657*
X018536Y036644*
X018547Y036651*
X018534Y036642*
X018534Y036642*
X018536Y036646*
X018534Y036645*
X018530Y036637*
X018530Y036638*
X018529Y036638*
X018527Y036637*
X018522Y036634*
X018522Y036634*
X018520Y036634*
X018514Y036629*
X018513Y036630*
X018515Y036630*
X018517Y036631*
X018512Y036630*
X018503Y036629*
X018501Y036629*
X018497*
X018491Y036628*
X018487*
X018443*
Y036770*
X018492*
X018494Y036769*
X018460Y036640D02*
Y036770D01*
X018510Y036640D02*
Y036770D01*
X018663D02*
X018671D01*
X018668*
X018672Y036769*
X018673Y036769*
X018676Y036768*
X018683Y036765*
X018684Y036764*
X018686Y036763*
X018683Y036772*
X018687Y036762*
X018688Y036761*
X018689Y036760*
X018690Y036759*
X018691Y036758*
X018692Y036755*
X018694Y036750*
X018695Y036749*
Y036749*
Y036745*
Y036743*
Y036744*
X018694Y036740*
X018693Y036738*
X018693Y036737*
X018690Y036729*
X018692Y036735*
X018697Y036740*
X018692Y036738*
X018689Y036734*
X018686Y036731*
X018647Y036716*
X018684Y036684*
X018694Y036681*
X018689Y036682*
X018683Y036683*
X018690Y036679*
X018691Y036678*
X018696Y036675*
X018700Y036673*
X018698Y036673*
X018697Y036675*
X018698Y036672*
X018699Y036670*
X018701Y036665*
X018703Y036661*
Y036658*
Y036657*
Y036656*
Y036655*
Y036653*
X018703Y036654*
X018702Y036639*
Y036650*
X018702Y036650*
X018699Y036643*
X018699Y036642*
X018698Y036640*
X018696Y036638*
X018694Y036636*
X018702Y036638*
X018694Y036635*
X018691Y036632*
X018690Y036631*
X018691Y036632*
X018692Y036633*
X018689Y036632*
X018684Y036628*
X018685Y036629*
X018679Y036627*
X018675Y036625*
X018672Y036625*
X018665Y036624*
X018665Y036625*
X018662*
X018660*
X018662*
X018658Y036625*
X018657Y036625*
X018656Y036625*
X018647Y036628*
X018646Y036628*
X018641Y036631*
X018637Y036633*
X018640Y036625*
X018629Y036633*
X018654Y036616*
X018634Y036635*
X018636Y036633*
X018635Y036635*
X018633Y036637*
X018633Y036637*
X018632Y036639*
X018631Y036641*
X018630Y036643*
X018628Y036650*
X018628Y036650*
Y036651*
X018627Y036656*
Y036658*
Y036659*
Y036660*
Y036661*
Y036663*
X018627Y036663*
X018628Y036669*
X018629Y036669*
X018630Y036672*
X018634Y036682*
X018622Y036673*
X018672Y036714*
X018632Y036675*
X018632Y036675*
X018636Y036678*
X018639Y036680*
X018641Y036707*
X018634Y036744*
X018649Y036729*
X018644Y036731*
X018642Y036732*
X018640Y036733*
X018639Y036734*
X018634Y036739*
X018635Y036737*
X018637Y036735*
X018636Y036737*
X018636Y036736*
X018636Y036738*
X018635Y036741*
X018635Y036746*
Y036747*
Y036748*
Y036750*
Y036751*
Y036753*
X018634Y036751*
X018635Y036753*
X018638Y036758*
X018640Y036761*
X018638Y036759*
X018640Y036759*
X018632Y036757*
X018641Y036769*
X018623Y036745*
X018624Y036751*
X018625Y036754*
X018643Y036763*
X018645Y036765*
X018644Y036764*
X018647Y036766*
X018649Y036767*
X018648Y036767*
X018650Y036767*
X018654Y036768*
X018659Y036770*
X018662Y036770*
X018665Y036771*
X018661*
X018663Y036770*
X018640Y036640D02*
Y036770D01*
X018690Y036650D02*
Y036670D01*
X018994Y030969D02*
X019003Y030969D01*
X019009Y030968*
X019016Y030967*
X019008Y030967*
X019007Y030969*
X019017Y030965*
X019020Y030965*
X019020Y030965*
X019024Y030962*
X019027Y030960*
X019036Y030956*
X019030Y030959*
X019030Y030959*
X019031Y030958*
X019037Y030951*
X019039Y030949*
X019041Y030946*
X019043Y030942*
X019046Y030934*
X019045Y030938*
X019046Y030932*
X019048Y030928*
X019047Y030932*
Y030930*
X019049Y030924*
X019049Y030921*
X019051Y030913*
X019052Y030907*
Y030900*
Y030899*
Y030898*
Y030896*
Y030894*
Y030892*
X019051Y030889*
X019051Y030884*
X019050Y030879*
X019048Y030873*
X019048Y030872*
X019047Y030866*
X019046Y030859*
X019046Y030860*
X019046Y030862*
X019045Y030862*
X019043Y030857*
X019036Y030844*
X019047Y030851*
X019034Y030842*
X019034Y030842*
X019036Y030846*
X019034Y030845*
X019030Y030837*
X019030Y030838*
X019026Y030836*
X019025Y030835*
X019024Y030834*
X019022Y030834*
X019018Y030831*
X019017Y030831*
X019012Y030830*
X019003Y030829*
X019001Y030829*
X018997*
X018991Y030828*
X018987*
X018944*
Y030970*
X018992*
X018994Y030969*
X018960Y030840D02*
Y030970D01*
X019010Y030840D02*
Y030970D01*
X022197D02*
D01*
X022203Y030969*
X022208Y030968*
X022215Y030967*
X022219Y030967*
X022216*
X022216Y030966*
X022221Y030964*
X022224Y030962*
X022222Y030970*
X022224Y030964*
X022229Y030959*
X022232Y030956*
X022233Y030955*
X022234Y030955*
X022237Y030950*
X022240Y030946*
X022242Y030941*
X022243Y030943*
X022244Y030945*
X022245Y030938*
X022245Y030940*
X022246Y030934*
X022248Y030926*
X022247Y030930*
Y030929*
X022248Y030922*
X022250Y030914*
X022251Y030908*
Y030900*
Y030899*
Y030898*
Y030897*
Y030895*
Y030892*
X022250Y030885*
X022249Y030879*
X022248Y030873*
X022248Y030874*
X022246Y030867*
X022243Y030860*
X022242Y030855*
X022240Y030851*
X022235Y030841*
X022237Y030847*
X022239Y030849*
X022235Y030845*
X022233Y030844*
X022229Y030839*
X022226Y030836*
X022233Y030838*
X022224Y030835*
X022224Y030835*
X022225Y030836*
X022222Y030835*
X022221Y030834*
X022218Y030833*
X022214Y030831*
X022216Y030831*
X022207Y030828*
X022211Y030829*
X022215Y030831*
X022209*
X022205Y030830*
X022201*
X022196Y030829*
X022190*
X022184Y030828*
X022143*
Y030970*
X022192*
X022197*
X022160Y030840D02*
Y030970D01*
X022210Y030840D02*
Y030970D01*
X019576Y029644D02*
X019603D01*
Y029673*
X019576*
Y029627*
X019603*
Y029673*
X019520*
Y029661*
X019594Y029768*
X019576*
Y029644*
X019550Y029680D02*
Y029700D01*
X018994Y031969D02*
X019003Y031969D01*
X019009Y031968*
X019016Y031967*
X019008Y031967*
X019007Y031969*
X019017Y031965*
X019020Y031965*
X019020Y031965*
X019024Y031962*
X019027Y031960*
X019036Y031956*
X019030Y031959*
X019030Y031959*
X019031Y031958*
X019037Y031951*
X019039Y031949*
X019041Y031946*
X019043Y031942*
X019046Y031934*
X019045Y031938*
X019046Y031932*
X019048Y031928*
X019047Y031932*
Y031930*
X019049Y031924*
X019049Y031921*
X019051Y031913*
X019052Y031907*
Y031900*
Y031899*
Y031897*
Y031896*
Y031894*
Y031892*
X019051Y031889*
X019051Y031884*
X019050Y031879*
X019048Y031873*
X019048Y031872*
X019047Y031866*
X019046Y031859*
X019046Y031860*
X019046Y031862*
X019045Y031862*
X019043Y031857*
X019036Y031844*
X019047Y031851*
X019034Y031842*
X019034Y031842*
X019036Y031846*
X019034Y031845*
X019030Y031837*
X019030Y031838*
X019026Y031836*
X019025Y031835*
X019024Y031834*
X019022Y031834*
X019018Y031831*
X019017Y031831*
X019012Y031830*
X019003Y031829*
X019001Y031829*
X018997*
X018991Y031828*
X018987*
X018944*
Y031970*
X018992*
X018994Y031969*
X018960Y031840D02*
Y031970D01*
X019010Y031840D02*
Y031970D01*
X020698Y031968D02*
X020704D01*
X020704Y031967*
X020709Y031966*
X020715Y031965*
X020720Y031965*
X020712Y031968*
X020722Y031964*
X020719*
X020723Y031962*
X020725Y031961*
X020730Y031958*
X020738Y031954*
X020730Y031957*
X020731Y031957*
X020732Y031956*
X020735Y031953*
X020737Y031951*
X020739Y031948*
X020742Y031944*
X020744Y031940*
X020744Y031942*
X020748Y031933*
X020746Y031938*
Y031934*
X020749Y031926*
X020748Y031930*
Y031930*
X020749Y031923*
X020750Y031920*
X020752Y031911*
X020753Y031905*
Y031898*
Y031897*
Y031896*
Y031894*
Y031893*
Y031890*
X020752Y031887*
X020752Y031882*
X020751Y031878*
X020749Y031871*
X020749Y031870*
X020748Y031864*
X020748Y031865*
X020747Y031863*
X020746Y031861*
X020744Y031855*
X020743Y031853*
X020740Y031848*
X020739Y031846*
X020741Y031848*
X020737Y031844*
X020736Y031842*
X020734Y031840*
X020733Y031839*
X020729Y031836*
X020725Y031832*
X020726Y031833*
X020727Y031834*
X020724Y031833*
X020722Y031831*
X020720Y031830*
X020716Y031830*
X020717Y031829*
X020718Y031829*
X020717*
X020710*
X020703Y031827*
X020702Y031827*
X020701*
X020693*
X020686Y031826*
X020644*
Y031968*
X020693*
X020698*
X020660Y031840D02*
Y031970D01*
X020710Y031840D02*
Y031970D01*
X022216Y028668D02*
D01*
X022222Y028667*
X022227Y028666*
X022234Y028665*
X022238Y028665*
X022230Y028668*
X022240Y028664*
X022237*
X022235Y028664*
X022240Y028662*
X022244Y028660*
X022248Y028658*
X022256Y028654*
X022248Y028665*
X022262Y028649*
X022250Y028654*
X022251Y028653*
X022255Y028650*
X022255Y028650*
X022260Y028643*
X022262Y028639*
X022262Y028641*
X022262Y028632*
X022264Y028631*
Y028634*
X022265Y028632*
Y028630*
X022267Y028625*
X022267Y028626*
X022267Y028623*
X022268Y028620*
X022269Y028612*
X022270Y028604*
X022271Y028596*
X022271Y028597*
Y028596*
Y028604*
X022270Y028603*
Y028590*
X022269Y028583*
X022268Y028577*
X022267Y028571*
X022265Y028562*
X022265Y028565*
X022265Y028565*
X022264Y028560*
X022263Y028558*
X022262Y028555*
X022261Y028553*
X022259Y028549*
X022254Y028539*
X022256Y028545*
X022258Y028547*
X022254Y028543*
X022251Y028538*
X022251Y028539*
X022252Y028542*
X022245Y028534*
X022252Y028536*
X022243Y028533*
X022243Y028533*
X022244Y028534*
X022241Y028533*
X022239Y028531*
X022260Y028540*
X022232Y028528*
X022236Y028529*
X022235*
X022228*
X022221Y028527*
X022217Y028526*
X022218Y028527*
X022209*
X022203Y028526*
X022162*
Y028668*
X022211*
X022216*
X022180Y028540D02*
Y028670D01*
X022230Y028550D02*
Y028670D01*
X032767Y026556D02*
X032781Y026544D01*
Y026573*
X032768Y026560*
X032760Y026527*
X032781*
Y026573*
X032698*
Y026561*
X032773Y026668*
X032755*
X032767Y026556*
X032730Y026580D02*
Y026600D01*
%LNde-260924-2*%
%LPC*%
G36*
X032006Y034151D02*
X032004D01*
X032001*
X031998Y034150*
X031995Y034149*
X031991Y034148*
X031987Y034146*
X031983Y034143*
Y034142*
X031982Y034141*
X031981Y034139*
X031979Y034137*
X031978Y034134*
X031976Y034130*
X031975Y034126*
Y034122*
Y034121*
Y034120*
Y034117*
X031976Y034114*
X031977Y034110*
X031978Y034107*
X031981Y034103*
X031983Y034100*
X031984Y034099*
X031985Y034098*
X031987Y034097*
X031990Y034095*
X031993Y034094*
X031997Y034092*
X032001Y034091*
X032006*
X032007*
X032008*
X032011Y034092*
X032014*
X032018Y034093*
X032021Y034095*
X032025Y034097*
X032029Y034100*
X032030Y034101*
X032031Y034103*
X032033Y034105*
X032035Y034109*
X032036Y034112*
X032037Y034116*
Y034121*
Y034123*
Y034125*
X032036Y034128*
X032035Y034132*
X032034Y034135*
X032031Y034139*
X032028Y034143*
X032027Y034144*
X032025Y034145*
X032022Y034147*
X032019Y034149*
X032015Y034150*
X032011Y034151*
X032006*
G37*
G36*
X032005Y034072D02*
X032004D01*
X032003*
X031999Y034071*
X031996*
X031991Y034069*
X031987Y034067*
X031982Y034064*
X031978Y034061*
X031977Y034060*
X031976Y034059*
X031975Y034056*
X031973Y034053*
X031970Y034049*
X031969Y034045*
X031968Y034039*
X031967Y034033*
Y034032*
Y034030*
X031968Y034027*
Y034024*
X031969Y034021*
X031970Y034018*
X031972Y034014*
Y034012*
X031973Y034011*
X031975Y034009*
X031977Y034006*
X031980Y034004*
X031982Y034002*
X031986Y033999*
X031987*
X031989Y033998*
X031992Y033997*
X031995Y033996*
X031998Y033995*
X032002*
X032006Y033994*
X032008*
X032009Y033995*
X032012*
X032016Y033996*
X032021Y033997*
X032025Y033999*
X032030Y034002*
X032034Y034005*
X032035Y034006*
X032036Y034007*
X032038Y034010*
X032040Y034013*
X032042Y034017*
X032044Y034021*
X032045Y034027*
Y034033*
Y034034*
Y034035*
Y034038*
X032044Y034043*
X032042Y034047*
X032040Y034051*
X032038Y034056*
X032034Y034061*
X032033*
X032032Y034062*
X032029Y034064*
X032026Y034066*
X032022Y034068*
X032017Y034070*
X032011Y034071*
X032005Y034072*
G37*
G36*
X035278Y036457D02*
X035217Y036371D01*
X035278*
Y036457*
G37*
G36*
X039506Y023671D02*
X039451D01*
Y023602*
X039503*
X039505Y023603*
X039507*
X039509*
X039514*
X039520Y023605*
X039526Y023606*
X039531Y023608*
X039534Y023610*
X039536Y023611*
Y023612*
X039537Y023613*
X039539Y023615*
X039541Y023618*
X039543Y023622*
X039544Y023626*
X039546Y023631*
Y023637*
Y023638*
Y023639*
Y023641*
X039545Y023644*
Y023647*
X039544Y023651*
X039542Y023654*
X039540Y023657*
Y023658*
X039539Y023659*
X039537Y023660*
X039536Y023662*
X039533Y023664*
X039531Y023666*
X039528Y023667*
X039524Y023669*
X039523*
X039521*
X039519Y023670*
X039515*
X039511*
X039506Y023671*
G37*
G36*
X036559Y033707D02*
X036557D01*
X036556Y033706*
X036554*
X036550Y033705*
X036546Y033704*
X036541Y033702*
X036536Y033699*
X036532Y033695*
X036531Y033694*
X036530Y033693*
X036528Y033691*
X036526Y033687*
X036524Y033683*
X036523Y033678*
X036521Y033672*
Y033665*
Y033663*
Y033661*
Y033658*
X036522Y033654*
X036523Y033650*
X036524Y033646*
X036526Y033642*
Y033641*
X036527Y033640*
X036528Y033638*
X036530Y033635*
X036532Y033633*
X036534Y033630*
X036537Y033627*
X036540Y033625*
X036541*
X036542Y033624*
X036544Y033623*
X036546Y033622*
X036549Y033621*
X036552Y033620*
X036556Y033619*
X036560*
X036561*
X036562*
X036565Y033620*
X036569*
X036573Y033622*
X036577Y033624*
X036582Y033627*
X036584Y033629*
X036586Y033631*
Y033632*
X036587Y033633*
X036589Y033636*
X036591Y033640*
X036593Y033644*
X036595Y033650*
X036596Y033656*
Y033664*
Y033665*
Y033666*
Y033667*
Y033669*
Y033671*
X036595Y033675*
X036594Y033680*
X036592Y033685*
X036589Y033690*
X036586Y033695*
X036585Y033696*
X036584Y033697*
X036582Y033699*
X036578Y033701*
X036575Y033703*
X036570Y033705*
X036565Y033706*
X036559Y033707*
G37*
G36*
X036406Y033772D02*
X036351D01*
Y033704*
X036403*
X036405*
X036407*
X036409*
X036414Y033705*
X036420Y033706*
X036426Y033707*
X036431Y033710*
X036434Y033711*
X036436Y033713*
X036437Y033714*
X036439Y033717*
X036441Y033719*
X036443Y033723*
X036444Y033727*
X036446Y033732*
Y033738*
Y033739*
Y033740*
Y033743*
X036445Y033745*
Y033748*
X036444Y033752*
X036442Y033755*
X036440Y033759*
X036439Y033760*
X036437Y033761*
X036436Y033763*
X036433Y033765*
X036431Y033767*
X036428Y033769*
X036424Y033770*
X036423*
X036421Y033771*
X036419*
X036415*
X036411Y033772*
X036406*
G37*
G36*
X039671Y038255D02*
X039610Y038169D01*
X039671*
Y038255*
G37*
G36*
X039507Y038271D02*
X039452D01*
Y038202*
X039503*
X039505Y038203*
X039507*
X039509*
X039515*
X039520Y038205*
X039526Y038206*
X039532Y038208*
X039534Y038210*
X039536Y038211*
X039537Y038212*
X039538Y038213*
X039539Y038215*
X039541Y038218*
X039543Y038222*
X039545Y038226*
X039546Y038231*
Y038237*
Y038238*
Y038239*
Y038241*
Y038244*
X039545Y038247*
X039544Y038251*
X039542Y038254*
X039540Y038257*
Y038258*
X039539Y038259*
X039538Y038260*
X039536Y038262*
X039534Y038264*
X039531Y038266*
X039528Y038267*
X039524Y038269*
X039523*
X039521*
X039519Y038270*
X039516*
X039512*
X039507Y038271*
G37*
G36*
X032045Y031205D02*
X032043D01*
X032042*
X032039*
X032035Y031204*
X032031Y031203*
X032026Y031200*
X032022Y031198*
X032018Y031194*
X032017Y031193*
X032016Y031192*
X032014Y031189*
X032012Y031186*
X032010Y031182*
X032008Y031176*
X032007Y031170*
X032006Y031164*
Y031163*
Y031162*
X032007Y031159*
Y031156*
X032008Y031153*
X032009Y031149*
X032010Y031145*
X032011Y031141*
X032012Y031140*
X032013Y031139*
X032014Y031137*
X032015Y031134*
X032017Y031132*
X032020Y031129*
X032023Y031126*
X032026Y031124*
Y031123*
X032028*
X032029Y031122*
X032032Y031121*
X032035Y031120*
X032038Y031119*
X032042Y031118*
X032046*
X032047*
X032048*
X032051*
X032054Y031119*
X032058Y031121*
X032063Y031123*
X032067Y031126*
X032069Y031128*
X032071Y031130*
X032072*
X032073Y031132*
X032075Y031135*
X032077Y031138*
X032079Y031143*
X032080Y031149*
X032082Y031155*
Y031162*
Y031163*
Y031164*
Y031166*
Y031167*
Y031169*
X032081Y031174*
X032080Y031179*
X032078Y031184*
X032075Y031189*
X032071Y031194*
X032069Y031196*
X032067Y031197*
X032064Y031200*
X032060Y031202*
X032056Y031203*
X032051Y031205*
X032045*
G37*
G36*
X034570Y027805D02*
X034569D01*
X034567*
X034565*
X034561Y027804*
X034557Y027803*
X034552Y027800*
X034547Y027798*
X034543Y027794*
X034542Y027793*
X034541Y027792*
X034539Y027789*
X034537Y027786*
X034536Y027782*
X034534Y027776*
X034533Y027770*
X034532Y027764*
Y027763*
Y027762*
Y027759*
X034533Y027756*
Y027753*
X034534Y027749*
X034535Y027745*
X034537Y027741*
Y027740*
X034538Y027739*
X034539Y027737*
X034541Y027734*
X034543Y027732*
X034545Y027729*
X034548Y027726*
X034551Y027724*
X034552Y027723*
X034553*
X034555Y027722*
X034557Y027721*
X034560Y027720*
X034564Y027719*
X034567Y027718*
X034571*
X034572*
X034574*
X034576*
X034580Y027719*
X034584Y027721*
X034588Y027723*
X034593Y027726*
X034595Y027728*
X034597Y027730*
X034598Y027732*
X034600Y027735*
X034602Y027738*
X034604Y027743*
X034606Y027749*
X034607Y027755*
X034608Y027762*
Y027763*
Y027764*
X034607Y027766*
Y027767*
Y027769*
X034606Y027774*
X034605Y027779*
X034603Y027784*
X034600Y027789*
X034597Y027794*
X034596*
X034595Y027796*
X034593Y027797*
X034590Y027800*
X034586Y027802*
X034581Y027803*
X034576Y027805*
X034570*
G37*
G36*
X033882Y029955D02*
X033821Y029869D01*
X033882*
Y029955*
G37*
G36*
X030368Y022947D02*
X030363D01*
X030362*
X030359*
X030356Y022946*
X030351Y022944*
X030346Y022942*
X030342Y022939*
X030340Y022937*
X030337Y022934*
X030336Y022933*
Y022932*
X030334Y022929*
X030332Y022926*
X030330Y022921*
X030328Y022915*
X030327Y022908*
X030326Y022901*
Y022900*
Y022898*
Y022896*
X030327Y022895*
Y022891*
X030329Y022886*
X030330Y022881*
X030333Y022876*
X030337Y022872*
Y022871*
X030339Y022870*
X030341Y022868*
X030344Y022866*
X030348Y022864*
X030353Y022862*
X030358Y022861*
X030364Y022860*
X030366*
X030367*
X030370Y022861*
X030374Y022862*
X030378Y022863*
X030383Y022865*
X030387Y022868*
X030391Y022872*
X030392*
X030393Y022874*
X030394Y022876*
X030397Y022880*
X030399Y022884*
X030400Y022890*
X030401Y022896*
X030402Y022903*
Y022904*
Y022905*
Y022906*
Y022908*
X030401Y022910*
Y022915*
X030399Y022920*
X030397Y022926*
X030395Y022931*
X030391Y022936*
X030389Y022937*
X030387Y022939*
X030384Y022942*
X030380Y022944*
X030376Y022945*
X030371Y022947*
X030368*
G37*
G36*
X029265Y019502D02*
X029263D01*
X029260*
X029257Y019501*
X029253Y019500*
X029249Y019499*
X029246Y019496*
X029242Y019493*
X029241Y019492*
X029239Y019490*
X029238Y019487*
X029236Y019484*
X029235Y019481*
X029234Y019477*
X029233Y019473*
Y019472*
X029234Y019470*
Y019468*
X029235Y019465*
X029236Y019461*
X029237Y019458*
X029239Y019454*
X029242Y019450*
X029244Y019449*
X029246Y019448*
X029248Y019446*
X029251Y019445*
X029255Y019443*
X029260Y019442*
X029265*
X029267*
X029269*
X029273Y019443*
X029276Y019444*
X029280Y019445*
X029284Y019448*
X029287Y019450*
Y019451*
X029289Y019452*
X029290Y019454*
X029292Y019456*
X029293Y019459*
X029295Y019463*
X029296Y019467*
Y019471*
Y019472*
Y019474*
Y019476*
X029295Y019479*
X029294Y019482*
X029292Y019486*
X029290Y019490*
X029287Y019493*
Y019494*
X029285Y019495*
X029283Y019496*
X029281Y019498*
X029278Y019499*
X029274Y019501*
X029269Y019502*
X029265*
G37*
G36*
X029264Y019423D02*
X029262D01*
X029261Y019422*
X029258*
X029254Y019421*
X029250Y019420*
X029245Y019418*
X029241Y019415*
X029237Y019412*
X029236Y019411*
X029235Y019410*
X029233Y019407*
X029231Y019404*
X029229Y019400*
X029227Y019395*
X029226Y019390*
Y019384*
Y019382*
Y019381*
Y019378*
X029227Y019375*
X029228Y019372*
X029229Y019368*
X029230Y019365*
Y019364*
X029231Y019363*
X029232Y019361*
X029234Y019360*
X029236Y019357*
X029238Y019355*
X029241Y019352*
X029244Y019350*
X029245*
X029246Y019349*
X029248Y019348*
X029250*
X029253Y019347*
X029257Y019346*
X029261Y019345*
X029265*
X029266*
X029268*
X029271Y019346*
X029275*
X029279Y019348*
X029284Y019350*
X029288Y019352*
X029293Y019356*
X029294Y019358*
X029296Y019360*
X029298Y019363*
X029300Y019367*
X029302Y019372*
X029303Y019377*
X029304Y019383*
Y019384*
Y019385*
Y019386*
X029303Y019389*
X029302Y019393*
X029301Y019397*
X029299Y019402*
X029296Y019407*
X029292Y019411*
Y019412*
X029291Y019413*
X029288Y019415*
X029285Y019417*
X029281Y019419*
X029276Y019421*
X029270Y019422*
X029264Y019423*
G37*
G36*
X029388Y030584D02*
X029386D01*
X029385Y030583*
X029382*
X029378Y030582*
X029374Y030581*
X029369Y030579*
X029365Y030576*
X029360Y030572*
Y030571*
X029359Y030570*
X029357Y030568*
X029355Y030564*
X029353Y030560*
X029351Y030555*
X029350Y030549*
X029349Y030542*
Y030541*
Y030540*
X029350Y030538*
Y030535*
X029351Y030531*
X029352Y030527*
X029353Y030523*
X029354Y030519*
X029355Y030518*
X029356Y030517*
X029357Y030515*
X029358Y030512*
X029360Y030510*
X029363Y030507*
X029365Y030504*
X029369Y030502*
X029370Y030501*
X029372Y030500*
X029375Y030499*
X029378Y030498*
X029381Y030497*
X029385Y030496*
X029388*
X029390*
X029391*
X029394Y030497*
X029397*
X029401Y030499*
X029406Y030501*
X029410Y030504*
X029412Y030506*
X029414Y030508*
X029415Y030509*
X029416Y030510*
X029418Y030513*
X029420Y030517*
X029422Y030521*
X029423Y030527*
X029424Y030533*
X029425Y030541*
Y030543*
Y030544*
Y030546*
X029424Y030548*
Y030552*
X029423Y030557*
X029421Y030562*
X029418Y030567*
X029414Y030572*
Y030573*
X029412Y030574*
X029410Y030576*
X029407Y030578*
X029403Y030580*
X029399Y030582*
X029393Y030583*
X029388Y030584*
G37*
G36*
X037529Y023673D02*
X037469D01*
Y023610*
X037526*
X037529*
X037533Y023611*
X037538*
X037542*
X037547Y023612*
X037550Y023613*
X037551Y023614*
X037552*
X037554Y023615*
X037556Y023616*
X037558Y023618*
X037561Y023620*
X037563Y023622*
X037565Y023625*
X037566*
Y023626*
X037567Y023628*
X037568Y023630*
X037569Y023633*
X037570Y023635*
Y023639*
X037571Y023642*
Y023643*
X037570Y023644*
Y023647*
X037569Y023650*
X037568Y023653*
X037566Y023657*
X037564Y023661*
X037561Y023665*
X037560*
X037559Y023666*
X037556Y023667*
X037553Y023669*
X037549Y023671*
X037543Y023672*
X037537Y023673*
X037529*
G37*
G36*
X036552Y023756D02*
X036492Y023671D01*
X036552*
Y023756*
G37*
G36*
X036230Y023773D02*
X036170D01*
Y023710*
X036227*
X036230*
X036234Y023711*
X036239*
X036243*
X036248Y023712*
X036251Y023713*
X036252Y023714*
X036253*
X036255Y023715*
X036257Y023716*
X036260Y023718*
X036262Y023720*
X036265Y023722*
X036266Y023725*
X036267*
Y023726*
X036268Y023728*
X036269Y023730*
X036270Y023733*
X036271Y023735*
Y023739*
X036272Y023742*
Y023743*
X036271Y023744*
Y023747*
Y023750*
X036269Y023753*
X036268Y023757*
X036265Y023761*
X036262Y023765*
X036261*
X036260Y023766*
X036258Y023767*
X036254Y023769*
X036250Y023771*
X036244Y023772*
X036238Y023773*
X036230*
G37*
G36*
X032249Y035973D02*
X032188D01*
Y035910*
X032245*
X032249*
X032252Y035911*
X032257*
X032261*
X032266Y035912*
X032270Y035913*
Y035914*
X032271*
X032273Y035915*
X032275Y035916*
X032278Y035918*
X032280Y035920*
X032283Y035922*
X032285Y035925*
Y035926*
X032286Y035928*
X032287Y035930*
X032288Y035933*
X032289Y035935*
X032290Y035939*
Y035942*
Y035943*
Y035944*
X032289Y035947*
Y035950*
X032287Y035953*
X032286Y035957*
X032283Y035961*
X032280Y035965*
X032279*
X032278Y035966*
X032276Y035967*
X032272Y035969*
X032268Y035971*
X032262Y035972*
X032256Y035973*
X032249*
G37*
G36*
X032230Y036573D02*
X032170D01*
Y036510*
X032227*
X032230*
X032234Y036511*
X032239*
X032243*
X032247Y036512*
X032251Y036513*
X032252Y036514*
X032253*
X032255Y036515*
X032257Y036516*
X032259Y036518*
X032262Y036520*
X032264Y036522*
X032266Y036525*
X032267*
Y036526*
X032268Y036528*
X032269Y036530*
X032270Y036533*
X032271Y036535*
Y036539*
X032272Y036542*
Y036543*
X032271Y036544*
Y036547*
X032270Y036550*
X032269Y036553*
X032267Y036557*
X032265Y036561*
X032262Y036565*
X032261*
X032260Y036566*
X032257Y036567*
X032254Y036569*
X032250Y036571*
X032244Y036572*
X032238Y036573*
X032230*
G37*
G36*
X032539Y036576D02*
X032537D01*
X032536*
X032533Y036575*
X032530*
X032526Y036573*
X032521Y036570*
X032519Y036569*
X032517Y036567*
X032515Y036565*
X032513Y036562*
X032512Y036561*
Y036560*
X032511Y036559*
X032510Y036557*
X032509Y036554*
X032508Y036551*
X032507Y036548*
X032506Y036543*
X032505Y036539*
X032504Y036534*
X032503Y036528*
X032502Y036521*
X032501Y036514*
Y036506*
Y036497*
Y036496*
Y036493*
Y036490*
Y036486*
Y036482*
X032502Y036477*
Y036472*
X032504Y036461*
X032505Y036456*
X032506Y036451*
X032507Y036446*
X032508Y036442*
X032510Y036438*
X032512Y036435*
Y036434*
X032513*
X032514Y036432*
X032516Y036430*
X032519Y036427*
X032524Y036424*
X032528Y036422*
X032534Y036420*
X032536Y036419*
X032539*
X032541*
X032542*
X032545Y036420*
X032549Y036421*
X032553Y036423*
X032558Y036426*
X032560Y036427*
X032562Y036430*
X032564Y036432*
X032567Y036435*
X032568Y036436*
Y036438*
X032569Y036440*
X032570Y036442*
X032571Y036445*
X032572Y036448*
X032573Y036452*
X032574Y036457*
X032575Y036462*
X032576Y036468*
X032577Y036474*
Y036481*
X032578Y036489*
Y036497*
Y036498*
Y036499*
Y036502*
Y036505*
Y036509*
X032577Y036513*
Y036518*
Y036523*
X032575Y036534*
X032574Y036539*
X032573Y036544*
X032572Y036549*
X032570Y036553*
X032569Y036557*
X032567Y036560*
Y036561*
X032566*
Y036562*
X032565Y036563*
X032562Y036565*
X032559Y036568*
X032555Y036571*
X032551Y036574*
X032548Y036575*
X032545Y036576*
X032542*
X032539*
G37*
G36*
X035742Y029776D02*
X035738D01*
X035737*
X035734*
X035730Y029775*
X035726Y029773*
X035721Y029771*
X035716Y029768*
X035714Y029765*
X035712Y029763*
X035711*
Y029762*
X035710Y029761*
X035708Y029758*
X035706Y029754*
X035704Y029750*
X035702Y029744*
X035701Y029737*
Y029730*
Y029729*
Y029728*
Y029727*
Y029725*
Y029724*
X035702Y029719*
X035703Y029715*
X035705Y029710*
X035708Y029705*
X035711Y029700*
X035712*
X035713Y029699*
X035716Y029697*
X035719Y029695*
X035723Y029693*
X035728Y029691*
X035733Y029689*
X035739*
X035740*
X035742*
X035745*
X035748Y029690*
X035753Y029692*
X035757Y029694*
X035761Y029696*
X035766Y029700*
Y029701*
X035767Y029702*
X035769Y029705*
X035771Y029709*
X035773Y029713*
X035775Y029718*
X035776Y029725*
Y029732*
Y029733*
Y029734*
Y029735*
Y029737*
Y029739*
X035775Y029743*
X035774Y029749*
X035772Y029754*
X035769Y029760*
X035766Y029764*
Y029765*
X035765*
X035764Y029766*
X035761Y029768*
X035758Y029770*
X035755Y029772*
X035750Y029774*
X035745Y029776*
X035742*
G37*
G36*
X035430Y029773D02*
X035370D01*
Y029710*
X035427*
X035430*
X035434Y029711*
X035438*
X035443*
X035447Y029712*
X035451Y029713*
Y029714*
X035453*
X035454Y029715*
X035456Y029716*
X035459Y029718*
X035461Y029720*
X035464Y029722*
X035466Y029725*
X035467Y029726*
X035468Y029728*
X035469Y029730*
Y029733*
X035470Y029735*
X035471Y029739*
Y029742*
Y029743*
Y029744*
Y029747*
X035470Y029750*
X035469Y029753*
X035467Y029757*
X035465Y029761*
X035461Y029765*
X035459Y029766*
X035457Y029767*
X035453Y029769*
X035449Y029771*
X035444Y029772*
X035437Y029773*
X035430*
G37*
G36*
X032230Y032973D02*
X032169D01*
Y032910*
X032227*
X032230*
X032234Y032911*
X032238*
X032243*
X032247Y032912*
X032251Y032913*
Y032914*
X032253*
X032254Y032915*
X032256Y032916*
X032259Y032918*
X032261Y032920*
X032264Y032922*
X032266Y032925*
X032267Y032926*
X032268Y032928*
X032269Y032930*
Y032933*
X032270Y032935*
X032271Y032939*
Y032942*
Y032943*
Y032944*
Y032947*
X032270Y032950*
X032269Y032953*
X032267Y032957*
X032265Y032961*
X032261Y032965*
X032259Y032966*
X032257Y032967*
X032253Y032969*
X032249Y032971*
X032244Y032972*
X032237Y032973*
X032230*
G37*
G36*
X032539Y032976D02*
X032537D01*
X032535*
X032531Y032975*
X032528Y032974*
X032524Y032973*
X032520Y032970*
X032517Y032967*
X032516*
X032515Y032966*
X032514Y032964*
X032512Y032961*
X032511Y032958*
X032509Y032955*
X032508Y032951*
Y032947*
Y032946*
Y032944*
X032509Y032942*
Y032939*
X032510Y032935*
X032512Y032932*
X032514Y032928*
X032517Y032924*
X032518Y032923*
X032520Y032922*
X032523Y032920*
X032526Y032919*
X032530Y032917*
X032534Y032916*
X032539*
X032540*
X032542*
X032544*
X032547Y032917*
X032551Y032918*
X032555Y032919*
X032558Y032922*
X032562Y032924*
Y032925*
X032563Y032926*
X032564Y032928*
X032566Y032930*
X032568Y032933*
X032569Y032937*
X032570Y032941*
X032571Y032945*
Y032946*
Y032948*
X032570Y032950*
X032569Y032953*
X032568Y032957*
X032567Y032960*
X032564Y032964*
X032561Y032967*
Y032968*
X032560Y032969*
X032558Y032970*
X032555Y032972*
X032552Y032973*
X032548Y032975*
X032544Y032976*
X032539*
G37*
G36*
X032538Y032897D02*
X032537D01*
X032536Y032896*
X032533*
X032529Y032895*
X032524Y032894*
X032520Y032892*
X032515Y032889*
X032511Y032886*
X032510Y032885*
X032509Y032884*
X032508Y032881*
X032506Y032878*
X032504Y032874*
X032502Y032869*
X032501Y032864*
X032500Y032858*
Y032857*
X032501Y032855*
Y032852*
Y032849*
X032502Y032846*
X032503Y032842*
X032505Y032839*
Y032838*
X032506Y032837*
X032507Y032835*
X032508Y032834*
X032510Y032831*
X032513Y032829*
X032515Y032826*
X032519Y032824*
X032520Y032823*
X032522Y032822*
X032525*
X032528Y032821*
X032532Y032820*
X032535Y032819*
X032539*
X032541*
X032542*
X032545Y032820*
X032549*
X032554Y032822*
X032558Y032824*
X032563Y032826*
X032567Y032830*
X032568*
X032569Y032832*
X032571Y032834*
X032573Y032837*
X032575Y032841*
X032577Y032846*
X032578Y032852*
Y032857*
Y032858*
Y032859*
Y032860*
Y032863*
X032577Y032867*
X032576Y032871*
X032574Y032876*
X032571Y032881*
X032567Y032885*
X032566Y032886*
X032565Y032887*
X032563Y032889*
X032559Y032891*
X032555Y032893*
X032550Y032895*
X032545Y032896*
X032538Y032897*
G37*
G36*
X032230Y033372D02*
X032170D01*
Y033308*
X032227*
X032230Y033309*
X032234*
X032238*
X032243Y033310*
X032247Y033311*
X032251Y033312*
X032252*
X032253*
X032254Y033313*
X032257Y033314*
X032259Y033316*
X032262Y033318*
X032264Y033320*
X032266Y033323*
Y033324*
X032267Y033325*
X032268Y033326*
X032269Y033329*
X032270Y033331*
Y033334*
X032271Y033337*
Y033340*
Y033341*
Y033343*
Y033345*
X032270Y033348*
X032269Y033352*
X032267Y033356*
X032265Y033359*
X032261Y033363*
X032259Y033364*
X032257Y033366*
X032254Y033367*
X032249Y033369*
X032244Y033370*
X032238Y033371*
X032230Y033372*
G37*
G36*
X035041Y027307D02*
X035039D01*
X035038Y027306*
X035035*
X035031Y027305*
X035027Y027304*
X035023Y027302*
X035018Y027299*
X035014Y027295*
X035013Y027294*
X035012Y027293*
X035010Y027291*
X035008Y027287*
X035006Y027283*
X035004Y027278*
X035003Y027272*
Y027265*
Y027263*
Y027261*
Y027258*
X035004Y027254*
X035005Y027250*
X035006Y027246*
X035008Y027242*
Y027241*
X035009Y027240*
X035010Y027238*
X035011Y027235*
X035013Y027233*
X035016Y027230*
X035019Y027227*
X035022Y027225*
X035023*
X035024Y027224*
X035026Y027223*
X035028Y027222*
X035031Y027221*
X035034Y027220*
X035038Y027219*
X035042*
X035043*
X035044*
X035047Y027220*
X035051*
X035054Y027222*
X035059Y027224*
X035063Y027227*
X035065Y027229*
X035067Y027231*
X035068Y027232*
X035069Y027233*
X035071Y027236*
X035073Y027240*
X035075Y027244*
X035077Y027250*
X035078Y027256*
Y027264*
Y027265*
Y027266*
Y027267*
Y027269*
Y027271*
X035077Y027275*
X035076Y027280*
X035074Y027285*
X035071Y027290*
X035067Y027295*
Y027296*
X035065Y027297*
X035063Y027299*
X035060Y027301*
X035056Y027303*
X035052Y027305*
X035047Y027306*
X035041Y027307*
G37*
G36*
X034730Y027373D02*
X034670D01*
Y027310*
X034727*
X034730*
X034734Y027311*
X034738*
X034743*
X034747Y027312*
X034751Y027313*
X034752Y027314*
X034753*
X034754Y027315*
X034757Y027316*
X034759Y027318*
X034762Y027320*
X034764Y027322*
X034766Y027325*
X034767Y027326*
X034768Y027328*
X034769Y027330*
X034770Y027333*
Y027335*
X034771Y027339*
Y027342*
Y027343*
Y027344*
Y027347*
X034770Y027350*
X034769Y027353*
X034767Y027357*
X034765Y027361*
X034761Y027365*
X034759Y027366*
X034757Y027367*
X034754Y027369*
X034749Y027371*
X034744Y027372*
X034738Y027373*
X034730*
G37*
G36*
X034129D02*
X034069D01*
Y027310*
X034126*
X034129*
X034133Y027311*
X034138*
X034142*
X034146Y027312*
X034150Y027313*
X034151Y027314*
X034152*
X034154Y027315*
X034156Y027316*
X034158Y027318*
X034161Y027320*
X034163Y027322*
X034165Y027325*
X034166*
Y027326*
X034167Y027328*
X034168Y027330*
X034169Y027333*
X034170Y027335*
Y027339*
X034171Y027342*
Y027343*
X034170Y027344*
Y027347*
X034169Y027350*
X034168Y027353*
X034166Y027357*
X034164Y027361*
X034161Y027365*
X034160*
X034159Y027366*
X034156Y027367*
X034153Y027369*
X034149Y027371*
X034143Y027372*
X034137Y027373*
X034129*
G37*
G36*
X032588Y031083D02*
X032527Y030998D01*
X032588*
Y031083*
G37*
G36*
X032266Y031100D02*
X032205D01*
Y031037*
X032263*
X032266*
X032270*
X032274Y031038*
X032279*
X032283Y031039*
X032287Y031040*
Y031041*
X032289*
X032290Y031042*
X032292Y031043*
X032295Y031045*
X032297Y031047*
X032300Y031049*
X032302Y031052*
X032303Y031053*
X032304Y031055*
X032305Y031057*
Y031060*
X032306Y031062*
X032307Y031066*
Y031069*
Y031070*
Y031071*
Y031074*
X032306Y031077*
X032305Y031080*
X032303Y031084*
X032301Y031088*
X032297Y031091*
Y031092*
X032295Y031093*
X032293Y031094*
X032289Y031096*
X032285Y031098*
X032280Y031099*
X032273Y031100*
X032266*
G37*
G36*
X034630Y024373D02*
X034570D01*
Y024310*
X034627*
X034630*
X034634Y024311*
X034638*
X034643*
X034647Y024312*
X034651Y024313*
X034652Y024314*
X034653*
X034654Y024315*
X034657Y024316*
X034659Y024318*
X034662Y024320*
X034664Y024322*
X034666Y024325*
X034667Y024326*
X034668Y024328*
X034669Y024330*
X034670Y024333*
Y024335*
X034671Y024339*
Y024342*
Y024343*
Y024344*
Y024347*
X034670Y024350*
X034669Y024353*
X034667Y024357*
X034665Y024361*
X034661Y024365*
X034659Y024366*
X034657Y024367*
X034654Y024369*
X034649Y024371*
X034644Y024372*
X034637Y024373*
X034630*
G37*
G36*
X032131Y037872D02*
X032071D01*
Y037808*
X032128*
X032131Y037809*
X032135*
X032139*
X032144Y037810*
X032148Y037811*
X032152Y037812*
X032153*
X032154*
X032155Y037813*
X032158Y037814*
X032160Y037816*
X032163Y037818*
X032165Y037820*
X032167Y037823*
Y037824*
X032168Y037825*
X032169Y037826*
X032170Y037829*
X032171Y037831*
Y037834*
X032172Y037837*
Y037840*
Y037841*
Y037843*
Y037845*
X032171Y037848*
X032170Y037852*
X032168Y037856*
X032166Y037859*
X032162Y037863*
X032160Y037864*
X032158Y037866*
X032155Y037867*
X032150Y037869*
X032145Y037870*
X032138Y037871*
X032131Y037872*
G37*
G36*
X032149Y037172D02*
X032088D01*
Y037108*
X032145*
X032149Y037109*
X032152*
X032157*
X032161Y037110*
X032166Y037111*
X032170Y037112*
X032171*
X032173Y037113*
X032175Y037114*
X032178Y037116*
X032180Y037118*
X032183Y037120*
X032185Y037123*
Y037124*
Y037125*
X032186Y037126*
X032187Y037129*
X032188Y037131*
X032189Y037134*
X032190Y037137*
Y037140*
Y037141*
Y037143*
X032189Y037145*
Y037148*
X032187Y037152*
X032186Y037156*
X032183Y037159*
X032180Y037163*
X032179*
X032178Y037164*
X032176Y037166*
X032172Y037167*
X032168Y037169*
X032162Y037170*
X032156Y037171*
X032149Y037172*
G37*
G36*
X028930Y026773D02*
X028870D01*
Y026710*
X028927*
X028930*
X028934Y026711*
X028939*
X028943*
X028947Y026712*
X028951Y026713*
X028952Y026714*
X028953*
X028955Y026715*
X028957Y026716*
X028959Y026718*
X028962Y026720*
X028964Y026722*
X028966Y026725*
X028967*
Y026726*
X028968Y026728*
X028969Y026730*
X028970Y026733*
X028971Y026735*
Y026739*
X028972Y026742*
Y026743*
X028971Y026744*
Y026747*
X028970Y026750*
X028969Y026753*
X028967Y026757*
X028965Y026761*
X028962Y026765*
X028961*
X028960Y026766*
X028957Y026767*
X028954Y026769*
X028950Y026771*
X028944Y026772*
X028938Y026773*
X028930*
G37*
G36*
X029239Y026776D02*
X029237D01*
X029236*
X029233Y026775*
X029230*
X029226Y026773*
X029221Y026770*
X029219Y026769*
X029217Y026767*
X029215Y026765*
X029213Y026762*
X029212Y026761*
Y026760*
X029211Y026759*
X029210Y026757*
X029209Y026754*
X029208Y026751*
X029207Y026748*
X029206Y026743*
X029205Y026739*
X029204Y026734*
X029203Y026728*
X029202Y026721*
X029201Y026714*
Y026706*
Y026697*
Y026696*
Y026693*
Y026690*
Y026686*
Y026682*
X029202Y026677*
Y026672*
X029204Y026661*
X029205Y026656*
X029206Y026651*
X029207Y026646*
X029208Y026642*
X029210Y026638*
X029212Y026635*
Y026634*
X029213*
X029214Y026632*
X029216Y026630*
X029219Y026627*
X029224Y026624*
X029228Y026622*
X029234Y026620*
X029236Y026619*
X029239*
X029241*
X029242*
X029245Y026620*
X029249Y026621*
X029253Y026623*
X029258Y026626*
X029260Y026627*
X029262Y026630*
X029264Y026632*
X029267Y026635*
X029268Y026636*
Y026638*
X029269Y026640*
X029270Y026642*
X029271Y026645*
X029272Y026648*
X029273Y026652*
X029274Y026657*
X029275Y026662*
X029276Y026668*
X029277Y026674*
Y026681*
X029278Y026689*
Y026697*
Y026698*
Y026699*
Y026702*
Y026705*
Y026709*
X029277Y026713*
Y026718*
Y026723*
X029275Y026734*
X029274Y026739*
X029273Y026744*
X029272Y026749*
X029270Y026753*
X029269Y026757*
X029267Y026760*
Y026761*
X029266*
Y026762*
X029265Y026763*
X029262Y026765*
X029259Y026768*
X029255Y026771*
X029251Y026774*
X029248Y026775*
X029245Y026776*
X029242*
X029239*
G37*
G36*
X029342Y032776D02*
X029338D01*
X029337*
X029334*
X029330Y032775*
X029326Y032773*
X029321Y032771*
X029316Y032768*
X029314Y032765*
X029312Y032763*
X029311*
Y032762*
X029310Y032761*
X029308Y032758*
X029306Y032754*
X029304Y032750*
X029302Y032744*
X029301Y032737*
Y032730*
Y032729*
Y032728*
Y032727*
Y032725*
Y032724*
X029302Y032719*
X029303Y032715*
X029305Y032710*
X029308Y032705*
X029311Y032700*
X029312*
X029313Y032699*
X029316Y032697*
X029319Y032695*
X029323Y032693*
X029328Y032691*
X029333Y032689*
X029339*
X029340*
X029342*
X029345*
X029348Y032690*
X029353Y032692*
X029357Y032694*
X029361Y032696*
X029366Y032700*
Y032701*
X029367Y032702*
X029369Y032705*
X029371Y032709*
X029373Y032713*
X029375Y032718*
X029376Y032725*
Y032732*
Y032733*
Y032734*
Y032735*
Y032737*
Y032739*
X029375Y032743*
X029374Y032749*
X029372Y032754*
X029369Y032760*
X029366Y032764*
Y032765*
X029365*
X029364Y032766*
X029361Y032768*
X029358Y032770*
X029355Y032772*
X029350Y032774*
X029345Y032776*
X029342*
G37*
G36*
X029030Y032773D02*
X028970D01*
Y032710*
X029027*
X029030*
X029034Y032711*
X029038*
X029043*
X029047Y032712*
X029051Y032713*
Y032714*
X029053*
X029054Y032715*
X029056Y032716*
X029059Y032718*
X029061Y032720*
X029064Y032722*
X029066Y032725*
X029067Y032726*
X029068Y032728*
X029069Y032730*
Y032733*
X029070Y032735*
X029071Y032739*
Y032742*
Y032743*
Y032744*
Y032747*
X029070Y032750*
X029069Y032753*
X029067Y032757*
X029065Y032761*
X029061Y032765*
X029059Y032766*
X029057Y032767*
X029053Y032769*
X029049Y032771*
X029044Y032772*
X029037Y032773*
X029030*
G37*
G36*
X023286Y034610D02*
X023225D01*
Y034547*
X023283*
X023286*
X023290*
X023294Y034548*
X023299*
X023303Y034549*
X023307Y034550*
Y034551*
X023309*
X023310Y034552*
X023312Y034553*
X023315Y034555*
X023317Y034557*
X023320Y034559*
X023322Y034562*
X023323Y034563*
X023324Y034565*
X023325Y034567*
Y034570*
X023326Y034572*
X023327Y034576*
Y034579*
Y034580*
Y034581*
Y034584*
X023326Y034587*
X023325Y034590*
X023323Y034594*
X023321Y034598*
X023317Y034601*
Y034602*
X023315Y034603*
X023313Y034604*
X023309Y034606*
X023305Y034608*
X023300Y034609*
X023293Y034610*
X023286*
G37*
G36*
X023595Y034613D02*
X023593D01*
X023591*
X023587Y034612*
X023584Y034611*
X023580Y034610*
X023576Y034607*
X023573Y034604*
X023572*
X023571Y034603*
X023570Y034601*
X023568Y034598*
X023567Y034595*
X023565Y034592*
X023564Y034588*
Y034583*
Y034581*
X023565Y034579*
Y034576*
X023566Y034572*
X023568Y034569*
X023570Y034565*
X023573Y034561*
X023574Y034560*
X023576Y034559*
X023579Y034557*
X023582Y034556*
X023586Y034554*
X023590Y034553*
X023595*
X023596*
X023597*
X023600*
X023603Y034554*
X023607Y034555*
X023611Y034556*
X023614Y034559*
X023618Y034561*
Y034562*
X023619Y034563*
X023620Y034565*
X023622Y034567*
X023624Y034570*
X023625Y034574*
X023626Y034578*
X023627Y034582*
Y034583*
Y034585*
X023626Y034587*
X023625Y034590*
X023624Y034593*
X023623Y034597*
X023620Y034601*
X023617Y034604*
Y034605*
X023616Y034606*
X023614Y034607*
X023611Y034609*
X023608Y034610*
X023604Y034612*
X023600Y034613*
X023595*
G37*
G36*
X023594Y034534D02*
X023593D01*
X023592Y034533*
X023589*
X023585Y034532*
X023580Y034531*
X023576Y034529*
X023571Y034526*
X023567Y034523*
X023566Y034522*
X023565Y034521*
X023564Y034518*
X023562Y034515*
X023560Y034511*
X023558Y034506*
X023557Y034501*
X023556Y034495*
Y034493*
Y034492*
X023557Y034489*
Y034486*
X023558Y034483*
X023559Y034479*
X023561Y034476*
Y034475*
Y034474*
X023563Y034472*
X023564Y034470*
X023566Y034468*
X023569Y034465*
X023571Y034463*
X023575Y034461*
X023576Y034460*
X023578Y034459*
X023581*
X023584Y034458*
X023588Y034457*
X023591Y034456*
X023595*
X023597*
X023598*
X023601Y034457*
X023605*
X023610Y034459*
X023614Y034460*
X023619Y034463*
X023623Y034467*
X023624*
X023625Y034469*
X023627Y034471*
X023629Y034474*
X023631Y034478*
X023633Y034483*
X023634Y034488*
Y034494*
Y034495*
Y034496*
Y034497*
Y034500*
X023633Y034504*
X023632Y034508*
X023630Y034513*
X023627Y034518*
X023623Y034522*
X023622Y034523*
X023621Y034524*
X023619Y034526*
X023615Y034528*
X023611Y034530*
X023606Y034532*
X023601Y034533*
X023594Y034534*
G37*
G36*
X021786Y034600D02*
X021725D01*
Y034537*
X021783*
X021786*
X021790*
X021794Y034538*
X021799*
X021803Y034539*
X021807Y034540*
Y034541*
X021809*
X021810Y034542*
X021812Y034543*
X021815Y034545*
X021817Y034547*
X021820Y034549*
X021822Y034552*
X021823Y034553*
X021824Y034555*
X021825Y034557*
Y034560*
X021826Y034562*
X021827Y034566*
Y034569*
Y034570*
Y034571*
Y034574*
X021826Y034577*
X021825Y034580*
X021823Y034584*
X021820Y034588*
X021817Y034591*
Y034592*
X021815Y034593*
X021813Y034594*
X021809Y034596*
X021805Y034598*
X021800Y034599*
X021793Y034600*
X021786*
G37*
G36*
X020641Y034507D02*
X020639D01*
X020638Y034506*
X020635*
X020631Y034505*
X020627Y034504*
X020623Y034502*
X020618Y034499*
X020614Y034495*
X020613Y034494*
X020612Y034493*
X020610Y034491*
X020608Y034487*
X020606Y034483*
X020604Y034478*
X020603Y034472*
Y034465*
Y034463*
Y034461*
Y034458*
X020604Y034454*
X020605Y034450*
X020606Y034446*
X020608Y034442*
Y034441*
X020609Y034440*
X020610Y034438*
X020611Y034435*
X020613Y034433*
X020616Y034430*
X020619Y034427*
X020622Y034425*
X020623*
X020624Y034424*
X020626Y034423*
X020628Y034422*
X020631Y034421*
X020634Y034420*
X020638Y034419*
X020642*
X020643*
X020644*
X020647Y034420*
X020651*
X020654Y034422*
X020659Y034424*
X020663Y034427*
X020665Y034429*
X020667Y034431*
X020668Y034432*
X020669Y034433*
X020671Y034436*
X020673Y034440*
X020675Y034444*
X020677Y034450*
X020678Y034456*
Y034464*
Y034465*
Y034466*
Y034467*
Y034469*
Y034471*
X020677Y034475*
X020676Y034480*
X020674Y034485*
X020671Y034490*
X020667Y034495*
Y034496*
X020665Y034497*
X020663Y034499*
X020660Y034501*
X020656Y034503*
X020652Y034505*
X020647Y034506*
X020641Y034507*
G37*
G36*
X020330Y034573D02*
X020270D01*
Y034510*
X020327*
X020330*
X020334Y034511*
X020338*
X020343*
X020347Y034512*
X020351Y034513*
X020352Y034514*
X020353*
X020354Y034515*
X020357Y034516*
X020359Y034518*
X020362Y034520*
X020364Y034522*
X020366Y034525*
X020367Y034526*
X020368Y034528*
X020369Y034530*
X020370Y034533*
Y034535*
X020371Y034539*
Y034542*
Y034543*
Y034544*
Y034547*
X020370Y034550*
X020369Y034553*
X020367Y034557*
X020365Y034561*
X020361Y034565*
X020359Y034566*
X020357Y034567*
X020354Y034569*
X020349Y034571*
X020344Y034572*
X020338Y034573*
X020330*
G37*
G36*
X036905Y040073D02*
X036844D01*
Y040010*
X036901*
X036905*
X036908Y040011*
X036913*
X036917*
X036922Y040012*
X036926Y040013*
Y040014*
X036927*
X036929Y040015*
X036931Y040016*
X036934Y040018*
X036936Y040020*
X036939Y040022*
X036941Y040025*
Y040026*
X036942Y040028*
X036943Y040030*
X036944Y040033*
X036945Y040035*
X036946Y040039*
Y040042*
Y040043*
Y040044*
X036945Y040047*
Y040050*
X036943Y040053*
X036942Y040057*
X036939Y040061*
X036936Y040065*
X036935*
X036934Y040066*
X036932Y040067*
X036928Y040069*
X036924Y040071*
X036918Y040072*
X036912Y040073*
X036905*
G37*
G36*
X019752Y027855D02*
X019692Y027769D01*
X019752*
Y027855*
G37*
G36*
X019430Y027872D02*
X019370D01*
Y027808*
X019427*
X019430Y027809*
X019434*
X019439*
X019443Y027810*
X019448Y027811*
X019451Y027812*
X019452*
X019453*
X019455Y027813*
X019457Y027814*
X019460Y027816*
X019462Y027818*
X019465Y027820*
X019466Y027823*
X019467Y027824*
Y027825*
X019468Y027826*
X019469Y027829*
X019470Y027831*
X019471Y027834*
Y027837*
X019472Y027840*
Y027841*
X019471Y027843*
Y027845*
Y027848*
X019469Y027852*
X019468Y027856*
X019465Y027859*
X019462Y027863*
X019461*
X019460Y027864*
X019458Y027866*
X019454Y027867*
X019450Y027869*
X019444Y027870*
X019438Y027871*
X019430Y027872*
G37*
G36*
X036905Y040673D02*
X036844D01*
Y040610*
X036901*
X036905*
X036908Y040611*
X036913*
X036917*
X036922Y040612*
X036926Y040613*
Y040614*
X036927*
X036929Y040615*
X036931Y040616*
X036934Y040618*
X036936Y040620*
X036939Y040622*
X036941Y040625*
Y040626*
X036942Y040628*
X036943Y040630*
X036944Y040633*
X036945Y040635*
X036946Y040639*
Y040642*
Y040643*
Y040644*
X036945Y040647*
Y040650*
X036943Y040653*
X036942Y040657*
X036939Y040661*
X036936Y040665*
X036935*
X036934Y040666*
X036932Y040667*
X036928Y040669*
X036924Y040671*
X036918Y040672*
X036912Y040673*
X036905*
G37*
G36*
X035431Y037872D02*
X035371D01*
Y037808*
X035428*
X035431Y037809*
X035435*
X035439*
X035444Y037810*
X035448Y037811*
X035452Y037812*
X035453*
X035454*
X035455Y037813*
X035458Y037814*
X035460Y037816*
X035463Y037818*
X035465Y037820*
X035467Y037823*
Y037824*
X035468Y037825*
X035469Y037826*
X035470Y037829*
X035471Y037831*
Y037834*
X035472Y037837*
Y037840*
Y037841*
Y037843*
Y037845*
X035471Y037848*
X035470Y037852*
X035468Y037856*
X035466Y037859*
X035462Y037863*
X035460Y037864*
X035458Y037866*
X035455Y037867*
X035450Y037869*
X035445Y037870*
X035438Y037871*
X035431Y037872*
G37*
G36*
X035349Y035072D02*
X035288D01*
Y035008*
X035345*
X035349Y035009*
X035352*
X035357*
X035361Y035010*
X035366Y035011*
X035370Y035012*
X035371*
X035373Y035013*
X035375Y035014*
X035378Y035016*
X035380Y035018*
X035383Y035020*
X035385Y035023*
Y035024*
Y035025*
X035386Y035026*
X035387Y035029*
X035388Y035031*
X035389Y035034*
X035390Y035037*
Y035040*
Y035041*
Y035043*
X035389Y035045*
Y035048*
X035387Y035052*
X035386Y035056*
X035383Y035059*
X035380Y035063*
X035379*
X035378Y035064*
X035376Y035066*
X035372Y035067*
X035368Y035069*
X035362Y035070*
X035356Y035071*
X035349Y035072*
G37*
G36*
X018630Y031273D02*
X018570D01*
Y031210*
X018627*
X018630*
X018634Y031211*
X018639*
X018643*
X018647Y031212*
X018651Y031213*
X018652Y031214*
X018653*
X018655Y031215*
X018657Y031216*
X018659Y031218*
X018662Y031220*
X018664Y031222*
X018666Y031225*
X018667*
Y031226*
X018668Y031228*
X018669Y031230*
X018670Y031233*
X018671Y031235*
Y031239*
X018672Y031242*
Y031243*
X018671Y031244*
Y031247*
X018670Y031250*
X018669Y031253*
X018667Y031257*
X018665Y031261*
X018662Y031265*
X018661*
X018660Y031266*
X018657Y031267*
X018654Y031269*
X018650Y031271*
X018644Y031272*
X018638Y031273*
X018630*
G37*
G36*
X018939Y031276D02*
X018937D01*
X018936*
X018933Y031275*
X018930*
X018926Y031273*
X018921Y031270*
X018919Y031269*
X018917Y031267*
X018915Y031265*
X018913Y031262*
X018912Y031261*
Y031260*
X018911Y031259*
X018910Y031257*
X018909Y031254*
X018908Y031251*
X018907Y031248*
X018906Y031243*
X018905Y031239*
X018904Y031234*
X018903Y031228*
X018902Y031221*
X018901Y031214*
Y031206*
Y031198*
Y031197*
Y031196*
Y031193*
Y031190*
Y031186*
Y031182*
X018902Y031177*
Y031172*
X018904Y031161*
X018905Y031156*
X018906Y031151*
X018907Y031146*
X018908Y031142*
X018910Y031138*
X018912Y031135*
Y031134*
X018913*
X018914Y031132*
X018916Y031130*
X018919Y031127*
X018924Y031124*
X018928Y031122*
X018934Y031120*
X018936Y031119*
X018939*
X018941*
X018942*
X018945Y031120*
X018949Y031121*
X018953Y031123*
X018958Y031126*
X018960Y031127*
X018962Y031130*
X018964Y031132*
X018967Y031135*
X018968Y031136*
Y031138*
X018969Y031140*
X018970Y031142*
X018971Y031145*
X018972Y031148*
X018973Y031152*
X018974Y031157*
X018975Y031162*
X018976Y031168*
X018977Y031174*
Y031181*
X018978Y031189*
Y031198*
Y031199*
Y031202*
Y031205*
Y031209*
X018977Y031213*
Y031218*
Y031223*
X018975Y031234*
X018974Y031239*
X018973Y031244*
X018972Y031249*
X018970Y031253*
X018969Y031257*
X018967Y031260*
Y031261*
X018966*
Y031262*
X018965Y031263*
X018962Y031265*
X018959Y031268*
X018955Y031271*
X018951Y031274*
X018948Y031275*
X018945Y031276*
X018942*
X018939*
G37*
G36*
X018768Y032976D02*
X018763D01*
X018762*
X018759*
X018756Y032975*
X018751Y032973*
X018746Y032971*
X018742Y032968*
X018740Y032965*
X018737Y032963*
X018736Y032962*
Y032961*
X018734Y032958*
X018732Y032954*
X018730Y032950*
X018728Y032944*
X018727Y032937*
X018726Y032930*
Y032929*
Y032928*
Y032927*
Y032925*
X018727Y032924*
Y032919*
X018729Y032915*
X018730Y032910*
X018733Y032905*
X018737Y032900*
X018739Y032899*
X018741Y032897*
X018744Y032895*
X018748Y032893*
X018753Y032891*
X018758Y032889*
X018764*
X018766*
X018767*
X018770*
X018774Y032890*
X018778Y032892*
X018783Y032894*
X018787Y032896*
X018791Y032900*
X018792Y032901*
X018793Y032902*
X018794Y032905*
X018797Y032909*
X018799Y032913*
X018800Y032918*
X018801Y032925*
X018802Y032932*
Y032933*
Y032934*
Y032935*
Y032937*
X018801Y032939*
Y032943*
X018799Y032949*
X018797Y032954*
X018795Y032960*
X018791Y032964*
Y032965*
X018789Y032966*
X018787Y032968*
X018784Y032970*
X018780Y032972*
X018776Y032974*
X018771Y032976*
X018768*
G37*
G36*
X018604Y032973D02*
X018544D01*
Y032910*
X018601*
X018604*
X018608Y032911*
X018613*
X018617*
X018622Y032912*
X018625Y032913*
X018626Y032914*
X018627*
X018629Y032915*
X018631Y032916*
X018633Y032918*
X018636Y032920*
X018638Y032922*
X018640Y032925*
X018641*
Y032926*
X018642Y032928*
X018643Y032930*
X018644Y032933*
X018645Y032935*
Y032939*
X018646Y032942*
Y032943*
X018645Y032944*
Y032947*
Y032950*
X018643Y032953*
X018642Y032957*
X018639Y032961*
X018636Y032965*
X018635*
X018634Y032966*
X018632Y032967*
X018628Y032969*
X018624Y032971*
X018618Y032972*
X018612Y032973*
X018604*
G37*
G36*
Y034473D02*
X018544D01*
Y034410*
X018601*
X018604*
X018608Y034411*
X018613*
X018617*
X018622Y034412*
X018625Y034413*
X018626Y034414*
X018627*
X018629Y034415*
X018631Y034416*
X018633Y034418*
X018636Y034420*
X018638Y034422*
X018640Y034425*
X018641*
Y034426*
X018642Y034428*
X018643Y034430*
X018644Y034433*
X018645Y034435*
Y034439*
X018646Y034442*
Y034443*
X018645Y034444*
Y034447*
Y034450*
X018643Y034453*
X018642Y034457*
X018639Y034461*
X018636Y034465*
X018635*
X018634Y034466*
X018632Y034467*
X018628Y034469*
X018624Y034471*
X018618Y034472*
X018612Y034473*
X018604*
G37*
G36*
X018765Y034476D02*
X018763D01*
X018760*
X018757Y034475*
X018753Y034474*
X018749Y034473*
X018746Y034470*
X018742Y034467*
X018741Y034466*
X018739Y034464*
X018738Y034461*
X018736Y034458*
X018735Y034455*
X018734Y034451*
X018733Y034447*
Y034446*
X018734Y034444*
Y034442*
X018735Y034439*
X018736Y034435*
X018737Y034432*
X018739Y034428*
X018742Y034424*
X018744Y034423*
X018746Y034422*
X018748Y034420*
X018751Y034419*
X018755Y034417*
X018760Y034416*
X018765*
X018767*
X018769*
X018773Y034417*
X018776Y034418*
X018780Y034419*
X018784Y034422*
X018787Y034424*
Y034425*
X018789Y034426*
X018790Y034428*
X018792Y034430*
X018793Y034433*
X018795Y034437*
X018796Y034441*
Y034445*
Y034446*
Y034448*
Y034450*
X018795Y034453*
X018794Y034457*
X018792Y034460*
X018790Y034464*
X018787Y034467*
Y034468*
X018785Y034469*
X018783Y034470*
X018781Y034472*
X018778Y034473*
X018774Y034475*
X018769Y034476*
X018765*
G37*
G36*
X018764Y034397D02*
X018762D01*
X018761Y034396*
X018758*
X018754Y034395*
X018750Y034394*
X018745Y034392*
X018741Y034389*
X018737Y034386*
X018736Y034385*
X018735Y034384*
X018733Y034381*
X018731Y034378*
X018729Y034374*
X018727Y034369*
X018726Y034364*
Y034358*
Y034357*
Y034355*
Y034352*
X018727Y034349*
X018728Y034346*
X018729Y034342*
X018730Y034339*
X018731Y034337*
X018732Y034335*
X018734Y034334*
X018736Y034331*
X018738Y034329*
X018741Y034326*
X018744Y034324*
X018745*
X018746Y034323*
X018748Y034322*
X018750*
X018753Y034321*
X018757Y034320*
X018761Y034319*
X018765*
X018766*
X018768*
X018771Y034320*
X018775*
X018779Y034322*
X018784Y034324*
X018788Y034326*
X018793Y034330*
X018794Y034332*
X018796Y034334*
X018798Y034337*
X018800Y034341*
X018802Y034346*
X018803Y034352*
X018804Y034357*
Y034358*
Y034359*
Y034360*
X018803Y034363*
X018802Y034367*
X018801Y034371*
X018799Y034376*
X018796Y034381*
X018792Y034385*
Y034386*
X018791Y034387*
X018788Y034389*
X018785Y034391*
X018781Y034393*
X018776Y034395*
X018770Y034396*
X018764Y034397*
G37*
G36*
X036905Y040372D02*
X036844D01*
Y040309*
X036901*
X036905*
X036908*
X036913Y040310*
X036917*
X036922Y040311*
X036926Y040312*
X036927Y040313*
X036929Y040314*
X036931Y040315*
X036934Y040316*
X036936Y040318*
X036939Y040321*
X036941Y040324*
Y040325*
X036942Y040327*
X036943Y040329*
X036944Y040331*
X036945Y040334*
X036946Y040338*
Y040341*
Y040343*
X036945Y040346*
Y040349*
X036943Y040352*
X036942Y040356*
X036939Y040360*
X036936Y040363*
X036935Y040364*
X036934Y040365*
X036932Y040366*
X036928Y040368*
X036924Y040369*
X036918Y040371*
X036912Y040372*
X036905*
G37*
G36*
X021166Y033007D02*
X021165D01*
X021164Y033006*
X021161*
X021157Y033005*
X021153Y033004*
X021148Y033002*
X021144Y032999*
X021139Y032995*
Y032994*
X021137Y032993*
X021136Y032991*
X021134Y032987*
X021132Y032983*
X021130Y032978*
X021129Y032972*
X021128Y032965*
Y032963*
Y032961*
X021129Y032958*
Y032954*
X021130Y032950*
X021131Y032946*
X021133Y032942*
Y032941*
X021134Y032940*
X021135Y032938*
X021137Y032935*
X021139Y032933*
X021141Y032930*
X021144Y032927*
X021147Y032925*
X021148*
X021149Y032924*
X021151Y032923*
X021154Y032922*
X021156Y032921*
X021160Y032920*
X021163Y032919*
X021167*
X021169*
X021170*
X021172Y032920*
X021176*
X021180Y032922*
X021184Y032924*
X021189Y032927*
X021191Y032929*
X021193Y032931*
Y032932*
X021195Y032933*
X021196Y032936*
X021198Y032940*
X021200Y032944*
X021202Y032950*
X021203Y032956*
X021204Y032964*
Y032965*
Y032966*
X021203Y032967*
Y032969*
Y032971*
X021202Y032975*
X021201Y032980*
X021199Y032985*
X021196Y032990*
X021193Y032995*
X021192Y032996*
X021191Y032997*
X021189Y032999*
X021186Y033001*
X021182Y033003*
X021177Y033005*
X021172Y033006*
X021166Y033007*
G37*
G36*
X021005Y033073D02*
X020944D01*
Y033010*
X021001*
X021005*
X021008Y033011*
X021013*
X021017*
X021022Y033012*
X021026Y033013*
Y033014*
X021027*
X021029Y033015*
X021031Y033016*
X021034Y033018*
X021036Y033020*
X021039Y033022*
X021041Y033025*
Y033026*
X021042Y033028*
X021043Y033030*
X021044Y033033*
X021045Y033035*
X021046Y033039*
Y033042*
Y033043*
Y033044*
X021045Y033047*
Y033050*
X021043Y033053*
X021042Y033057*
X021039Y033061*
X021036Y033065*
X021035*
X021034Y033066*
X021032Y033067*
X021028Y033069*
X021024Y033071*
X021018Y033072*
X021012Y033073*
X021005*
G37*
G36*
X020404Y033074D02*
X020343D01*
Y033010*
X020401*
X020404Y033011*
X020408*
X020412*
X020417Y033012*
X020421Y033013*
X020425Y033014*
X020427Y033015*
X020428*
X020430Y033016*
X020433Y033018*
X020435Y033020*
X020438Y033023*
X020440Y033025*
Y033026*
X020441Y033027*
X020442Y033028*
X020443Y033031*
Y033033*
X020444Y033036*
X020445Y033039*
Y033043*
Y033045*
Y033047*
X020444Y033051*
X020443Y033054*
X020441Y033058*
X020438Y033061*
X020435Y033065*
X020433Y033066*
X020431Y033068*
X020427Y033069*
X020423Y033071*
X020418Y033072*
X020411Y033074*
X020404*
G37*
G36*
X019078Y034055D02*
X019017Y033969D01*
X019078*
Y034055*
G37*
G36*
X018905Y034072D02*
X018845D01*
Y034009*
X018902*
X018905*
X018909*
X018913Y034010*
X018918*
X018922Y034011*
X018926Y034012*
X018927*
X018928Y034013*
X018929Y034014*
X018932Y034015*
X018934Y034016*
X018937Y034018*
X018939Y034021*
X018941Y034024*
X018942Y034025*
X018943Y034027*
X018944Y034029*
X018945Y034031*
Y034034*
X018946Y034038*
Y034041*
Y034043*
Y034046*
X018945Y034049*
X018944Y034052*
X018942Y034056*
X018940Y034060*
X018936Y034063*
Y034064*
X018934Y034065*
X018932Y034066*
X018928Y034068*
X018924Y034069*
X018919Y034071*
X018912Y034072*
X018905*
G37*
G36*
X024005Y027873D02*
X023944D01*
Y027810*
X024001*
X024005*
X024008Y027811*
X024013*
X024017*
X024022Y027812*
X024026Y027813*
Y027814*
X024027*
X024029Y027815*
X024031Y027816*
X024034Y027818*
X024036Y027820*
X024039Y027822*
X024041Y027825*
Y027826*
X024042Y027828*
X024043Y027830*
X024044Y027833*
X024045Y027835*
X024046Y027839*
Y027842*
Y027843*
Y027844*
X024045Y027847*
Y027850*
X024043Y027853*
X024042Y027857*
X024039Y027861*
X024036Y027865*
X024035*
X024034Y027866*
X024032Y027867*
X024028Y027869*
X024024Y027871*
X024018Y027872*
X024012Y027873*
X024005*
G37*
G36*
X020805Y027872D02*
X020745D01*
Y027808*
X020802*
X020805Y027809*
X020809*
X020814*
X020818Y027810*
X020823Y027811*
X020827Y027812*
X020828*
X020830Y027813*
X020832Y027814*
X020835Y027816*
X020837Y027818*
X020840Y027820*
X020842Y027823*
Y027824*
Y027825*
X020843Y027826*
X020844Y027829*
X020845Y027831*
X020846Y027834*
X020847Y027837*
Y027840*
Y027841*
Y027843*
X020846Y027845*
Y027848*
X020844Y027852*
X020843Y027856*
X020840Y027859*
X020837Y027863*
X020836*
X020835Y027864*
X020833Y027866*
X020829Y027867*
X020825Y027869*
X020819Y027870*
X020813Y027871*
X020805Y027872*
G37*
G36*
X024323Y033172D02*
X024263D01*
Y033108*
X024320*
X024323Y033109*
X024327*
X024331*
X024336Y033110*
X024340Y033111*
X024344Y033112*
X024345*
X024346*
X024347Y033113*
X024350Y033114*
X024352Y033116*
X024355Y033118*
X024357Y033120*
X024359Y033123*
Y033124*
X024360Y033125*
X024361Y033126*
X024362Y033129*
X024363Y033131*
X024364Y033134*
Y033137*
Y033140*
Y033141*
Y033143*
Y033145*
X024363Y033148*
X024362Y033152*
X024360Y033156*
X024358Y033159*
X024354Y033163*
X024352Y033164*
X024350Y033166*
X024347Y033167*
X024342Y033169*
X024337Y033170*
X024331Y033171*
X024323Y033172*
G37*
G36*
X034899Y027981D02*
X034896D01*
X034894Y027980*
X034892*
X034889*
X034886Y027979*
X034883Y027978*
X034879Y027977*
X034875Y027976*
X034871Y027974*
X034867Y027972*
X034863Y027970*
X034860Y027967*
X034856Y027965*
X034852Y027961*
X034851Y027960*
X034850Y027959*
X034849Y027957*
X034848Y027956*
X034846Y027953*
X034845Y027950*
X034843Y027947*
X034841Y027943*
X034839Y027938*
X034838Y027934*
X034837Y027928*
X034835Y027923*
X034834Y027917*
Y027910*
X034833Y027903*
Y027902*
Y027900*
X034834Y027897*
Y027894*
X034835Y027890*
Y027886*
X034836Y027882*
X034838Y027873*
X034839Y027868*
X034841Y027863*
X034843Y027859*
X034846Y027854*
X034848Y027850*
X034852Y027846*
X034853Y027845*
X034854Y027844*
X034855Y027843*
X034857Y027841*
X034859Y027839*
X034862Y027838*
X034865Y027836*
X034868Y027834*
X034871Y027832*
X034875Y027831*
X034879Y027829*
X034884Y027828*
X034889Y027827*
X034894Y027826*
X034899*
X034902*
X034904*
X034907*
X034912Y027827*
X034916Y027828*
X034920Y027829*
X034925Y027831*
X034924*
X034923Y027832*
X034920Y027834*
X034917Y027835*
X034914Y027837*
X034909Y027839*
X034905Y027841*
X034900Y027842*
X034906Y027860*
X034907*
X034908*
X034910Y027859*
X034912*
X034914Y027858*
X034919Y027856*
X034925Y027853*
X034931Y027850*
X034937Y027846*
X034942Y027842*
X034943*
Y027843*
X034945Y027844*
X034946Y027846*
X034948Y027848*
X034950Y027851*
X034951Y027854*
X034954Y027857*
X034956Y027861*
X034958Y027866*
X034960Y027871*
X034961Y027876*
X034963Y027882*
X034964Y027889*
Y027896*
X034965Y027903*
Y027904*
Y027905*
Y027907*
X034964Y027909*
Y027911*
Y027914*
Y027917*
X034963Y027923*
X034961Y027930*
X034960Y027937*
X034957Y027944*
X034956Y027945*
Y027946*
X034955Y027947*
X034953Y027950*
X034951Y027954*
X034948Y027958*
X034943Y027963*
X034939Y027967*
X034933Y027971*
Y027972*
X034932*
X034931Y027973*
X034929*
X034928Y027974*
X034924Y027976*
X034919Y027978*
X034913Y027979*
X034906Y027980*
X034899Y027981*
G37*
G36*
X030717Y040081D02*
X030714D01*
X030712Y040080*
X030710*
X030707*
X030704Y040079*
X030700Y040078*
X030696Y040077*
X030693Y040076*
X030689Y040074*
X030685Y040072*
X030681Y040070*
X030677Y040067*
X030673Y040065*
X030670Y040061*
X030669*
Y040060*
X030668Y040059*
X030667Y040057*
X030665Y040056*
X030664Y040053*
X030662Y040050*
X030660Y040047*
X030659Y040043*
X030657Y040038*
X030656Y040034*
X030654Y040028*
X030653Y040023*
X030652Y040017*
X030651Y040010*
Y040003*
Y040002*
Y040000*
Y039997*
X030652Y039994*
Y039990*
X030653Y039986*
Y039982*
X030656Y039973*
X030657Y039968*
X030659Y039963*
X030661Y039959*
X030663Y039954*
X030666Y039950*
X030669Y039946*
X030670*
Y039945*
X030671Y039944*
X030673Y039943*
X030675Y039941*
X030677Y039939*
X030679Y039938*
X030682Y039936*
X030685Y039934*
X030689Y039932*
X030693Y039931*
X030697Y039929*
X030702Y039928*
X030706Y039927*
X030711Y039926*
X030717*
X030719*
X030722*
X030725*
X030729Y039927*
X030733Y039928*
X030738Y039929*
X030742Y039931*
X030741Y039932*
X030738Y039934*
X030735Y039935*
X030731Y039937*
X030727Y039939*
X030722Y039941*
X030717Y039942*
X030724Y039960*
X030725*
X030726*
X030727Y039959*
X030729*
X030731Y039958*
X030736Y039956*
X030742Y039953*
X030748Y039950*
X030754Y039946*
X030760Y039942*
X030761Y039943*
X030762Y039944*
X030764Y039946*
X030765Y039948*
X030767Y039951*
X030769Y039954*
X030771Y039957*
X030773Y039961*
X030775Y039966*
X030777Y039971*
X030779Y039976*
X030780Y039982*
X030782Y039989*
Y039996*
Y040003*
Y040004*
Y040005*
Y040007*
Y040009*
Y040011*
Y040014*
X030781Y040017*
X030780Y040023*
X030779Y040030*
X030777Y040037*
X030774Y040044*
Y040045*
Y040046*
X030773Y040047*
X030771Y040050*
X030769Y040054*
X030765Y040058*
X030761Y040063*
X030756Y040067*
X030751Y040071*
Y040072*
X030750*
X030748Y040073*
X030747*
X030745Y040074*
X030741Y040076*
X030736Y040078*
X030730Y040079*
X030724Y040080*
X030717Y040081*
G37*
G36*
X029710Y036809D02*
X029655D01*
Y036741*
X029707*
X029709*
X029711*
X029713*
X029718Y036742*
X029724Y036743*
X029730Y036744*
X029735Y036747*
X029738Y036748*
X029740Y036750*
X029741Y036751*
X029743Y036754*
X029745Y036756*
X029747Y036760*
X029749Y036764*
X029750Y036769*
Y036775*
Y036776*
Y036777*
Y036780*
X029749Y036782*
Y036785*
X029748Y036789*
X029746Y036792*
X029744Y036796*
X029743Y036797*
X029742Y036798*
X029740Y036800*
X029737Y036802*
X029735Y036804*
X029732Y036806*
X029728Y036807*
X029727*
X029725Y036808*
X029723*
X029719*
X029715Y036809*
X029710*
G37*
G36*
X029750Y031470D02*
X029695D01*
Y031402*
X029747*
X029749*
X029751*
X029753*
X029758Y031403*
X029764Y031404*
X029770Y031406*
X029775Y031408*
X029778Y031409*
X029780Y031411*
Y031412*
X029781Y031413*
X029783Y031415*
X029785Y031418*
X029787Y031421*
X029788Y031426*
X029790Y031431*
Y031437*
Y031439*
Y031441*
X029789Y031444*
Y031447*
X029788Y031450*
X029786Y031454*
X029784Y031457*
X029783Y031458*
X029782Y031460*
X029780Y031462*
X029777Y031464*
X029775Y031465*
X029772Y031467*
X029768Y031468*
X029767Y031469*
X029765*
X029763Y031470*
X029759*
X029755*
X029750*
G37*
G36*
X028210Y030609D02*
X028155D01*
Y030541*
X028207*
X028209*
X028211*
X028213*
X028218Y030542*
X028224Y030543*
X028230Y030544*
X028235Y030547*
X028238Y030548*
X028240Y030550*
X028241Y030551*
X028243Y030554*
X028245Y030556*
X028247Y030560*
X028249Y030564*
X028250Y030569*
Y030575*
Y030576*
Y030577*
Y030580*
X028249Y030582*
Y030585*
X028248Y030589*
X028246Y030592*
X028244Y030596*
X028243Y030597*
X028242Y030598*
X028240Y030600*
X028237Y030602*
X028235Y030604*
X028232Y030606*
X028228Y030607*
X028227*
X028225Y030608*
X028223*
X028219*
X028215Y030609*
X028210*
G37*
G36*
X028362Y030613D02*
X028360D01*
X028357*
X028354Y030612*
X028350Y030611*
X028346Y030610*
X028343Y030607*
X028339Y030604*
X028338Y030603*
X028336Y030601*
X028335Y030598*
X028333Y030595*
X028332Y030592*
X028331Y030588*
Y030583*
Y030581*
Y030579*
X028332Y030576*
X028333Y030572*
X028334Y030569*
X028336Y030565*
X028339Y030561*
X028341Y030560*
X028343Y030559*
X028345Y030557*
X028349Y030556*
X028352Y030554*
X028357Y030553*
X028362*
X028364*
X028367*
X028370Y030554*
X028373Y030555*
X028377Y030556*
X028381Y030559*
X028384Y030561*
X028385Y030562*
X028386Y030563*
X028387Y030565*
X028389Y030567*
X028390Y030570*
X028392Y030574*
X028393Y030578*
Y030582*
Y030583*
Y030585*
Y030587*
X028392Y030590*
X028391Y030593*
X028389Y030597*
X028387Y030601*
X028384Y030604*
Y030605*
X028382Y030606*
X028380Y030607*
X028378Y030609*
X028375Y030610*
X028371Y030612*
X028367Y030613*
X028362*
G37*
G36*
X028361Y030534D02*
X028359D01*
X028358Y030533*
X028355*
X028351Y030532*
X028347Y030531*
X028342Y030529*
X028338Y030526*
X028334Y030523*
X028333Y030522*
X028332Y030521*
X028330Y030518*
X028328Y030515*
X028326Y030511*
X028324Y030506*
X028323Y030501*
Y030495*
Y030493*
Y030492*
Y030489*
X028324Y030486*
X028325Y030483*
X028326Y030479*
X028327Y030476*
X028328Y030475*
Y030474*
X028329Y030472*
X028331Y030470*
X028333Y030468*
X028335Y030465*
X028338Y030463*
X028341Y030461*
X028342*
X028343Y030460*
X028345Y030459*
X028347*
X028350Y030458*
X028354Y030457*
X028358Y030456*
X028362*
X028364*
X028365*
X028368Y030457*
X028372*
X028376Y030459*
X028381Y030461*
X028385Y030463*
X028390Y030467*
X028391Y030469*
X028393Y030471*
X028395Y030474*
X028397Y030478*
X028399Y030483*
X028400Y030488*
X028401Y030494*
Y030495*
Y030496*
Y030497*
X028400Y030500*
Y030504*
X028398Y030508*
X028396Y030513*
X028393Y030518*
X028390Y030522*
X028389Y030523*
X028388Y030524*
X028385Y030526*
X028382Y030528*
X028378Y030530*
X028373Y030532*
X028367Y030533*
X028361Y030534*
G37*
G36*
X035542Y024376D02*
X035538D01*
X035537*
X035534*
X035530Y024375*
X035526Y024373*
X035521Y024371*
X035516Y024368*
X035514Y024365*
X035512Y024363*
X035511*
Y024362*
X035510Y024361*
X035508Y024358*
X035506Y024354*
X035504Y024350*
X035502Y024344*
X035501Y024337*
Y024330*
Y024329*
Y024328*
Y024327*
Y024325*
Y024324*
X035502Y024319*
X035503Y024315*
X035505Y024310*
X035508Y024305*
X035511Y024300*
X035512*
X035513Y024299*
X035516Y024297*
X035519Y024295*
X035523Y024293*
X035528Y024291*
X035533Y024289*
X035539*
X035541*
X035542*
X035545*
X035548Y024290*
X035553Y024292*
X035557Y024294*
X035562Y024296*
X035566Y024300*
Y024301*
X035567Y024302*
X035569Y024305*
X035571Y024309*
X035573Y024313*
X035575Y024318*
X035576Y024325*
X035577Y024332*
Y024333*
Y024334*
X035576Y024335*
Y024337*
Y024339*
X035575Y024343*
X035574Y024349*
X035572Y024354*
X035569Y024360*
X035566Y024364*
Y024365*
X035565*
X035564Y024366*
X035562Y024368*
X035559Y024370*
X035555Y024372*
X035550Y024374*
X035545Y024376*
X035542*
G37*
G36*
X035214Y024372D02*
X035169D01*
Y024226*
X035215*
X035217*
X035221*
X035226Y024227*
X035231*
X035236Y024228*
X035240Y024229*
X035242Y024230*
X035244*
X035246Y024232*
X035249Y024233*
X035252Y024235*
X035254Y024237*
X035257Y024239*
Y024240*
X035259Y024241*
X035260Y024243*
X035262Y024245*
X035264Y024249*
X035267Y024253*
X035269Y024258*
X035271Y024263*
Y024264*
X035272Y024265*
Y024266*
Y024267*
X035273Y024269*
Y024271*
X035274Y024273*
X035275Y024279*
Y024285*
X035276Y024293*
Y024300*
Y024301*
Y024302*
Y024303*
Y024305*
Y024308*
Y024311*
X035275Y024314*
Y024317*
X035274Y024325*
X035272Y024332*
X035270Y024340*
X035268Y024343*
X035266Y024346*
Y024347*
X035265Y024348*
Y024349*
X035262Y024352*
X035260Y024355*
X035256Y024359*
X035252Y024362*
X035247Y024365*
X035242Y024368*
X035240*
X035238Y024369*
X035234Y024370*
X035230Y024371*
X035224*
X035221Y024372*
X035217*
X035214*
G37*
G36*
X021834Y024309D02*
X021774Y024224D01*
X021834*
Y024309*
G37*
G36*
X021496Y024325D02*
X021452D01*
Y024179*
X021497*
X021499*
X021503*
X021508Y024180*
X021513*
X021518Y024181*
X021522Y024182*
X021523*
X021524Y024183*
X021526*
X021529Y024185*
X021531Y024186*
X021534Y024188*
X021537Y024190*
X021540Y024192*
Y024193*
X021541Y024194*
X021543Y024196*
X021545Y024198*
X021547Y024202*
X021549Y024206*
X021552Y024211*
X021553Y024216*
X021554Y024217*
Y024218*
Y024219*
X021555Y024220*
Y024222*
X021556Y024224*
Y024226*
X021557Y024232*
X021558Y024238*
Y024245*
X021559Y024253*
Y024255*
Y024256*
X021558Y024258*
Y024261*
Y024263*
Y024267*
Y024270*
X021556Y024278*
X021555Y024285*
X021552Y024293*
X021550Y024296*
X021549Y024299*
X021548Y024300*
Y024301*
X021547Y024302*
X021545Y024305*
X021542Y024308*
X021539Y024312*
X021534Y024315*
X021530Y024318*
X021525Y024321*
X021524*
X021523*
X021520Y024322*
X021517Y024323*
X021512Y024324*
X021507*
X021503Y024325*
X021500*
X021496*
G37*
G36*
Y023660D02*
X021451D01*
Y023514*
X021497*
X021499*
X021503*
X021508Y023515*
X021513*
X021518Y023516*
X021522Y023517*
X021524Y023518*
X021526*
X021528Y023519*
X021531Y023521*
X021534Y023523*
X021536Y023525*
X021539Y023527*
Y023528*
X021541Y023529*
X021542Y023531*
X021544Y023533*
X021546Y023537*
X021549Y023541*
X021551Y023546*
X021553Y023551*
Y023552*
X021554Y023553*
Y023554*
Y023555*
X021555Y023557*
Y023559*
X021556Y023561*
X021557Y023567*
Y023573*
X021558Y023580*
Y023588*
Y023590*
Y023591*
Y023593*
Y023596*
Y023598*
X021557Y023602*
Y023605*
X021556Y023613*
X021554Y023620*
X021552Y023628*
X021550Y023631*
X021548Y023634*
Y023635*
X021547Y023636*
Y023637*
X021544Y023640*
X021542Y023643*
X021538Y023647*
X021534Y023650*
X021529Y023653*
X021524Y023656*
X021522*
X021520Y023657*
X021516Y023658*
X021512Y023659*
X021506*
X021503Y023660*
X021499*
X021496*
G37*
G36*
X018215Y026992D02*
X018170D01*
Y026845*
X018216*
X018218Y026846*
X018222*
X018227*
X018232Y026847*
X018237Y026848*
X018241Y026849*
X018243*
X018245Y026850*
X018247Y026851*
X018250Y026853*
X018253Y026855*
X018255Y026856*
X018258Y026859*
X018259*
X018260Y026860*
X018261Y026862*
X018263Y026865*
X018265Y026869*
X018268Y026873*
X018270Y026877*
X018272Y026883*
Y026884*
X018273*
Y026886*
Y026887*
X018274Y026889*
Y026891*
X018275Y026893*
X018276Y026899*
X018277Y026905*
Y026912*
Y026920*
Y026921*
Y026923*
Y026925*
Y026927*
Y026930*
Y026933*
X018276Y026937*
X018275Y026944*
X018273Y026952*
X018271Y026959*
X018269Y026963*
X018267Y026966*
Y026967*
X018266Y026968*
Y026969*
X018264Y026971*
X018261Y026975*
X018257Y026978*
X018253Y026982*
X018248Y026985*
X018243Y026987*
Y026988*
X018241*
X018239Y026989*
X018235Y026990*
X018231*
X018225Y026991*
X018222*
X018218*
X018215Y026992*
G37*
G36*
X018232Y020692D02*
X018188D01*
Y020545*
X018233*
X018235Y020546*
X018240*
X018244*
X018249Y020547*
X018254Y020548*
X018258Y020549*
X018259*
X018260*
X018262Y020550*
X018265Y020551*
X018268Y020553*
X018270Y020554*
X018273Y020556*
X018276Y020559*
X018277Y020560*
X018279Y020562*
X018281Y020565*
X018283Y020569*
X018286Y020573*
X018288Y020577*
X018290Y020583*
Y020584*
X018291Y020586*
Y020587*
Y020589*
X018292Y020591*
Y020593*
X018293Y020599*
X018294Y020605*
X018295Y020612*
Y020620*
Y020621*
Y020623*
Y020625*
Y020627*
X018294Y020630*
Y020633*
Y020637*
X018292Y020644*
X018291Y020652*
X018288Y020659*
X018287Y020663*
X018285Y020666*
X018284Y020667*
Y020668*
X018283Y020669*
X018281Y020671*
X018278Y020675*
X018275Y020678*
X018271Y020682*
X018266Y020685*
X018261Y020687*
X018260Y020688*
X018259*
X018256Y020689*
X018253Y020690*
X018248*
X018243Y020691*
X018240*
X018236*
X018232Y020692*
G37*
G36*
X034414Y029972D02*
X034370D01*
Y029826*
X034415*
X034417*
X034421*
X034426Y029827*
X034431*
X034436Y029828*
X034440Y029829*
X034441*
X034442Y029830*
X034444*
X034446Y029832*
X034449Y029833*
X034452Y029835*
X034455Y029837*
X034458Y029839*
Y029840*
X034459Y029841*
X034461Y029843*
X034463Y029845*
X034465Y029849*
X034467Y029853*
X034469Y029858*
X034471Y029863*
X034472Y029864*
Y029865*
Y029866*
X034473Y029867*
Y029869*
X034474Y029871*
Y029873*
X034475Y029879*
X034476Y029885*
Y029893*
X034477Y029900*
Y029901*
Y029902*
Y029903*
X034476Y029905*
Y029908*
Y029911*
Y029914*
Y029917*
X034474Y029925*
X034473Y029932*
X034470Y029940*
X034468Y029943*
X034467Y029946*
Y029947*
X034466*
Y029948*
X034465Y029949*
X034463Y029952*
X034460Y029955*
X034456Y029959*
X034452Y029962*
X034448Y029965*
X034443Y029968*
X034442*
X034441*
X034438Y029969*
X034435Y029970*
X034430Y029971*
X034425*
X034421Y029972*
X034418*
X034414*
G37*
G36*
X034739Y029976D02*
X034738D01*
X034737*
X034733Y029975*
X034730*
X034726Y029973*
X034721Y029970*
X034719Y029969*
X034717Y029967*
X034715Y029965*
X034713Y029962*
X034712Y029961*
Y029960*
X034711Y029959*
X034710Y029957*
X034709Y029954*
X034708Y029951*
X034707Y029948*
X034706Y029943*
X034705Y029939*
X034704Y029934*
X034703Y029928*
X034702Y029921*
Y029914*
X034701Y029906*
Y029897*
Y029896*
Y029893*
Y029890*
Y029886*
X034702Y029882*
Y029877*
Y029872*
X034704Y029861*
X034705Y029856*
X034706Y029851*
X034707Y029846*
X034709Y029842*
X034710Y029838*
X034712Y029835*
Y029834*
X034713*
X034714Y029832*
X034717Y029830*
X034720Y029827*
X034724Y029824*
X034728Y029822*
X034734Y029820*
X034737Y029819*
X034740*
X034741*
X034742*
X034745Y029820*
X034749Y029821*
X034753Y029823*
X034758Y029826*
X034760Y029827*
X034762Y029830*
X034764Y029832*
X034767Y029835*
X034768Y029836*
Y029838*
X034769Y029840*
X034770Y029842*
X034771Y029845*
X034773Y029848*
Y029852*
X034774Y029857*
X034776Y029862*
Y029868*
X034777Y029874*
X034778Y029881*
Y029889*
Y029897*
Y029898*
Y029899*
Y029902*
Y029905*
Y029909*
Y029913*
X034777Y029918*
Y029923*
X034775Y029934*
X034774Y029939*
X034773Y029944*
X034772Y029949*
X034771Y029953*
X034769Y029957*
X034767Y029960*
Y029961*
X034766*
Y029962*
X034765Y029963*
X034763Y029965*
X034760Y029968*
X034755Y029971*
X034751Y029974*
X034748Y029975*
X034745Y029976*
X034742*
X034739*
G37*
G36*
X031768Y040876D02*
X031764D01*
X031762*
X031759*
X031756Y040875*
X031751Y040873*
X031747Y040871*
X031742Y040868*
X031740Y040865*
X031737Y040863*
X031736Y040862*
Y040861*
X031734Y040858*
X031732Y040854*
X031730Y040850*
X031728Y040844*
X031727Y040837*
X031726Y040830*
Y040829*
Y040828*
Y040827*
Y040825*
X031727Y040824*
X031728Y040819*
X031729Y040815*
X031731Y040810*
X031733Y040805*
X031737Y040800*
X031739Y040799*
X031741Y040797*
X031744Y040795*
X031749Y040793*
X031753Y040791*
X031759Y040789*
X031764*
X031766*
X031767*
X031770*
X031774Y040790*
X031778Y040792*
X031783Y040794*
X031787Y040796*
X031791Y040800*
X031792Y040801*
X031793Y040802*
X031795Y040805*
X031797Y040809*
X031799Y040813*
X031800Y040818*
X031801Y040825*
X031802Y040832*
Y040833*
Y040834*
Y040835*
Y040837*
X031801Y040839*
Y040843*
X031800Y040849*
X031798Y040854*
X031795Y040860*
X031791Y040864*
Y040865*
X031789Y040866*
X031787Y040868*
X031784Y040870*
X031780Y040872*
X031776Y040874*
X031771Y040876*
X031768*
G37*
G36*
X031588Y040872D02*
X031544D01*
Y040726*
X031589*
X031591*
X031595*
X031600Y040727*
X031605*
X031610Y040728*
X031614Y040729*
X031615*
X031616Y040730*
X031618*
X031621Y040732*
X031623Y040733*
X031626Y040735*
X031629Y040737*
X031632Y040739*
Y040740*
X031633Y040741*
X031635Y040743*
X031637Y040745*
X031639Y040749*
X031641Y040753*
X031644Y040758*
X031646Y040763*
Y040764*
Y040765*
Y040766*
X031647Y040767*
Y040769*
X031648Y040771*
Y040773*
X031649Y040779*
X031650Y040785*
X031651Y040793*
Y040800*
Y040801*
Y040802*
Y040803*
Y040805*
Y040808*
X031650Y040811*
Y040814*
Y040817*
X031648Y040825*
X031647Y040832*
X031644Y040840*
X031642Y040843*
X031641Y040846*
Y040847*
X031640*
Y040848*
X031639Y040849*
X031637Y040852*
X031634Y040855*
X031631Y040859*
X031626Y040862*
X031622Y040865*
X031617Y040868*
X031616*
X031615*
X031612Y040869*
X031609Y040870*
X031604Y040871*
X031599*
X031595Y040872*
X031592*
X031588*
G37*
G36*
X018488Y036772D02*
X018444D01*
Y036626*
X018489*
X018491*
X018495*
X018500Y036627*
X018505*
X018510Y036628*
X018514Y036629*
X018515*
X018516Y036630*
X018518*
X018521Y036632*
X018523Y036633*
X018526Y036635*
X018529Y036637*
X018532Y036639*
Y036640*
X018533Y036641*
X018535Y036643*
X018537Y036645*
X018539Y036649*
X018541Y036653*
X018544Y036658*
X018546Y036663*
Y036664*
Y036665*
Y036666*
X018547Y036667*
Y036669*
X018548Y036671*
Y036673*
X018549Y036679*
X018550Y036685*
X018551Y036693*
Y036700*
Y036701*
Y036702*
Y036703*
Y036705*
Y036708*
X018550Y036711*
Y036714*
Y036717*
X018548Y036725*
X018547Y036732*
X018544Y036740*
X018542Y036743*
X018541Y036746*
Y036747*
X018540*
Y036748*
X018539Y036749*
X018537Y036752*
X018534Y036755*
X018531Y036759*
X018526Y036762*
X018522Y036765*
X018517Y036768*
X018516*
X018515*
X018512Y036769*
X018509Y036770*
X018504Y036771*
X018499*
X018495Y036772*
X018492*
X018488*
G37*
G36*
X018665Y036776D02*
X018663D01*
X018660*
X018657Y036775*
X018653Y036774*
X018649Y036773*
X018646Y036770*
X018642Y036767*
X018641Y036766*
X018639Y036764*
X018638Y036761*
X018636Y036758*
X018635Y036755*
X018634Y036751*
Y036747*
Y036746*
Y036744*
Y036742*
X018635Y036739*
X018636Y036735*
X018637Y036732*
X018639Y036728*
X018642Y036724*
X018644Y036723*
X018646Y036722*
X018648Y036720*
X018652Y036719*
X018656Y036717*
X018660Y036716*
X018665*
X018667*
X018670*
X018673Y036717*
X018677Y036718*
X018680Y036719*
X018684Y036722*
X018687Y036724*
X018688Y036725*
X018689Y036726*
X018690Y036728*
X018692Y036730*
X018693Y036733*
X018695Y036737*
X018696Y036741*
Y036745*
Y036746*
Y036748*
Y036750*
X018695Y036753*
X018694Y036756*
X018692Y036760*
X018690Y036764*
X018687Y036767*
Y036768*
X018685Y036769*
X018683Y036770*
X018681Y036772*
X018678Y036773*
X018674Y036775*
X018670Y036776*
X018665*
G37*
G36*
X018664Y036697D02*
X018662D01*
X018661Y036696*
X018658*
X018654Y036695*
X018650Y036694*
X018646Y036692*
X018641Y036689*
X018637Y036686*
X018636Y036685*
X018635Y036684*
X018633Y036681*
X018631Y036678*
X018629Y036674*
X018628Y036669*
X018626Y036664*
Y036658*
Y036656*
Y036655*
Y036652*
X018627Y036649*
X018628Y036646*
X018629Y036642*
X018630Y036639*
X018631*
Y036637*
X018632Y036635*
X018634Y036634*
X018636Y036631*
X018638Y036629*
X018641Y036626*
X018644Y036624*
X018645*
X018646Y036623*
X018648Y036622*
X018651*
X018654Y036621*
X018657Y036620*
X018661Y036619*
X018665*
X018667*
X018668*
X018671Y036620*
X018675*
X018679Y036622*
X018684Y036624*
X018688Y036626*
X018693Y036630*
X018695Y036632*
X018696Y036634*
X018698Y036637*
X018700Y036641*
X018702Y036646*
X018703Y036652*
X018704Y036657*
Y036658*
Y036659*
Y036660*
X018703Y036663*
Y036667*
X018701Y036671*
X018699Y036676*
X018696Y036681*
X018693Y036685*
X018692Y036686*
X018691Y036687*
X018688Y036689*
X018685Y036691*
X018681Y036693*
X018676Y036695*
X018670Y036696*
X018664Y036697*
G37*
G36*
X025688Y030371D02*
X025644D01*
Y030225*
X025689*
X025691*
X025696*
X025700*
X025705Y030226*
X025710Y030227*
X025714Y030228*
X025715*
X025716*
X025718Y030229*
X025721Y030230*
X025724Y030232*
X025726Y030234*
X025729Y030236*
X025732Y030238*
X025733Y030239*
X025735Y030241*
X025737Y030244*
X025739Y030248*
X025742Y030252*
X025744Y030257*
X025746Y030262*
Y030263*
Y030264*
X025747Y030265*
Y030266*
Y030268*
X025748Y030270*
Y030272*
X025749Y030278*
X025750Y030284*
X025751Y030291*
Y030299*
Y030300*
Y030302*
Y030304*
Y030306*
X025750Y030309*
Y030313*
Y030316*
X025748Y030323*
X025747Y030331*
X025744Y030338*
X025743Y030342*
X025741Y030345*
X025740Y030346*
Y030347*
X025739Y030348*
X025737Y030351*
X025734Y030354*
X025731Y030357*
X025727Y030361*
X025722Y030364*
X025717Y030367*
X025716*
X025715*
X025712Y030368*
X025709Y030369*
X025704*
X025699Y030370*
X025696*
X025692*
X025688Y030371*
G37*
G36*
X019166Y030907D02*
X019165D01*
X019164Y030906*
X019161*
X019157Y030905*
X019153Y030904*
X019148Y030902*
X019144Y030899*
X019139Y030895*
Y030894*
X019138Y030893*
X019136Y030891*
X019134Y030887*
X019132Y030883*
X019130Y030878*
X019129Y030872*
X019128Y030865*
Y030863*
Y030861*
X019129Y030858*
Y030854*
X019130Y030850*
X019132Y030846*
X019133Y030842*
Y030841*
X019134Y030840*
X019135Y030838*
X019137Y030835*
X019139Y030833*
X019142Y030830*
X019144Y030827*
X019148Y030825*
X019149Y030824*
X019151Y030823*
X019154Y030822*
X019156Y030821*
X019160Y030820*
X019163Y030819*
X019167*
X019169*
X019170*
X019173Y030820*
X019176*
X019180Y030822*
X019184Y030824*
X019189Y030827*
X019191Y030829*
X019193Y030831*
X019194Y030832*
X019195Y030833*
X019196Y030836*
X019199Y030840*
X019201Y030844*
X019202Y030850*
X019203Y030856*
X019204Y030864*
Y030865*
Y030866*
Y030867*
Y030869*
X019203Y030871*
X019202Y030875*
X019201Y030880*
X019199Y030885*
X019197Y030890*
X019193Y030895*
X019192Y030896*
X019191Y030897*
X019189Y030899*
X019186Y030901*
X019182Y030903*
X019178Y030905*
X019172Y030906*
X019166Y030907*
G37*
G36*
X018988Y030972D02*
X018944D01*
Y030826*
X018989*
X018991*
X018996*
X019000Y030827*
X019005*
X019010Y030828*
X019014Y030829*
X019015*
X019016Y030830*
X019018*
X019021Y030832*
X019024Y030833*
X019026Y030835*
X019029Y030837*
X019032Y030839*
Y030840*
X019033Y030841*
X019035Y030843*
X019037Y030845*
X019039Y030849*
X019042Y030853*
X019044Y030858*
X019046Y030863*
Y030864*
Y030865*
Y030866*
X019047Y030867*
Y030869*
X019048Y030871*
Y030873*
X019049Y030879*
X019050Y030885*
X019051Y030893*
Y030900*
Y030901*
Y030902*
Y030903*
Y030905*
Y030908*
X019050Y030911*
Y030914*
Y030917*
X019048Y030925*
X019047Y030932*
X019044Y030940*
X019043Y030943*
X019041Y030946*
Y030947*
X019040*
Y030948*
X019039Y030949*
X019037Y030952*
X019034Y030955*
X019031Y030959*
X019027Y030962*
X019022Y030965*
X019017Y030968*
X019016*
X019015*
X019012Y030969*
X019009Y030970*
X019004Y030971*
X018999*
X018996Y030972*
X018992*
X018988*
G37*
G36*
X022188D02*
X022143D01*
Y030826*
X022189*
X022191*
X022195Y030827*
X022200*
X022205Y030828*
X022210*
X022214Y030830*
X022216*
X022218Y030831*
X022220Y030832*
X022223Y030834*
X022226Y030835*
X022228Y030837*
X022231Y030839*
Y030840*
X022233Y030841*
X022234Y030843*
X022236Y030846*
X022238Y030849*
X022241Y030854*
X022243Y030858*
X022245Y030864*
X022246Y030865*
Y030866*
Y030868*
X022247Y030870*
Y030872*
X022248Y030874*
X022249Y030879*
Y030886*
X022250Y030893*
Y030901*
Y030902*
Y030903*
Y030906*
Y030908*
Y030911*
X022249Y030914*
Y030918*
X022248Y030925*
X022246Y030933*
X022244Y030940*
X022242Y030944*
X022240Y030947*
X022239Y030948*
Y030949*
X022236Y030952*
X022234Y030956*
X022230Y030959*
X022226Y030963*
X022221Y030966*
X022216Y030968*
Y030969*
X022214*
X022212Y030970*
X022208*
X022204Y030971*
X022198Y030972*
X022195*
X022191*
X022188*
G37*
G36*
X019578Y029755D02*
X019518Y029669D01*
X019578*
Y029755*
G37*
G36*
X019389Y029771D02*
X019344D01*
Y029625*
X019390*
X019392*
X019396*
X019401*
X019406Y029626*
X019411Y029627*
X019415Y029628*
X019417*
X019419Y029629*
X019421Y029630*
X019424Y029632*
X019427Y029634*
X019429Y029636*
X019432Y029638*
X019433*
X019434Y029639*
X019435Y029641*
X019437Y029644*
X019439Y029648*
X019442Y029652*
X019444Y029657*
X019446Y029662*
Y029663*
X019447Y029664*
Y029665*
Y029666*
X019448Y029668*
Y029670*
X019449Y029672*
X019450Y029678*
X019451Y029684*
Y029691*
Y029699*
Y029700*
Y029702*
Y029704*
Y029706*
Y029709*
Y029713*
X019450Y029716*
X019449Y029723*
X019447Y029731*
X019445Y029738*
X019443Y029742*
X019441Y029745*
Y029746*
X019440Y029747*
Y029748*
X019437Y029751*
X019435Y029754*
X019431Y029757*
X019427Y029761*
X019422Y029764*
X019417Y029767*
X019415*
X019413Y029768*
X019409Y029769*
X019405*
X019399Y029770*
X019396*
X019392*
X019389Y029771*
G37*
G36*
X018988Y031972D02*
X018944D01*
Y031826*
X018989*
X018991*
X018996*
X019000Y031827*
X019005*
X019010Y031828*
X019014Y031829*
X019015*
X019016Y031830*
X019018*
X019021Y031832*
X019024Y031833*
X019026Y031835*
X019029Y031837*
X019032Y031839*
Y031840*
X019033Y031841*
X019035Y031843*
X019037Y031845*
X019039Y031849*
X019042Y031853*
X019044Y031858*
X019046Y031863*
Y031864*
Y031865*
Y031866*
X019047Y031867*
Y031869*
X019048Y031871*
Y031873*
X019049Y031879*
X019050Y031885*
X019051Y031893*
Y031900*
Y031901*
Y031902*
Y031903*
Y031905*
Y031908*
X019050Y031911*
Y031914*
Y031917*
X019048Y031925*
X019047Y031932*
X019044Y031940*
X019043Y031943*
X019041Y031946*
Y031947*
X019040*
Y031948*
X019039Y031949*
X019037Y031952*
X019034Y031955*
X019031Y031959*
X019027Y031962*
X019022Y031965*
X019017Y031968*
X019016*
X019015*
X019012Y031969*
X019009Y031970*
X019004Y031971*
X018999*
X018996Y031972*
X018992*
X018988*
G37*
G36*
X020689Y031970D02*
X020645D01*
Y031824*
X020690*
X020692*
X020696Y031825*
X020701*
X020706*
X020711Y031826*
X020715Y031827*
X020716Y031828*
X020717*
X020719Y031829*
X020722Y031830*
X020724Y031832*
X020727Y031833*
X020730Y031835*
X020733Y031837*
Y031838*
X020734Y031839*
X020736Y031841*
X020738Y031844*
X020740Y031847*
X020742Y031852*
X020745Y031856*
X020747Y031861*
Y031862*
Y031863*
Y031864*
X020748Y031866*
Y031868*
X020749Y031870*
Y031872*
X020750Y031877*
X020751Y031884*
X020752Y031891*
Y031899*
Y031900*
Y031901*
Y031904*
Y031906*
X020751Y031909*
Y031912*
Y031916*
X020749Y031923*
X020748Y031931*
X020745Y031938*
X020744Y031942*
X020742Y031945*
X020741*
Y031946*
X020740Y031947*
X020738Y031950*
X020735Y031953*
X020732Y031957*
X020728Y031961*
X020723Y031964*
X020718Y031966*
X020717*
X020716Y031967*
X020713Y031968*
X020710*
X020705Y031969*
X020700Y031970*
X020696*
X020693*
X020689*
G37*
G36*
X022207Y028670D02*
X022163D01*
Y028524*
X022208*
X022210*
X022214Y028525*
X022219*
X022224*
X022229Y028526*
X022233Y028527*
Y028528*
X022235*
X022237Y028529*
X022239Y028530*
X022242Y028532*
X022245Y028533*
X022248Y028535*
X022250Y028537*
X022251Y028538*
X022252Y028539*
X022253Y028541*
X022255Y028544*
X022258Y028547*
X022260Y028552*
X022262Y028556*
X022264Y028561*
Y028562*
X022265Y028563*
Y028564*
Y028566*
X022266Y028568*
Y028570*
X022267Y028572*
X022268Y028577*
X022269Y028584*
Y028591*
Y028599*
Y028600*
Y028601*
Y028604*
Y028606*
Y028609*
Y028612*
X022268Y028616*
X022267Y028623*
X022265Y028631*
X022263Y028638*
X022261Y028642*
X022260Y028645*
X022259*
X022258Y028646*
Y028647*
X022256Y028650*
X022253Y028653*
X022249Y028657*
X022245Y028661*
X022240Y028664*
X022235Y028666*
X022233Y028667*
X022231Y028668*
X022227*
X022223Y028669*
X022217Y028670*
X022214*
X022210*
X022207*
G37*
G36*
X032756Y026655D02*
X032696Y026569D01*
X032756*
Y026655*
G37*
G36*
X026543Y019643D02*
X026541D01*
X026540*
X026537*
X026534Y019642*
X026529Y019640*
X026525Y019638*
X026523Y019636*
X026521Y019634*
X026519Y019632*
X026517Y019630*
Y019629*
X026516*
Y019628*
X026515Y019626*
X026514Y019624*
X026513Y019622*
X026512Y019618*
X026511Y019615*
X026510Y019611*
X026509Y019606*
X026508Y019601*
X026507Y019595*
X026506Y019588*
X026505Y019581*
Y019573*
Y019565*
Y019564*
Y019563*
Y019560*
Y019557*
Y019553*
Y019549*
X026506Y019544*
Y019539*
X026508Y019528*
Y019523*
X026510Y019518*
X026511Y019514*
X026512Y019509*
X026514Y019505*
X026516Y019502*
Y019501*
X026518Y019499*
X026520Y019497*
X026523Y019494*
X026528Y019491*
X026532Y019489*
X026537Y019487*
X026540*
X026543Y019486*
X026545*
X026546Y019487*
X026549*
X026553Y019488*
X026557Y019490*
X026562Y019493*
X026564Y019495*
X026566Y019497*
X026568Y019499*
X026570Y019502*
X026571Y019503*
X026572Y019504*
Y019505*
X026573Y019507*
X026574Y019509*
X026575Y019512*
X026576Y019515*
X026577Y019520*
X026578Y019524*
X026579Y019529*
X026580Y019535*
X026581Y019541*
Y019548*
X026582Y019556*
Y019565*
Y019567*
Y019569*
Y019573*
Y019576*
X026581Y019581*
Y019585*
X026580Y019591*
X026579Y019601*
X026578Y019606*
X026577Y019611*
X026576Y019616*
X026574Y019620*
X026573Y019624*
X026571Y019628*
X026570*
Y019629*
X026569Y019630*
X026566Y019633*
X026563Y019636*
X026559Y019638*
X026554Y019641*
X026552Y019642*
X026549Y019643*
X026546*
X026543*
G37*
G36*
X028172Y026717D02*
X028167D01*
X028166Y026716*
X028163*
X028160Y026715*
X028155Y026714*
X028150Y026711*
X028146Y026708*
X028143Y026706*
X028141Y026704*
Y026703*
X028140Y026702*
Y026701*
X028138Y026699*
X028136Y026695*
X028133Y026690*
X028132Y026684*
X028130Y026678*
Y026670*
Y026669*
Y026667*
Y026666*
Y026664*
X028131Y026660*
X028133Y026655*
X028134Y026650*
X028137Y026645*
X028141Y026641*
Y026640*
X028143Y026639*
X028145Y026637*
X028148Y026635*
X028152Y026633*
X028157Y026631*
X028162Y026630*
X028168Y026629*
X028170*
X028171Y026630*
X028174*
X028178Y026631*
X028182Y026632*
X028186Y026634*
X028191Y026637*
X028195Y026641*
X028196*
X028197Y026643*
X028198Y026646*
X028201Y026649*
X028202Y026654*
X028204Y026659*
X028205Y026665*
X028206Y026672*
Y026673*
Y026674*
X028205Y026676*
Y026678*
Y026680*
X028204Y026684*
X028203Y026689*
X028201Y026695*
X028199Y026700*
X028195Y026705*
X028194*
X028193Y026707*
X028191Y026709*
X028188Y026711*
X028184Y026713*
X028179Y026715*
X028174Y026716*
X028172Y026717*
G37*
G36*
X026769Y020675D02*
X026766D01*
X026764Y020674*
X026761*
X026757Y020673*
X026753Y020671*
X026750Y020669*
X026746Y020666*
X026745Y020665*
X026743Y020663*
X026742Y020660*
X026740Y020657*
X026739Y020654*
X026738Y020650*
X026737Y020645*
X026738Y020643*
Y020641*
Y020638*
X026740Y020634*
X026741Y020630*
X026743Y020626*
X026746Y020623*
X026748Y020622*
X026750Y020620*
X026752Y020619*
X026755Y020617*
X026759Y020616*
X026764Y020615*
X026769*
X026771*
X026773*
X026777Y020616*
X026780Y020617*
X026784Y020618*
X026788Y020620*
X026791Y020623*
X026792Y020625*
X026794Y020626*
X026796Y020629*
X026797Y020632*
X026799Y020636*
X026800Y020640*
Y020644*
Y020645*
Y020646*
X026799Y020649*
Y020652*
X026798Y020655*
X026796Y020659*
X026794Y020662*
X026791Y020666*
X026789Y020667*
X026787Y020669*
X026785Y020670*
X026781Y020672*
X026778Y020674*
X026773Y020675*
X026769*
G37*
G36*
X026768Y020595D02*
X026766D01*
X026765*
X026762*
X026758Y020594*
X026754Y020593*
X026749Y020591*
X026745Y020588*
X026740Y020584*
X026739Y020582*
X026737Y020580*
X026735Y020577*
X026733Y020573*
X026731Y020568*
X026730Y020563*
Y020557*
Y020556*
Y020555*
Y020553*
Y020551*
X026731Y020548*
X026732Y020544*
X026733Y020541*
X026734Y020538*
Y020537*
X026735Y020536*
X026736Y020534*
X026738Y020532*
X026740Y020530*
X026742Y020527*
X026745Y020525*
X026748Y020523*
X026749*
X026750Y020522*
X026752Y020521*
X026754Y020520*
X026757*
X026761Y020519*
X026765Y020518*
X026769*
X026770*
X026771*
X026775*
X026779Y020519*
X026783Y020521*
X026788Y020522*
X026792Y020525*
X026797Y020529*
X026798Y020531*
X026800Y020533*
X026802Y020536*
X026804Y020540*
X026806Y020545*
X026807Y020550*
X026808Y020556*
Y020557*
Y020558*
X026807Y020559*
Y020562*
X026806Y020566*
X026805Y020570*
X026803Y020575*
X026800Y020580*
X026796Y020584*
Y020585*
X026794Y020586*
X026792Y020588*
X026789Y020590*
X026784Y020592*
X026779Y020594*
X026774Y020595*
X026768*
G37*
%LNde-260924-3*%
%LPD*%
G54D10*
X026242Y032608D02*
D01*
X026241Y032616*
X026240Y032624*
X026239Y032632*
X026237Y032640*
X026234Y032648*
X026231Y032655*
X026228Y032663*
X026224Y032670*
X026219Y032677*
X026214Y032683*
X026208Y032689*
X026202Y032695*
X026196Y032700*
X026189Y032705*
X026183Y032710*
X026175Y032714*
X026168Y032717*
X026160Y032720*
X026152Y032722*
X026144Y032724*
X026136Y032725*
X026128Y032725*
X026119*
X026111Y032725*
X026103Y032724*
X026095Y032722*
X026087Y032720*
X026079Y032717*
X026072Y032714*
X026065Y032710*
X026058Y032705*
X026051Y032700*
X026045Y032695*
X026039Y032689*
X026033Y032683*
X026028Y032677*
X026023Y032670*
X026019Y032663*
X026016Y032655*
X026013Y032648*
X026010Y032640*
X026008Y032632*
X026007Y032624*
X026006Y032616*
X026006Y032608*
X026006Y032599*
X026007Y032591*
X026008Y032583*
X026010Y032575*
X026013Y032567*
X026016Y032560*
X026019Y032552*
X026023Y032545*
X026028Y032538*
X026033Y032532*
X026039Y032526*
X026045Y032520*
X026051Y032515*
X026058Y032510*
X026065Y032505*
X026072Y032501*
X026079Y032498*
X026087Y032495*
X026095Y032493*
X026103Y032491*
X026111Y032490*
X026119Y032490*
X026128*
X026136Y032490*
X026144Y032491*
X026152Y032493*
X026160Y032495*
X026168Y032498*
X026175Y032501*
X026183Y032505*
X026189Y032510*
X026196Y032515*
X026202Y032520*
X026208Y032526*
X026214Y032532*
X026219Y032538*
X026224Y032545*
X026228Y032552*
X026231Y032560*
X026234Y032567*
X026237Y032575*
X026239Y032583*
X026240Y032591*
X026241Y032599*
X026242Y032608*
X036548Y022247D02*
D01*
X036547Y022255*
X036546Y022263*
X036545Y022271*
X036543Y022279*
X036540Y022287*
X036537Y022294*
X036534Y022302*
X036530Y022309*
X036525Y022316*
X036520Y022322*
X036514Y022328*
X036508Y022334*
X036502Y022339*
X036495Y022344*
X036489Y022349*
X036481Y022353*
X036474Y022356*
X036466Y022359*
X036458Y022361*
X036450Y022363*
X036442Y022364*
X036434Y022364*
X036425*
X036417Y022364*
X036409Y022363*
X036401Y022361*
X036393Y022359*
X036385Y022356*
X036378Y022353*
X036371Y022349*
X036364Y022344*
X036357Y022339*
X036351Y022334*
X036345Y022328*
X036339Y022322*
X036334Y022316*
X036329Y022309*
X036325Y022302*
X036322Y022294*
X036319Y022287*
X036316Y022279*
X036314Y022271*
X036313Y022263*
X036312Y022255*
X036312Y022247*
X036312Y022238*
X036313Y022230*
X036314Y022222*
X036316Y022214*
X036319Y022206*
X036322Y022199*
X036325Y022191*
X036329Y022184*
X036334Y022177*
X036339Y022171*
X036345Y022165*
X036351Y022159*
X036357Y022154*
X036364Y022149*
X036371Y022144*
X036378Y022140*
X036385Y022137*
X036393Y022134*
X036401Y022132*
X036409Y022130*
X036417Y022129*
X036425Y022129*
X036434*
X036442Y022129*
X036450Y022130*
X036458Y022132*
X036466Y022134*
X036474Y022137*
X036481Y022140*
X036489Y022144*
X036495Y022149*
X036502Y022154*
X036508Y022159*
X036514Y022165*
X036520Y022171*
X036525Y022177*
X036530Y022184*
X036534Y022191*
X036537Y022199*
X036540Y022206*
X036543Y022214*
X036545Y022222*
X036546Y022230*
X036547Y022238*
X036548Y022247*
X029886Y028481D02*
D01*
X029885Y028489*
X029884Y028497*
X029883Y028505*
X029881Y028513*
X029878Y028521*
X029875Y028528*
X029872Y028536*
X029868Y028543*
X029863Y028550*
X029858Y028556*
X029852Y028562*
X029846Y028568*
X029840Y028573*
X029833Y028578*
X029827Y028583*
X029819Y028587*
X029812Y028590*
X029804Y028593*
X029796Y028595*
X029788Y028597*
X029780Y028598*
X029772Y028598*
X029763*
X029755Y028598*
X029747Y028597*
X029739Y028595*
X029731Y028593*
X029723Y028590*
X029716Y028587*
X029709Y028583*
X029702Y028578*
X029695Y028573*
X029689Y028568*
X029683Y028562*
X029677Y028556*
X029672Y028550*
X029667Y028543*
X029663Y028536*
X029660Y028528*
X029657Y028521*
X029654Y028513*
X029652Y028505*
X029651Y028497*
X029650Y028489*
X029650Y028481*
X029650Y028472*
X029651Y028464*
X029652Y028456*
X029654Y028448*
X029657Y028440*
X029660Y028433*
X029663Y028425*
X029667Y028418*
X029672Y028411*
X029677Y028405*
X029683Y028399*
X029689Y028393*
X029695Y028388*
X029702Y028383*
X029709Y028378*
X029716Y028374*
X029723Y028371*
X029731Y028368*
X029739Y028366*
X029747Y028364*
X029755Y028363*
X029763Y028363*
X029772*
X029780Y028363*
X029788Y028364*
X029796Y028366*
X029804Y028368*
X029812Y028371*
X029819Y028374*
X029827Y028378*
X029833Y028383*
X029840Y028388*
X029846Y028393*
X029852Y028399*
X029858Y028405*
X029863Y028411*
X029868Y028418*
X029872Y028425*
X029875Y028433*
X029878Y028440*
X029881Y028448*
X029883Y028456*
X029884Y028464*
X029885Y028472*
X029886Y028481*
G54D11*
X025322Y033009D02*
D01*
X025321Y033012*
X025321Y033015*
X025320Y033019*
X025320Y033022*
X025319Y033025*
X025317Y033028*
X025316Y033032*
X025314Y033034*
X025312Y033037*
X025310Y033040*
X025308Y033043*
X025305Y033045*
X025303Y033047*
X025300Y033049*
X025297Y033051*
X025294Y033053*
X025291Y033054*
X025288Y033055*
X025284Y033056*
X025281Y033057*
X025278Y033057*
X025274Y033057*
X025271*
X025267Y033057*
X025264Y033057*
X025261Y033056*
X025257Y033055*
X025254Y033054*
X025251Y033053*
X025248Y033051*
X025245Y033049*
X025242Y033047*
X025240Y033045*
X025237Y033043*
X025235Y033040*
X025233Y033037*
X025231Y033034*
X025229Y033032*
X025228Y033028*
X025226Y033025*
X025225Y033022*
X025225Y033019*
X025224Y033015*
X025224Y033012*
X025224Y033009*
X025224Y033005*
X025224Y033002*
X025225Y032998*
X025225Y032995*
X025226Y032992*
X025228Y032989*
X025229Y032985*
X025231Y032983*
X025233Y032980*
X025235Y032977*
X025237Y032974*
X025240Y032972*
X025242Y032970*
X025245Y032968*
X025248Y032966*
X025251Y032964*
X025254Y032963*
X025257Y032962*
X025261Y032961*
X025264Y032960*
X025267Y032960*
X025271Y032960*
X025274*
X025278Y032960*
X025281Y032960*
X025284Y032961*
X025288Y032962*
X025291Y032963*
X025294Y032964*
X025297Y032966*
X025300Y032968*
X025303Y032970*
X025305Y032972*
X025308Y032974*
X025310Y032977*
X025312Y032980*
X025314Y032983*
X025316Y032985*
X025317Y032989*
X025319Y032992*
X025320Y032995*
X025320Y032998*
X025321Y033002*
X025321Y033005*
X025322Y033009*
X024707Y030943D02*
D01*
X024706Y030946*
X024706Y030949*
X024705Y030953*
X024705Y030956*
X024704Y030959*
X024702Y030962*
X024701Y030966*
X024699Y030968*
X024697Y030971*
X024695Y030974*
X024693Y030977*
X024690Y030979*
X024688Y030981*
X024685Y030983*
X024682Y030985*
X024679Y030987*
X024676Y030988*
X024673Y030989*
X024669Y030990*
X024666Y030991*
X024663Y030991*
X024659Y030991*
X024656*
X024652Y030991*
X024649Y030991*
X024646Y030990*
X024642Y030989*
X024639Y030988*
X024636Y030987*
X024633Y030985*
X024630Y030983*
X024627Y030981*
X024625Y030979*
X024622Y030977*
X024620Y030974*
X024618Y030971*
X024616Y030968*
X024614Y030966*
X024613Y030962*
X024611Y030959*
X024610Y030956*
X024610Y030953*
X024609Y030949*
X024609Y030946*
X024609Y030943*
X024609Y030939*
X024609Y030936*
X024610Y030932*
X024610Y030929*
X024611Y030926*
X024613Y030923*
X024614Y030919*
X024616Y030917*
X024618Y030914*
X024620Y030911*
X024622Y030908*
X024625Y030906*
X024627Y030904*
X024630Y030902*
X024633Y030900*
X024636Y030898*
X024639Y030897*
X024642Y030896*
X024646Y030895*
X024649Y030894*
X024652Y030894*
X024656Y030894*
X024659*
X024663Y030894*
X024666Y030894*
X024669Y030895*
X024673Y030896*
X024676Y030897*
X024679Y030898*
X024682Y030900*
X024685Y030902*
X024688Y030904*
X024690Y030906*
X024693Y030908*
X024695Y030911*
X024697Y030914*
X024699Y030917*
X024701Y030919*
X024702Y030923*
X024704Y030926*
X024705Y030929*
X024705Y030932*
X024706Y030936*
X024706Y030939*
X024707Y030943*
X023306Y035898D02*
D01*
X023305Y035901*
X023305Y035904*
X023304Y035908*
X023304Y035911*
X023303Y035914*
X023301Y035917*
X023300Y035921*
X023298Y035923*
X023296Y035926*
X023294Y035929*
X023292Y035932*
X023289Y035934*
X023287Y035936*
X023284Y035938*
X023281Y035940*
X023278Y035942*
X023275Y035943*
X023272Y035944*
X023268Y035945*
X023265Y035946*
X023262Y035946*
X023258Y035946*
X023255*
X023251Y035946*
X023248Y035946*
X023245Y035945*
X023241Y035944*
X023238Y035943*
X023235Y035942*
X023232Y035940*
X023229Y035938*
X023226Y035936*
X023224Y035934*
X023221Y035932*
X023219Y035929*
X023217Y035926*
X023215Y035923*
X023213Y035921*
X023212Y035917*
X023210Y035914*
X023209Y035911*
X023209Y035908*
X023208Y035904*
X023208Y035901*
X023208Y035898*
X023208Y035894*
X023208Y035891*
X023209Y035887*
X023209Y035884*
X023210Y035881*
X023212Y035878*
X023213Y035874*
X023215Y035872*
X023217Y035869*
X023219Y035866*
X023221Y035863*
X023224Y035861*
X023226Y035859*
X023229Y035857*
X023232Y035855*
X023235Y035853*
X023238Y035852*
X023241Y035851*
X023245Y035850*
X023248Y035849*
X023251Y035849*
X023255Y035849*
X023258*
X023262Y035849*
X023265Y035849*
X023268Y035850*
X023272Y035851*
X023275Y035852*
X023278Y035853*
X023281Y035855*
X023284Y035857*
X023287Y035859*
X023289Y035861*
X023292Y035863*
X023294Y035866*
X023296Y035869*
X023298Y035872*
X023300Y035874*
X023301Y035878*
X023303Y035881*
X023304Y035884*
X023304Y035887*
X023305Y035891*
X023305Y035894*
X023306Y035898*
X030714Y038584D02*
D01*
X030713Y038587*
X030713Y038590*
X030712Y038594*
X030712Y038597*
X030711Y038600*
X030709Y038603*
X030708Y038607*
X030706Y038609*
X030704Y038612*
X030702Y038615*
X030700Y038618*
X030697Y038620*
X030695Y038622*
X030692Y038624*
X030689Y038626*
X030686Y038628*
X030683Y038629*
X030680Y038630*
X030676Y038631*
X030673Y038632*
X030670Y038632*
X030666Y038632*
X030663*
X030659Y038632*
X030656Y038632*
X030653Y038631*
X030649Y038630*
X030646Y038629*
X030643Y038628*
X030640Y038626*
X030637Y038624*
X030634Y038622*
X030632Y038620*
X030629Y038618*
X030627Y038615*
X030625Y038612*
X030623Y038609*
X030621Y038607*
X030620Y038603*
X030618Y038600*
X030617Y038597*
X030617Y038594*
X030616Y038590*
X030616Y038587*
X030616Y038584*
X030616Y038580*
X030616Y038577*
X030617Y038573*
X030617Y038570*
X030618Y038567*
X030620Y038564*
X030621Y038560*
X030623Y038558*
X030625Y038555*
X030627Y038552*
X030629Y038549*
X030632Y038547*
X030634Y038545*
X030637Y038543*
X030640Y038541*
X030643Y038539*
X030646Y038538*
X030649Y038537*
X030653Y038536*
X030656Y038535*
X030659Y038535*
X030663Y038535*
X030666*
X030670Y038535*
X030673Y038535*
X030676Y038536*
X030680Y038537*
X030683Y038538*
X030686Y038539*
X030689Y038541*
X030692Y038543*
X030695Y038545*
X030697Y038547*
X030700Y038549*
X030702Y038552*
X030704Y038555*
X030706Y038558*
X030708Y038560*
X030709Y038564*
X030711Y038567*
X030712Y038570*
X030712Y038573*
X030713Y038577*
X030713Y038580*
X030714Y038584*
X035407Y040643D02*
D01*
X035406Y040646*
X035406Y040649*
X035405Y040653*
X035405Y040656*
X035404Y040659*
X035402Y040662*
X035401Y040666*
X035399Y040668*
X035397Y040671*
X035395Y040674*
X035393Y040677*
X035390Y040679*
X035388Y040681*
X035385Y040683*
X035382Y040685*
X035379Y040687*
X035376Y040688*
X035373Y040689*
X035369Y040690*
X035366Y040691*
X035363Y040691*
X035359Y040691*
X035356*
X035352Y040691*
X035349Y040691*
X035346Y040690*
X035342Y040689*
X035339Y040688*
X035336Y040687*
X035333Y040685*
X035330Y040683*
X035327Y040681*
X035325Y040679*
X035322Y040677*
X035320Y040674*
X035318Y040671*
X035316Y040668*
X035314Y040666*
X035313Y040662*
X035311Y040659*
X035310Y040656*
X035310Y040653*
X035309Y040649*
X035309Y040646*
X035309Y040643*
X035309Y040639*
X035309Y040636*
X035310Y040632*
X035310Y040629*
X035311Y040626*
X035313Y040623*
X035314Y040619*
X035316Y040617*
X035318Y040614*
X035320Y040611*
X035322Y040608*
X035325Y040606*
X035327Y040604*
X035330Y040602*
X035333Y040600*
X035336Y040598*
X035339Y040597*
X035342Y040596*
X035346Y040595*
X035349Y040594*
X035352Y040594*
X035356Y040594*
X035359*
X035363Y040594*
X035366Y040594*
X035369Y040595*
X035373Y040596*
X035376Y040597*
X035379Y040598*
X035382Y040600*
X035385Y040602*
X035388Y040604*
X035390Y040606*
X035393Y040608*
X035395Y040611*
X035397Y040614*
X035399Y040617*
X035401Y040619*
X035402Y040623*
X035404Y040626*
X035405Y040629*
X035405Y040632*
X035406Y040636*
X035406Y040639*
X035407Y040643*
X036177Y035446D02*
D01*
X036176Y035449*
X036176Y035452*
X036175Y035456*
X036175Y035459*
X036174Y035462*
X036172Y035465*
X036171Y035469*
X036169Y035471*
X036167Y035474*
X036165Y035477*
X036163Y035480*
X036160Y035482*
X036158Y035484*
X036155Y035486*
X036152Y035488*
X036149Y035490*
X036146Y035491*
X036143Y035492*
X036139Y035493*
X036136Y035494*
X036133Y035494*
X036129Y035494*
X036126*
X036122Y035494*
X036119Y035494*
X036116Y035493*
X036112Y035492*
X036109Y035491*
X036106Y035490*
X036103Y035488*
X036100Y035486*
X036097Y035484*
X036095Y035482*
X036092Y035480*
X036090Y035477*
X036088Y035474*
X036086Y035471*
X036084Y035469*
X036083Y035465*
X036081Y035462*
X036080Y035459*
X036080Y035456*
X036079Y035452*
X036079Y035449*
X036079Y035446*
X036079Y035442*
X036079Y035439*
X036080Y035435*
X036080Y035432*
X036081Y035429*
X036083Y035426*
X036084Y035422*
X036086Y035420*
X036088Y035417*
X036090Y035414*
X036092Y035411*
X036095Y035409*
X036097Y035407*
X036100Y035405*
X036103Y035403*
X036106Y035401*
X036109Y035400*
X036112Y035399*
X036116Y035398*
X036119Y035397*
X036122Y035397*
X036126Y035397*
X036129*
X036133Y035397*
X036136Y035397*
X036139Y035398*
X036143Y035399*
X036146Y035400*
X036149Y035401*
X036152Y035403*
X036155Y035405*
X036158Y035407*
X036160Y035409*
X036163Y035411*
X036165Y035414*
X036167Y035417*
X036169Y035420*
X036171Y035422*
X036172Y035426*
X036174Y035429*
X036175Y035432*
X036175Y035435*
X036176Y035439*
X036176Y035442*
X036177Y035446*
X036631Y028511D02*
D01*
X036630Y028514*
X036630Y028517*
X036629Y028521*
X036629Y028524*
X036628Y028527*
X036626Y028530*
X036625Y028534*
X036623Y028536*
X036621Y028539*
X036619Y028542*
X036617Y028545*
X036614Y028547*
X036612Y028549*
X036609Y028551*
X036606Y028553*
X036603Y028555*
X036600Y028556*
X036597Y028557*
X036593Y028558*
X036590Y028559*
X036587Y028559*
X036583Y028559*
X036580*
X036576Y028559*
X036573Y028559*
X036570Y028558*
X036566Y028557*
X036563Y028556*
X036560Y028555*
X036557Y028553*
X036554Y028551*
X036551Y028549*
X036549Y028547*
X036546Y028545*
X036544Y028542*
X036542Y028539*
X036540Y028536*
X036538Y028534*
X036537Y028530*
X036535Y028527*
X036534Y028524*
X036534Y028521*
X036533Y028517*
X036533Y028514*
X036533Y028511*
X036533Y028507*
X036533Y028504*
X036534Y028500*
X036534Y028497*
X036535Y028494*
X036537Y028491*
X036538Y028487*
X036540Y028485*
X036542Y028482*
X036544Y028479*
X036546Y028476*
X036549Y028474*
X036551Y028472*
X036554Y028470*
X036557Y028468*
X036560Y028466*
X036563Y028465*
X036566Y028464*
X036570Y028463*
X036573Y028462*
X036576Y028462*
X036580Y028462*
X036583*
X036587Y028462*
X036590Y028462*
X036593Y028463*
X036597Y028464*
X036600Y028465*
X036603Y028466*
X036606Y028468*
X036609Y028470*
X036612Y028472*
X036614Y028474*
X036617Y028476*
X036619Y028479*
X036621Y028482*
X036623Y028485*
X036625Y028487*
X036626Y028491*
X036628Y028494*
X036629Y028497*
X036629Y028500*
X036630Y028504*
X036630Y028507*
X036631Y028511*
X031196Y025389D02*
D01*
X031195Y025392*
X031195Y025395*
X031194Y025399*
X031194Y025402*
X031193Y025405*
X031191Y025408*
X031190Y025412*
X031188Y025414*
X031186Y025417*
X031184Y025420*
X031182Y025423*
X031179Y025425*
X031177Y025427*
X031174Y025429*
X031171Y025431*
X031168Y025433*
X031165Y025434*
X031162Y025435*
X031158Y025436*
X031155Y025437*
X031152Y025437*
X031148Y025437*
X031145*
X031141Y025437*
X031138Y025437*
X031135Y025436*
X031131Y025435*
X031128Y025434*
X031125Y025433*
X031122Y025431*
X031119Y025429*
X031116Y025427*
X031114Y025425*
X031111Y025423*
X031109Y025420*
X031107Y025417*
X031105Y025414*
X031103Y025412*
X031102Y025408*
X031100Y025405*
X031099Y025402*
X031099Y025399*
X031098Y025395*
X031098Y025392*
X031098Y025389*
X031098Y025385*
X031098Y025382*
X031099Y025378*
X031099Y025375*
X031100Y025372*
X031102Y025369*
X031103Y025365*
X031105Y025363*
X031107Y025360*
X031109Y025357*
X031111Y025354*
X031114Y025352*
X031116Y025350*
X031119Y025348*
X031122Y025346*
X031125Y025344*
X031128Y025343*
X031131Y025342*
X031135Y025341*
X031138Y025340*
X031141Y025340*
X031145Y025340*
X031148*
X031152Y025340*
X031155Y025340*
X031158Y025341*
X031162Y025342*
X031165Y025343*
X031168Y025344*
X031171Y025346*
X031174Y025348*
X031177Y025350*
X031179Y025352*
X031182Y025354*
X031184Y025357*
X031186Y025360*
X031188Y025363*
X031190Y025365*
X031191Y025369*
X031193Y025372*
X031194Y025375*
X031194Y025378*
X031195Y025382*
X031195Y025385*
X031196Y025389*
X036534Y023098D02*
D01*
X036533Y023101*
X036533Y023104*
X036532Y023108*
X036532Y023111*
X036531Y023114*
X036529Y023117*
X036528Y023121*
X036526Y023123*
X036524Y023126*
X036522Y023129*
X036520Y023132*
X036517Y023134*
X036515Y023136*
X036512Y023138*
X036509Y023140*
X036506Y023142*
X036503Y023143*
X036500Y023144*
X036496Y023145*
X036493Y023146*
X036490Y023146*
X036486Y023146*
X036483*
X036479Y023146*
X036476Y023146*
X036473Y023145*
X036469Y023144*
X036466Y023143*
X036463Y023142*
X036460Y023140*
X036457Y023138*
X036454Y023136*
X036452Y023134*
X036449Y023132*
X036447Y023129*
X036445Y023126*
X036443Y023123*
X036441Y023121*
X036440Y023117*
X036438Y023114*
X036437Y023111*
X036437Y023108*
X036436Y023104*
X036436Y023101*
X036436Y023098*
X036436Y023094*
X036436Y023091*
X036437Y023087*
X036437Y023084*
X036438Y023081*
X036440Y023078*
X036441Y023074*
X036443Y023072*
X036445Y023069*
X036447Y023066*
X036449Y023063*
X036452Y023061*
X036454Y023059*
X036457Y023057*
X036460Y023055*
X036463Y023053*
X036466Y023052*
X036469Y023051*
X036473Y023050*
X036476Y023049*
X036479Y023049*
X036483Y023049*
X036486*
X036490Y023049*
X036493Y023049*
X036496Y023050*
X036500Y023051*
X036503Y023052*
X036506Y023053*
X036509Y023055*
X036512Y023057*
X036515Y023059*
X036517Y023061*
X036520Y023063*
X036522Y023066*
X036524Y023069*
X036526Y023072*
X036528Y023074*
X036529Y023078*
X036531Y023081*
X036532Y023084*
X036532Y023087*
X036533Y023091*
X036533Y023094*
X036534Y023098*
X030617Y019947D02*
D01*
X030616Y019950*
X030616Y019953*
X030615Y019957*
X030615Y019960*
X030614Y019963*
X030612Y019966*
X030611Y019970*
X030609Y019972*
X030607Y019975*
X030605Y019978*
X030603Y019981*
X030600Y019983*
X030598Y019985*
X030595Y019987*
X030592Y019989*
X030589Y019991*
X030586Y019992*
X030583Y019993*
X030579Y019994*
X030576Y019995*
X030573Y019995*
X030569Y019995*
X030566*
X030562Y019995*
X030559Y019995*
X030556Y019994*
X030552Y019993*
X030549Y019992*
X030546Y019991*
X030543Y019989*
X030540Y019987*
X030537Y019985*
X030535Y019983*
X030532Y019981*
X030530Y019978*
X030528Y019975*
X030526Y019972*
X030524Y019970*
X030523Y019966*
X030521Y019963*
X030520Y019960*
X030520Y019957*
X030519Y019953*
X030519Y019950*
X030519Y019947*
X030519Y019943*
X030519Y019940*
X030520Y019936*
X030520Y019933*
X030521Y019930*
X030523Y019927*
X030524Y019923*
X030526Y019921*
X030528Y019918*
X030530Y019915*
X030532Y019912*
X030535Y019910*
X030537Y019908*
X030540Y019906*
X030543Y019904*
X030546Y019902*
X030549Y019901*
X030552Y019900*
X030556Y019899*
X030559Y019898*
X030562Y019898*
X030566Y019898*
X030569*
X030573Y019898*
X030576Y019898*
X030579Y019899*
X030583Y019900*
X030586Y019901*
X030589Y019902*
X030592Y019904*
X030595Y019906*
X030598Y019908*
X030600Y019910*
X030603Y019912*
X030605Y019915*
X030607Y019918*
X030609Y019921*
X030611Y019923*
X030612Y019927*
X030614Y019930*
X030615Y019933*
X030615Y019936*
X030616Y019940*
X030616Y019943*
X030617Y019947*
X029285Y027576D02*
D01*
X029284Y027579*
X029284Y027582*
X029283Y027586*
X029283Y027589*
X029282Y027592*
X029280Y027595*
X029279Y027599*
X029277Y027601*
X029275Y027604*
X029273Y027607*
X029271Y027610*
X029268Y027612*
X029266Y027614*
X029263Y027616*
X029260Y027618*
X029257Y027620*
X029254Y027621*
X029251Y027622*
X029247Y027623*
X029244Y027624*
X029241Y027624*
X029237Y027624*
X029234*
X029230Y027624*
X029227Y027624*
X029224Y027623*
X029220Y027622*
X029217Y027621*
X029214Y027620*
X029211Y027618*
X029208Y027616*
X029205Y027614*
X029203Y027612*
X029200Y027610*
X029198Y027607*
X029196Y027604*
X029194Y027601*
X029192Y027599*
X029191Y027595*
X029189Y027592*
X029188Y027589*
X029188Y027586*
X029187Y027582*
X029187Y027579*
X029187Y027576*
X029187Y027572*
X029187Y027569*
X029188Y027565*
X029188Y027562*
X029189Y027559*
X029191Y027556*
X029192Y027552*
X029194Y027550*
X029196Y027547*
X029198Y027544*
X029200Y027541*
X029203Y027539*
X029205Y027537*
X029208Y027535*
X029211Y027533*
X029214Y027531*
X029217Y027530*
X029220Y027529*
X029224Y027528*
X029227Y027527*
X029230Y027527*
X029234Y027527*
X029237*
X029241Y027527*
X029244Y027527*
X029247Y027528*
X029251Y027529*
X029254Y027530*
X029257Y027531*
X029260Y027533*
X029263Y027535*
X029266Y027537*
X029268Y027539*
X029271Y027541*
X029273Y027544*
X029275Y027547*
X029277Y027550*
X029279Y027552*
X029280Y027556*
X029282Y027559*
X029283Y027562*
X029283Y027565*
X029284Y027569*
X029284Y027572*
X029285Y027576*
G54D12*
X026523Y033002D02*
D01*
X026523Y032984*
X026525Y032967*
X026528Y032950*
X026532Y032933*
X026538Y032916*
X026544Y032900*
X026552Y032884*
X026560Y032869*
X026570Y032855*
X026581Y032841*
X026593Y032828*
X026605Y032816*
X026619Y032804*
X026633Y032794*
X026648Y032785*
X026663Y032777*
X026679Y032770*
X026695Y032764*
X026712Y032759*
X026729Y032755*
X026746Y032753*
X026764Y032752*
X026781*
X026799Y032753*
X026816Y032755*
X026833Y032759*
X026850Y032764*
X026866Y032770*
X026882Y032777*
X026898Y032785*
X026912Y032794*
X026926Y032804*
X026940Y032816*
X026952Y032828*
X026964Y032841*
X026975Y032855*
X026985Y032869*
X026993Y032884*
X027001Y032900*
X027007Y032916*
X027013Y032933*
X027017Y032950*
X027020Y032967*
X027022Y032984*
X027023Y033002*
Y033398D02*
D01*
X027022Y033415*
X027020Y033432*
X027017Y033449*
X027013Y033466*
X027007Y033483*
X027001Y033499*
X026993Y033515*
X026985Y033530*
X026975Y033544*
X026964Y033558*
X026952Y033571*
X026940Y033583*
X026926Y033595*
X026912Y033605*
X026898Y033614*
X026882Y033622*
X026866Y033629*
X026850Y033635*
X026833Y033640*
X026816Y033644*
X026799Y033646*
X026781Y033647*
X026764*
X026746Y033646*
X026729Y033644*
X026712Y033640*
X026695Y033635*
X026679Y033629*
X026663Y033622*
X026648Y033614*
X026633Y033605*
X026619Y033595*
X026605Y033583*
X026593Y033571*
X026581Y033558*
X026570Y033544*
X026560Y033530*
X026552Y033515*
X026544Y033499*
X026538Y033483*
X026532Y033466*
X026528Y033449*
X026525Y033432*
X026523Y033415*
X026523Y033398*
X036824Y021848D02*
D01*
X036806Y021847*
X036789Y021845*
X036772Y021842*
X036755Y021838*
X036738Y021832*
X036722Y021826*
X036706Y021818*
X036691Y021810*
X036677Y021800*
X036663Y021789*
X036650Y021777*
X036638Y021765*
X036626Y021751*
X036616Y021737*
X036607Y021723*
X036599Y021707*
X036592Y021691*
X036586Y021675*
X036581Y021658*
X036577Y021641*
X036575Y021624*
X036574Y021606*
Y021589*
X036575Y021571*
X036577Y021554*
X036581Y021537*
X036586Y021520*
X036592Y021504*
X036599Y021488*
X036607Y021473*
X036616Y021458*
X036626Y021444*
X036638Y021430*
X036650Y021418*
X036663Y021406*
X036677Y021395*
X036691Y021385*
X036706Y021377*
X036722Y021369*
X036738Y021363*
X036755Y021357*
X036772Y021353*
X036789Y021350*
X036806Y021348*
X036824Y021348*
X026632Y021882D02*
D01*
X026625Y022060*
X026607Y022238*
X026576Y022414*
X026532Y022587*
X026477Y022757*
X026410Y022922*
X026332Y023083*
X026243Y023238*
X026143Y023386*
X026033Y023526*
X025913Y023659*
X025785Y023783*
X025648Y023898*
X025503Y024003*
X025352Y024098*
X025194Y024182*
X025031Y024254*
X024863Y024315*
X024692Y024364*
X024517Y024402*
X024340Y024426*
X024162Y024439*
X023983*
X023805Y024426*
X023628Y024402*
X023453Y024364*
X023282Y024315*
X023114Y024254*
X022951Y024182*
X022793Y024098*
X022642Y024003*
X022497Y023898*
X022360Y023783*
X022232Y023659*
X022112Y023526*
X022002Y023386*
X021902Y023238*
X021813Y023083*
X021735Y022922*
X021668Y022757*
X021613Y022587*
X021569Y022414*
X021538Y022238*
X021520Y022060*
X021514Y021882*
X021520Y021703*
X021538Y021525*
X021569Y021349*
X021613Y021176*
X021668Y021006*
X021735Y020841*
X021813Y020680*
X021902Y020525*
X022002Y020377*
X022112Y020237*
X022232Y020104*
X022360Y019980*
X022497Y019865*
X022642Y019760*
X022793Y019665*
X022951Y019581*
X023114Y019509*
X023282Y019448*
X023453Y019399*
X023628Y019361*
X023805Y019337*
X023983Y019324*
X024162*
X024340Y019337*
X024517Y019361*
X024692Y019399*
X024863Y019448*
X025031Y019509*
X025194Y019581*
X025352Y019665*
X025503Y019760*
X025648Y019865*
X025785Y019980*
X025913Y020104*
X026033Y020237*
X026143Y020377*
X026243Y020525*
X026332Y020680*
X026410Y020841*
X026477Y021006*
X026532Y021176*
X026576Y021349*
X026607Y021525*
X026625Y021703*
X026632Y021882*
X025730Y030994D02*
X027817D01*
X027023Y033002D02*
X027817D01*
X025730D02*
X026523D01*
X027817Y030994D02*
Y033002D01*
X025730Y030994D02*
Y033002D01*
X027452Y033398D02*
Y036398D01*
X026094D02*
X027452D01*
X026094Y033398D02*
Y036398D01*
Y033398D02*
X026523D01*
X027023D02*
X027452D01*
X029673Y033698D02*
X030673D01*
Y031698D02*
Y033698D01*
X029673Y031698D02*
X030673D01*
X029673D02*
Y033698D01*
X036503Y031724D02*
Y032472D01*
X035243Y031724D02*
Y032472D01*
X034411Y030813D02*
X034805D01*
Y030183D02*
X035002Y030340D01*
X034805Y030813D02*
X035002Y030655D01*
X034411Y030183D02*
X034805D01*
X035002Y030340D02*
Y030655D01*
X033663Y030183D02*
Y030813D01*
X034135*
X033663Y030183D02*
X034135D01*
X033443Y029740D02*
Y030055D01*
X034321Y028842D02*
Y029354D01*
X034143Y028240D02*
Y028555D01*
Y027640D02*
Y027955D01*
X032316Y029467D02*
X032631D01*
X022399Y025468D02*
X023147D01*
X022399Y026728D02*
X023147D01*
X022589Y030352D02*
X024557D01*
X022589Y029643D02*
X024557D01*
Y030352*
X022589Y029643D02*
Y030352D01*
X018946Y035045D02*
X023001D01*
X018946Y034848D02*
X023001D01*
X018946Y036778D02*
X023001D01*
X018946Y034848D02*
Y036778D01*
X023001Y034848D02*
Y036778D01*
X031616Y032667D02*
X031931D01*
X030916D02*
X031231D01*
X031616Y035467D02*
X031931D01*
X030916D02*
X031231D01*
X031290Y041314D02*
Y041472D01*
Y041314D02*
X031369D01*
X030778D02*
X030857D01*
Y041472*
X030778Y040724D02*
Y041472D01*
X031369Y040724D02*
Y041472D01*
X030778Y040724D02*
X030857D01*
X030778Y041472D02*
X030857D01*
X031290Y040724D02*
X031369D01*
X031290Y041472D02*
X031369D01*
X030783Y038998D02*
Y039273D01*
X031098*
X031964Y038998D02*
Y039273D01*
X031649D02*
X031964D01*
X033289Y039343D02*
Y040052D01*
X035257Y039343D02*
Y040052D01*
X033289Y039343D02*
X035257D01*
X033289Y040052D02*
X035257D01*
X036743Y038440D02*
Y038755D01*
X035498Y035565D02*
X035734D01*
X035498D02*
Y035761D01*
Y036431D02*
X035734D01*
X035498Y036234D02*
Y036431D01*
X036464Y027822D02*
Y028098D01*
X036149Y027822D02*
X036464D01*
X035283D02*
Y028098D01*
Y027822D02*
X035598D01*
X036216Y026467D02*
X036531D01*
X035806Y026296D02*
X035924D01*
Y024859D02*
Y026296D01*
X034822Y024859D02*
Y026296D01*
X034941D01*
X034822Y024859D02*
X034941Y024761D01*
X035806D02*
X035924Y024859D01*
X030498Y026373D02*
Y026688D01*
X030694*
X030498Y025507D02*
Y025822D01*
Y025507D02*
X030694D01*
X033123Y022641D02*
X036824D01*
X033123Y020554D02*
X036824D01*
Y021848D02*
Y022641D01*
Y020554D02*
Y021348D01*
X033123Y020554D02*
Y022641D01*
X030154Y022526D02*
X032792D01*
Y021069D02*
Y022526D01*
X030154Y021069D02*
X032792D01*
X030154D02*
Y022526D01*
X029516Y022467D02*
X029831D01*
X033043Y019340D02*
Y019655D01*
X030304Y019340D02*
Y019655D01*
X027004Y020540D02*
Y020855D01*
Y019940D02*
Y020255D01*
X021269Y023987D02*
Y025208D01*
X018159Y025031D02*
X018336Y025208D01*
X018159Y024165D02*
X018336Y023987D01*
X018159Y024165D02*
Y025031D01*
X020246Y025208D02*
X021269D01*
X020246Y023987D02*
X021269D01*
X018336D02*
X019301D01*
X018336Y025208D02*
X019301D01*
X021269Y022487D02*
Y023708D01*
X018159Y023531D02*
X018336Y023708D01*
X018159Y022665D02*
X018336Y022487D01*
X018159Y022665D02*
Y023531D01*
X020246Y023708D02*
X021269D01*
X020246Y022487D02*
X021269D01*
X018336D02*
X019301D01*
X018336Y023708D02*
X019301D01*
X018177Y020887D02*
Y022108D01*
X021110Y020887D02*
X021287Y021065D01*
X021110Y022108D02*
X021287Y021931D01*
Y021065D02*
Y021931D01*
X018177Y020887D02*
X019201D01*
X018177Y022108D02*
X019201D01*
X020146D02*
X021110D01*
X020146Y020887D02*
X021110D01*
X018177Y025487D02*
Y026708D01*
X021110Y025487D02*
X021287Y025665D01*
X021110Y026708D02*
X021287Y026531D01*
Y025665D02*
Y026531D01*
X018177Y025487D02*
X019201D01*
X018177Y026708D02*
X019201D01*
X020146D02*
X021110D01*
X020146Y025487D02*
X021110D01*
X019990Y031281D02*
X020147D01*
X019990Y031202D02*
Y031281D01*
Y031714D02*
Y031793D01*
Y031714D02*
X020147D01*
X019399Y031793D02*
X020147D01*
X019399Y031202D02*
X020147D01*
X019399Y031714D02*
Y031793D01*
X020147Y031714D02*
Y031793D01*
X019399Y031202D02*
Y031281D01*
X020147Y031202D02*
Y031281D01*
X021099Y031714D02*
X021257D01*
Y031793*
Y031202D02*
Y031281D01*
X021099D02*
X021257D01*
X021099Y031202D02*
X021847D01*
X021099Y031793D02*
X021847D01*
Y031202D02*
Y031281D01*
X021099Y031202D02*
Y031281D01*
X021847Y031714D02*
Y031793D01*
X021099Y031714D02*
Y031793D01*
X021690Y030281D02*
X021847D01*
X021690Y030202D02*
Y030281D01*
Y030714D02*
Y030793D01*
Y030714D02*
X021847D01*
X021099Y030793D02*
X021847D01*
X021099Y030202D02*
X021847D01*
X021099Y030714D02*
Y030793D01*
X021847Y030714D02*
Y030793D01*
X021099Y030202D02*
Y030281D01*
X021847Y030202D02*
Y030281D01*
X019399Y030714D02*
X019557D01*
Y030793*
Y030202D02*
Y030281D01*
X019399D02*
X019557D01*
X019399Y030202D02*
X020147D01*
X019399Y030793D02*
X020147D01*
Y030202D02*
Y030281D01*
X019399Y030202D02*
Y030281D01*
X020147Y030714D02*
Y030793D01*
X019399Y030714D02*
Y030793D01*
X019806Y029730D02*
Y029849D01*
X021243*
X019806Y028746D02*
X021243D01*
X019806D02*
Y028865D01*
X021243Y028746D02*
X021341Y028865D01*
X021243Y029849D02*
X021341Y029730D01*
X023190Y027981D02*
X023347D01*
X023190Y027902D02*
Y027981D01*
Y028414D02*
Y028493D01*
Y028414D02*
X023347D01*
X022599Y028493D02*
X023347D01*
X022599Y027902D02*
X023347D01*
X022599Y028414D02*
Y028493D01*
X023347Y028414D02*
Y028493D01*
X022599Y027902D02*
Y027981D01*
X023347Y027902D02*
Y027981D01*
X024957Y029624D02*
Y029781D01*
X024878D02*
X024957D01*
X025390D02*
X025468D01*
X025390Y029624D02*
Y029781D01*
X025468Y029624D02*
Y030372D01*
X024878Y029624D02*
Y030372D01*
X025390D02*
X025468D01*
X025390Y029624D02*
X025468D01*
X024878Y030372D02*
X024957D01*
X024878Y029624D02*
X024957D01*
X022525Y032142D02*
Y032654D01*
X029673Y034398D02*
Y036398D01*
Y034398D02*
X030673D01*
Y036398*
X029673D02*
X030673D01*
X031972Y028087D02*
Y029308D01*
X029374Y028087D02*
Y029308D01*
X031972*
X029374Y028087D02*
X031972D01*
X028173Y027198D02*
Y030198D01*
Y027198D02*
X029173D01*
Y030198*
X028173D02*
X029173D01*
G54D13*
X024321Y030037D02*
D01*
X024320Y030042*
X024320Y030047*
X024319Y030053*
X024317Y030058*
X024316Y030064*
X024314Y030069*
X024311Y030074*
X024308Y030078*
X024305Y030083*
X024302Y030087*
X024298Y030091*
X024294Y030095*
X024290Y030099*
X024286Y030102*
X024281Y030105*
X024276Y030108*
X024271Y030110*
X024266Y030112*
X024261Y030113*
X024255Y030114*
X024250Y030115*
X024244Y030115*
X024239*
X024233Y030115*
X024228Y030114*
X024222Y030113*
X024217Y030112*
X024212Y030110*
X024207Y030108*
X024202Y030105*
X024197Y030102*
X024193Y030099*
X024189Y030095*
X024185Y030091*
X024181Y030087*
X024178Y030083*
X024175Y030078*
X024172Y030074*
X024169Y030069*
X024167Y030064*
X024166Y030058*
X024164Y030053*
X024163Y030047*
X024163Y030042*
X024163Y030037*
X024163Y030031*
X024163Y030026*
X024164Y030020*
X024166Y030015*
X024167Y030009*
X024169Y030004*
X024172Y029999*
X024175Y029995*
X024178Y029990*
X024181Y029986*
X024185Y029982*
X024189Y029978*
X024193Y029974*
X024197Y029971*
X024202Y029968*
X024207Y029965*
X024212Y029963*
X024217Y029961*
X024222Y029960*
X024228Y029959*
X024233Y029958*
X024239Y029958*
X024244*
X024250Y029958*
X024255Y029959*
X024261Y029960*
X024266Y029961*
X024271Y029963*
X024276Y029965*
X024281Y029968*
X024286Y029971*
X024290Y029974*
X024294Y029978*
X024298Y029982*
X024302Y029986*
X024305Y029990*
X024308Y029995*
X024311Y029999*
X024314Y030004*
X024316Y030009*
X024317Y030015*
X024319Y030020*
X024320Y030026*
X024320Y030031*
X024321Y030037*
G54D14*
X029092Y020785D02*
D01*
X029092Y020778*
X029092Y020772*
X029094Y020765*
X029095Y020759*
X029097Y020753*
X029100Y020747*
X029102Y020741*
X029106Y020735*
X029109Y020730*
X029113Y020725*
X029118Y020720*
X029122Y020715*
X029127Y020711*
X029132Y020707*
X029138Y020704*
X029144Y020701*
X029150Y020698*
X029156Y020696*
X029162Y020694*
X029168Y020693*
X029175Y020692*
X029181Y020692*
X029188*
X029194Y020692*
X029201Y020693*
X029207Y020694*
X029213Y020696*
X029219Y020698*
X029225Y020701*
X029231Y020704*
X029237Y020707*
X029242Y020711*
X029247Y020715*
X029251Y020720*
X029256Y020725*
X029260Y020730*
X029263Y020735*
X029267Y020741*
X029269Y020747*
X029272Y020753*
X029274Y020759*
X029275Y020765*
X029277Y020772*
X029277Y020778*
X029279Y020785*
X036773Y027898D02*
Y033898D01*
X039773Y027898D02*
Y033898D01*
X036773D02*
X039773D01*
X036773Y027898D02*
X039773D01*
Y033898D02*
Y037898D01*
X036773D02*
X039773D01*
X036773Y033898D02*
X039773D01*
X036773D02*
Y037898D01*
X026467Y027504D02*
X026623Y027348D01*
X026167Y027304D02*
X026379Y027091D01*
X018773Y027198D02*
X018979Y027404D01*
X018567Y027491D02*
X018773Y027698D01*
X018267Y027791D02*
X018473Y027998D01*
X017961Y028085D02*
X018173Y028298D01*
X017673D02*
X017898Y028523D01*
X017423Y028548D02*
X017673Y028798D01*
X026573Y032998D02*
X026973Y033398D01*
X026573Y033498D02*
X026973Y033898D01*
X026573Y033998D02*
X026973Y034398D01*
X026573Y034498D02*
X026973Y034898D01*
X026573Y034998D02*
X026973Y035398D01*
X026573Y035498D02*
X026973Y035898D01*
X026573Y035998D02*
X026973Y036398D01*
X026573Y036498D02*
X026973Y036898D01*
X026573Y036998D02*
X026973Y037398D01*
X026573Y037498D02*
X026973Y037898D01*
X026573Y037998D02*
X026973Y038398D01*
X026573Y038498D02*
X026973Y038898D01*
X026573Y038998D02*
X026973Y039398D01*
X026573Y039498D02*
X026973Y039898D01*
X026573Y039998D02*
X026973Y040398D01*
X026573Y040498D02*
X026973Y040898D01*
X026573Y040998D02*
X026973Y041398D01*
X026573Y041498D02*
X026973Y041898D01*
X026573Y041998D02*
X026973Y042398D01*
X026573Y032498D02*
X026973Y032898D01*
X026573Y032070D02*
X026973Y032470D01*
X026573Y031698D02*
X026973Y032098D01*
X026573Y031298D02*
X026973Y031698D01*
X026606Y030961D02*
X026962Y031317D01*
X026573Y030498D02*
X026973Y030898D01*
X026573Y030098D02*
X026973Y030498D01*
X026576Y029702D02*
X026976Y030102D01*
X026573Y029298D02*
X026973Y029698D01*
X026573Y028898D02*
X026973Y029298D01*
X026573Y028498D02*
X026973Y028898D01*
X026573Y028098D02*
X026973Y028498D01*
X026573Y027698D02*
X026973Y028098D01*
X025473Y026898D02*
X025873Y027298D01*
X025073Y026898D02*
X025473Y027298D01*
X024673Y026898D02*
X025073Y027298D01*
X024273Y026898D02*
X024673Y027298D01*
X023873Y026898D02*
X024273Y027298D01*
X023473Y026898D02*
X023873Y027298D01*
X023073Y026898D02*
X023473Y027298D01*
X022673Y026898D02*
X023073Y027298D01*
X022273Y026898D02*
X022673Y027298D01*
X021873Y026898D02*
X022273Y027298D01*
X021473Y026898D02*
X021873Y027298D01*
X021073Y026898D02*
X021473Y027298D01*
X020673Y026898D02*
X021073Y027298D01*
X020273Y026898D02*
X020673Y027298D01*
X019873Y026898D02*
X020273Y027298D01*
X019473Y026898D02*
X019873Y027298D01*
X019473D02*
X019573D01*
X019073Y026898D02*
X019473Y027298D01*
X017073Y028598D02*
X017473Y028998D01*
X016673Y028598D02*
X017073Y028998D01*
X016273Y028598D02*
X016673Y028998D01*
X015873Y028598D02*
X016273Y028998D01*
X015473Y028598D02*
X015873Y028998D01*
X015073Y028598D02*
X015473Y028998D01*
X014673Y028598D02*
X015073Y028998D01*
X014273Y028598D02*
X014673Y028998D01*
X014273Y028598D02*
X017373D01*
X026573Y042398D02*
Y027698D01*
X026173Y027298D02*
X026573Y027698D01*
X019173Y027298D02*
X026173D01*
X017473Y028998D02*
X019173Y027298D01*
X014273Y028998D02*
X017473D01*
X026973Y042398D02*
Y027598D01*
X026273Y026898D02*
X026973Y027598D01*
X019073Y026898D02*
X026273D01*
X017373Y028598D02*
X019073Y026898D01*
X039773Y023898D02*
Y027898D01*
X036773D02*
X039773D01*
X036773Y023898D02*
X039773D01*
X036773D02*
Y027898D01*
X029092Y020785D02*
X029423D01*
X028943D02*
X029279D01*
X028943Y019663D02*
Y020785D01*
Y019663D02*
X029423D01*
Y020785*
X016673Y019797D02*
Y019198D01*
X016973*
X017073Y019298*
Y019697*
X016973Y019797*
X016673*
X017673D02*
X017273D01*
Y019198*
X017673*
X017273Y019498D02*
X017473D01*
X017873D02*
X018273D01*
X018873Y019198D02*
X018473D01*
X018873Y019598*
Y019697*
X018773Y019797*
X018573*
X018473Y019697*
X019472Y019797D02*
X019272Y019697D01*
X019072Y019498*
Y019298*
X019172Y019198*
X019372*
X019472Y019298*
Y019398*
X019372Y019498*
X019072*
X019672Y019697D02*
X019772Y019797D01*
X019972*
X020072Y019697*
Y019298*
X019972Y019198*
X019772*
X019672Y019298*
Y019697*
X020272Y019298D02*
X020372Y019198D01*
X020572*
X020672Y019298*
Y019697*
X020572Y019797*
X020372*
X020272Y019697*
Y019598*
X020372Y019498*
X020672*
X021272Y019198D02*
X020872D01*
X021272Y019598*
Y019697*
X021172Y019797*
X020972*
X020872Y019697*
X021772Y019198D02*
Y019797D01*
X021472Y019498*
X021872*
X032283Y042132D02*
Y041832D01*
X032383Y041732*
X032483Y041832*
X032583Y041732*
X032683Y041832*
Y042132*
X032883D02*
Y041832D01*
X032983Y041732*
X033083Y041832*
X033183Y041732*
X033283Y041832*
Y042132*
X033483D02*
Y041832D01*
X033583Y041732*
X033683Y041832*
X033783Y041732*
X033883Y041832*
Y042132*
X034083Y041732D02*
Y041832D01*
X034183*
Y041732*
X034083*
X034583D02*
X034783D01*
X034683*
Y042132*
X034583*
X035083Y041732D02*
Y042132D01*
X035183*
X035282Y042032*
Y041732*
Y042032*
X035382Y042132*
X035482Y042032*
Y041732*
X035982D02*
X035782D01*
X035682Y041832*
Y042032*
X035782Y042132*
X035982*
X036082Y042032*
Y041932*
X035682*
X036682Y042332D02*
Y041732D01*
X036382*
X036282Y041832*
Y042032*
X036382Y042132*
X036682*
X036882Y041732D02*
X037082D01*
X036982*
Y042132*
X036882*
X037482D02*
X037682D01*
X037782Y042032*
Y041732*
X037482*
X037382Y041832*
X037482Y041932*
X037782*
X037982Y041732D02*
Y041832D01*
X038082*
Y041732*
X037982*
X038481Y042332D02*
Y041732D01*
X038781*
X038881Y041832*
Y041932*
Y042032*
X038781Y042132*
X038481*
X039181D02*
X039381D01*
X039481Y042032*
Y041732*
X039181*
X039081Y041832*
X039181Y041932*
X039481*
X034073Y031798D02*
X033973Y031698D01*
Y031498*
X034073Y031398*
X034173*
X034273Y031498*
Y031698*
X034373Y031798*
X034473*
X034573Y031698*
Y031498*
X034473Y031398*
X033973Y031997D02*
Y032397D01*
Y032197*
X034573*
Y032597D02*
X034173D01*
X033973Y032797*
X034173Y032997*
X034573*
X034273*
Y032597*
X033973Y033197D02*
Y033597D01*
Y033397*
X034573*
X033973Y033797D02*
X034473D01*
X034573Y033897*
Y034097*
X034473Y034197*
X033973*
X034073Y034797D02*
X033973Y034697D01*
Y034497*
X034073Y034397*
X034173*
X034273Y034497*
Y034697*
X034373Y034797*
X034473*
X034573Y034697*
Y034497*
X034473Y034397*
X017173Y022298D02*
X016773D01*
Y022498*
X016840Y022564*
X016973*
X017040Y022498*
Y022298*
X016773Y022897D02*
Y022764D01*
X016840Y022698*
X017106*
X017173Y022764*
Y022897*
X017106Y022964*
X016840*
X016773Y022897*
Y023097D02*
X017173D01*
X017040Y023231*
X017173Y023364*
X016773*
Y023764D02*
Y023497D01*
X017173*
Y023764*
X016973Y023497D02*
Y023631D01*
X017173Y023897D02*
X016773D01*
Y024097*
X016840Y024164*
X016973*
X017040Y024097*
Y023897*
Y024030D02*
X017173Y024164D01*
X016773Y024697D02*
Y024963D01*
Y024830*
X017173*
Y025097D02*
X016773D01*
Y025297*
X016840Y025363*
X016973*
X017040Y025297*
Y025097*
Y025230D02*
X017173Y025363D01*
Y025497D02*
X016907D01*
X016773Y025630*
X016907Y025763*
X017173*
X016973*
Y025497*
X016773Y026163D02*
Y025896D01*
X016973*
Y026030*
Y025896*
X017173*
X016773Y026496D02*
Y026363D01*
X016840Y026296*
X017106*
X017173Y026363*
Y026496*
X017106Y026563*
X016840*
X016773Y026496*
X016840Y027363D02*
X016773Y027296D01*
Y027163*
X016840Y027096*
X016907*
X016973Y027163*
Y027296*
X017040Y027363*
X017106*
X017173Y027296*
Y027163*
X017106Y027096*
X016773Y027763D02*
Y027496D01*
X017173*
Y027763*
X016973Y027496D02*
Y027629D01*
X016840Y028162D02*
X016773Y028096D01*
Y027962*
X016840Y027896*
X017106*
X017173Y027962*
Y028096*
X017106Y028162*
X017173Y028296D02*
X017106D01*
Y028362*
X017173*
Y028296*
X033473Y019198D02*
Y019464D01*
X033607Y019598*
X033740Y019464*
Y019198*
Y019398*
X033473*
X033873Y019531D02*
X033940Y019598D01*
X034073*
X034140Y019531*
Y019264*
X034073Y019198*
X033940*
X033873Y019264*
Y019531*
X034673Y019198D02*
Y019464D01*
X034806Y019598*
X034939Y019464*
Y019198*
Y019398*
X034673*
X035073Y019198D02*
X035206D01*
X035139*
Y019598*
X035073Y019531*
X035806Y019198D02*
Y019464D01*
X035939Y019598*
X036072Y019464*
Y019198*
Y019398*
X035806*
X036472Y019198D02*
X036206D01*
X036472Y019464*
Y019531*
X036406Y019598*
X036272*
X036206Y019531*
X040473Y024098D02*
X040023D01*
Y024323*
X040098Y024398*
X040248*
X040323Y024323*
Y024098*
Y024248D02*
X040473Y024398D01*
X040023Y024547D02*
X040398D01*
X040473Y024622*
Y024772*
X040398Y024847*
X040023*
X040473Y024997D02*
X040023D01*
X040473Y025297*
X040023*
X040098Y026197D02*
X040023Y026122D01*
Y025972*
X040098Y025897*
X040173*
X040248Y025972*
Y026122*
X040323Y026197*
X040398*
X040473Y026122*
Y025972*
X040398Y025897*
X040023Y026347D02*
Y026647D01*
Y026497*
X040473*
Y026797D02*
X040173D01*
X040023Y026947*
X040173Y027097*
X040473*
X040248*
Y026797*
X040023Y027247D02*
Y027547D01*
Y027397*
X040473*
X040248Y028098D02*
Y028398D01*
X040098Y028248D02*
X040398D01*
X040473Y028847D02*
Y028547D01*
X040173Y028847*
X040098*
X040023Y028772*
Y028622*
X040098Y028547*
X040473Y029222D02*
X040023D01*
X040248Y028997*
Y029297*
X040023Y029447D02*
X040323D01*
X040473Y029597*
X040323Y029747*
X040023*
X040098Y030647D02*
X040023Y030572D01*
Y030422*
X040098Y030347*
X040398*
X040473Y030422*
Y030572*
X040398Y030647*
X040248*
Y030497*
X040473Y030797D02*
X040023D01*
X040473Y031097*
X040023*
Y031247D02*
X040473D01*
Y031472*
X040398Y031547*
X040098*
X040023Y031472*
Y031247*
X040248Y032146D02*
Y032446D01*
X040098Y032296D02*
X040398D01*
X040023Y032896D02*
Y032596D01*
X040248*
X040173Y032746*
Y032821*
X040248Y032896*
X040398*
X040473Y032821*
Y032671*
X040398Y032596*
X040023Y033046D02*
X040323D01*
X040473Y033196*
X040323Y033346*
X040023*
X040473Y034098D02*
X040173D01*
X040023Y034248*
X040173Y034398*
X040473*
X040248*
Y034098*
X040473Y034997D02*
X040023D01*
Y035222*
X040098Y035297*
X040248*
X040323Y035222*
Y034997*
Y035147D02*
X040473Y035297D01*
X040098Y035747D02*
X040023Y035672D01*
Y035522*
X040098Y035447*
X040173*
X040248Y035522*
Y035672*
X040323Y035747*
X040398*
X040473Y035672*
Y035522*
X040398Y035447*
X040473Y036122D02*
X040023D01*
X040248Y035897*
Y036197*
X040098Y036347D02*
X040023Y036422D01*
Y036572*
X040098Y036647*
X040173*
X040248Y036572*
X040323Y036647*
X040398*
X040473Y036572*
Y036422*
X040398Y036347*
X040323*
X040248Y036422*
X040173Y036347*
X040098*
X040248Y036422D02*
Y036572D01*
X040023Y037097D02*
Y036797D01*
X040248*
X040173Y036947*
Y037022*
X040248Y037097*
X040398*
X040473Y037022*
Y036872*
X040398Y036797*
X040023Y037696D02*
X040473D01*
Y037921*
X040398Y037996*
X040323*
X040248Y037921*
Y037696*
Y037921*
X040173Y037996*
X040098*
X040023Y037921*
Y037696*
X016673Y030098D02*
Y030697D01*
X017073Y030098*
Y030697*
X016673Y032498D02*
Y033097D01*
X017073Y032498*
Y033097*
X016673Y035647D02*
Y035198D01*
X016973*
X017798Y035647D02*
X017648D01*
X017573Y035573*
Y035273*
X017648Y035198*
X017798*
X017873Y035273*
Y035573*
X017798Y035647*
X018023D02*
Y035273D01*
X018098Y035198*
X018248*
X018323Y035273*
Y035647*
X018473D02*
X018773D01*
X018623*
Y035198*
X016673Y038147D02*
Y037698D01*
X016973*
X017573Y038147D02*
X017723D01*
X017648*
Y037698*
X017573*
X017723*
X017948D02*
Y038147D01*
X018248Y037698*
Y038147*
G54D15*
X026634Y025338D02*
Y025848D01*
X027184Y026398*
X029293*
X029290Y025347D02*
X029293Y026398D01*
X026634Y024288D02*
X026640Y024798D01*
X026634Y024288D02*
X027183Y023739D01*
X029292*
X029285Y024777D02*
X029292Y023739D01*
X034312Y024289D02*
Y024799D01*
X033763Y023739D02*
X034312Y024289D01*
X031654Y023739D02*
X033763D01*
X031654D02*
X031656Y024790D01*
X034307Y025339D02*
X034312Y025849D01*
X033763Y026398D02*
X034312Y025849D01*
X031654Y026398D02*
X033763D01*
X031654D02*
X031662Y025360D01*
G54D16*
X027418Y022801D02*
X028993D01*
X027418Y021148D02*
X028993D01*
M02*