%FSDAX24Y24*%
%MOIN*%
%SFA1B1*%

%IPPOS*%
%ADD99C,0.002000*%
%LNde-160724-1*%
%LPD*%
G54D99*
X040940Y018369D02*
X042515D01*
X041728Y017581D02*
Y019156D01*
X012200Y018369D02*
X013775D01*
X012987Y017581D02*
Y019156D01*
X012200Y043959D02*
X013775D01*
X012987Y043172D02*
Y044746D01*
X040940Y043959D02*
X042515D01*
X041728Y043172D02*
Y044746D01*
X014503Y028734D02*
X014897D01*
X014700Y028537D02*
Y028931D01*
X014503Y026766D02*
X014897D01*
X014700Y026569D02*
Y026963D01*
X033173Y035100D02*
X033527D01*
X033350Y034923D02*
Y035277D01*
X033173Y034100D02*
X033527D01*
X033350Y033923D02*
Y034277D01*
X033173Y038850D02*
X033527D01*
X033350Y038673D02*
Y039027D01*
X033173Y037850D02*
X033527D01*
X033350Y037673D02*
Y038027D01*
X021723Y024300D02*
X022077D01*
X021900Y024123D02*
Y024477D01*
X023691Y024300D02*
X024046D01*
X023869Y024123D02*
Y024477D01*
X014553Y023950D02*
X014947D01*
X014750Y023753D02*
Y024147D01*
X014553Y021981D02*
X014947D01*
X014750Y021785D02*
Y022178D01*
X042573Y023300D02*
X042927D01*
X042750Y023123D02*
Y023477D01*
X041573Y023300D02*
X041927D01*
X041750Y023123D02*
Y023477D01*
X040573Y023300D02*
X040927D01*
X040750Y023123D02*
Y023477D01*
X032226Y044039D02*
X032817D01*
X032522Y043744D02*
Y044334D01*
X032226Y041086D02*
X032817D01*
X032522Y040791D02*
Y041382D01*
X025927Y044275D02*
X026518D01*
X026222Y043980D02*
Y044570D01*
X025455Y040850D02*
X026045D01*
X025750Y040555D02*
Y041145D01*
X038633Y042450D02*
X038967D01*
X038800Y042283D02*
Y042617D01*
X035633Y042450D02*
X035967D01*
X035800Y042283D02*
Y042617D01*
X034455Y044000D02*
X034927D01*
X034691Y043764D02*
Y044236D01*
X038573Y044000D02*
X039045D01*
X038809Y043764D02*
Y044236D01*
X020273Y034950D02*
X020627D01*
X020450Y034773D02*
Y035127D01*
X020273Y038887D02*
X020627D01*
X020450Y038710D02*
Y039064D01*
X020303Y041050D02*
X020697D01*
X020500Y040853D02*
Y041247D01*
X021303Y041050D02*
X021697D01*
X021500Y040853D02*
Y041247D01*
X022303Y041050D02*
X022697D01*
X022500Y040853D02*
Y041247D01*
X024373Y034950D02*
X024727D01*
X024550Y034773D02*
Y035127D01*
X024373Y038887D02*
X024727D01*
X024550Y038710D02*
Y039064D01*
X017350Y039803D02*
X017650D01*
X017500Y039653D02*
Y039953D01*
X017350Y033897D02*
X017650D01*
X017500Y033747D02*
Y034047D01*
X041553Y033550D02*
X041947D01*
X041750Y033353D02*
Y033747D01*
X041553Y035550D02*
X041947D01*
X041750Y035353D02*
Y035747D01*
X041553Y037550D02*
X041947D01*
X041750Y037353D02*
Y037747D01*
X027782Y039200D02*
X028018D01*
X027900Y039082D02*
Y039318D01*
X027782Y038200D02*
X028018D01*
X027900Y038082D02*
Y038318D01*
X027782Y037200D02*
X028018D01*
X027900Y037082D02*
Y037318D01*
X030782Y039200D02*
X031018D01*
X030900Y039082D02*
Y039318D01*
X030782Y038200D02*
X031018D01*
X030900Y038082D02*
Y038318D01*
X030782Y037200D02*
X031018D01*
X030900Y037082D02*
Y037318D01*
X014453Y034400D02*
X014847D01*
X014650Y034203D02*
Y034597D01*
X014453Y040306D02*
X014847D01*
X014650Y040109D02*
Y040502D01*
X014453Y036369D02*
X014847D01*
X014650Y036172D02*
Y036565D01*
X014453Y038337D02*
X014847D01*
X014650Y038140D02*
Y038534D01*
X030773Y031750D02*
X031127D01*
X030950Y031573D02*
Y031927D01*
X030773Y030750D02*
X031127D01*
X030950Y030573D02*
Y030927D01*
X033773Y031750D02*
X034127D01*
X033950Y031573D02*
Y031927D01*
X033773Y030750D02*
X034127D01*
X033950Y030573D02*
Y030927D01*
X041553Y029616D02*
X041947D01*
X041750Y029419D02*
Y029813D01*
X041553Y031584D02*
X041947D01*
X041750Y031387D02*
Y031781D01*
X041553Y025682D02*
X041947D01*
X041750Y025485D02*
Y025878D01*
X041553Y027650D02*
X041947D01*
X041750Y027453D02*
Y027847D01*
X027233Y019200D02*
X027667D01*
X027450Y018983D02*
Y019417D01*
X028233Y019200D02*
X028667D01*
X028450Y018983D02*
Y019417D01*
X029233Y019200D02*
X029667D01*
X029450Y018983D02*
Y019417D01*
X021873Y019350D02*
X022227D01*
X022050Y019173D02*
Y019527D01*
X023841Y019350D02*
X024196D01*
X024018Y019173D02*
Y019527D01*
X019829Y021981D02*
X020109D01*
X019969Y021841D02*
Y022121D01*
X022610Y029350D02*
X022890D01*
X022750Y029210D02*
Y029490D01*
X022610Y033000D02*
X022890D01*
X022750Y032860D02*
Y033140D01*
X027010Y031900D02*
X027290D01*
X027150Y031760D02*
Y032040D01*
X016060Y032600D02*
X016340D01*
X016200Y032460D02*
Y032740D01*
X041600Y019800D02*
X041700D01*
X041650Y019750D02*
Y019850D01*
X041600Y020450D02*
X041700D01*
X041650Y020400D02*
Y020500D01*
X035800Y019900D02*
X035900D01*
X035850Y019850D02*
Y019950D01*
X033000Y021300D02*
X033100D01*
X033050Y021250D02*
Y021350D01*
X035800Y020350D02*
X035900D01*
X035850Y020300D02*
Y020400D01*
X036200Y023425D02*
X036300D01*
X036250Y023375D02*
Y023475D01*
X036200Y022950D02*
X036300D01*
X036250Y022900D02*
Y023000D01*
X036650Y030650D02*
X036750D01*
X036700Y030600D02*
Y030700D01*
X037250Y029500D02*
X037350D01*
X037300Y029450D02*
Y029550D01*
X035300Y031950D02*
X035400D01*
X035350Y031900D02*
Y032000D01*
X035800Y020800D02*
X035900D01*
X035850Y020750D02*
Y020850D01*
X036000Y021200D02*
X036100D01*
X036050Y021150D02*
Y021250D01*
X036200Y021950D02*
X036300D01*
X036250Y021900D02*
Y022000D01*
X036200Y021550D02*
X036300D01*
X036250Y021500D02*
Y021600D01*
X034950Y032900D02*
X035050D01*
X035000Y032850D02*
Y032950D01*
X034900Y036750D02*
X035000D01*
X034950Y036700D02*
Y036800D01*
X032043Y018750D02*
X032323D01*
X032183Y018610D02*
Y018890D01*
X032977Y018750D02*
X033257D01*
X033117Y018610D02*
Y018890D01*
X033910Y018750D02*
X034190D01*
X034050Y018610D02*
Y018890D01*
X032977Y017300D02*
X033257D01*
X033117Y017160D02*
Y017440D01*
X031110Y018750D02*
X031390D01*
X031250Y018610D02*
Y018890D01*
X032043Y017300D02*
X032323D01*
X032183Y017160D02*
Y017440D01*
X033910Y017300D02*
X034190D01*
X034050Y017160D02*
Y017440D01*
X031110Y017300D02*
X031390D01*
X031250Y017160D02*
Y017440D01*
X031110Y018050D02*
X031390D01*
X031250Y017910D02*
Y018190D01*
X033910Y018050D02*
X034190D01*
X034050Y017910D02*
Y018190D01*
X032043Y018050D02*
X032323D01*
X032183Y017910D02*
Y018190D01*
X032977Y018050D02*
X033257D01*
X033117Y017910D02*
Y018190D01*
X040450Y022200D02*
X040550D01*
X040500Y022150D02*
Y022250D01*
X038550Y026400D02*
X038650D01*
X038600Y026350D02*
Y026450D01*
X035550Y035600D02*
X035650D01*
X035600Y035550D02*
Y035650D01*
X034000Y022335D02*
X034100D01*
X034050Y022285D02*
Y022385D01*
X033800Y020456D02*
X033900D01*
X033850Y020406D02*
Y020506D01*
M02*