%FSDAX24Y24*%
%MOIN*%
%SFA1B1*%

%IPPOS*%
%ADD10C,0.008000*%
%ADD30C,0.010000*%
%ADD55C,0.009800*%
%ADD56C,0.007900*%
%ADD57C,0.023600*%
%ADD58C,0.015700*%
%ADD59R,0.031500X0.110200*%
%LNde-160724-1*%
%LPD*%
G54D10*
X030067Y029033D02*
X030000Y029100D01*
X029867*
X029800Y029033*
Y028767*
X029867Y028700*
X030000*
X030067Y028767*
X030200Y028700D02*
X030333D01*
X030267*
Y029100*
X030200Y029033*
X038607Y032953D02*
X038540Y033020D01*
X038407*
X038340Y032953*
Y032687*
X038407Y032620*
X038540*
X038607Y032687*
X039006Y032620D02*
X038740D01*
X039006Y032887*
Y032953*
X038940Y033020*
X038807*
X038740Y032953*
X023667Y040142D02*
X023600Y040208D01*
X023467*
X023400Y040142*
Y039875*
X023467Y039808*
X023600*
X023667Y039875*
X023800Y040142D02*
X023867Y040208D01*
X024000*
X024066Y040142*
Y040075*
X024000Y040008*
X023933*
X024000*
X024066Y039942*
Y039875*
X024000Y039808*
X023867*
X023800Y039875*
X019567Y040142D02*
X019500Y040208D01*
X019367*
X019300Y040142*
Y039875*
X019367Y039808*
X019500*
X019567Y039875*
X019900Y039808D02*
Y040208D01*
X019700Y040008*
X019966*
X034722Y023703D02*
X034655Y023770D01*
X034522*
X034455Y023703*
Y023437*
X034522Y023370*
X034655*
X034722Y023437*
X035122Y023770D02*
X034855D01*
Y023570*
X034989Y023637*
X035055*
X035122Y023570*
Y023437*
X035055Y023370*
X034922*
X034855Y023437*
X042867Y021983D02*
X042800Y022050D01*
X042667*
X042600Y021983*
Y021717*
X042667Y021650*
X042800*
X042867Y021717*
X043266Y022050D02*
X043133Y021983D01*
X043000Y021850*
Y021717*
X043067Y021650*
X043200*
X043266Y021717*
Y021783*
X043200Y021850*
X043000*
X042867Y021233D02*
X042800Y021300D01*
X042667*
X042600Y021233*
Y020967*
X042667Y020900*
X042800*
X042867Y020967*
X043000Y021300D02*
X043266D01*
Y021233*
X043000Y020967*
Y020900*
X034707Y023103D02*
X034640Y023170D01*
X034507*
X034440Y023103*
Y022837*
X034507Y022770*
X034640*
X034707Y022837*
X034840Y023103D02*
X034907Y023170D01*
X035040*
X035106Y023103*
Y023037*
X035040Y022970*
X035106Y022903*
Y022837*
X035040Y022770*
X034907*
X034840Y022837*
Y022903*
X034907Y022970*
X034840Y023037*
Y023103*
X034907Y022970D02*
X035040D01*
X034707Y022453D02*
X034640Y022520D01*
X034507*
X034440Y022453*
Y022187*
X034507Y022120*
X034640*
X034707Y022187*
X034840D02*
X034907Y022120D01*
X035040*
X035106Y022187*
Y022453*
X035040Y022520*
X034907*
X034840Y022453*
Y022387*
X034907Y022320*
X035106*
X035717Y019283D02*
X035650Y019350D01*
X035517*
X035450Y019283*
Y019017*
X035517Y018950*
X035650*
X035717Y019017*
X035850Y018950D02*
X035983D01*
X035917*
Y019350*
X035850Y019283*
X036183D02*
X036250Y019350D01*
X036383*
X036450Y019283*
Y019017*
X036383Y018950*
X036250*
X036183Y019017*
Y019283*
X034917Y016633D02*
X034850Y016700D01*
X034717*
X034650Y016633*
Y016367*
X034717Y016300*
X034850*
X034917Y016367*
X035050Y016300D02*
X035183D01*
X035117*
Y016700*
X035050Y016633*
X035383Y016300D02*
X035516D01*
X035450*
Y016700*
X035383Y016633*
X020637Y027513D02*
X020570Y027580D01*
X020437*
X020370Y027513*
Y027247*
X020437Y027180*
X020570*
X020637Y027247*
X020770Y027180D02*
X020903D01*
X020837*
Y027580*
X020770Y027513*
X021370Y027180D02*
X021103D01*
X021370Y027447*
Y027513*
X021303Y027580*
X021170*
X021103Y027513*
X020717Y021733D02*
X020650Y021800D01*
X020517*
X020450Y021733*
Y021467*
X020517Y021400*
X020650*
X020717Y021467*
X020850Y021400D02*
X020983D01*
X020917*
Y021800*
X020850Y021733*
X021183D02*
X021250Y021800D01*
X021383*
X021450Y021733*
Y021667*
X021383Y021600*
X021316*
X021383*
X021450Y021533*
Y021467*
X021383Y021400*
X021250*
X021183Y021467*
X027267Y017433D02*
X027200Y017500D01*
X027067*
X027000Y017433*
Y017167*
X027067Y017100*
X027200*
X027267Y017167*
X027400Y017100D02*
X027533D01*
X027467*
Y017500*
X027400Y017433*
X027933Y017100D02*
Y017500D01*
X027733Y017300*
X028000*
X029017Y017433D02*
X028950Y017500D01*
X028817*
X028750Y017433*
Y017167*
X028817Y017100*
X028950*
X029017Y017167*
X029150Y017100D02*
X029283D01*
X029217*
Y017500*
X029150Y017433*
X029750Y017500D02*
X029483D01*
Y017300*
X029616Y017367*
X029683*
X029750Y017300*
Y017167*
X029683Y017100*
X029550*
X029483Y017167*
X035767Y038783D02*
X035700Y038850D01*
X035567*
X035500Y038783*
Y038517*
X035567Y038450*
X035700*
X035767Y038517*
X035900Y038450D02*
X036033D01*
X035967*
Y038850*
X035900Y038783*
X036500Y038850D02*
X036366Y038783D01*
X036233Y038650*
Y038517*
X036300Y038450*
X036433*
X036500Y038517*
Y038583*
X036433Y038650*
X036233*
X035767Y037383D02*
X035700Y037450D01*
X035567*
X035500Y037383*
Y037117*
X035567Y037050*
X035700*
X035767Y037117*
X035900Y037050D02*
X036033D01*
X035967*
Y037450*
X035900Y037383*
X036233Y037450D02*
X036500D01*
Y037383*
X036233Y037117*
Y037050*
X035767Y034383D02*
X035700Y034450D01*
X035567*
X035500Y034383*
Y034117*
X035567Y034050*
X035700*
X035767Y034117*
X035900Y034050D02*
X036033D01*
X035967*
Y034450*
X035900Y034383*
X036233D02*
X036300Y034450D01*
X036433*
X036500Y034383*
Y034317*
X036433Y034250*
X036500Y034183*
Y034117*
X036433Y034050*
X036300*
X036233Y034117*
Y034183*
X036300Y034250*
X036233Y034317*
Y034383*
X036300Y034250D02*
X036433D01*
X035767Y033733D02*
X035700Y033800D01*
X035567*
X035500Y033733*
Y033467*
X035567Y033400*
X035700*
X035767Y033467*
X035900Y033400D02*
X036033D01*
X035967*
Y033800*
X035900Y033733*
X036233Y033467D02*
X036300Y033400D01*
X036433*
X036500Y033467*
Y033733*
X036433Y033800*
X036300*
X036233Y033733*
Y033667*
X036300Y033600*
X036500*
X030867Y023283D02*
X030800Y023350D01*
X030667*
X030600Y023283*
Y023017*
X030667Y022950*
X030800*
X030867Y023017*
X031266Y022950D02*
X031000D01*
X031266Y023217*
Y023283*
X031200Y023350*
X031067*
X031000Y023283*
X031400D02*
X031466Y023350D01*
X031600*
X031666Y023283*
Y023017*
X031600Y022950*
X031466*
X031400Y023017*
Y023283*
X034217Y022483D02*
X034150Y022550D01*
X034017*
X033950Y022483*
Y022217*
X034017Y022150*
X034150*
X034217Y022217*
X034616Y022150D02*
X034350D01*
X034616Y022417*
Y022483*
X034550Y022550*
X034417*
X034350Y022483*
X034750Y022150D02*
X034883D01*
X034816*
Y022550*
X034750Y022483*
X025640Y033610D02*
Y033210D01*
X025840*
X025907Y033277*
Y033543*
X025840Y033610*
X025640*
X026040Y033210D02*
X026173D01*
X026107*
Y033610*
X026040Y033543*
X023250Y032450D02*
Y032050D01*
X023450*
X023517Y032117*
Y032383*
X023450Y032450*
X023250*
X023916Y032050D02*
X023650D01*
X023916Y032317*
Y032383*
X023850Y032450*
X023717*
X023650Y032383*
X023250Y030100D02*
Y029700D01*
X023450*
X023517Y029767*
Y030033*
X023450Y030100*
X023250*
X023650Y030033D02*
X023717Y030100D01*
X023850*
X023916Y030033*
Y029967*
X023850Y029900*
X023783*
X023850*
X023916Y029833*
Y029767*
X023850Y029700*
X023717*
X023650Y029767*
X024230Y033230D02*
Y032830D01*
X024430*
X024497Y032897*
Y033163*
X024430Y033230*
X024230*
X024830Y032830D02*
Y033230D01*
X024630Y033030*
X024896*
X023300Y031700D02*
Y031300D01*
X023500*
X023567Y031367*
Y031633*
X023500Y031700*
X023300*
X023966D02*
X023700D01*
Y031500*
X023833Y031567*
X023900*
X023966Y031500*
Y031367*
X023900Y031300*
X023767*
X023700Y031367*
X023200Y030850D02*
Y030450D01*
X023400*
X023467Y030517*
Y030783*
X023400Y030850*
X023200*
X023866D02*
X023733Y030783D01*
X023600Y030650*
Y030517*
X023667Y030450*
X023800*
X023866Y030517*
Y030583*
X023800Y030650*
X023600*
X027050Y029150D02*
Y028750D01*
X027250*
X027317Y028817*
Y029083*
X027250Y029150*
X027050*
X027450D02*
X027716D01*
Y029083*
X027450Y028817*
Y028750*
X019200Y042880D02*
Y042480D01*
X019400*
X019467Y042547*
Y042813*
X019400Y042880*
X019200*
X019600Y042813D02*
X019667Y042880D01*
X019800*
X019866Y042813*
Y042747*
X019800Y042680*
X019866Y042613*
Y042547*
X019800Y042480*
X019667*
X019600Y042547*
Y042613*
X019667Y042680*
X019600Y042747*
Y042813*
X019667Y042680D02*
X019800D01*
X034340Y045270D02*
Y044870D01*
X034540*
X034607Y044937*
Y045203*
X034540Y045270*
X034340*
X034740Y044937D02*
X034807Y044870D01*
X034940*
X035006Y044937*
Y045203*
X034940Y045270*
X034807*
X034740Y045203*
Y045137*
X034807Y045070*
X035006*
X034450Y043970D02*
Y043570D01*
X034650*
X034717Y043637*
Y043903*
X034650Y043970*
X034450*
X034850Y043570D02*
X034983D01*
X034917*
Y043970*
X034850Y043903*
X035183D02*
X035250Y043970D01*
X035383*
X035450Y043903*
Y043637*
X035383Y043570*
X035250*
X035183Y043637*
Y043903*
X016330Y025330D02*
Y024930D01*
X016530*
X016597Y024997*
Y025263*
X016530Y025330*
X016330*
X016730Y024930D02*
X016863D01*
X016797*
Y025330*
X016730Y025263*
X017063Y024930D02*
X017196D01*
X017130*
Y025330*
X017063Y025263*
X018030Y025330D02*
Y024930D01*
X018230*
X018297Y024997*
Y025263*
X018230Y025330*
X018030*
X018430Y024930D02*
X018563D01*
X018497*
Y025330*
X018430Y025263*
X019030Y024930D02*
X018763D01*
X019030Y025197*
Y025263*
X018963Y025330*
X018830*
X018763Y025263*
X016300Y017700D02*
Y017300D01*
X016500*
X016567Y017367*
Y017633*
X016500Y017700*
X016300*
X016700Y017300D02*
X016833D01*
X016767*
Y017700*
X016700Y017633*
X017033D02*
X017100Y017700D01*
X017233*
X017300Y017633*
Y017567*
X017233Y017500*
X017166*
X017233*
X017300Y017433*
Y017367*
X017233Y017300*
X017100*
X017033Y017367*
X017950Y017650D02*
Y017250D01*
X018150*
X018217Y017317*
Y017583*
X018150Y017650*
X017950*
X018350Y017250D02*
X018483D01*
X018417*
Y017650*
X018350Y017583*
X018883Y017250D02*
Y017650D01*
X018683Y017450*
X018950*
X038530Y029680D02*
Y029280D01*
X038730*
X038797Y029347*
Y029613*
X038730Y029680*
X038530*
X038930Y029280D02*
X039063D01*
X038997*
Y029680*
X038930Y029613*
X039530Y029680D02*
X039263D01*
Y029480*
X039396Y029547*
X039463*
X039530Y029480*
Y029347*
X039463Y029280*
X039330*
X039263Y029347*
X025850Y025250D02*
Y024850D01*
X026050*
X026117Y024917*
Y025183*
X026050Y025250*
X025850*
X026250Y024850D02*
X026383D01*
X026317*
Y025250*
X026250Y025183*
X026850Y025250D02*
X026716Y025183D01*
X026583Y025050*
Y024917*
X026650Y024850*
X026783*
X026850Y024917*
Y024983*
X026783Y025050*
X026583*
X025850Y026000D02*
Y025600D01*
X026050*
X026117Y025667*
Y025933*
X026050Y026000*
X025850*
X026250Y025600D02*
X026383D01*
X026317*
Y026000*
X026250Y025933*
X026583Y026000D02*
X026850D01*
Y025933*
X026583Y025667*
Y025600*
X033950Y025100D02*
Y024700D01*
X034150*
X034217Y024767*
Y025033*
X034150Y025100*
X033950*
X034350Y024700D02*
X034483D01*
X034417*
Y025100*
X034350Y025033*
X034683D02*
X034750Y025100D01*
X034883*
X034950Y025033*
Y024967*
X034883Y024900*
X034950Y024833*
Y024767*
X034883Y024700*
X034750*
X034683Y024767*
Y024833*
X034750Y024900*
X034683Y024967*
Y025033*
X034750Y024900D02*
X034883D01*
X033950Y025950D02*
Y025550D01*
X034150*
X034217Y025617*
Y025883*
X034150Y025950*
X033950*
X034350Y025550D02*
X034483D01*
X034417*
Y025950*
X034350Y025883*
X034683Y025617D02*
X034750Y025550D01*
X034883*
X034950Y025617*
Y025883*
X034883Y025950*
X034750*
X034683Y025883*
Y025817*
X034750Y025750*
X034950*
X024680Y045710D02*
Y045310D01*
Y045443*
X024947Y045710*
X024747Y045510*
X024947Y045310*
X025080D02*
X025213D01*
X025147*
Y045710*
X025080Y045643*
X006410Y041230D02*
Y041630D01*
X006610*
X006677Y041563*
Y041430*
X006610Y041363*
X006410*
X006810Y041230D02*
X006943D01*
X006877*
Y041630*
X006810Y041563*
X039250Y032050D02*
Y032450D01*
X039450*
X039517Y032383*
Y032250*
X039450Y032183*
X039250*
X039916Y032050D02*
X039650D01*
X039916Y032317*
Y032383*
X039850Y032450*
X039717*
X039650Y032383*
X040210Y038830D02*
Y039230D01*
X040410*
X040477Y039163*
Y039030*
X040410Y038963*
X040210*
X040610Y039163D02*
X040677Y039230D01*
X040810*
X040876Y039163*
Y039097*
X040810Y039030*
X040743*
X040810*
X040876Y038963*
Y038897*
X040810Y038830*
X040677*
X040610Y038897*
X039300Y028116D02*
Y028516D01*
X039500*
X039567Y028449*
Y028316*
X039500Y028249*
X039300*
X039900Y028116D02*
Y028516D01*
X039700Y028316*
X039966*
X040290Y024120D02*
Y024520D01*
X040490*
X040557Y024453*
Y024320*
X040490Y024253*
X040290*
X040956Y024520D02*
X040690D01*
Y024320*
X040823Y024387*
X040890*
X040956Y024320*
Y024187*
X040890Y024120*
X040757*
X040690Y024187*
X006510Y025261D02*
Y025661D01*
X006710*
X006777Y025595*
Y025461*
X006710Y025395*
X006510*
X007176Y025661D02*
X007043Y025595D01*
X006910Y025461*
Y025328*
X006977Y025261*
X007110*
X007176Y025328*
Y025395*
X007110Y025461*
X006910*
X032890Y039670D02*
Y040070D01*
X033090*
X033157Y040003*
Y039870*
X033090Y039803*
X032890*
X033290Y040070D02*
X033556D01*
Y040003*
X033290Y039737*
Y039670*
X006460Y030044D02*
Y030444D01*
X006660*
X006727Y030377*
Y030244*
X006660Y030178*
X006460*
X006860Y030377D02*
X006927Y030444D01*
X007060*
X007126Y030377*
Y030311*
X007060Y030244*
X007126Y030178*
Y030111*
X007060Y030044*
X006927*
X006860Y030111*
Y030178*
X006927Y030244*
X006860Y030311*
Y030377*
X006927Y030244D02*
X007060D01*
X032890Y035920D02*
Y036320D01*
X033090*
X033157Y036253*
Y036120*
X033090Y036053*
X032890*
X033290Y035987D02*
X033357Y035920D01*
X033490*
X033556Y035987*
Y036253*
X033490Y036320*
X033357*
X033290Y036253*
Y036187*
X033357Y036120*
X033556*
X034657Y041907D02*
Y042173D01*
X034590Y042240*
X034457*
X034390Y042173*
Y041907*
X034457Y041840*
X034590*
X034523Y041973D02*
X034657Y041840D01*
X034590D02*
X034657Y041907D01*
X034790Y041840D02*
X034923D01*
X034857*
Y042240*
X034790Y042173*
X037107Y028907D02*
Y029173D01*
X037040Y029240*
X036907*
X036840Y029173*
Y028907*
X036907Y028840*
X037040*
X036973Y028973D02*
X037107Y028840D01*
X037040D02*
X037107Y028907D01*
X037506Y028840D02*
X037240D01*
X037506Y029107*
Y029173*
X037440Y029240*
X037307*
X037240Y029173*
X036997Y026527D02*
Y026793D01*
X036930Y026860*
X036797*
X036730Y026793*
Y026527*
X036797Y026460*
X036930*
X036863Y026593D02*
X036997Y026460D01*
X036930D02*
X036997Y026527D01*
X037130Y026793D02*
X037197Y026860D01*
X037330*
X037396Y026793*
Y026727*
X037330Y026660*
X037263*
X037330*
X037396Y026593*
Y026527*
X037330Y026460*
X037197*
X037130Y026527*
X029890Y032370D02*
Y032770D01*
X030090*
X030157Y032703*
Y032570*
X030090Y032503*
X029890*
X030023D02*
X030157Y032370D01*
X030290D02*
X030423D01*
X030357*
Y032770*
X030290Y032703*
X026300Y031750D02*
Y032150D01*
X026500*
X026567Y032083*
Y031950*
X026500Y031883*
X026300*
X026433D02*
X026567Y031750D01*
X026966D02*
X026700D01*
X026966Y032017*
Y032083*
X026900Y032150*
X026767*
X026700Y032083*
X028600Y032300D02*
Y032700D01*
X028800*
X028867Y032633*
Y032500*
X028800Y032433*
X028600*
X028733D02*
X028867Y032300D01*
X029000Y032633D02*
X029067Y032700D01*
X029200*
X029266Y032633*
Y032567*
X029200Y032500*
X029133*
X029200*
X029266Y032433*
Y032367*
X029200Y032300*
X029067*
X029000Y032367*
X016910Y032470D02*
Y032870D01*
X017110*
X017177Y032803*
Y032670*
X017110Y032603*
X016910*
X017043D02*
X017177Y032470D01*
X017510D02*
Y032870D01*
X017310Y032670*
X017576*
X018460Y032470D02*
Y032870D01*
X018660*
X018727Y032803*
Y032670*
X018660Y032603*
X018460*
X018593D02*
X018727Y032470D01*
X019126Y032870D02*
X018860D01*
Y032670*
X018993Y032737*
X019060*
X019126Y032670*
Y032537*
X019060Y032470*
X018927*
X018860Y032537*
X020010Y032470D02*
Y032870D01*
X020210*
X020277Y032803*
Y032670*
X020210Y032603*
X020010*
X020143D02*
X020277Y032470D01*
X020676Y032870D02*
X020543Y032803D01*
X020410Y032670*
Y032537*
X020477Y032470*
X020610*
X020676Y032537*
Y032603*
X020610Y032670*
X020410*
X035100Y030500D02*
Y030900D01*
X035300*
X035367Y030833*
Y030700*
X035300Y030633*
X035100*
X035233D02*
X035367Y030500D01*
X035500Y030900D02*
X035766D01*
Y030833*
X035500Y030567*
Y030500*
X016910Y030820D02*
Y031220D01*
X017110*
X017177Y031153*
Y031020*
X017110Y030953*
X016910*
X017043D02*
X017177Y030820D01*
X017310Y031153D02*
X017377Y031220D01*
X017510*
X017576Y031153*
Y031087*
X017510Y031020*
X017576Y030953*
Y030887*
X017510Y030820*
X017377*
X017310Y030887*
Y030953*
X017377Y031020*
X017310Y031087*
Y031153*
X017377Y031020D02*
X017510D01*
X018484Y030820D02*
Y031220D01*
X018684*
X018751Y031153*
Y031020*
X018684Y030953*
X018484*
X018617D02*
X018751Y030820D01*
X018884Y030887D02*
X018951Y030820D01*
X019084*
X019150Y030887*
Y031153*
X019084Y031220*
X018951*
X018884Y031153*
Y031087*
X018951Y031020*
X019150*
X020010Y030820D02*
Y031220D01*
X020210*
X020277Y031153*
Y031020*
X020210Y030953*
X020010*
X020143D02*
X020277Y030820D01*
X020410D02*
X020543D01*
X020477*
Y031220*
X020410Y031153*
X020743D02*
X020810Y031220D01*
X020943*
X021010Y031153*
Y030887*
X020943Y030820*
X020810*
X020743Y030887*
Y031153*
X032850Y029250D02*
Y029650D01*
X033050*
X033117Y029583*
Y029450*
X033050Y029383*
X032850*
X032983D02*
X033117Y029250D01*
X033250D02*
X033383D01*
X033317*
Y029650*
X033250Y029583*
X033583Y029250D02*
X033716D01*
X033650*
Y029650*
X033583Y029583*
X025550Y028800D02*
Y029200D01*
X025750*
X025817Y029133*
Y029000*
X025750Y028933*
X025550*
X025683D02*
X025817Y028800D01*
X025950D02*
X026083D01*
X026017*
Y029200*
X025950Y029133*
X026550Y028800D02*
X026283D01*
X026550Y029067*
Y029133*
X026483Y029200*
X026350*
X026283Y029133*
X035640Y031920D02*
Y032320D01*
X035840*
X035907Y032253*
Y032120*
X035840Y032053*
X035640*
X035773D02*
X035907Y031920D01*
X036040D02*
X036173D01*
X036107*
Y032320*
X036040Y032253*
X036373D02*
X036440Y032320D01*
X036573*
X036640Y032253*
Y032187*
X036573Y032120*
X036506*
X036573*
X036640Y032053*
Y031987*
X036573Y031920*
X036440*
X036373Y031987*
X022190Y037876D02*
Y038276D01*
X022390*
X022457Y038209*
Y038076*
X022390Y038009*
X022190*
X022323D02*
X022457Y037876D01*
X022590D02*
X022723D01*
X022657*
Y038276*
X022590Y038209*
X023123Y037876D02*
Y038276D01*
X022923Y038076*
X023190*
X022000Y034050D02*
Y034450D01*
X022200*
X022267Y034383*
Y034250*
X022200Y034183*
X022000*
X022133D02*
X022267Y034050D01*
X022400D02*
X022533D01*
X022467*
Y034450*
X022400Y034383*
X023000Y034450D02*
X022733D01*
Y034250*
X022866Y034317*
X022933*
X023000Y034250*
Y034117*
X022933Y034050*
X022800*
X022733Y034117*
X026150Y034100D02*
Y034500D01*
X026350*
X026417Y034433*
Y034300*
X026350Y034233*
X026150*
X026283D02*
X026417Y034100D01*
X026550D02*
X026683D01*
X026617*
Y034500*
X026550Y034433*
X027150Y034500D02*
X027016Y034433D01*
X026883Y034300*
Y034167*
X026950Y034100*
X027083*
X027150Y034167*
Y034233*
X027083Y034300*
X026883*
X026140Y037750D02*
Y038150D01*
X026340*
X026407Y038083*
Y037950*
X026340Y037883*
X026140*
X026273D02*
X026407Y037750D01*
X026540D02*
X026673D01*
X026607*
Y038150*
X026540Y038083*
X026873Y038150D02*
X027140D01*
Y038083*
X026873Y037817*
Y037750*
X031250Y036050D02*
Y036450D01*
X031450*
X031517Y036383*
Y036250*
X031450Y036183*
X031250*
X031383D02*
X031517Y036050D01*
X031650D02*
X031783D01*
X031717*
Y036450*
X031650Y036383*
X031983D02*
X032050Y036450D01*
X032183*
X032250Y036383*
Y036317*
X032183Y036250*
X032250Y036183*
Y036117*
X032183Y036050*
X032050*
X031983Y036117*
Y036183*
X032050Y036250*
X031983Y036317*
Y036383*
X032050Y036250D02*
X032183D01*
X016550Y040420D02*
Y040820D01*
X016750*
X016817Y040753*
Y040620*
X016750Y040553*
X016550*
X016683D02*
X016817Y040420D01*
X016950D02*
X017083D01*
X017017*
Y040820*
X016950Y040753*
X017283Y040487D02*
X017350Y040420D01*
X017483*
X017550Y040487*
Y040753*
X017483Y040820*
X017350*
X017283Y040753*
Y040687*
X017350Y040620*
X017550*
X035560Y043070D02*
Y043470D01*
X035760*
X035827Y043403*
Y043270*
X035760Y043203*
X035560*
X035693D02*
X035827Y043070D01*
X036226D02*
X035960D01*
X036226Y043337*
Y043403*
X036160Y043470*
X036027*
X035960Y043403*
X036360D02*
X036426Y043470D01*
X036560*
X036626Y043403*
Y043137*
X036560Y043070*
X036426*
X036360Y043137*
Y043403*
X035450Y020050D02*
Y020450D01*
X035650*
X035717Y020383*
Y020250*
X035650Y020183*
X035450*
X035583D02*
X035717Y020050D01*
X036116D02*
X035850D01*
X036116Y020317*
Y020383*
X036050Y020450*
X035917*
X035850Y020383*
X036250Y020050D02*
X036383D01*
X036316*
Y020450*
X036250Y020383*
X036840Y041720D02*
Y042120D01*
X037040*
X037107Y042053*
Y041920*
X037040Y041853*
X036840*
X036973D02*
X037107Y041720D01*
X037506D02*
X037240D01*
X037506Y041987*
Y042053*
X037440Y042120*
X037307*
X037240Y042053*
X037906Y041720D02*
X037640D01*
X037906Y041987*
Y042053*
X037840Y042120*
X037706*
X037640Y042053*
X042190Y024720D02*
Y025120D01*
X042390*
X042457Y025053*
Y024920*
X042390Y024853*
X042190*
X042323D02*
X042457Y024720D01*
X042856D02*
X042590D01*
X042856Y024987*
Y025053*
X042790Y025120*
X042657*
X042590Y025053*
X042990D02*
X043056Y025120D01*
X043190*
X043256Y025053*
Y024987*
X043190Y024920*
X043123*
X043190*
X043256Y024853*
Y024787*
X043190Y024720*
X043056*
X042990Y024787*
X036190Y041720D02*
Y042120D01*
X036390*
X036457Y042053*
Y041920*
X036390Y041853*
X036190*
X036323D02*
X036457Y041720D01*
X036856D02*
X036590D01*
X036856Y041987*
Y042053*
X036790Y042120*
X036657*
X036590Y042053*
X037256Y042120D02*
X036990D01*
Y041920*
X037123Y041987*
X037190*
X037256Y041920*
Y041787*
X037190Y041720*
X037056*
X036990Y041787*
X039775Y024720D02*
Y025120D01*
X039975*
X040041Y025053*
Y024920*
X039975Y024853*
X039775*
X039908D02*
X040041Y024720D01*
X040441D02*
X040175D01*
X040441Y024987*
Y025053*
X040374Y025120*
X040241*
X040175Y025053*
X040841Y025120D02*
X040708Y025053D01*
X040574Y024920*
Y024787*
X040641Y024720*
X040774*
X040841Y024787*
Y024853*
X040774Y024920*
X040574*
X035500Y028450D02*
Y028850D01*
X035700*
X035767Y028783*
Y028650*
X035700Y028583*
X035500*
X035633D02*
X035767Y028450D01*
X035900Y028783D02*
X035967Y028850D01*
X036100*
X036166Y028783*
Y028717*
X036100Y028650*
X036033*
X036100*
X036166Y028583*
Y028517*
X036100Y028450*
X035967*
X035900Y028517*
X036300Y028783D02*
X036366Y028850D01*
X036500*
X036566Y028783*
Y028517*
X036500Y028450*
X036366*
X036300Y028517*
Y028783*
X035500Y039100D02*
Y039500D01*
X035700*
X035767Y039433*
Y039300*
X035700Y039233*
X035500*
X035633D02*
X035767Y039100D01*
X035900Y039433D02*
X035967Y039500D01*
X036100*
X036166Y039433*
Y039367*
X036100Y039300*
X036033*
X036100*
X036166Y039233*
Y039167*
X036100Y039100*
X035967*
X035900Y039167*
X036300Y039100D02*
X036433D01*
X036366*
Y039500*
X036300Y039433*
X037850Y026400D02*
Y026800D01*
X038050*
X038117Y026733*
Y026600*
X038050Y026533*
X037850*
X037983D02*
X038117Y026400D01*
X038250Y026733D02*
X038317Y026800D01*
X038450*
X038516Y026733*
Y026667*
X038450Y026600*
X038383*
X038450*
X038516Y026533*
Y026467*
X038450Y026400*
X038317*
X038250Y026467*
X038916Y026400D02*
X038650D01*
X038916Y026667*
Y026733*
X038850Y026800*
X038716*
X038650Y026733*
X035500Y037750D02*
Y038150D01*
X035700*
X035767Y038083*
Y037950*
X035700Y037883*
X035500*
X035633D02*
X035767Y037750D01*
X035900Y038083D02*
X035967Y038150D01*
X036100*
X036166Y038083*
Y038017*
X036100Y037950*
X036033*
X036100*
X036166Y037883*
Y037817*
X036100Y037750*
X035967*
X035900Y037817*
X036300Y038083D02*
X036366Y038150D01*
X036500*
X036566Y038083*
Y038017*
X036500Y037950*
X036433*
X036500*
X036566Y037883*
Y037817*
X036500Y037750*
X036366*
X036300Y037817*
X039200Y026400D02*
Y026800D01*
X039400*
X039467Y026733*
Y026600*
X039400Y026533*
X039200*
X039333D02*
X039467Y026400D01*
X039600Y026733D02*
X039667Y026800D01*
X039800*
X039866Y026733*
Y026667*
X039800Y026600*
X039733*
X039800*
X039866Y026533*
Y026467*
X039800Y026400*
X039667*
X039600Y026467*
X040200Y026400D02*
Y026800D01*
X040000Y026600*
X040266*
X035500Y035300D02*
Y035700D01*
X035700*
X035767Y035633*
Y035500*
X035700Y035433*
X035500*
X035633D02*
X035767Y035300D01*
X035900Y035633D02*
X035967Y035700D01*
X036100*
X036166Y035633*
Y035567*
X036100Y035500*
X036033*
X036100*
X036166Y035433*
Y035367*
X036100Y035300*
X035967*
X035900Y035367*
X036566Y035700D02*
X036300D01*
Y035500*
X036433Y035567*
X036500*
X036566Y035500*
Y035367*
X036500Y035300*
X036366*
X036300Y035367*
X035550Y034650D02*
Y035050D01*
X035750*
X035817Y034983*
Y034850*
X035750Y034783*
X035550*
X035683D02*
X035817Y034650D01*
X035950Y034983D02*
X036017Y035050D01*
X036150*
X036216Y034983*
Y034917*
X036150Y034850*
X036083*
X036150*
X036216Y034783*
Y034717*
X036150Y034650*
X036017*
X035950Y034717*
X036616Y035050D02*
X036483Y034983D01*
X036350Y034850*
Y034717*
X036416Y034650*
X036550*
X036616Y034717*
Y034783*
X036550Y034850*
X036350*
X028900Y023050D02*
Y023450D01*
X029100*
X029167Y023383*
Y023250*
X029100Y023183*
X028900*
X029033D02*
X029167Y023050D01*
X029300Y023383D02*
X029367Y023450D01*
X029500*
X029566Y023383*
Y023317*
X029500Y023250*
X029433*
X029500*
X029566Y023183*
Y023117*
X029500Y023050*
X029367*
X029300Y023117*
X029700Y023450D02*
X029966D01*
Y023383*
X029700Y023117*
Y023050*
X038400Y026200D02*
Y026600D01*
X038600*
X038667Y026533*
Y026400*
X038600Y026333*
X038400*
X038533D02*
X038667Y026200D01*
X038800Y026533D02*
X038867Y026600D01*
X039000*
X039066Y026533*
Y026467*
X039000Y026400*
X038933*
X039000*
X039066Y026333*
Y026267*
X039000Y026200*
X038867*
X038800Y026267*
X039200Y026533D02*
X039266Y026600D01*
X039400*
X039466Y026533*
Y026467*
X039400Y026400*
X039466Y026333*
Y026267*
X039400Y026200*
X039266*
X039200Y026267*
Y026333*
X039266Y026400*
X039200Y026467*
Y026533*
X039266Y026400D02*
X039400D01*
X030600Y021550D02*
Y021950D01*
X030800*
X030867Y021883*
Y021750*
X030800Y021683*
X030600*
X030733D02*
X030867Y021550D01*
X031000Y021883D02*
X031067Y021950D01*
X031200*
X031266Y021883*
Y021817*
X031200Y021750*
X031133*
X031200*
X031266Y021683*
Y021617*
X031200Y021550*
X031067*
X031000Y021617*
X031400D02*
X031466Y021550D01*
X031600*
X031666Y021617*
Y021883*
X031600Y021950*
X031466*
X031400Y021883*
Y021817*
X031466Y021750*
X031666*
X038450Y024300D02*
Y024700D01*
X038650*
X038717Y024633*
Y024500*
X038650Y024433*
X038450*
X038583D02*
X038717Y024300D01*
X039050D02*
Y024700D01*
X038850Y024500*
X039116*
X039250Y024633D02*
X039316Y024700D01*
X039450*
X039516Y024633*
Y024367*
X039450Y024300*
X039316*
X039250Y024367*
Y024633*
X030600Y022150D02*
Y022550D01*
X030800*
X030867Y022483*
Y022350*
X030800Y022283*
X030600*
X030733D02*
X030867Y022150D01*
X031200D02*
Y022550D01*
X031000Y022350*
X031266*
X031400Y022150D02*
X031533D01*
X031466*
Y022550*
X031400Y022483*
X030690Y033040D02*
Y032707D01*
X030757Y032640*
X030890*
X030957Y032707*
Y033040*
X031090Y032640D02*
X031223D01*
X031157*
Y033040*
X031090Y032973*
X027400Y032150D02*
Y031817D01*
X027467Y031750*
X027600*
X027667Y031817*
Y032150*
X028066Y031750D02*
X027800D01*
X028066Y032017*
Y032083*
X028000Y032150*
X027867*
X027800Y032083*
X037850Y032350D02*
Y032017D01*
X037917Y031950*
X038050*
X038117Y032017*
Y032350*
X038250Y032283D02*
X038317Y032350D01*
X038450*
X038516Y032283*
Y032217*
X038450Y032150*
X038383*
X038450*
X038516Y032083*
Y032017*
X038450Y031950*
X038317*
X038250Y032017*
X027450Y040430D02*
Y040097D01*
X027517Y040030*
X027650*
X027717Y040097*
Y040430*
X028050Y040030D02*
Y040430D01*
X027850Y040230*
X028116*
X030700Y018250D02*
Y017917D01*
X030767Y017850*
X030900*
X030967Y017917*
Y018250*
X031100D02*
X031366D01*
Y018183*
X031100Y017917*
Y017850*
X036760Y024370D02*
Y024037D01*
X036827Y023970*
X036960*
X037027Y024037*
Y024370*
X037426D02*
X037160D01*
Y024170*
X037293Y024237*
X037360*
X037426Y024170*
Y024037*
X037360Y023970*
X037227*
X037160Y024037*
X026450Y021000D02*
Y020667D01*
X026517Y020600*
X026650*
X026717Y020667*
Y021000*
X027116D02*
X026983Y020933D01*
X026850Y020800*
Y020667*
X026917Y020600*
X027050*
X027116Y020667*
Y020733*
X027050Y020800*
X026850*
X026024Y024395D02*
X025757D01*
X025891Y024262D02*
Y024529D01*
X025583Y019445D02*
X025317D01*
X025450Y019312D02*
Y019579D01*
G54D30*
X009070Y028537D02*
D01*
X009068Y028583*
X009063Y028630*
X009055Y028676*
X009044Y028721*
X009029Y028765*
X009012Y028809*
X008991Y028851*
X008968Y028891*
X008942Y028930*
X008913Y028967*
X008882Y029001*
X008848Y029034*
X008812Y029064*
X008775Y029091*
X008735Y029116*
X008694Y029138*
X008651Y029157*
X008607Y029173*
X008562Y029186*
X008517Y029195*
X008470Y029202*
X008424Y029205*
X008377*
X008331Y029202*
X008284Y029195*
X008239Y029186*
X008194Y029173*
X008150Y029157*
X008107Y029138*
X008066Y029116*
X008026Y029091*
X007989Y029064*
X007953Y029034*
X007919Y029001*
X007888Y028967*
X007859Y028930*
X007833Y028891*
X007810Y028851*
X007789Y028809*
X007772Y028765*
X007757Y028721*
X007746Y028676*
X007738Y028630*
X007733Y028583*
X007732Y028537*
X007733Y028490*
X007738Y028443*
X007746Y028397*
X007757Y028352*
X007772Y028308*
X007789Y028264*
X007810Y028222*
X007833Y028182*
X007859Y028143*
X007888Y028106*
X007919Y028072*
X007953Y028039*
X007989Y028009*
X008026Y027982*
X008066Y027957*
X008107Y027935*
X008150Y027916*
X008194Y027900*
X008239Y027887*
X008284Y027878*
X008331Y027871*
X008377Y027868*
X008424*
X008470Y027871*
X008517Y027878*
X008562Y027887*
X008607Y027900*
X008651Y027916*
X008694Y027935*
X008735Y027957*
X008775Y027982*
X008812Y028009*
X008848Y028039*
X008882Y028072*
X008913Y028106*
X008942Y028143*
X008968Y028182*
X008991Y028222*
X009012Y028264*
X009029Y028308*
X009044Y028352*
X009055Y028397*
X009063Y028443*
X009068Y028490*
X009070Y028537*
Y026963D02*
D01*
X009068Y027009*
X009063Y027056*
X009055Y027102*
X009044Y027147*
X009029Y027191*
X009012Y027235*
X008991Y027277*
X008968Y027317*
X008942Y027356*
X008913Y027393*
X008882Y027427*
X008848Y027460*
X008812Y027490*
X008775Y027517*
X008735Y027542*
X008694Y027564*
X008651Y027583*
X008607Y027599*
X008562Y027612*
X008517Y027621*
X008470Y027628*
X008424Y027631*
X008377*
X008331Y027628*
X008284Y027621*
X008239Y027612*
X008194Y027599*
X008150Y027583*
X008107Y027564*
X008066Y027542*
X008026Y027517*
X007989Y027490*
X007953Y027460*
X007919Y027427*
X007888Y027393*
X007859Y027356*
X007833Y027317*
X007810Y027277*
X007789Y027235*
X007772Y027191*
X007757Y027147*
X007746Y027102*
X007738Y027056*
X007733Y027009*
X007732Y026963*
X007733Y026916*
X007738Y026869*
X007746Y026823*
X007757Y026778*
X007772Y026734*
X007789Y026690*
X007810Y026648*
X007833Y026608*
X007859Y026569*
X007888Y026532*
X007919Y026498*
X007953Y026465*
X007989Y026435*
X008026Y026408*
X008066Y026383*
X008107Y026361*
X008150Y026342*
X008194Y026326*
X008239Y026313*
X008284Y026304*
X008331Y026297*
X008377Y026294*
X008424*
X008470Y026297*
X008517Y026304*
X008562Y026313*
X008607Y026326*
X008651Y026342*
X008694Y026361*
X008735Y026383*
X008775Y026408*
X008812Y026435*
X008848Y026465*
X008882Y026498*
X008913Y026532*
X008942Y026569*
X008968Y026608*
X008991Y026648*
X009012Y026690*
X009029Y026734*
X009044Y026778*
X009055Y026823*
X009063Y026869*
X009068Y026916*
X009070Y026963*
X009120Y023753D02*
D01*
X009118Y023799*
X009113Y023846*
X009105Y023892*
X009094Y023937*
X009079Y023981*
X009062Y024025*
X009041Y024067*
X009018Y024107*
X008992Y024146*
X008963Y024183*
X008932Y024217*
X008898Y024250*
X008862Y024280*
X008825Y024307*
X008785Y024332*
X008744Y024354*
X008701Y024373*
X008657Y024389*
X008612Y024402*
X008567Y024411*
X008520Y024418*
X008474Y024421*
X008427*
X008381Y024418*
X008334Y024411*
X008289Y024402*
X008244Y024389*
X008200Y024373*
X008157Y024354*
X008116Y024332*
X008076Y024307*
X008039Y024280*
X008003Y024250*
X007969Y024217*
X007938Y024183*
X007909Y024146*
X007883Y024107*
X007860Y024067*
X007839Y024025*
X007822Y023981*
X007807Y023937*
X007796Y023892*
X007788Y023846*
X007783Y023799*
X007782Y023753*
X007783Y023706*
X007788Y023659*
X007796Y023613*
X007807Y023568*
X007822Y023524*
X007839Y023480*
X007860Y023438*
X007883Y023398*
X007909Y023359*
X007938Y023322*
X007969Y023288*
X008003Y023255*
X008039Y023225*
X008076Y023198*
X008116Y023173*
X008157Y023151*
X008200Y023132*
X008244Y023116*
X008289Y023103*
X008334Y023094*
X008381Y023087*
X008427Y023084*
X008474*
X008520Y023087*
X008567Y023094*
X008612Y023103*
X008657Y023116*
X008701Y023132*
X008744Y023151*
X008785Y023173*
X008825Y023198*
X008862Y023225*
X008898Y023255*
X008932Y023288*
X008963Y023322*
X008992Y023359*
X009018Y023398*
X009041Y023438*
X009062Y023480*
X009079Y023524*
X009094Y023568*
X009105Y023613*
X009113Y023659*
X009118Y023706*
X009120Y023753*
Y022178D02*
D01*
X009118Y022224*
X009113Y022271*
X009105Y022317*
X009094Y022362*
X009079Y022406*
X009062Y022450*
X009041Y022492*
X009018Y022532*
X008992Y022571*
X008963Y022608*
X008932Y022642*
X008898Y022675*
X008862Y022705*
X008825Y022732*
X008785Y022757*
X008744Y022779*
X008701Y022798*
X008657Y022814*
X008612Y022827*
X008567Y022836*
X008520Y022843*
X008474Y022846*
X008427*
X008381Y022843*
X008334Y022836*
X008289Y022827*
X008244Y022814*
X008200Y022798*
X008157Y022779*
X008116Y022757*
X008076Y022732*
X008039Y022705*
X008003Y022675*
X007969Y022642*
X007938Y022608*
X007909Y022571*
X007883Y022532*
X007860Y022492*
X007839Y022450*
X007822Y022406*
X007807Y022362*
X007796Y022317*
X007788Y022271*
X007783Y022224*
X007782Y022178*
X007783Y022131*
X007788Y022084*
X007796Y022038*
X007807Y021993*
X007822Y021949*
X007839Y021905*
X007860Y021863*
X007883Y021823*
X007909Y021784*
X007938Y021747*
X007969Y021713*
X008003Y021680*
X008039Y021650*
X008076Y021623*
X008116Y021598*
X008157Y021576*
X008200Y021557*
X008244Y021541*
X008289Y021528*
X008334Y021519*
X008381Y021512*
X008427Y021509*
X008474*
X008520Y021512*
X008567Y021519*
X008612Y021528*
X008657Y021541*
X008701Y021557*
X008744Y021576*
X008785Y021598*
X008825Y021623*
X008862Y021650*
X008898Y021680*
X008932Y021713*
X008963Y021747*
X008992Y021784*
X009018Y021823*
X009041Y021863*
X009062Y021905*
X009079Y021949*
X009094Y021993*
X009105Y022038*
X009113Y022084*
X009118Y022131*
X009120Y022178*
X009020Y034991D02*
D01*
X009018Y035037*
X009013Y035084*
X009005Y035130*
X008994Y035175*
X008979Y035219*
X008962Y035263*
X008941Y035305*
X008918Y035345*
X008892Y035384*
X008863Y035421*
X008832Y035455*
X008798Y035488*
X008762Y035518*
X008725Y035545*
X008685Y035570*
X008644Y035592*
X008601Y035611*
X008557Y035627*
X008512Y035640*
X008467Y035649*
X008420Y035656*
X008374Y035659*
X008327*
X008281Y035656*
X008234Y035649*
X008189Y035640*
X008144Y035627*
X008100Y035611*
X008057Y035592*
X008016Y035570*
X007976Y035545*
X007939Y035518*
X007903Y035488*
X007869Y035455*
X007838Y035421*
X007809Y035384*
X007783Y035345*
X007760Y035305*
X007739Y035263*
X007722Y035219*
X007707Y035175*
X007696Y035130*
X007688Y035084*
X007683Y035037*
X007682Y034991*
X007683Y034944*
X007688Y034897*
X007696Y034851*
X007707Y034806*
X007722Y034762*
X007739Y034718*
X007760Y034676*
X007783Y034636*
X007809Y034597*
X007838Y034560*
X007869Y034526*
X007903Y034493*
X007939Y034463*
X007976Y034436*
X008016Y034411*
X008057Y034389*
X008100Y034370*
X008144Y034354*
X008189Y034341*
X008234Y034332*
X008281Y034325*
X008327Y034322*
X008374*
X008420Y034325*
X008467Y034332*
X008512Y034341*
X008557Y034354*
X008601Y034370*
X008644Y034389*
X008685Y034411*
X008725Y034436*
X008762Y034463*
X008798Y034493*
X008832Y034526*
X008863Y034560*
X008892Y034597*
X008918Y034636*
X008941Y034676*
X008962Y034718*
X008979Y034762*
X008994Y034806*
X009005Y034851*
X009013Y034897*
X009018Y034944*
X009020Y034991*
Y039715D02*
D01*
X009018Y039761*
X009013Y039808*
X009005Y039854*
X008994Y039899*
X008979Y039943*
X008962Y039987*
X008941Y040029*
X008918Y040069*
X008892Y040108*
X008863Y040145*
X008832Y040179*
X008798Y040212*
X008762Y040242*
X008725Y040269*
X008685Y040294*
X008644Y040316*
X008601Y040335*
X008557Y040351*
X008512Y040364*
X008467Y040373*
X008420Y040380*
X008374Y040383*
X008327*
X008281Y040380*
X008234Y040373*
X008189Y040364*
X008144Y040351*
X008100Y040335*
X008057Y040316*
X008016Y040294*
X007976Y040269*
X007939Y040242*
X007903Y040212*
X007869Y040179*
X007838Y040145*
X007809Y040108*
X007783Y040069*
X007760Y040029*
X007739Y039987*
X007722Y039943*
X007707Y039899*
X007696Y039854*
X007688Y039808*
X007683Y039761*
X007682Y039715*
X007683Y039668*
X007688Y039621*
X007696Y039575*
X007707Y039530*
X007722Y039486*
X007739Y039442*
X007760Y039400*
X007783Y039360*
X007809Y039321*
X007838Y039284*
X007869Y039250*
X007903Y039217*
X007939Y039187*
X007976Y039160*
X008016Y039135*
X008057Y039113*
X008100Y039094*
X008144Y039078*
X008189Y039065*
X008234Y039056*
X008281Y039049*
X008327Y039046*
X008374*
X008420Y039049*
X008467Y039056*
X008512Y039065*
X008557Y039078*
X008601Y039094*
X008644Y039113*
X008685Y039135*
X008725Y039160*
X008762Y039187*
X008798Y039217*
X008832Y039250*
X008863Y039284*
X008892Y039321*
X008918Y039360*
X008941Y039400*
X008962Y039442*
X008979Y039486*
X008994Y039530*
X009005Y039575*
X009013Y039621*
X009018Y039668*
X009020Y039715*
Y036565D02*
D01*
X009018Y036611*
X009013Y036658*
X009005Y036704*
X008994Y036749*
X008979Y036793*
X008962Y036837*
X008941Y036879*
X008918Y036919*
X008892Y036958*
X008863Y036995*
X008832Y037029*
X008798Y037062*
X008762Y037092*
X008725Y037119*
X008685Y037144*
X008644Y037166*
X008601Y037185*
X008557Y037201*
X008512Y037214*
X008467Y037223*
X008420Y037230*
X008374Y037233*
X008327*
X008281Y037230*
X008234Y037223*
X008189Y037214*
X008144Y037201*
X008100Y037185*
X008057Y037166*
X008016Y037144*
X007976Y037119*
X007939Y037092*
X007903Y037062*
X007869Y037029*
X007838Y036995*
X007809Y036958*
X007783Y036919*
X007760Y036879*
X007739Y036837*
X007722Y036793*
X007707Y036749*
X007696Y036704*
X007688Y036658*
X007683Y036611*
X007682Y036565*
X007683Y036518*
X007688Y036471*
X007696Y036425*
X007707Y036380*
X007722Y036336*
X007739Y036292*
X007760Y036250*
X007783Y036210*
X007809Y036171*
X007838Y036134*
X007869Y036100*
X007903Y036067*
X007939Y036037*
X007976Y036010*
X008016Y035985*
X008057Y035963*
X008100Y035944*
X008144Y035928*
X008189Y035915*
X008234Y035906*
X008281Y035899*
X008327Y035896*
X008374*
X008420Y035899*
X008467Y035906*
X008512Y035915*
X008557Y035928*
X008601Y035944*
X008644Y035963*
X008685Y035985*
X008725Y036010*
X008762Y036037*
X008798Y036067*
X008832Y036100*
X008863Y036134*
X008892Y036171*
X008918Y036210*
X008941Y036250*
X008962Y036292*
X008979Y036336*
X008994Y036380*
X009005Y036425*
X009013Y036471*
X009018Y036518*
X009020Y036565*
Y038140D02*
D01*
X009018Y038186*
X009013Y038233*
X009005Y038279*
X008994Y038324*
X008979Y038368*
X008962Y038412*
X008941Y038454*
X008918Y038494*
X008892Y038533*
X008863Y038570*
X008832Y038604*
X008798Y038637*
X008762Y038667*
X008725Y038694*
X008685Y038719*
X008644Y038741*
X008601Y038760*
X008557Y038776*
X008512Y038789*
X008467Y038798*
X008420Y038805*
X008374Y038808*
X008327*
X008281Y038805*
X008234Y038798*
X008189Y038789*
X008144Y038776*
X008100Y038760*
X008057Y038741*
X008016Y038719*
X007976Y038694*
X007939Y038667*
X007903Y038637*
X007869Y038604*
X007838Y038570*
X007809Y038533*
X007783Y038494*
X007760Y038454*
X007739Y038412*
X007722Y038368*
X007707Y038324*
X007696Y038279*
X007688Y038233*
X007683Y038186*
X007682Y038140*
X007683Y038093*
X007688Y038046*
X007696Y038000*
X007707Y037955*
X007722Y037911*
X007739Y037867*
X007760Y037825*
X007783Y037785*
X007809Y037746*
X007838Y037709*
X007869Y037675*
X007903Y037642*
X007939Y037612*
X007976Y037585*
X008016Y037560*
X008057Y037538*
X008100Y037519*
X008144Y037503*
X008189Y037490*
X008234Y037481*
X008281Y037474*
X008327Y037471*
X008374*
X008420Y037474*
X008467Y037481*
X008512Y037490*
X008557Y037503*
X008601Y037519*
X008644Y037538*
X008685Y037560*
X008725Y037585*
X008762Y037612*
X008798Y037642*
X008832Y037675*
X008863Y037709*
X008892Y037746*
X008918Y037785*
X008941Y037825*
X008962Y037867*
X008979Y037911*
X008994Y037955*
X009005Y038000*
X009013Y038046*
X009018Y038093*
X009020Y038140*
X006432Y029718D02*
X015094D01*
X006432Y025782D02*
X015094D01*
X006432D02*
Y029718D01*
X009976Y025782D02*
Y029718D01*
X015094Y025782D02*
Y029718D01*
X007220Y025782D02*
Y029718D01*
X010369Y027356D02*
Y029718D01*
X009976Y027356D02*
X011550D01*
Y026963D02*
Y027356D01*
X009976Y026963D02*
X011550D01*
X010369Y025782D02*
Y026963D01*
X006482Y024934D02*
X015144D01*
X006482Y020997D02*
X015144D01*
X006482D02*
Y024934D01*
X010026Y020997D02*
Y024934D01*
X015144Y020997D02*
Y024934D01*
X007270Y020997D02*
Y024934D01*
X010419Y022572D02*
Y024934D01*
X010026Y022572D02*
X011600D01*
Y022178D02*
Y022572D01*
X010026Y022178D02*
X011600D01*
X010419Y020997D02*
Y022178D01*
X024648Y044984D02*
X033624D01*
X024648Y040141D02*
Y044984D01*
X033624Y040141D02*
Y044984D01*
X024648Y040141D02*
X033624D01*
X019269Y039478D02*
X021631D01*
X019269Y034359D02*
X021631D01*
X019269D02*
Y039478D01*
X021631Y034359D02*
Y039478D01*
X023369D02*
X025731D01*
X023369Y034359D02*
X025731D01*
X023369D02*
Y039478D01*
X025731Y034359D02*
Y039478D01*
X018484Y034850D02*
Y038850D01*
X016516Y034850D02*
Y038850D01*
Y034850D02*
X018484D01*
X016516Y038850D02*
X018484D01*
X043325Y032597D02*
Y038503D01*
X040175Y032597D02*
Y038503D01*
Y032597D02*
X043325D01*
X040175Y038503D02*
X043325D01*
X010319Y039715D02*
Y040896D01*
X009926Y039715D02*
X011500D01*
Y039321D02*
Y039715D01*
X009926Y039321D02*
X011500D01*
X010319Y033809D02*
Y034991D01*
X009926D02*
X011500D01*
Y035384*
X009926D02*
X011500D01*
X010319D02*
Y039321D01*
X007170Y033809D02*
Y040896D01*
X015044Y033809D02*
Y040896D01*
X009926Y033809D02*
Y040896D01*
X006382Y033809D02*
Y040896D01*
Y033809D02*
X015044D01*
X006382Y040896D02*
X015044D01*
X043375Y028631D02*
Y032569D01*
X040175D02*
X043375D01*
X040175Y028631D02*
X043375D01*
X040175D02*
Y032569D01*
X043375Y024697D02*
Y028634D01*
X040175D02*
X043375D01*
X040175Y024697D02*
X043375D01*
X040175D02*
Y028634D01*
G54D55*
X037899Y024765D02*
D01*
X037898Y024768*
X037898Y024771*
X037897Y024775*
X037897Y024778*
X037896Y024781*
X037894Y024784*
X037893Y024788*
X037891Y024790*
X037889Y024793*
X037887Y024796*
X037885Y024799*
X037882Y024801*
X037880Y024803*
X037877Y024805*
X037874Y024807*
X037871Y024809*
X037868Y024810*
X037865Y024811*
X037861Y024812*
X037858Y024813*
X037855Y024813*
X037851Y024813*
X037848*
X037844Y024813*
X037841Y024813*
X037838Y024812*
X037834Y024811*
X037831Y024810*
X037828Y024809*
X037825Y024807*
X037822Y024805*
X037819Y024803*
X037817Y024801*
X037814Y024799*
X037812Y024796*
X037810Y024793*
X037808Y024790*
X037806Y024788*
X037805Y024784*
X037803Y024781*
X037802Y024778*
X037802Y024775*
X037801Y024771*
X037801Y024768*
X037801Y024765*
X037801Y024761*
X037801Y024758*
X037802Y024754*
X037802Y024751*
X037803Y024748*
X037805Y024745*
X037806Y024741*
X037808Y024739*
X037810Y024736*
X037812Y024733*
X037814Y024730*
X037817Y024728*
X037819Y024726*
X037822Y024724*
X037825Y024722*
X037828Y024720*
X037831Y024719*
X037834Y024718*
X037838Y024717*
X037841Y024716*
X037844Y024716*
X037848Y024716*
X037851*
X037855Y024716*
X037858Y024716*
X037861Y024717*
X037865Y024718*
X037868Y024719*
X037871Y024720*
X037874Y024722*
X037877Y024724*
X037880Y024726*
X037882Y024728*
X037885Y024730*
X037887Y024733*
X037889Y024736*
X037891Y024739*
X037893Y024741*
X037894Y024745*
X037896Y024748*
X037897Y024751*
X037897Y024754*
X037898Y024758*
X037898Y024761*
X037899Y024765*
X037186Y028459D02*
D01*
X037185Y028462*
X037185Y028465*
X037184Y028469*
X037184Y028472*
X037183Y028475*
X037181Y028478*
X037180Y028482*
X037178Y028484*
X037176Y028487*
X037174Y028490*
X037172Y028493*
X037169Y028495*
X037167Y028497*
X037164Y028499*
X037161Y028501*
X037158Y028503*
X037155Y028504*
X037152Y028505*
X037148Y028506*
X037145Y028507*
X037142Y028507*
X037138Y028507*
X037135*
X037131Y028507*
X037128Y028507*
X037125Y028506*
X037121Y028505*
X037118Y028504*
X037115Y028503*
X037112Y028501*
X037109Y028499*
X037106Y028497*
X037104Y028495*
X037101Y028493*
X037099Y028490*
X037097Y028487*
X037095Y028484*
X037093Y028482*
X037092Y028478*
X037090Y028475*
X037089Y028472*
X037089Y028469*
X037088Y028465*
X037088Y028462*
X037088Y028459*
X037088Y028455*
X037088Y028452*
X037089Y028448*
X037089Y028445*
X037090Y028442*
X037092Y028439*
X037093Y028435*
X037095Y028433*
X037097Y028430*
X037099Y028427*
X037101Y028424*
X037104Y028422*
X037106Y028420*
X037109Y028418*
X037112Y028416*
X037115Y028414*
X037118Y028413*
X037121Y028412*
X037125Y028411*
X037128Y028410*
X037131Y028410*
X037135Y028410*
X037138*
X037142Y028410*
X037145Y028410*
X037148Y028411*
X037152Y028412*
X037155Y028413*
X037158Y028414*
X037161Y028416*
X037164Y028418*
X037167Y028420*
X037169Y028422*
X037172Y028424*
X037174Y028427*
X037176Y028430*
X037178Y028433*
X037180Y028435*
X037181Y028439*
X037183Y028442*
X037184Y028445*
X037184Y028448*
X037185Y028452*
X037185Y028455*
X037186Y028459*
X035563Y040141D02*
D01*
X035562Y040144*
X035562Y040147*
X035561Y040151*
X035561Y040154*
X035560Y040157*
X035558Y040160*
X035557Y040164*
X035555Y040166*
X035553Y040169*
X035551Y040172*
X035549Y040175*
X035546Y040177*
X035544Y040179*
X035541Y040181*
X035538Y040183*
X035535Y040185*
X035532Y040186*
X035529Y040187*
X035525Y040188*
X035522Y040189*
X035519Y040189*
X035515Y040189*
X035512*
X035508Y040189*
X035505Y040189*
X035502Y040188*
X035498Y040187*
X035495Y040186*
X035492Y040185*
X035489Y040183*
X035486Y040181*
X035483Y040179*
X035481Y040177*
X035478Y040175*
X035476Y040172*
X035474Y040169*
X035472Y040166*
X035470Y040164*
X035469Y040160*
X035467Y040157*
X035466Y040154*
X035466Y040151*
X035465Y040147*
X035465Y040144*
X035465Y040141*
X035465Y040137*
X035465Y040134*
X035466Y040130*
X035466Y040127*
X035467Y040124*
X035469Y040121*
X035470Y040117*
X035472Y040115*
X035474Y040112*
X035476Y040109*
X035478Y040106*
X035481Y040104*
X035483Y040102*
X035486Y040100*
X035489Y040098*
X035492Y040096*
X035495Y040095*
X035498Y040094*
X035502Y040093*
X035505Y040092*
X035508Y040092*
X035512Y040092*
X035515*
X035519Y040092*
X035522Y040092*
X035525Y040093*
X035529Y040094*
X035532Y040095*
X035535Y040096*
X035538Y040098*
X035541Y040100*
X035544Y040102*
X035546Y040104*
X035549Y040106*
X035551Y040109*
X035553Y040112*
X035555Y040115*
X035557Y040117*
X035558Y040121*
X035560Y040124*
X035561Y040127*
X035561Y040130*
X035562Y040134*
X035562Y040137*
X035563Y040141*
X019266Y041050D02*
D01*
X019265Y041053*
X019265Y041056*
X019264Y041060*
X019264Y041063*
X019263Y041066*
X019261Y041069*
X019260Y041073*
X019258Y041075*
X019256Y041078*
X019254Y041081*
X019252Y041084*
X019249Y041086*
X019247Y041088*
X019244Y041090*
X019241Y041092*
X019238Y041094*
X019235Y041095*
X019232Y041096*
X019228Y041097*
X019225Y041098*
X019222Y041098*
X019218Y041098*
X019215*
X019211Y041098*
X019208Y041098*
X019205Y041097*
X019201Y041096*
X019198Y041095*
X019195Y041094*
X019192Y041092*
X019189Y041090*
X019186Y041088*
X019184Y041086*
X019181Y041084*
X019179Y041081*
X019177Y041078*
X019175Y041075*
X019173Y041073*
X019172Y041069*
X019170Y041066*
X019169Y041063*
X019169Y041060*
X019168Y041056*
X019168Y041053*
X019168Y041050*
X019168Y041046*
X019168Y041043*
X019169Y041039*
X019169Y041036*
X019170Y041033*
X019172Y041030*
X019173Y041026*
X019175Y041024*
X019177Y041021*
X019179Y041018*
X019181Y041015*
X019184Y041013*
X019186Y041011*
X019189Y041009*
X019192Y041007*
X019195Y041005*
X019198Y041004*
X019201Y041003*
X019205Y041002*
X019208Y041001*
X019211Y041001*
X019215Y041001*
X019218*
X019222Y041001*
X019225Y041001*
X019228Y041002*
X019232Y041003*
X019235Y041004*
X019238Y041005*
X019241Y041007*
X019244Y041009*
X019247Y041011*
X019249Y041013*
X019252Y041015*
X019254Y041018*
X019256Y041021*
X019258Y041024*
X019260Y041026*
X019261Y041030*
X019263Y041033*
X019264Y041036*
X019264Y041039*
X019265Y041043*
X019265Y041046*
X019266Y041050*
X030999Y032262D02*
D01*
X030998Y032265*
X030998Y032268*
X030997Y032272*
X030997Y032275*
X030996Y032278*
X030994Y032281*
X030993Y032285*
X030991Y032287*
X030989Y032290*
X030987Y032293*
X030985Y032296*
X030982Y032298*
X030980Y032300*
X030977Y032302*
X030974Y032304*
X030971Y032306*
X030968Y032307*
X030965Y032308*
X030961Y032309*
X030958Y032310*
X030955Y032310*
X030951Y032310*
X030948*
X030944Y032310*
X030941Y032310*
X030938Y032309*
X030934Y032308*
X030931Y032307*
X030928Y032306*
X030925Y032304*
X030922Y032302*
X030919Y032300*
X030917Y032298*
X030914Y032296*
X030912Y032293*
X030910Y032290*
X030908Y032287*
X030906Y032285*
X030905Y032281*
X030903Y032278*
X030902Y032275*
X030902Y032272*
X030901Y032268*
X030901Y032265*
X030901Y032262*
X030901Y032258*
X030901Y032255*
X030902Y032251*
X030902Y032248*
X030903Y032245*
X030905Y032242*
X030906Y032238*
X030908Y032236*
X030910Y032233*
X030912Y032230*
X030914Y032227*
X030917Y032225*
X030919Y032223*
X030922Y032221*
X030925Y032219*
X030928Y032217*
X030931Y032216*
X030934Y032215*
X030938Y032214*
X030941Y032213*
X030944Y032213*
X030948Y032213*
X030951*
X030955Y032213*
X030958Y032213*
X030961Y032214*
X030965Y032215*
X030968Y032216*
X030971Y032217*
X030974Y032219*
X030977Y032221*
X030980Y032223*
X030982Y032225*
X030985Y032227*
X030987Y032230*
X030989Y032233*
X030991Y032236*
X030993Y032238*
X030994Y032242*
X030996Y032245*
X030997Y032248*
X030997Y032251*
X030998Y032255*
X030998Y032258*
X030999Y032262*
X027204Y031535D02*
D01*
X027203Y031538*
X027203Y031541*
X027202Y031545*
X027202Y031548*
X027201Y031551*
X027199Y031554*
X027198Y031558*
X027196Y031560*
X027194Y031563*
X027192Y031566*
X027190Y031569*
X027187Y031571*
X027185Y031573*
X027182Y031575*
X027179Y031577*
X027176Y031579*
X027173Y031580*
X027170Y031581*
X027166Y031582*
X027163Y031583*
X027160Y031583*
X027156Y031583*
X027153*
X027149Y031583*
X027146Y031583*
X027143Y031582*
X027139Y031581*
X027136Y031580*
X027133Y031579*
X027130Y031577*
X027127Y031575*
X027124Y031573*
X027122Y031571*
X027119Y031569*
X027117Y031566*
X027115Y031563*
X027113Y031560*
X027111Y031558*
X027110Y031554*
X027108Y031551*
X027107Y031548*
X027107Y031545*
X027106Y031541*
X027106Y031538*
X027106Y031535*
X027106Y031531*
X027106Y031528*
X027107Y031524*
X027107Y031521*
X027108Y031518*
X027110Y031515*
X027111Y031511*
X027113Y031509*
X027115Y031506*
X027117Y031503*
X027119Y031500*
X027122Y031498*
X027124Y031496*
X027127Y031494*
X027130Y031492*
X027133Y031490*
X027136Y031489*
X027139Y031488*
X027143Y031487*
X027146Y031486*
X027149Y031486*
X027153Y031486*
X027156*
X027160Y031486*
X027163Y031486*
X027166Y031487*
X027170Y031488*
X027173Y031489*
X027176Y031490*
X027179Y031492*
X027182Y031494*
X027185Y031496*
X027187Y031498*
X027190Y031500*
X027192Y031503*
X027194Y031506*
X027196Y031509*
X027198Y031511*
X027199Y031515*
X027201Y031518*
X027202Y031521*
X027202Y031524*
X027203Y031528*
X027203Y031531*
X027204Y031535*
X033905Y020400D02*
D01*
X033904Y020403*
X033904Y020406*
X033903Y020410*
X033903Y020413*
X033902Y020416*
X033900Y020419*
X033899Y020423*
X033897Y020425*
X033895Y020428*
X033893Y020431*
X033891Y020434*
X033888Y020436*
X033886Y020438*
X033883Y020440*
X033880Y020442*
X033877Y020444*
X033874Y020445*
X033871Y020446*
X033867Y020447*
X033864Y020448*
X033861Y020448*
X033857Y020448*
X033854*
X033850Y020448*
X033847Y020448*
X033844Y020447*
X033840Y020446*
X033837Y020445*
X033834Y020444*
X033831Y020442*
X033828Y020440*
X033825Y020438*
X033823Y020436*
X033820Y020434*
X033818Y020431*
X033816Y020428*
X033814Y020425*
X033812Y020423*
X033811Y020419*
X033809Y020416*
X033808Y020413*
X033808Y020410*
X033807Y020406*
X033807Y020403*
X033807Y020400*
X033807Y020396*
X033807Y020393*
X033808Y020389*
X033808Y020386*
X033809Y020383*
X033811Y020380*
X033812Y020376*
X033814Y020374*
X033816Y020371*
X033818Y020368*
X033820Y020365*
X033823Y020363*
X033825Y020361*
X033828Y020359*
X033831Y020357*
X033834Y020355*
X033837Y020354*
X033840Y020353*
X033844Y020352*
X033847Y020351*
X033850Y020351*
X033854Y020351*
X033857*
X033861Y020351*
X033864Y020351*
X033867Y020352*
X033871Y020353*
X033874Y020354*
X033877Y020355*
X033880Y020357*
X033883Y020359*
X033886Y020361*
X033888Y020363*
X033891Y020365*
X033893Y020368*
X033895Y020371*
X033897Y020374*
X033899Y020376*
X033900Y020380*
X033902Y020383*
X033903Y020386*
X033903Y020389*
X033904Y020393*
X033904Y020396*
X033905Y020400*
X037374Y031735D02*
D01*
X037373Y031738*
X037373Y031741*
X037372Y031745*
X037372Y031748*
X037371Y031751*
X037369Y031754*
X037368Y031758*
X037366Y031760*
X037364Y031763*
X037362Y031766*
X037360Y031769*
X037357Y031771*
X037355Y031773*
X037352Y031775*
X037349Y031777*
X037346Y031779*
X037343Y031780*
X037340Y031781*
X037336Y031782*
X037333Y031783*
X037330Y031783*
X037326Y031783*
X037323*
X037319Y031783*
X037316Y031783*
X037313Y031782*
X037309Y031781*
X037306Y031780*
X037303Y031779*
X037300Y031777*
X037297Y031775*
X037294Y031773*
X037292Y031771*
X037289Y031769*
X037287Y031766*
X037285Y031763*
X037283Y031760*
X037281Y031758*
X037280Y031754*
X037278Y031751*
X037277Y031748*
X037277Y031745*
X037276Y031741*
X037276Y031738*
X037276Y031735*
X037276Y031731*
X037276Y031728*
X037277Y031724*
X037277Y031721*
X037278Y031718*
X037280Y031715*
X037281Y031711*
X037283Y031709*
X037285Y031706*
X037287Y031703*
X037289Y031700*
X037292Y031698*
X037294Y031696*
X037297Y031694*
X037300Y031692*
X037303Y031690*
X037306Y031689*
X037309Y031688*
X037313Y031687*
X037316Y031686*
X037319Y031686*
X037323Y031686*
X037326*
X037330Y031686*
X037333Y031686*
X037336Y031687*
X037340Y031688*
X037343Y031689*
X037346Y031690*
X037349Y031692*
X037352Y031694*
X037355Y031696*
X037357Y031698*
X037360Y031700*
X037362Y031703*
X037364Y031706*
X037366Y031709*
X037368Y031711*
X037369Y031715*
X037371Y031718*
X037372Y031721*
X037372Y031724*
X037373Y031728*
X037373Y031731*
X037374Y031735*
X037177Y023587D02*
D01*
X037176Y023590*
X037176Y023593*
X037175Y023597*
X037175Y023600*
X037174Y023603*
X037172Y023606*
X037171Y023610*
X037169Y023612*
X037167Y023615*
X037165Y023618*
X037163Y023621*
X037160Y023623*
X037158Y023625*
X037155Y023627*
X037152Y023629*
X037149Y023631*
X037146Y023632*
X037143Y023633*
X037139Y023634*
X037136Y023635*
X037133Y023635*
X037129Y023635*
X037126*
X037122Y023635*
X037119Y023635*
X037116Y023634*
X037112Y023633*
X037109Y023632*
X037106Y023631*
X037103Y023629*
X037100Y023627*
X037097Y023625*
X037095Y023623*
X037092Y023621*
X037090Y023618*
X037088Y023615*
X037086Y023612*
X037084Y023610*
X037083Y023606*
X037081Y023603*
X037080Y023600*
X037080Y023597*
X037079Y023593*
X037079Y023590*
X037079Y023587*
X037079Y023583*
X037079Y023580*
X037080Y023576*
X037080Y023573*
X037081Y023570*
X037083Y023567*
X037084Y023563*
X037086Y023561*
X037088Y023558*
X037090Y023555*
X037092Y023552*
X037095Y023550*
X037097Y023548*
X037100Y023546*
X037103Y023544*
X037106Y023542*
X037109Y023541*
X037112Y023540*
X037116Y023539*
X037119Y023538*
X037122Y023538*
X037126Y023538*
X037129*
X037133Y023538*
X037136Y023538*
X037139Y023539*
X037143Y023540*
X037146Y023541*
X037149Y023542*
X037152Y023544*
X037155Y023546*
X037158Y023548*
X037160Y023550*
X037163Y023552*
X037165Y023555*
X037167Y023558*
X037169Y023561*
X037171Y023563*
X037172Y023567*
X037174Y023570*
X037175Y023573*
X037175Y023576*
X037176Y023580*
X037176Y023583*
X037177Y023587*
X026708Y018767D02*
D01*
X026707Y018770*
X026707Y018773*
X026706Y018777*
X026706Y018780*
X026705Y018783*
X026703Y018786*
X026702Y018790*
X026700Y018792*
X026698Y018795*
X026696Y018798*
X026694Y018801*
X026691Y018803*
X026689Y018805*
X026686Y018807*
X026683Y018809*
X026680Y018811*
X026677Y018812*
X026674Y018813*
X026670Y018814*
X026667Y018815*
X026664Y018815*
X026660Y018815*
X026657*
X026653Y018815*
X026650Y018815*
X026647Y018814*
X026643Y018813*
X026640Y018812*
X026637Y018811*
X026634Y018809*
X026631Y018807*
X026628Y018805*
X026626Y018803*
X026623Y018801*
X026621Y018798*
X026619Y018795*
X026617Y018792*
X026615Y018790*
X026614Y018786*
X026612Y018783*
X026611Y018780*
X026611Y018777*
X026610Y018773*
X026610Y018770*
X026610Y018767*
X026610Y018763*
X026610Y018760*
X026611Y018756*
X026611Y018753*
X026612Y018750*
X026614Y018747*
X026615Y018743*
X026617Y018741*
X026619Y018738*
X026621Y018735*
X026623Y018732*
X026626Y018730*
X026628Y018728*
X026631Y018726*
X026634Y018724*
X026637Y018722*
X026640Y018721*
X026643Y018720*
X026647Y018719*
X026650Y018718*
X026653Y018718*
X026657Y018718*
X026660*
X026664Y018718*
X026667Y018718*
X026670Y018719*
X026674Y018720*
X026677Y018721*
X026680Y018722*
X026683Y018724*
X026686Y018726*
X026689Y018728*
X026691Y018730*
X026694Y018732*
X026696Y018735*
X026698Y018738*
X026700Y018741*
X026702Y018743*
X026703Y018747*
X026705Y018750*
X026706Y018753*
X026706Y018756*
X026707Y018760*
X026707Y018763*
X026708Y018767*
G54D56*
X025443Y024300D02*
D01*
X025436Y024478*
X025418Y024656*
X025387Y024832*
X025343Y025005*
X025288Y025175*
X025221Y025340*
X025143Y025501*
X025054Y025656*
X024954Y025804*
X024844Y025944*
X024724Y026077*
X024596Y026201*
X024459Y026316*
X024314Y026421*
X024163Y026516*
X024005Y026600*
X023842Y026672*
X023674Y026733*
X023503Y026782*
X023328Y026820*
X023151Y026844*
X022973Y026857*
X022794*
X022616Y026844*
X022439Y026820*
X022264Y026782*
X022093Y026733*
X021925Y026672*
X021762Y026600*
X021604Y026516*
X021453Y026421*
X021308Y026316*
X021171Y026201*
X021043Y026077*
X020923Y025944*
X020813Y025804*
X020713Y025656*
X020624Y025501*
X020546Y025340*
X020479Y025175*
X020424Y025005*
X020380Y024832*
X020349Y024656*
X020331Y024478*
X020325Y024300*
X020331Y024121*
X020349Y023943*
X020380Y023767*
X020424Y023594*
X020479Y023424*
X020546Y023259*
X020624Y023098*
X020713Y022943*
X020813Y022795*
X020923Y022655*
X021043Y022522*
X021171Y022398*
X021308Y022283*
X021453Y022178*
X021604Y022083*
X021762Y021999*
X021925Y021927*
X022093Y021866*
X022264Y021817*
X022439Y021779*
X022616Y021755*
X022794Y021742*
X022973*
X023151Y021755*
X023328Y021779*
X023503Y021817*
X023674Y021866*
X023842Y021927*
X024005Y021999*
X024163Y022083*
X024314Y022178*
X024459Y022283*
X024596Y022398*
X024724Y022522*
X024844Y022655*
X024954Y022795*
X025054Y022943*
X025143Y023098*
X025221Y023259*
X025288Y023424*
X025343Y023594*
X025387Y023767*
X025418Y023943*
X025436Y024121*
X025443Y024300*
X029650Y036700D02*
D01*
X029649Y036717*
X029647Y036734*
X029644Y036751*
X029640Y036768*
X029634Y036785*
X029628Y036801*
X029620Y036817*
X029612Y036832*
X029602Y036846*
X029591Y036860*
X029579Y036873*
X029567Y036885*
X029553Y036897*
X029539Y036907*
X029525Y036916*
X029509Y036924*
X029493Y036931*
X029477Y036937*
X029460Y036942*
X029443Y036946*
X029426Y036948*
X029408Y036949*
X029391*
X029373Y036948*
X029356Y036946*
X029339Y036942*
X029322Y036937*
X029306Y036931*
X029290Y036924*
X029275Y036916*
X029260Y036907*
X029246Y036897*
X029232Y036885*
X029220Y036873*
X029208Y036860*
X029197Y036846*
X029187Y036832*
X029179Y036817*
X029171Y036801*
X029165Y036785*
X029159Y036768*
X029155Y036751*
X029152Y036734*
X029150Y036717*
X029150Y036700*
X032200Y032254D02*
D01*
X032200Y032236*
X032202Y032219*
X032205Y032202*
X032209Y032185*
X032215Y032168*
X032221Y032152*
X032229Y032136*
X032237Y032121*
X032247Y032107*
X032258Y032093*
X032270Y032080*
X032282Y032068*
X032296Y032056*
X032310Y032046*
X032325Y032037*
X032340Y032029*
X032356Y032022*
X032372Y032016*
X032389Y032011*
X032406Y032007*
X032423Y032005*
X032441Y032004*
X032458*
X032476Y032005*
X032493Y032007*
X032510Y032011*
X032527Y032016*
X032543Y032022*
X032559Y032029*
X032575Y032037*
X032589Y032046*
X032603Y032056*
X032617Y032068*
X032629Y032080*
X032641Y032093*
X032652Y032107*
X032662Y032121*
X032670Y032136*
X032678Y032152*
X032684Y032168*
X032690Y032185*
X032694Y032202*
X032697Y032219*
X032699Y032236*
X032700Y032254*
X025003Y019350D02*
D01*
X024998Y019487*
X024983Y019624*
X024959Y019759*
X024926Y019892*
X024884Y020023*
X024832Y020150*
X024772Y020274*
X024703Y020393*
X024626Y020507*
X024542Y020615*
X024450Y020717*
X024351Y020813*
X024246Y020901*
X024135Y020982*
X024018Y021055*
X023897Y021119*
X023771Y021175*
X023642Y021222*
X023510Y021260*
X023375Y021289*
X023239Y021308*
X023102Y021317*
X022965*
X022828Y021308*
X022692Y021289*
X022557Y021260*
X022425Y021222*
X022296Y021175*
X022170Y021119*
X022049Y021055*
X021932Y020982*
X021821Y020901*
X021716Y020813*
X021617Y020717*
X021525Y020615*
X021441Y020507*
X021364Y020393*
X021295Y020274*
X021235Y020150*
X021183Y020023*
X021141Y019892*
X021108Y019759*
X021084Y019624*
X021069Y019487*
X021065Y019350*
X021069Y019212*
X021084Y019075*
X021108Y018940*
X021141Y018807*
X021183Y018676*
X021235Y018549*
X021295Y018425*
X021364Y018306*
X021441Y018192*
X021525Y018084*
X021617Y017982*
X021716Y017886*
X021821Y017798*
X021932Y017717*
X022049Y017644*
X022170Y017580*
X022296Y017524*
X022425Y017477*
X022557Y017439*
X022692Y017410*
X022828Y017391*
X022965Y017382*
X023102*
X023239Y017391*
X023375Y017410*
X023510Y017439*
X023642Y017477*
X023771Y017524*
X023897Y017580*
X024018Y017644*
X024135Y017717*
X024246Y017798*
X024351Y017886*
X024450Y017982*
X024542Y018084*
X024626Y018192*
X024703Y018306*
X024772Y018425*
X024832Y018549*
X024884Y018676*
X024926Y018807*
X024959Y018940*
X024983Y019075*
X024998Y019212*
X025003Y019350*
X037161Y024883D02*
X037437D01*
X037161D02*
Y025198D01*
Y026065D02*
X037437D01*
X037161Y025750D02*
Y026065D01*
X032850Y033600D02*
Y035600D01*
Y033600D02*
X033850D01*
Y035600*
X032850D02*
X033850D01*
X038485Y028335D02*
X038957D01*
X038485Y028965D02*
X038957D01*
X038485Y028335D02*
Y028965D01*
X039824Y028493D02*
Y028807D01*
X039233Y028335D02*
X039627D01*
Y028965D02*
X039824Y028807D01*
X039627Y028335D02*
X039824Y028493D01*
X039233Y028965D02*
X039627D01*
X032850Y037350D02*
Y039350D01*
Y037350D02*
X033850D01*
Y039350*
X032850D02*
X033850D01*
X037550Y028341D02*
X037826D01*
Y028026D02*
Y028341D01*
X037550Y027159D02*
X037826D01*
Y027474*
X016290Y021504D02*
X017510D01*
X017333Y024614D02*
X017510Y024437D01*
X016290D02*
X016467Y024614D01*
X017333*
X017510Y021504D02*
Y022528D01*
X016290Y021504D02*
Y022528D01*
Y023472D02*
Y024437D01*
X017510Y023472D02*
Y024437D01*
X017990Y021504D02*
X019210D01*
X019033Y024614D02*
X019210Y024437D01*
X017990D02*
X018167Y024614D01*
X019033*
X019210Y021504D02*
Y022528D01*
X017990Y021504D02*
Y022528D01*
Y023472D02*
Y024437D01*
X019210Y023472D02*
Y024437D01*
X040250Y022800D02*
Y023800D01*
X043250*
Y022800D02*
Y023800D01*
X040250Y022800D02*
X043250D01*
X034824Y040259D02*
X035100D01*
X034824D02*
Y040574D01*
Y041441D02*
X035100D01*
X034824Y041126D02*
Y041441D01*
X035619Y022093D02*
Y022407D01*
Y021443D02*
Y021757D01*
X034917Y042717D02*
Y042874D01*
Y042717D02*
X034995D01*
X034405D02*
X034483D01*
Y042874*
X034405Y042126D02*
Y042874D01*
X034995Y042126D02*
Y042874D01*
X034405Y042126D02*
X034483D01*
X034405Y042874D02*
X034483D01*
X034917Y042126D02*
X034995D01*
X034917Y042874D02*
X034995D01*
X035635Y022693D02*
Y023007D01*
X036210Y042450D02*
X036300D01*
X038300D02*
X038390D01*
X036300D02*
Y042750D01*
X038300*
Y042150D02*
Y042750D01*
X036300Y042150D02*
X038300D01*
X036300D02*
Y042450D01*
X035707Y043449D02*
Y044551D01*
X037793*
X035707Y043449D02*
X037793D01*
X019472Y040170D02*
Y042099D01*
X023528Y040170D02*
Y042099D01*
X019472Y040170D02*
X023528D01*
X019472Y042099D02*
X023528D01*
X019472Y041902D02*
X023528D01*
X030079Y036700D02*
Y039700D01*
X028721D02*
X030079D01*
X028721Y036700D02*
Y039700D01*
Y036700D02*
X029150D01*
X029650D02*
X030079D01*
X025410Y031372D02*
Y032337D01*
X024190Y031372D02*
Y032337D01*
Y029404D02*
Y030428D01*
X025410Y029404D02*
Y030428D01*
X024367Y032514D02*
X025233D01*
X024190Y032337D02*
X024367Y032514D01*
X025233D02*
X025410Y032337D01*
X024190Y029404D02*
X025410D01*
X031407Y030246D02*
Y032254D01*
X033493Y030246D02*
Y032254D01*
X031407D02*
X032200D01*
X032700D02*
X033493D01*
X031407Y030246D02*
X033493D01*
X039519Y031943D02*
Y032257D01*
X026567Y032383D02*
X026724D01*
X026567Y032305D02*
Y032383D01*
Y032817D02*
Y032895D01*
Y032817D02*
X026724D01*
X025976Y032895D02*
X026724D01*
X025976Y032305D02*
X026724D01*
X025976Y032817D02*
Y032895D01*
X026724Y032817D02*
Y032895D01*
X025976Y032305D02*
Y032383D01*
X026724Y032305D02*
Y032383D01*
X017940Y017954D02*
X019160D01*
X018983Y021064D02*
X019160Y020887D01*
X017940D02*
X018117Y021064D01*
X018983*
X019160Y017954D02*
Y018978D01*
X017940Y017954D02*
Y018978D01*
Y019922D02*
Y020887D01*
X019160Y019922D02*
Y020887D01*
X016290Y017954D02*
X017510D01*
X017333Y021064D02*
X017510Y020887D01*
X016290D02*
X016467Y021064D01*
X017333*
X017510Y017954D02*
Y018978D01*
X016290Y017954D02*
Y018978D01*
Y019922D02*
Y020887D01*
X017510Y019922D02*
Y020887D01*
X033746Y023890D02*
Y025110D01*
X030636Y024933D02*
X030813Y025110D01*
X030636Y024067D02*
X030813Y023890D01*
X030636Y024067D02*
Y024933D01*
X032722Y025110D02*
X033746D01*
X032722Y023890D02*
X033746D01*
X030813D02*
X031778D01*
X030813Y025110D02*
X031778D01*
X033746Y025540D02*
Y026760D01*
X030636Y026583D02*
X030813Y026760D01*
X030636Y025717D02*
X030813Y025540D01*
X030636Y025717D02*
Y026583D01*
X032722Y026760D02*
X033746D01*
X032722Y025540D02*
X033746D01*
X030813D02*
X031778D01*
X030813Y026760D02*
X031778D01*
X022517Y029633D02*
X022674D01*
X022517Y029555D02*
Y029633D01*
Y030067D02*
Y030145D01*
Y030067D02*
X022674D01*
X021926Y030145D02*
X022674D01*
X021926Y029555D02*
X022674D01*
X021926Y030067D02*
Y030145D01*
X022674Y030067D02*
Y030145D01*
X021926Y029555D02*
Y029633D01*
X022674Y029555D02*
Y029633D01*
X022517Y032033D02*
X022674D01*
X022517Y031955D02*
Y032033D01*
Y032467D02*
Y032545D01*
Y032467D02*
X022674D01*
X021926Y032545D02*
X022674D01*
X021926Y031955D02*
X022674D01*
X021926Y032467D02*
Y032545D01*
X022674Y032467D02*
Y032545D01*
X021926Y031955D02*
Y032033D01*
X022674Y031955D02*
Y032033D01*
X021926Y031667D02*
X022083D01*
Y031745*
Y031155D02*
Y031233D01*
X021926D02*
X022083D01*
X021926Y031155D02*
X022674D01*
X021926Y031745D02*
X022674D01*
Y031155D02*
Y031233D01*
X021926Y031155D02*
Y031233D01*
X022674Y031667D02*
Y031745D01*
X021926Y031667D02*
Y031745D01*
Y030867D02*
X022083D01*
Y030945*
Y030355D02*
Y030433D01*
X021926D02*
X022083D01*
X021926Y030355D02*
X022674D01*
X021926Y030945D02*
X022674D01*
Y030355D02*
Y030433D01*
X021926Y030355D02*
Y030433D01*
X022674Y030867D02*
Y030945D01*
X021926Y030867D02*
Y030945D01*
X029004Y028733D02*
X029161D01*
X029004Y028655D02*
Y028733D01*
Y029167D02*
Y029245D01*
Y029167D02*
X029161D01*
X028413Y029245D02*
X029161D01*
X028413Y028655D02*
X029161D01*
X028413Y029167D02*
Y029245D01*
X029161Y029167D02*
Y029245D01*
X028413Y028655D02*
Y028733D01*
X029161Y028655D02*
Y028733D01*
X029794Y029302D02*
X030306D01*
X027746Y029466D02*
Y031434D01*
X028454Y029466D02*
Y031434D01*
X027746D02*
X028454D01*
X027746Y029466D02*
X028454D01*
X033393Y021331D02*
X033707D01*
X032632Y022835D02*
X032868D01*
X032632Y023465D02*
X032868D01*
Y022835D02*
Y023465D01*
X032793Y022835D02*
Y023465D01*
X030196Y023890D02*
Y025110D01*
X027086Y024933D02*
X027263Y025110D01*
X027086Y024067D02*
X027263Y023890D01*
X027086Y024067D02*
Y024933D01*
X029172Y025110D02*
X030196D01*
X029172Y023890D02*
X030196D01*
X027263D02*
X028228D01*
X027263Y025110D02*
X028228D01*
X030196Y025540D02*
Y026760D01*
X027086Y026583D02*
X027263Y026760D01*
X027086Y025717D02*
X027263Y025540D01*
X027086Y025717D02*
Y026583D01*
X029172Y026760D02*
X030196D01*
X029172Y025540D02*
X030196D01*
X027263D02*
X028228D01*
X027263Y026760D02*
X028228D01*
X035315Y017632D02*
Y017868D01*
X034685Y017632D02*
Y017868D01*
X035315*
X034685Y017793D02*
X035315D01*
X034843Y018881D02*
X035157D01*
X031631Y017822D02*
X034269D01*
X031631D02*
Y019278D01*
X034269*
Y017822D02*
Y019278D01*
X028169Y017743D02*
Y018057D01*
X028631Y017743D02*
Y018057D01*
X035269Y037143D02*
Y037457D01*
X034093Y038969D02*
X034407D01*
X034143Y035219D02*
X034457D01*
X035319Y033443D02*
Y033757D01*
X041052Y021594D02*
Y022106D01*
X041131Y020943D02*
Y021257D01*
X037856Y029666D02*
Y031634D01*
X038644Y029666D02*
Y031634D01*
X037856D02*
X038644D01*
X037856Y029666D02*
X038644D01*
X037640Y020851D02*
X038860D01*
X037640Y023449D02*
X038860D01*
Y020851D02*
Y023449D01*
X037640Y020851D02*
Y023449D01*
X026403Y020322D02*
X030497D01*
Y018511D02*
Y020322D01*
X026403Y018511D02*
X030497D01*
X026403D02*
Y020322D01*
Y020125D02*
X030497D01*
G54D57*
X031918Y031860D02*
D01*
X031917Y031868*
X031916Y031876*
X031915Y031884*
X031913Y031892*
X031910Y031900*
X031907Y031907*
X031904Y031915*
X031900Y031922*
X031895Y031929*
X031890Y031935*
X031884Y031941*
X031878Y031947*
X031872Y031952*
X031865Y031957*
X031859Y031962*
X031851Y031966*
X031844Y031969*
X031836Y031972*
X031828Y031974*
X031820Y031976*
X031812Y031977*
X031804Y031977*
X031795*
X031787Y031977*
X031779Y031976*
X031771Y031974*
X031763Y031972*
X031755Y031969*
X031748Y031966*
X031741Y031962*
X031734Y031957*
X031727Y031952*
X031721Y031947*
X031715Y031941*
X031709Y031935*
X031704Y031929*
X031699Y031922*
X031695Y031915*
X031692Y031907*
X031689Y031900*
X031686Y031892*
X031684Y031884*
X031683Y031876*
X031682Y031868*
X031682Y031860*
X031682Y031851*
X031683Y031843*
X031684Y031835*
X031686Y031827*
X031689Y031819*
X031692Y031812*
X031695Y031804*
X031699Y031797*
X031704Y031790*
X031709Y031784*
X031715Y031778*
X031721Y031772*
X031727Y031767*
X031734Y031762*
X031741Y031757*
X031748Y031753*
X031755Y031750*
X031763Y031747*
X031771Y031745*
X031779Y031743*
X031787Y031742*
X031795Y031742*
X031804*
X031812Y031742*
X031820Y031743*
X031828Y031745*
X031836Y031747*
X031844Y031750*
X031851Y031753*
X031859Y031757*
X031865Y031762*
X031872Y031767*
X031878Y031772*
X031884Y031778*
X031890Y031784*
X031895Y031790*
X031900Y031797*
X031904Y031804*
X031907Y031812*
X031910Y031819*
X031913Y031827*
X031915Y031835*
X031916Y031843*
X031917Y031851*
X031918Y031860*
X038152Y023056D02*
D01*
X038151Y023064*
X038150Y023072*
X038149Y023080*
X038147Y023088*
X038144Y023096*
X038141Y023103*
X038138Y023111*
X038134Y023118*
X038129Y023125*
X038124Y023131*
X038118Y023137*
X038112Y023143*
X038106Y023148*
X038099Y023153*
X038093Y023158*
X038085Y023162*
X038078Y023165*
X038070Y023168*
X038062Y023170*
X038054Y023172*
X038046Y023173*
X038038Y023173*
X038029*
X038021Y023173*
X038013Y023172*
X038005Y023170*
X037997Y023168*
X037989Y023165*
X037982Y023162*
X037975Y023158*
X037968Y023153*
X037961Y023148*
X037955Y023143*
X037949Y023137*
X037943Y023131*
X037938Y023125*
X037933Y023118*
X037929Y023111*
X037926Y023103*
X037923Y023096*
X037920Y023088*
X037918Y023080*
X037917Y023072*
X037916Y023064*
X037916Y023056*
X037916Y023047*
X037917Y023039*
X037918Y023031*
X037920Y023023*
X037923Y023015*
X037926Y023008*
X037929Y023000*
X037933Y022993*
X037938Y022986*
X037943Y022980*
X037949Y022974*
X037955Y022968*
X037961Y022963*
X037968Y022958*
X037975Y022953*
X037982Y022949*
X037989Y022946*
X037997Y022943*
X038005Y022941*
X038013Y022939*
X038021Y022938*
X038029Y022938*
X038038*
X038046Y022938*
X038054Y022939*
X038062Y022941*
X038070Y022943*
X038078Y022946*
X038085Y022949*
X038093Y022953*
X038099Y022958*
X038106Y022963*
X038112Y022968*
X038118Y022974*
X038124Y022980*
X038129Y022986*
X038134Y022993*
X038138Y023000*
X038141Y023008*
X038144Y023015*
X038147Y023023*
X038149Y023031*
X038150Y023039*
X038151Y023047*
X038152Y023056*
G54D58*
X028139Y031119D02*
D01*
X028138Y031124*
X028138Y031129*
X028137Y031135*
X028135Y031140*
X028134Y031146*
X028132Y031151*
X028129Y031156*
X028126Y031160*
X028123Y031165*
X028120Y031169*
X028116Y031173*
X028112Y031177*
X028108Y031181*
X028104Y031184*
X028099Y031187*
X028094Y031190*
X028089Y031192*
X028084Y031194*
X028079Y031195*
X028073Y031196*
X028068Y031197*
X028062Y031197*
X028057*
X028051Y031197*
X028046Y031196*
X028040Y031195*
X028035Y031194*
X028030Y031192*
X028025Y031190*
X028020Y031187*
X028015Y031184*
X028011Y031181*
X028007Y031177*
X028003Y031173*
X027999Y031169*
X027996Y031165*
X027993Y031160*
X027990Y031156*
X027987Y031151*
X027985Y031146*
X027984Y031140*
X027982Y031135*
X027981Y031129*
X027981Y031124*
X027981Y031119*
X027981Y031113*
X027981Y031108*
X027982Y031102*
X027984Y031097*
X027985Y031091*
X027987Y031086*
X027990Y031081*
X027993Y031077*
X027996Y031072*
X027999Y031068*
X028003Y031064*
X028007Y031060*
X028011Y031056*
X028015Y031053*
X028020Y031050*
X028025Y031047*
X028030Y031045*
X028035Y031043*
X028040Y031042*
X028046Y031041*
X028051Y031040*
X028057Y031040*
X028062*
X028068Y031040*
X028073Y031041*
X028079Y031042*
X028084Y031043*
X028089Y031045*
X028094Y031047*
X028099Y031050*
X028104Y031053*
X028108Y031056*
X028112Y031060*
X028116Y031064*
X028120Y031068*
X028123Y031072*
X028126Y031077*
X028129Y031081*
X028132Y031086*
X028134Y031091*
X028135Y031097*
X028137Y031102*
X028138Y031108*
X028138Y031113*
X028139Y031119*
G54D59*
X037675Y044001D03*
M02*