%FSDAX24Y24*%
%MOIN*%
%SFA1B1*%

%IPPOS*%
%ADD10C,0.008000*%
%ADD15R,0.043300X0.039400*%
%ADD29C,0.050000*%
%ADD30C,0.010000*%
%ADD31C,0.020000*%
%ADD32C,0.078700*%
%ADD34C,0.039400*%
%ADD35C,0.030000*%
%ADD36R,0.365000X0.240000*%
%ADD37C,0.060000*%
%ADD38C,0.118100*%
%ADD39C,0.059100*%
%ADD40R,0.059100X0.059100*%
%ADD41C,0.059100*%
%ADD42R,0.059100X0.059100*%
%ADD43C,0.055100*%
%ADD44C,0.078700*%
%ADD45R,0.078700X0.078700*%
%ADD46R,0.063000X0.063000*%
%ADD47C,0.063000*%
%ADD48C,0.098400*%
%ADD49O,0.098400X0.047200*%
%ADD50R,0.098400X0.047200*%
%ADD51R,0.066900X0.066900*%
%ADD52C,0.066900*%
%ADD53C,0.050000*%
%ADD54C,0.030000*%
%LNde-160724-1*%
%LPD*%
G54D10*
X042140Y038900D02*
D01*
X042139Y038927*
X042136Y038954*
X042131Y038981*
X042124Y039007*
X042116Y039033*
X042106Y039058*
X042094Y039083*
X042080Y039106*
X042065Y039129*
X042048Y039150*
X042030Y039170*
X042026Y039176*
X042140Y038900D02*
D01*
X042139Y038927*
X042136Y038954*
X042131Y038981*
X042124Y039007*
X042116Y039033*
X042106Y039058*
X042094Y039083*
X042080Y039106*
X042065Y039129*
X042048Y039150*
X042030Y039170*
X042026Y039176*
X041360Y038047D02*
D01*
X041326Y038018*
X041294Y037987*
X041265Y037955*
X041238Y037920*
X041213Y037883*
X041191Y037845*
X041172Y037805*
X041155Y037764*
X041142Y037722*
X041131Y037680*
X041124Y037636*
X041119Y037592*
X041118Y037548*
X041119Y037504*
X041124Y037460*
X041132Y037417*
X041143Y037374*
X041156Y037332*
X041173Y037291*
X041192Y037252*
X041214Y037214*
X041239Y037177*
X041266Y037142*
X041296Y037110*
X041328Y037079*
X041362Y037051*
X041397Y037025*
X041435Y037002*
X041474Y036981*
X041514Y036963*
X041556Y036948*
X041598Y036936*
X041641Y036927*
X041685Y036921*
X041729Y036918*
X041773Y036918*
X041817Y036921*
X041861Y036928*
X041904Y036937*
X041946Y036949*
X041987Y036964*
X042028Y036982*
X042067Y037003*
X042104Y037027*
X042140Y037053*
X042173Y037081*
X042205Y037112*
X042234Y037144*
X042261Y037179*
X042286Y037216*
X042308Y037254*
X042327Y037294*
X042344Y037335*
X042357Y037377*
X042368Y037419*
X042375Y037463*
X042380Y037507*
X042382Y037550*
D01*
X042380Y037594*
X042375Y037637*
X042368Y037681*
X042357Y037724*
X042343Y037766*
X042327Y037807*
X042308Y037846*
X042285Y037884*
X042261Y037921*
X042234Y037956*
X042204Y037989*
X042172Y038019*
X042140Y038047*
X042655Y043959D02*
D01*
X042652Y044023*
X042645Y044088*
X042634Y044151*
X042619Y044214*
X042599Y044276*
X042574Y044336*
X042546Y044394*
X042514Y044450*
X042477Y044503*
X042438Y044554*
X042394Y044602*
X042348Y044647*
X042298Y044689*
X042246Y044727*
X042191Y044761*
X042134Y044792*
X042075Y044818*
X042014Y044840*
X041952Y044858*
X041888Y044871*
X041824Y044880*
X041760Y044885*
X041695*
X041631Y044880*
X041567Y044871*
X041503Y044858*
X041441Y044840*
X041380Y044818*
X041321Y044792*
X041264Y044761*
X041209Y044727*
X041157Y044689*
X041107Y044647*
X041061Y044602*
X041017Y044554*
X040978Y044503*
X040941Y044450*
X040909Y044394*
X040881Y044336*
X040856Y044276*
X040836Y044214*
X040821Y044151*
X040810Y044088*
X040803Y044023*
X040801Y043959*
X040803Y043894*
X040810Y043829*
X040821Y043766*
X040836Y043703*
X040856Y043641*
X040881Y043581*
X040909Y043523*
X040941Y043467*
X040978Y043414*
X041017Y043363*
X041061Y043315*
X041107Y043270*
X041157Y043228*
X041209Y043190*
X041264Y043156*
X041321Y043125*
X041380Y043099*
X041441Y043077*
X041503Y043059*
X041567Y043046*
X041631Y043037*
X041695Y043032*
X041760*
X041824Y043037*
X041888Y043046*
X041952Y043059*
X042014Y043077*
X042075Y043099*
X042134Y043125*
X042191Y043156*
X042246Y043190*
X042298Y043228*
X042348Y043270*
X042394Y043315*
X042438Y043363*
X042477Y043414*
X042514Y043467*
X042546Y043523*
X042574Y043581*
X042599Y043641*
X042619Y043703*
X042634Y043766*
X042645Y043829*
X042652Y043894*
X042655Y043959*
X040976Y040226D02*
D01*
X040956Y040244*
X040934Y040261*
X040912Y040277*
X040889Y040291*
X040864Y040303*
X040839Y040314*
X040814Y040323*
X040787Y040330*
X040761Y040335*
X040734Y040338*
X040706Y040340*
X040700Y040340*
X040976Y040226D02*
D01*
X040956Y040244*
X040934Y040261*
X040912Y040277*
X040889Y040291*
X040864Y040303*
X040839Y040314*
X040814Y040323*
X040787Y040330*
X040761Y040335*
X040734Y040338*
X040706Y040340*
X040700Y040340*
X042382Y035550D02*
D01*
X042380Y035594*
X042375Y035637*
X042368Y035681*
X042357Y035724*
X042343Y035766*
X042327Y035807*
X042308Y035846*
X042285Y035884*
X042261Y035921*
X042234Y035956*
X042204Y035989*
X042172Y036019*
X042139Y036048*
X042103Y036073*
X042066Y036097*
X042027Y036118*
X041986Y036135*
X041945Y036151*
X041902Y036163*
X041859Y036172*
X041816Y036178*
X041772Y036181*
X041727*
X041683Y036178*
X041640Y036172*
X041597Y036163*
X041554Y036151*
X041513Y036135*
X041472Y036118*
X041434Y036097*
X041396Y036073*
X041360Y036048*
X041327Y036019*
X041295Y035989*
X041265Y035956*
X041238Y035921*
X041214Y035884*
X041191Y035846*
X041172Y035807*
X041156Y035766*
X041142Y035724*
X041131Y035681*
X041124Y035637*
X041119Y035594*
X041118Y035550*
X041119Y035505*
X041124Y035462*
X041131Y035418*
X041142Y035375*
X041156Y035333*
X041172Y035292*
X041191Y035253*
X041214Y035215*
X041238Y035178*
X041265Y035143*
X041295Y035110*
X041327Y035080*
X041360Y035051*
X041396Y035026*
X041434Y035002*
X041472Y034981*
X041513Y034964*
X041554Y034948*
X041597Y034936*
X041640Y034927*
X041683Y034921*
X041727Y034918*
X041772*
X041816Y034921*
X041859Y034927*
X041902Y034936*
X041945Y034948*
X041986Y034964*
X042027Y034981*
X042066Y035002*
X042103Y035026*
X042139Y035051*
X042172Y035080*
X042204Y035110*
X042234Y035143*
X042261Y035178*
X042285Y035215*
X042308Y035253*
X042327Y035292*
X042343Y035333*
X042357Y035375*
X042368Y035418*
X042375Y035462*
X042380Y035505*
X042382Y035550*
Y033550D02*
D01*
X042380Y033594*
X042375Y033637*
X042368Y033681*
X042357Y033724*
X042343Y033766*
X042327Y033807*
X042308Y033846*
X042285Y033884*
X042261Y033921*
X042234Y033956*
X042204Y033989*
X042172Y034019*
X042139Y034048*
X042103Y034073*
X042066Y034097*
X042027Y034118*
X041986Y034135*
X041945Y034151*
X041902Y034163*
X041859Y034172*
X041816Y034178*
X041772Y034181*
X041727*
X041683Y034178*
X041640Y034172*
X041597Y034163*
X041554Y034151*
X041513Y034135*
X041472Y034118*
X041434Y034097*
X041396Y034073*
X041360Y034048*
X041327Y034019*
X041295Y033989*
X041265Y033956*
X041253Y033940*
Y033160D02*
D01*
X041281Y033126*
X041312Y033094*
X041344Y033065*
X041379Y033038*
X041416Y033013*
X041454Y032991*
X041494Y032972*
X041535Y032955*
X041577Y032942*
X041619Y032931*
X041663Y032924*
X041707Y032919*
X041751Y032918*
X041795Y032919*
X041839Y032924*
X041882Y032932*
X041925Y032943*
X041967Y032956*
X042008Y032973*
X042047Y032992*
X042085Y033014*
X042122Y033039*
X042157Y033066*
X042189Y033096*
X042220Y033128*
X042248Y033162*
X042274Y033197*
X042297Y033235*
X042318Y033274*
X042336Y033314*
X042351Y033356*
X042363Y033398*
X042372Y033441*
X042378Y033485*
X042381Y033529*
X042382Y033550*
Y031584D02*
D01*
X042380Y031628*
X042375Y031671*
X042368Y031715*
X042357Y031758*
X042343Y031800*
X042327Y031841*
X042308Y031880*
X042285Y031918*
X042261Y031955*
X042234Y031990*
X042204Y032023*
X042172Y032053*
X042139Y032082*
X042103Y032107*
X042066Y032131*
X042027Y032152*
X041986Y032169*
X041945Y032185*
X041902Y032197*
X041859Y032206*
X041816Y032212*
X041772Y032215*
X041727*
X041683Y032212*
X041640Y032206*
X041597Y032197*
X041554Y032185*
X041513Y032169*
X041472Y032152*
X041434Y032131*
X041396Y032107*
X041360Y032082*
X041327Y032053*
X041295Y032023*
X041265Y031990*
X041238Y031955*
X041214Y031918*
X041191Y031880*
X041172Y031841*
X041156Y031800*
X041142Y031758*
X041131Y031715*
X041124Y031671*
X041119Y031628*
X041118Y031584*
X041119Y031539*
X041124Y031496*
X041131Y031452*
X041142Y031409*
X041156Y031367*
X041172Y031326*
X041191Y031287*
X041214Y031249*
X041238Y031212*
X041265Y031177*
X041295Y031144*
X041327Y031114*
X041360Y031085*
X041396Y031060*
X041434Y031036*
X041472Y031015*
X041513Y030998*
X041554Y030982*
X041597Y030970*
X041640Y030961*
X041683Y030955*
X041727Y030952*
X041772*
X041816Y030955*
X041859Y030961*
X041902Y030970*
X041945Y030982*
X041986Y030998*
X042027Y031015*
X042066Y031036*
X042103Y031060*
X042139Y031085*
X042172Y031114*
X042204Y031144*
X042234Y031177*
X042261Y031212*
X042285Y031249*
X042308Y031287*
X042327Y031326*
X042343Y031367*
X042357Y031409*
X042368Y031452*
X042375Y031496*
X042380Y031539*
X042382Y031584*
Y029616D02*
D01*
X042380Y029660*
X042375Y029703*
X042368Y029747*
X042357Y029790*
X042343Y029832*
X042327Y029873*
X042308Y029912*
X042285Y029950*
X042261Y029987*
X042234Y030022*
X042204Y030055*
X042172Y030085*
X042139Y030114*
X042103Y030139*
X042066Y030163*
X042027Y030184*
X041986Y030201*
X041945Y030217*
X041902Y030229*
X041859Y030238*
X041816Y030244*
X041772Y030247*
X041727*
X041683Y030244*
X041640Y030238*
X041597Y030229*
X041554Y030217*
X041513Y030201*
X041472Y030184*
X041434Y030163*
X041396Y030139*
X041360Y030114*
X041327Y030085*
X041295Y030055*
X041265Y030022*
X041238Y029987*
X041214Y029950*
X041191Y029912*
X041172Y029873*
X041156Y029832*
X041142Y029790*
X041131Y029747*
X041124Y029703*
X041119Y029660*
X041118Y029616*
X041119Y029571*
X041124Y029528*
X041131Y029484*
X041142Y029441*
X041156Y029399*
X041172Y029358*
X041191Y029319*
X041214Y029281*
X041238Y029244*
X041265Y029209*
X041295Y029176*
X041327Y029146*
X041360Y029117*
X041396Y029092*
X041434Y029068*
X041472Y029047*
X041513Y029030*
X041554Y029014*
X041597Y029002*
X041640Y028993*
X041683Y028987*
X041727Y028984*
X041772*
X041816Y028987*
X041859Y028993*
X041902Y029002*
X041945Y029014*
X041986Y029030*
X042027Y029047*
X042066Y029068*
X042103Y029092*
X042139Y029117*
X042172Y029146*
X042204Y029176*
X042234Y029209*
X042261Y029244*
X042285Y029281*
X042308Y029319*
X042327Y029358*
X042343Y029399*
X042357Y029441*
X042368Y029484*
X042375Y029528*
X042380Y029571*
X042382Y029616*
X039343Y044394D02*
D01*
X039342Y044403*
X039341Y044413*
X039339Y044423*
X039337Y044432*
X039334Y044441*
X039330Y044450*
X039326Y044459*
X039321Y044468*
X039316Y044476*
X039310Y044483*
X039303Y044491*
X039296Y044498*
X039289Y044504*
X039281Y044510*
X039273Y044515*
X039264Y044519*
X039255Y044523*
X039246Y044527*
X039236Y044529*
X039227Y044531*
X039217Y044533*
X039207Y044533*
X039203Y044534*
X038415D02*
D01*
X038405Y044533*
X038395Y044532*
X038385Y044530*
X038376Y044528*
X038367Y044525*
X038358Y044521*
X038349Y044517*
X038340Y044512*
X038332Y044507*
X038325Y044501*
X038317Y044494*
X038310Y044487*
X038304Y044480*
X038298Y044472*
X038293Y044464*
X038289Y044455*
X038285Y044446*
X038281Y044437*
X038279Y044427*
X038277Y044418*
X038275Y044408*
X038275Y044398*
X038275Y044394*
X039203Y043466D02*
D01*
X039212Y043466*
X039222Y043467*
X039232Y043469*
X039241Y043471*
X039250Y043474*
X039259Y043478*
X039268Y043482*
X039277Y043487*
X039285Y043492*
X039292Y043498*
X039300Y043505*
X039307Y043512*
X039313Y043519*
X039319Y043527*
X039324Y043536*
X039328Y043544*
X039332Y043553*
X039336Y043562*
X039338Y043572*
X039340Y043581*
X039342Y043591*
X039342Y043601*
X039343Y043606*
X039216Y042450D02*
D01*
X039214Y042479*
X039211Y042507*
X039206Y042536*
X039199Y042564*
X039190Y042592*
X039180Y042619*
X039167Y042645*
X039152Y042670*
X039136Y042694*
X039118Y042717*
X039099Y042738*
X039078Y042759*
X039056Y042777*
X039032Y042794*
X039008Y042810*
X038982Y042823*
X038955Y042835*
X038928Y042845*
X038900Y042853*
X038872Y042859*
X038843Y042863*
X038814Y042865*
X038785*
X038756Y042863*
X038727Y042859*
X038699Y042853*
X038671Y042845*
X038644Y042835*
X038617Y042823*
X038592Y042810*
X038567Y042794*
X038543Y042777*
X038521Y042759*
X038500Y042738*
X038481Y042717*
X038463Y042694*
X038447Y042670*
X038432Y042645*
X038419Y042619*
X038409Y042592*
X038400Y042564*
X038393Y042536*
X038388Y042507*
X038385Y042479*
X038384Y042450*
X038385Y042420*
X038388Y042392*
X038393Y042363*
X038400Y042335*
X038409Y042307*
X038419Y042280*
X038432Y042254*
X038447Y042229*
X038463Y042205*
X038481Y042182*
X038500Y042161*
X038521Y042140*
X038543Y042122*
X038567Y042105*
X038592Y042089*
X038617Y042076*
X038644Y042064*
X038671Y042054*
X038699Y042046*
X038727Y042040*
X038756Y042036*
X038785Y042034*
X038814*
X038843Y042036*
X038872Y042040*
X038900Y042046*
X038928Y042054*
X038955Y042064*
X038982Y042076*
X039008Y042089*
X039032Y042105*
X039056Y042122*
X039078Y042140*
X039099Y042161*
X039118Y042182*
X039136Y042205*
X039152Y042229*
X039167Y042254*
X039180Y042280*
X039190Y042307*
X039199Y042335*
X039206Y042363*
X039211Y042392*
X039214Y042420*
X039216Y042450*
X038275Y043606D02*
D01*
X038275Y043596*
X038276Y043586*
X038278Y043576*
X038280Y043567*
X038283Y043558*
X038287Y043549*
X038291Y043540*
X038296Y043531*
X038301Y043523*
X038307Y043516*
X038314Y043508*
X038321Y043501*
X038328Y043495*
X038336Y043489*
X038345Y043484*
X038353Y043480*
X038362Y043476*
X038371Y043472*
X038381Y043470*
X038390Y043468*
X038400Y043466*
X038410Y043466*
X038415Y043466*
X039940Y035750D02*
D01*
X039939Y035777*
X039936Y035804*
X039931Y035831*
X039924Y035857*
X039916Y035883*
X039906Y035908*
X039894Y035933*
X039880Y035956*
X039865Y035979*
X039848Y036000*
X039830Y036020*
X039826Y036026*
X039940Y035750D02*
D01*
X039939Y035777*
X039936Y035804*
X039931Y035831*
X039924Y035857*
X039916Y035883*
X039906Y035908*
X039894Y035933*
X039880Y035956*
X039865Y035979*
X039848Y036000*
X039830Y036020*
X039826Y036026*
X037976Y037876D02*
D01*
X037956Y037894*
X037934Y037911*
X037912Y037927*
X037889Y037941*
X037864Y037953*
X037839Y037964*
X037814Y037973*
X037787Y037980*
X037761Y037985*
X037734Y037988*
X037706Y037990*
X037700Y037990*
X037976Y037876D02*
D01*
X037956Y037894*
X037934Y037911*
X037912Y037927*
X037889Y037941*
X037864Y037953*
X037839Y037964*
X037814Y037973*
X037787Y037980*
X037761Y037985*
X037734Y037988*
X037706Y037990*
X037700Y037990*
X038055Y035805D02*
D01*
X038040Y035818*
X038024Y035831*
X038007Y035843*
X037990Y035853*
X037972Y035862*
X037953Y035870*
X037934Y035877*
X037915Y035882*
X037895Y035886*
X037875Y035888*
X037855Y035889*
X037850Y035890*
X038055Y035805D02*
D01*
X038040Y035818*
X038024Y035831*
X038007Y035843*
X037990Y035853*
X037972Y035862*
X037953Y035870*
X037934Y035877*
X037915Y035882*
X037895Y035886*
X037875Y035888*
X037855Y035889*
X037850Y035890*
X036190Y042306D02*
D01*
X036199Y042333*
X036206Y042361*
X036211Y042390*
X036214Y042419*
X036215Y042448*
X036216Y042450*
X039160Y034300D02*
D01*
X039160Y034272*
X039163Y034245*
X039168Y034218*
X039175Y034192*
X039183Y034166*
X039193Y034141*
X039205Y034116*
X039219Y034093*
X039234Y034070*
X039251Y034049*
X039269Y034029*
X039274Y034024*
X039160Y034300D02*
D01*
X039160Y034272*
X039163Y034245*
X039168Y034218*
X039175Y034192*
X039183Y034166*
X039193Y034141*
X039205Y034116*
X039219Y034093*
X039234Y034070*
X039251Y034049*
X039269Y034029*
X039274Y034024*
X040024Y033274D02*
D01*
X040043Y033255*
X040065Y033238*
X040087Y033222*
X040110Y033208*
X040135Y033196*
X040160Y033185*
X040185Y033176*
X040212Y033169*
X040238Y033164*
X040265Y033161*
X040293Y033159*
X040300Y033160*
X040024Y033274D02*
D01*
X040043Y033255*
X040065Y033238*
X040087Y033222*
X040110Y033208*
X040135Y033196*
X040160Y033185*
X040185Y033176*
X040212Y033169*
X040238Y033164*
X040265Y033161*
X040293Y033159*
X040300Y033160*
X038840Y034900D02*
D01*
X038839Y034920*
X038837Y034940*
X038833Y034960*
X038828Y034979*
X038822Y034999*
X038814Y035017*
X038806Y035036*
X038795Y035053*
X038784Y035070*
X038772Y035086*
X038758Y035101*
X038755Y035105*
X038840Y034900D02*
D01*
X038839Y034920*
X038837Y034940*
X038833Y034960*
X038828Y034979*
X038822Y034999*
X038814Y035017*
X038806Y035036*
X038795Y035053*
X038784Y035070*
X038772Y035086*
X038758Y035101*
X038755Y035105*
X037490Y032200D02*
D01*
X037489Y032213*
X037488Y032226*
X037485Y032239*
X037482Y032252*
X037478Y032264*
X037473Y032277*
X037467Y032289*
X037461Y032300*
X037453Y032311*
X037445Y032322*
X037436Y032331*
X037434Y032335*
X037490Y032200D02*
D01*
X037489Y032213*
X037488Y032226*
X037485Y032239*
X037482Y032252*
X037478Y032264*
X037473Y032277*
X037467Y032289*
X037461Y032300*
X037453Y032311*
X037445Y032322*
X037436Y032331*
X037434Y032334*
X037590Y029500D02*
D01*
X037589Y029520*
X037587Y029540*
X037583Y029560*
X037578Y029579*
X037572Y029599*
X037564Y029617*
X037556Y029636*
X037545Y029653*
X037534Y029670*
X037522Y029686*
X037508Y029701*
X037494Y029715*
X037490Y029719*
X037085Y032684D02*
D01*
X037075Y032693*
X037065Y032701*
X037054Y032709*
X037042Y032716*
X037031Y032722*
X037018Y032727*
X037006Y032731*
X036993Y032735*
X036980Y032737*
X036967Y032739*
X036954Y032740*
X036950Y032740*
X037084Y032684D02*
D01*
X037074Y032693*
X037064Y032701*
X037053Y032708*
X037041Y032715*
X037030Y032721*
X037017Y032726*
X037005Y032731*
X036992Y032734*
X036979Y032737*
X036966Y032738*
X036953Y032739*
X036950Y032740*
X036890Y031950D02*
D01*
X036889Y031963*
X036888Y031976*
X036885Y031989*
X036882Y032002*
X036878Y032014*
X036873Y032027*
X036867Y032039*
X036861Y032050*
X036853Y032061*
X036845Y032072*
X036836Y032081*
X036834Y032084*
X036890Y031950D02*
D01*
X036889Y031963*
X036888Y031976*
X036885Y031989*
X036882Y032002*
X036878Y032014*
X036873Y032027*
X036867Y032039*
X036861Y032050*
X036853Y032061*
X036845Y032072*
X036836Y032081*
X036834Y032085*
X037110Y029719D02*
D01*
X037095Y029705*
X037081Y029690*
X037068Y029674*
X037056Y029658*
X037046Y029640*
X037037Y029622*
X037029Y029604*
X037022Y029585*
X037017Y029565*
X037013Y029545*
X037011Y029525*
X037010Y029505*
X037010Y029485*
X037012Y029464*
X037015Y029444*
X037019Y029425*
X037025Y029405*
X037033Y029386*
X037041Y029368*
X037051Y029350*
X037062Y029333*
X037074Y029317*
X037087Y029302*
X037102Y029288*
X037117Y029274*
X037133Y029262*
X037150Y029251*
X037168Y029241*
X037186Y029233*
X037205Y029225*
X037224Y029220*
X037244Y029215*
X037264Y029212*
X037284Y029210*
X037304Y029210*
X037324Y029211*
X037345Y029213*
X037364Y029217*
X037384Y029222*
X037403Y029229*
X037422Y029237*
X037440Y029246*
X037457Y029256*
X037474Y029268*
X037490Y029281*
X037504Y029294*
X037518Y029309*
X037531Y029325*
X037543Y029341*
X037553Y029359*
X037562Y029377*
X037570Y029395*
X037577Y029414*
X037582Y029434*
X037586Y029454*
X037588Y029474*
X037589Y029494*
X037590Y029500*
X035640Y031950D02*
D01*
X035639Y031970*
X035637Y031990*
X035633Y032010*
X035628Y032029*
X035622Y032049*
X035614Y032067*
X035606Y032086*
X035595Y032103*
X035584Y032120*
X035572Y032136*
X035558Y032151*
X035550Y032160*
X036990Y030650D02*
D01*
X036989Y030670*
X036987Y030690*
X036983Y030710*
X036978Y030729*
X036972Y030749*
X036964Y030767*
X036956Y030786*
X036945Y030803*
X036934Y030820*
X036922Y030836*
X036908Y030851*
X036894Y030865*
X036890Y030869*
X036510D02*
D01*
X036495Y030855*
X036481Y030840*
X036468Y030824*
X036456Y030808*
X036446Y030790*
X036437Y030772*
X036429Y030754*
X036422Y030735*
X036417Y030715*
X036413Y030695*
X036411Y030675*
X036410Y030655*
X036410Y030635*
X036412Y030614*
X036415Y030594*
X036419Y030575*
X036425Y030555*
X036433Y030536*
X036441Y030518*
X036451Y030500*
X036462Y030483*
X036474Y030467*
X036487Y030452*
X036502Y030438*
X036517Y030424*
X036533Y030412*
X036550Y030401*
X036568Y030391*
X036586Y030383*
X036605Y030375*
X036624Y030370*
X036644Y030365*
X036664Y030362*
X036684Y030360*
X036704Y030360*
X036724Y030361*
X036745Y030363*
X036764Y030367*
X036784Y030372*
X036803Y030379*
X036822Y030387*
X036840Y030396*
X036857Y030406*
X036874Y030418*
X036890Y030431*
X036904Y030444*
X036918Y030459*
X036931Y030475*
X036943Y030491*
X036953Y030509*
X036962Y030527*
X036970Y030545*
X036977Y030564*
X036982Y030584*
X036986Y030604*
X036988Y030624*
X036989Y030644*
X036990Y030650*
X043391Y022847D02*
D01*
X043390Y022856*
X043389Y022866*
X043387Y022876*
X043385Y022885*
X043382Y022894*
X043378Y022903*
X043374Y022912*
X043369Y022921*
X043364Y022929*
X043358Y022936*
X043351Y022944*
X043344Y022951*
X043337Y022957*
X043329Y022963*
X043321Y022968*
X043312Y022972*
X043303Y022976*
X043294Y022980*
X043284Y022982*
X043275Y022984*
X043265Y022986*
X043255Y022986*
X043251Y022987*
X043052D02*
D01*
X043073Y023008*
X043092Y023032*
X043110Y023056*
X043126Y023082*
X043140Y023109*
X043153Y023136*
X043163Y023165*
X043171Y023194*
X043178Y023224*
X043182Y023254*
X043184Y023284*
X043185Y023300*
D01*
X043183Y023330*
X043180Y023360*
X043175Y023390*
X043168Y023419*
X043158Y023448*
X043147Y023476*
X043134Y023504*
X043118Y023530*
X043101Y023555*
X043083Y023579*
X043062Y023602*
X043041Y023623*
X043017Y023642*
X042993Y023660*
X042967Y023676*
X042940Y023690*
X042912Y023703*
X042884Y023713*
X042855Y023722*
X042825Y023728*
X042795Y023732*
X042765Y023734*
X042734*
X042704Y023732*
X042674Y023728*
X042644Y023722*
X042615Y023713*
X042587Y023703*
X042559Y023690*
X042532Y023676*
X042506Y023660*
X042482Y023642*
X042458Y023623*
X042437Y023602*
X042416Y023579*
X042398Y023555*
X042381Y023530*
X042365Y023504*
X042352Y023476*
X042341Y023448*
X042331Y023419*
X042324Y023390*
X042319Y023360*
X042316Y023330*
X042315Y023300*
X042316Y023269*
X042319Y023239*
X042324Y023209*
X042331Y023180*
X042341Y023151*
X042352Y023123*
X042365Y023095*
X042381Y023069*
X042398Y023044*
X042416Y023020*
X042437Y022997*
X042448Y022987*
X043251Y022313D02*
D01*
X043260Y022313*
X043270Y022314*
X043280Y022316*
X043289Y022318*
X043298Y022321*
X043307Y022325*
X043316Y022329*
X043325Y022334*
X043333Y022339*
X043340Y022345*
X043348Y022352*
X043355Y022359*
X043361Y022366*
X043367Y022374*
X043372Y022383*
X043376Y022391*
X043380Y022400*
X043384Y022409*
X043386Y022419*
X043388Y022428*
X043390Y022438*
X043390Y022448*
X043391Y022453*
Y021847D02*
D01*
X043390Y021856*
X043389Y021866*
X043387Y021876*
X043385Y021885*
X043382Y021894*
X043378Y021903*
X043374Y021912*
X043369Y021921*
X043364Y021929*
X043358Y021936*
X043351Y021944*
X043344Y021951*
X043337Y021957*
X043329Y021963*
X043321Y021968*
X043312Y021972*
X043303Y021976*
X043294Y021980*
X043284Y021982*
X043275Y021984*
X043265Y021986*
X043255Y021986*
X043251Y021987*
X042700Y022378D02*
D01*
X042705Y022369*
X042711Y022362*
X042718Y022355*
X042725Y022348*
X042732Y022342*
X042740Y022336*
X042749Y022331*
X042757Y022326*
X042766Y022322*
X042775Y022319*
X042785Y022317*
X042794Y022315*
X042804Y022313*
X042814Y022313*
X042818Y022313*
X042582D02*
D01*
X042591Y022313*
X042601Y022314*
X042611Y022316*
X042620Y022318*
X042629Y022321*
X042638Y022325*
X042647Y022329*
X042656Y022334*
X042664Y022339*
X042671Y022345*
X042679Y022352*
X042686Y022359*
X042692Y022366*
X042698Y022374*
X042700Y022378*
X042818Y021987D02*
D01*
X042808Y021986*
X042798Y021985*
X042788Y021983*
X042779Y021981*
X042770Y021978*
X042761Y021974*
X042752Y021970*
X042743Y021965*
X042735Y021960*
X042728Y021954*
X042720Y021947*
X042713Y021940*
X042707Y021933*
X042701Y021925*
X042700Y021922*
D01*
X042694Y021930*
X042688Y021937*
X042681Y021944*
X042674Y021951*
X042667Y021957*
X042659Y021963*
X042650Y021968*
X042642Y021973*
X042633Y021977*
X042624Y021980*
X042614Y021982*
X042605Y021984*
X042595Y021986*
X042585Y021986*
X042582Y021987*
X042382Y027650D02*
D01*
X042380Y027694*
X042375Y027737*
X042368Y027781*
X042357Y027824*
X042343Y027866*
X042327Y027907*
X042308Y027946*
X042285Y027984*
X042261Y028021*
X042234Y028056*
X042204Y028089*
X042172Y028119*
X042139Y028148*
X042103Y028173*
X042066Y028197*
X042027Y028218*
X041986Y028235*
X041945Y028251*
X041902Y028263*
X041859Y028272*
X041816Y028278*
X041772Y028281*
X041727*
X041683Y028278*
X041640Y028272*
X041597Y028263*
X041554Y028251*
X041513Y028235*
X041472Y028218*
X041434Y028197*
X041396Y028173*
X041360Y028148*
X041327Y028119*
X041295Y028089*
X041265Y028056*
X041238Y028021*
X041214Y027984*
X041191Y027946*
X041172Y027907*
X041156Y027866*
X041142Y027824*
X041131Y027781*
X041124Y027737*
X041119Y027694*
X041118Y027650*
X041119Y027605*
X041124Y027562*
X041131Y027518*
X041142Y027475*
X041156Y027433*
X041172Y027392*
X041191Y027353*
X041214Y027315*
X041238Y027278*
X041265Y027243*
X041295Y027210*
X041327Y027180*
X041360Y027151*
X041396Y027126*
X041434Y027102*
X041472Y027081*
X041513Y027064*
X041554Y027048*
X041597Y027036*
X041640Y027027*
X041683Y027021*
X041727Y027018*
X041772*
X041816Y027021*
X041859Y027027*
X041902Y027036*
X041945Y027048*
X041986Y027064*
X042027Y027081*
X042066Y027102*
X042103Y027126*
X042139Y027151*
X042172Y027180*
X042204Y027210*
X042234Y027243*
X042261Y027278*
X042285Y027315*
X042308Y027353*
X042327Y027392*
X042343Y027433*
X042357Y027475*
X042368Y027518*
X042375Y027562*
X042380Y027605*
X042382Y027650*
Y025682D02*
D01*
X042380Y025726*
X042375Y025769*
X042368Y025813*
X042357Y025856*
X042343Y025898*
X042327Y025939*
X042308Y025978*
X042285Y026016*
X042261Y026053*
X042234Y026088*
X042204Y026121*
X042172Y026151*
X042139Y026180*
X042103Y026205*
X042066Y026229*
X042027Y026250*
X041986Y026267*
X041945Y026283*
X041902Y026295*
X041859Y026304*
X041816Y026310*
X041772Y026313*
X041727*
X041683Y026310*
X041640Y026304*
X041597Y026295*
X041554Y026283*
X041513Y026267*
X041472Y026250*
X041434Y026229*
X041396Y026205*
X041360Y026180*
X041327Y026151*
X041295Y026121*
X041265Y026088*
X041238Y026053*
X041214Y026016*
X041191Y025978*
X041172Y025939*
X041156Y025898*
X041142Y025856*
X041131Y025813*
X041124Y025769*
X041119Y025726*
X041118Y025682*
X041119Y025637*
X041124Y025594*
X041131Y025550*
X041142Y025507*
X041156Y025465*
X041172Y025424*
X041191Y025385*
X041214Y025347*
X041238Y025310*
X041265Y025275*
X041295Y025242*
X041327Y025212*
X041360Y025183*
X041396Y025158*
X041434Y025134*
X041472Y025113*
X041513Y025096*
X041554Y025080*
X041597Y025068*
X041640Y025059*
X041683Y025053*
X041727Y025050*
X041772*
X041816Y025053*
X041859Y025059*
X041902Y025068*
X041945Y025080*
X041986Y025096*
X042027Y025113*
X042066Y025134*
X042103Y025158*
X042139Y025183*
X042172Y025212*
X042204Y025242*
X042234Y025275*
X042261Y025310*
X042285Y025347*
X042308Y025385*
X042327Y025424*
X042343Y025465*
X042357Y025507*
X042368Y025550*
X042375Y025594*
X042380Y025637*
X042382Y025682*
X042185Y023300D02*
D01*
X042183Y023330*
X042180Y023360*
X042175Y023390*
X042168Y023419*
X042158Y023448*
X042147Y023476*
X042134Y023504*
X042118Y023530*
X042101Y023555*
X042083Y023579*
X042062Y023602*
X042041Y023623*
X042017Y023642*
X041993Y023660*
X041967Y023676*
X041940Y023690*
X041912Y023703*
X041884Y023713*
X041855Y023722*
X041825Y023728*
X041795Y023732*
X041765Y023734*
X041734*
X041704Y023732*
X041674Y023728*
X041644Y023722*
X041615Y023713*
X041587Y023703*
X041559Y023690*
X041532Y023676*
X041506Y023660*
X041482Y023642*
X041458Y023623*
X041437Y023602*
X041416Y023579*
X041398Y023555*
X041381Y023530*
X041365Y023504*
X041352Y023476*
X041341Y023448*
X041331Y023419*
X041324Y023390*
X041319Y023360*
X041316Y023330*
X041315Y023300*
X041316Y023269*
X041319Y023239*
X041324Y023209*
X041331Y023180*
X041341Y023151*
X041352Y023123*
X041365Y023095*
X041381Y023069*
X041398Y023044*
X041416Y023020*
X041437Y022997*
X041458Y022976*
X041482Y022957*
X041506Y022939*
X041532Y022923*
X041559Y022909*
X041587Y022896*
X041615Y022886*
X041644Y022877*
X041674Y022871*
X041704Y022867*
X041734Y022865*
X041765*
X041795Y022867*
X041825Y022871*
X041855Y022877*
X041884Y022886*
X041912Y022896*
X041940Y022909*
X041967Y022923*
X041993Y022939*
X042017Y022957*
X042041Y022976*
X042062Y022997*
X042083Y023020*
X042101Y023044*
X042118Y023069*
X042134Y023095*
X042147Y023123*
X042158Y023151*
X042168Y023180*
X042175Y023209*
X042180Y023239*
X042183Y023269*
X042185Y023300*
X042149Y022987D02*
D01*
X042139Y022986*
X042129Y022985*
X042119Y022983*
X042110Y022981*
X042101Y022978*
X042092Y022974*
X042083Y022970*
X042074Y022965*
X042066Y022960*
X042059Y022954*
X042051Y022947*
X042044Y022940*
X042038Y022933*
X042032Y022925*
X042027Y022917*
X042023Y022908*
X042019Y022899*
X042015Y022890*
X042013Y022880*
X042011Y022871*
X042009Y022861*
X042009Y022851*
X042009Y022847*
X042149Y021987D02*
D01*
X042139Y021986*
X042129Y021985*
X042119Y021983*
X042110Y021981*
X042101Y021978*
X042092Y021974*
X042083Y021970*
X042074Y021965*
X042066Y021960*
X042059Y021954*
X042051Y021947*
X042044Y021940*
X042038Y021933*
X042032Y021925*
X042027Y021917*
X042023Y021908*
X042019Y021899*
X042015Y021890*
X042013Y021880*
X042011Y021871*
X042009Y021861*
X042009Y021851*
X042009Y021847*
X043391Y020897D02*
D01*
X043390Y020906*
X043389Y020916*
X043387Y020926*
X043385Y020935*
X043382Y020944*
X043378Y020953*
X043374Y020962*
X043369Y020971*
X043364Y020979*
X043358Y020986*
X043351Y020994*
X043344Y021001*
X043337Y021007*
X043329Y021013*
X043321Y021018*
X043312Y021022*
X043303Y021026*
X043294Y021030*
X043284Y021032*
X043275Y021034*
X043265Y021036*
X043255Y021036*
X043251Y021037*
Y021313D02*
D01*
X043260Y021313*
X043270Y021314*
X043280Y021316*
X043289Y021318*
X043298Y021321*
X043307Y021325*
X043316Y021329*
X043325Y021334*
X043333Y021339*
X043340Y021345*
X043348Y021352*
X043355Y021359*
X043361Y021366*
X043367Y021374*
X043372Y021383*
X043376Y021391*
X043380Y021400*
X043384Y021409*
X043386Y021419*
X043388Y021428*
X043390Y021438*
X043390Y021448*
X043391Y021453*
X043251Y020363D02*
D01*
X043260Y020363*
X043270Y020364*
X043280Y020366*
X043289Y020368*
X043298Y020371*
X043307Y020375*
X043316Y020379*
X043325Y020384*
X043333Y020389*
X043340Y020395*
X043348Y020402*
X043355Y020409*
X043361Y020416*
X043367Y020424*
X043372Y020433*
X043376Y020441*
X043380Y020450*
X043384Y020459*
X043386Y020469*
X043388Y020478*
X043390Y020488*
X043390Y020498*
X043391Y020503*
X042700Y021378D02*
D01*
X042705Y021369*
X042711Y021362*
X042718Y021355*
X042725Y021348*
X042732Y021342*
X042740Y021336*
X042749Y021331*
X042757Y021326*
X042766Y021322*
X042775Y021319*
X042785Y021317*
X042794Y021315*
X042804Y021313*
X042814Y021313*
X042818Y021313*
Y021037D02*
D01*
X042808Y021036*
X042798Y021035*
X042788Y021033*
X042779Y021031*
X042770Y021028*
X042761Y021024*
X042752Y021020*
X042743Y021015*
X042735Y021010*
X042728Y021004*
X042720Y020997*
X042713Y020990*
X042707Y020983*
X042701Y020975*
X042700Y020972*
Y020428D02*
D01*
X042705Y020419*
X042711Y020412*
X042718Y020405*
X042725Y020398*
X042732Y020392*
X042740Y020386*
X042749Y020381*
X042757Y020376*
X042766Y020372*
X042775Y020369*
X042785Y020367*
X042794Y020365*
X042804Y020363*
X042814Y020363*
X042818Y020363*
X042700Y020972D02*
D01*
X042694Y020980*
X042688Y020987*
X042681Y020994*
X042674Y021001*
X042667Y021007*
X042659Y021013*
X042650Y021018*
X042642Y021023*
X042633Y021027*
X042624Y021030*
X042614Y021032*
X042605Y021034*
X042595Y021036*
X042585Y021036*
X042582Y021037*
X043391Y019997D02*
D01*
X043390Y020006*
X043389Y020016*
X043387Y020026*
X043385Y020035*
X043382Y020044*
X043378Y020053*
X043374Y020062*
X043369Y020071*
X043364Y020079*
X043358Y020086*
X043351Y020094*
X043344Y020101*
X043337Y020107*
X043329Y020113*
X043321Y020118*
X043312Y020122*
X043303Y020126*
X043294Y020130*
X043284Y020132*
X043275Y020134*
X043265Y020136*
X043255Y020136*
X043251Y020137*
X042818D02*
D01*
X042808Y020136*
X042798Y020135*
X042788Y020133*
X042779Y020131*
X042770Y020128*
X042761Y020124*
X042752Y020120*
X042743Y020115*
X042735Y020110*
X042728Y020104*
X042720Y020097*
X042713Y020090*
X042707Y020083*
X042701Y020075*
X042700Y020072*
X043251Y019463D02*
D01*
X043260Y019463*
X043270Y019464*
X043280Y019466*
X043289Y019468*
X043298Y019471*
X043307Y019475*
X043316Y019479*
X043325Y019484*
X043333Y019489*
X043340Y019495*
X043348Y019502*
X043355Y019509*
X043361Y019516*
X043367Y019524*
X043372Y019533*
X043376Y019541*
X043380Y019550*
X043384Y019559*
X043386Y019569*
X043388Y019578*
X043390Y019588*
X043390Y019598*
X043391Y019603*
X042700Y019528D02*
D01*
X042705Y019519*
X042711Y019512*
X042718Y019505*
X042725Y019498*
X042732Y019492*
X042740Y019486*
X042749Y019481*
X042757Y019476*
X042766Y019472*
X042775Y019469*
X042785Y019467*
X042794Y019465*
X042804Y019463*
X042814Y019463*
X042818Y019463*
X042582Y021313D02*
D01*
X042591Y021313*
X042601Y021314*
X042611Y021316*
X042620Y021318*
X042629Y021321*
X042638Y021325*
X042647Y021329*
X042656Y021334*
X042664Y021339*
X042671Y021345*
X042679Y021352*
X042686Y021359*
X042692Y021366*
X042698Y021374*
X042700Y021378*
X042582Y020363D02*
D01*
X042591Y020363*
X042601Y020364*
X042611Y020366*
X042620Y020368*
X042629Y020371*
X042638Y020375*
X042647Y020379*
X042656Y020384*
X042664Y020389*
X042671Y020395*
X042679Y020402*
X042686Y020409*
X042692Y020416*
X042698Y020424*
X042700Y020428*
Y020072D02*
D01*
X042694Y020080*
X042688Y020087*
X042681Y020094*
X042674Y020101*
X042667Y020107*
X042659Y020113*
X042650Y020118*
X042642Y020123*
X042633Y020127*
X042624Y020130*
X042614Y020132*
X042605Y020134*
X042595Y020136*
X042585Y020136*
X042582Y020137*
X042149Y021037D02*
D01*
X042139Y021036*
X042129Y021035*
X042119Y021033*
X042110Y021031*
X042101Y021028*
X042092Y021024*
X042083Y021020*
X042074Y021015*
X042066Y021010*
X042059Y021004*
X042051Y020997*
X042044Y020990*
X042038Y020983*
X042032Y020975*
X042027Y020967*
X042023Y020958*
X042019Y020949*
X042015Y020940*
X042013Y020930*
X042011Y020921*
X042009Y020911*
X042009Y020901*
X042009Y020897*
Y021453D02*
D01*
X042009Y021443*
X042010Y021433*
X042012Y021423*
X042014Y021414*
X042017Y021405*
X042021Y021396*
X042025Y021387*
X042030Y021378*
X042035Y021370*
X042041Y021363*
X042048Y021355*
X042055Y021348*
X042062Y021342*
X042070Y021336*
X042079Y021331*
X042087Y021327*
X042096Y021323*
X042105Y021319*
X042115Y021317*
X042124Y021315*
X042134Y021313*
X042144Y021313*
X042149Y021313*
X042009Y020503D02*
D01*
X042009Y020493*
X042010Y020483*
X042012Y020473*
X042014Y020464*
X042017Y020455*
X042021Y020446*
X042025Y020437*
X042030Y020428*
X042035Y020420*
X042041Y020413*
X042048Y020405*
X042055Y020398*
X042062Y020392*
X042070Y020386*
X042079Y020381*
X042087Y020377*
X042096Y020373*
X042105Y020369*
X042115Y020367*
X042124Y020365*
X042134Y020363*
X042144Y020363*
X042149Y020363*
Y020137D02*
D01*
X042139Y020136*
X042129Y020135*
X042119Y020133*
X042110Y020131*
X042101Y020128*
X042092Y020124*
X042083Y020120*
X042074Y020115*
X042066Y020110*
X042059Y020104*
X042051Y020097*
X042044Y020090*
X042038Y020083*
X042032Y020075*
X042027Y020067*
X042023Y020058*
X042019Y020049*
X042015Y020040*
X042013Y020030*
X042011Y020021*
X042009Y020011*
X042009Y020001*
X042009Y019997*
X042582Y019463D02*
D01*
X042591Y019463*
X042601Y019464*
X042611Y019466*
X042620Y019468*
X042629Y019471*
X042638Y019475*
X042647Y019479*
X042656Y019484*
X042664Y019489*
X042671Y019495*
X042679Y019502*
X042686Y019509*
X042692Y019516*
X042698Y019524*
X042700Y019528*
X042009Y019603D02*
D01*
X042009Y019593*
X042010Y019583*
X042012Y019573*
X042014Y019564*
X042017Y019555*
X042021Y019546*
X042025Y019537*
X042030Y019528*
X042035Y019520*
X042041Y019513*
X042048Y019505*
X042055Y019498*
X042062Y019492*
X042070Y019486*
X042079Y019481*
X042087Y019477*
X042096Y019473*
X042105Y019469*
X042115Y019467*
X042124Y019465*
X042134Y019463*
X042144Y019463*
X042149Y019463*
X042655Y018369D02*
D01*
X042652Y018433*
X042645Y018498*
X042634Y018561*
X042619Y018624*
X042599Y018686*
X042574Y018746*
X042546Y018804*
X042514Y018860*
X042477Y018913*
X042438Y018964*
X042394Y019012*
X042348Y019057*
X042298Y019099*
X042246Y019137*
X042191Y019171*
X042134Y019202*
X042075Y019228*
X042014Y019250*
X041952Y019268*
X041888Y019281*
X041824Y019290*
X041760Y019295*
X041695*
X041631Y019290*
X041567Y019281*
X041503Y019268*
X041441Y019250*
X041380Y019228*
X041321Y019202*
X041264Y019171*
X041209Y019137*
X041157Y019099*
X041107Y019057*
X041061Y019012*
X041017Y018964*
X040978Y018913*
X040941Y018860*
X040909Y018804*
X040881Y018746*
X040856Y018686*
X040836Y018624*
X040821Y018561*
X040810Y018498*
X040803Y018433*
X040801Y018369*
X040803Y018304*
X040810Y018239*
X040821Y018176*
X040836Y018113*
X040856Y018051*
X040881Y017991*
X040909Y017933*
X040941Y017877*
X040978Y017824*
X041017Y017773*
X041061Y017725*
X041107Y017680*
X041157Y017638*
X041209Y017600*
X041264Y017566*
X041321Y017535*
X041380Y017509*
X041441Y017487*
X041503Y017469*
X041567Y017456*
X041631Y017447*
X041695Y017442*
X041760*
X041824Y017447*
X041888Y017456*
X041952Y017469*
X042014Y017487*
X042075Y017509*
X042134Y017535*
X042191Y017566*
X042246Y017600*
X042298Y017638*
X042348Y017680*
X042394Y017725*
X042438Y017773*
X042477Y017824*
X042514Y017877*
X042546Y017933*
X042574Y017991*
X042599Y018051*
X042619Y018113*
X042634Y018176*
X042645Y018239*
X042652Y018304*
X042655Y018369*
X038890Y026400D02*
D01*
X038889Y026420*
X038887Y026440*
X038883Y026460*
X038878Y026479*
X038872Y026499*
X038864Y026517*
X038856Y026536*
X038845Y026553*
X038840Y026563*
X038890Y026400D02*
D01*
X038889Y026420*
X038887Y026440*
X038883Y026460*
X038878Y026479*
X038872Y026499*
X038864Y026517*
X038856Y026536*
X038845Y026553*
X038840Y026563*
X038890Y026400D02*
D01*
X038889Y026420*
X038887Y026440*
X038883Y026460*
X038878Y026479*
X038872Y026499*
X038864Y026517*
X038856Y026536*
X038845Y026553*
X038840Y026563*
X041185Y023595D02*
D01*
X041184Y023604*
X041183Y023614*
X041181Y023624*
X041179Y023633*
X041176Y023642*
X041172Y023651*
X041168Y023660*
X041163Y023669*
X041158Y023677*
X041152Y023684*
X041145Y023692*
X041138Y023699*
X041131Y023705*
X041123Y023711*
X041115Y023716*
X041106Y023720*
X041097Y023724*
X041088Y023728*
X041078Y023730*
X041069Y023732*
X041059Y023734*
X041049Y023734*
X041045Y023735*
X040455D02*
D01*
X040445Y023734*
X040435Y023733*
X040425Y023731*
X040416Y023729*
X040407Y023726*
X040398Y023722*
X040389Y023718*
X040380Y023713*
X040372Y023708*
X040365Y023702*
X040357Y023695*
X040350Y023688*
X040344Y023681*
X040338Y023673*
X040333Y023665*
X040329Y023656*
X040325Y023647*
X040321Y023638*
X040319Y023628*
X040317Y023619*
X040315Y023609*
X040315Y023599*
X040315Y023595*
X038260Y026450D02*
D01*
X038260Y026429*
X038262Y026409*
X038266Y026389*
X038271Y026370*
X038277Y026350*
X038285Y026332*
X038293Y026313*
X038304Y026296*
X038310Y026287*
Y024100D02*
D01*
X038310Y024079*
X038312Y024059*
X038316Y024039*
X038321Y024020*
X038327Y024000*
X038335Y023982*
X038343Y023963*
X038354Y023946*
X038365Y023929*
X038377Y023913*
X038391Y023898*
X038395Y023895*
X038310Y024100D02*
D01*
X038310Y024079*
X038312Y024059*
X038316Y024039*
X038321Y024020*
X038327Y024000*
X038335Y023982*
X038343Y023963*
X038354Y023946*
X038365Y023929*
X038377Y023913*
X038391Y023898*
X038395Y023895*
X038260Y026450D02*
D01*
X038260Y026429*
X038262Y026409*
X038266Y026389*
X038271Y026370*
X038277Y026350*
X038285Y026332*
X038293Y026313*
X038304Y026296*
X038310Y026287*
X036090Y025850D02*
D01*
X036089Y025863*
X036088Y025876*
X036085Y025889*
X036082Y025902*
X036078Y025914*
X036073Y025927*
X036067Y025939*
X036061Y025950*
X036053Y025961*
X036045Y025972*
X036036Y025981*
X036034Y025984*
X036090Y025850D02*
D01*
X036089Y025863*
X036088Y025876*
X036085Y025889*
X036082Y025902*
X036078Y025914*
X036073Y025927*
X036067Y025939*
X036061Y025950*
X036053Y025961*
X036045Y025972*
X036036Y025981*
X036034Y025985*
X036537Y023382D02*
D01*
X036539Y023402*
X036540Y023422*
X036540Y023425*
D01*
X036539Y023445*
X036537Y023465*
X036533Y023485*
X036528Y023504*
X036522Y023524*
X036514Y023542*
X036506Y023561*
X036495Y023578*
X036484Y023595*
X036472Y023611*
X036458Y023626*
X036444Y023640*
X036428Y023653*
X036412Y023665*
X036395Y023676*
X036377Y023685*
X036358Y023693*
X036339Y023700*
X036320Y023706*
X036300Y023710*
X036280Y023713*
X036260Y023714*
X036239*
X036219Y023713*
X036199Y023710*
X036179Y023706*
X036160Y023700*
X036141Y023693*
X036122Y023685*
X036105Y023676*
X036090Y023667*
X041045Y022865D02*
D01*
X041054Y022865*
X041064Y022866*
X041074Y022868*
X041083Y022870*
X041092Y022873*
X041101Y022877*
X041110Y022881*
X041119Y022886*
X041127Y022891*
X041134Y022897*
X041142Y022904*
X041149Y022911*
X041155Y022918*
X041161Y022926*
X041166Y022935*
X041170Y022943*
X041174Y022952*
X041178Y022961*
X041180Y022971*
X041182Y022980*
X041184Y022990*
X041184Y023000*
X041185Y023005*
X041900Y020890D02*
D01*
X041886Y020889*
X041873Y020888*
X041860Y020885*
X041847Y020882*
X041835Y020878*
X041822Y020873*
X041810Y020867*
X041799Y020861*
X041788Y020853*
X041777Y020845*
X041768Y020836*
X041766Y020834*
X040315Y023005D02*
D01*
X040315Y022995*
X040316Y022985*
X040318Y022975*
X040320Y022966*
X040323Y022957*
X040327Y022948*
X040331Y022939*
X040336Y022930*
X040341Y022922*
X040347Y022915*
X040354Y022907*
X040361Y022900*
X040368Y022894*
X040376Y022888*
X040385Y022883*
X040393Y022879*
X040402Y022875*
X040411Y022871*
X040421Y022869*
X040430Y022867*
X040440Y022865*
X040450Y022865*
X040455Y022865*
X040790Y022200D02*
D01*
X040789Y022220*
X040787Y022240*
X040783Y022260*
X040778Y022279*
X040772Y022299*
X040764Y022317*
X040756Y022336*
X040745Y022353*
X040734Y022370*
X040722Y022386*
X040708Y022401*
X040705Y022405*
X040790Y022200D02*
D01*
X040789Y022220*
X040787Y022240*
X040783Y022260*
X040778Y022279*
X040772Y022299*
X040764Y022317*
X040756Y022336*
X040745Y022353*
X040734Y022370*
X040722Y022386*
X040708Y022401*
X040705Y022405*
X040742Y022040D02*
D01*
X040752Y022057*
X040761Y022075*
X040769Y022093*
X040776Y022112*
X040782Y022132*
X040786Y022152*
X040788Y022172*
X040790Y022192*
X040790Y022200*
X040742Y022040D02*
D01*
X040752Y022057*
X040761Y022075*
X040769Y022093*
X040776Y022112*
X040782Y022132*
X040786Y022152*
X040788Y022172*
X040790Y022192*
X040790Y022200*
X041900Y020890D02*
D01*
X041886Y020889*
X041873Y020888*
X041860Y020885*
X041847Y020882*
X041835Y020878*
X041822Y020873*
X041810Y020867*
X041799Y020861*
X041788Y020853*
X041777Y020845*
X041768Y020836*
X041765Y020834*
X041671Y020739D02*
D01*
X041650Y020739*
X041630Y020739*
X041610Y020737*
X041590Y020733*
X041570Y020728*
X041551Y020722*
X041532Y020715*
X041514Y020706*
X041497Y020696*
X041480Y020684*
X041464Y020672*
X041449Y020658*
X041435Y020644*
X041422Y020629*
X041410Y020612*
X041399Y020595*
X041389Y020577*
X041381Y020559*
X041374Y020540*
X041369Y020520*
X041364Y020501*
X041361Y020481*
X041360Y020460*
X041360Y020440*
X041361Y020420*
X041364Y020400*
X041368Y020380*
X041374Y020361*
X041381Y020342*
X041389Y020323*
X041398Y020305*
X041409Y020288*
X041421Y020272*
X041434Y020256*
X041448Y020242*
X041463Y020228*
X041479Y020216*
X041495Y020204*
X041513Y020194*
X041531Y020185*
X041550Y020177*
X041569Y020171*
X041588Y020166*
X041608Y020163*
X041629Y020161*
X041649Y020160*
X041669Y020160*
X041689Y020162*
X041709Y020166*
X041729Y020171*
X041748Y020177*
X041767Y020184*
X041785Y020193*
X041802Y020203*
X041819Y020215*
X041835Y020227*
X041850Y020241*
X041864Y020255*
X041877Y020270*
X041889Y020287*
X041900Y020304*
X041910Y020322*
X041918Y020340*
X041925Y020359*
X041930Y020379*
X041935Y020398*
X041938Y020418*
X041939Y020439*
X041940Y020450*
X041869Y019990D02*
D01*
X041855Y020004*
X041840Y020018*
X041824Y020031*
X041808Y020043*
X041790Y020053*
X041772Y020062*
X041754Y020070*
X041735Y020077*
X041715Y020082*
X041695Y020086*
X041675Y020088*
X041655Y020089*
X041635Y020089*
X041614Y020087*
X041594Y020084*
X041575Y020080*
X041555Y020074*
X041536Y020066*
X041518Y020058*
X041500Y020048*
X041483Y020037*
X041467Y020025*
X041452Y020012*
X041438Y019997*
X041424Y019982*
X041412Y019966*
X041401Y019949*
X041391Y019931*
X041383Y019913*
X041375Y019894*
X041370Y019875*
X041365Y019855*
X041362Y019835*
X041360Y019815*
X041360Y019795*
X041361Y019775*
X041363Y019754*
X041367Y019735*
X041372Y019715*
X041379Y019696*
X041387Y019677*
X041396Y019659*
X041406Y019642*
X041418Y019625*
X041431Y019610*
X041444Y019595*
X041459Y019581*
X041475Y019568*
X041491Y019556*
X041509Y019546*
X041527Y019537*
X041545Y019529*
X041564Y019522*
X041584Y019517*
X041604Y019513*
X041624Y019511*
X041644Y019510*
X041664Y019510*
X041685Y019512*
X041705Y019515*
X041724Y019519*
X041744Y019525*
X041763Y019533*
X041781Y019541*
X041799Y019551*
X041816Y019562*
X041832Y019574*
X041847Y019587*
X041861Y019602*
X041869Y019610*
X036460Y021750D02*
D01*
X036473Y021765*
X036485Y021781*
X036496Y021798*
X036506Y021815*
X036515Y021833*
X036523Y021852*
X036529Y021871*
X036534Y021891*
X036537Y021911*
X036539Y021931*
X036540Y021950*
D01*
X036539Y021970*
X036537Y021990*
X036533Y022010*
X036528Y022029*
X036522Y022049*
X036514Y022067*
X036506Y022086*
X036495Y022103*
X036484Y022120*
X036472Y022136*
X036458Y022151*
X036444Y022165*
X036428Y022178*
X036412Y022190*
X036395Y022201*
X036377Y022210*
X036358Y022218*
X036339Y022225*
X036320Y022231*
X036300Y022235*
X036280Y022238*
X036260Y022239*
X036239*
X036229Y022239*
X037416Y021516D02*
D01*
X037425Y021506*
X037435Y021498*
X037446Y021491*
X037458Y021484*
X037469Y021478*
X037482Y021473*
X037494Y021468*
X037507Y021465*
X037520Y021462*
X037533Y021461*
X037546Y021460*
X037550Y021460*
X036540Y021550D02*
D01*
X036539Y021570*
X036537Y021590*
X036533Y021610*
X036528Y021629*
X036522Y021649*
X036514Y021667*
X036506Y021686*
X036495Y021703*
X036484Y021720*
X036472Y021736*
X036460Y021750*
X037415Y021516D02*
D01*
X037424Y021506*
X037434Y021498*
X037445Y021490*
X037457Y021483*
X037468Y021477*
X037481Y021472*
X037493Y021468*
X037506Y021464*
X037519Y021462*
X037532Y021460*
X037545Y021459*
X037550Y021460*
X036331Y021272D02*
D01*
X036350Y021278*
X036368Y021285*
X036387Y021294*
X036404Y021305*
X036421Y021316*
X036437Y021328*
X036452Y021342*
X036466Y021357*
X036478Y021372*
X036490Y021389*
X036501Y021406*
X036510Y021424*
X036518Y021442*
X036525Y021461*
X036531Y021481*
X036535Y021500*
X036538Y021520*
X036539Y021541*
X036540Y021550*
X036090Y022708D02*
D01*
X036107Y022697*
X036125Y022688*
X036143Y022680*
X036162Y022673*
X036182Y022667*
X036202Y022663*
X036222Y022661*
X036242Y022659*
X036262Y022660*
X036271Y022661*
X036115Y020917D02*
D01*
X036134Y020922*
X036153Y020928*
X036172Y020936*
X036190Y020945*
X036207Y020956*
X036224Y020967*
X036240Y020980*
X036255Y020994*
X036268Y021009*
X036281Y021024*
X036293Y021041*
X036303Y021058*
X036313Y021076*
X036320Y021095*
X036327Y021114*
X036332Y021134*
X036336Y021154*
X036339Y021174*
X036340Y021194*
X036340Y021200*
D01*
X036339Y021220*
X036337Y021240*
X036333Y021260*
X036331Y021272*
X036033Y020575D02*
D01*
X036048Y020588*
X036062Y020602*
X036075Y020617*
X036087Y020634*
X036098Y020651*
X036108Y020668*
X036117Y020687*
X036124Y020706*
X036130Y020725*
X036134Y020745*
X036137Y020765*
X036139Y020785*
X036140Y020800*
D01*
X036139Y020820*
X036137Y020840*
X036133Y020860*
X036128Y020879*
X036122Y020899*
X036115Y020917*
X036033Y020125D02*
D01*
X036048Y020138*
X036062Y020152*
X036075Y020167*
X036087Y020184*
X036098Y020201*
X036108Y020218*
X036117Y020237*
X036124Y020256*
X036130Y020275*
X036134Y020295*
X036137Y020315*
X036139Y020335*
X036140Y020350*
D01*
X036139Y020370*
X036137Y020390*
X036133Y020410*
X036128Y020429*
X036122Y020449*
X036114Y020467*
X036106Y020486*
X036095Y020503*
X036084Y020520*
X036072Y020536*
X036058Y020551*
X036044Y020565*
X036033Y020575*
X035561Y020371D02*
D01*
X035560Y020350*
X035560Y020330*
X035562Y020310*
X035566Y020290*
X035571Y020270*
X035577Y020251*
X035584Y020232*
X035593Y020214*
X035603Y020197*
X035615Y020180*
X035627Y020164*
X035641Y020149*
X035655Y020135*
X035667Y020125*
X036140Y019900D02*
D01*
X036139Y019920*
X036137Y019940*
X036133Y019960*
X036128Y019979*
X036122Y019999*
X036114Y020017*
X036106Y020036*
X036095Y020053*
X036084Y020070*
X036072Y020086*
X036058Y020101*
X036044Y020115*
X036033Y020125*
X035667D02*
D01*
X035651Y020111*
X035637Y020097*
X035631Y020090*
Y019710D02*
D01*
X035644Y019695*
X035659Y019681*
X035675Y019668*
X035691Y019656*
X035709Y019646*
X035727Y019637*
X035745Y019629*
X035764Y019622*
X035784Y019617*
X035804Y019613*
X035824Y019611*
X035844Y019610*
X035864Y019610*
X035885Y019612*
X035905Y019615*
X035924Y019619*
X035944Y019625*
X035963Y019633*
X035981Y019641*
X035999Y019651*
X036016Y019662*
X036032Y019674*
X036047Y019687*
X036061Y019702*
X036075Y019717*
X036087Y019733*
X036098Y019750*
X036108Y019768*
X036116Y019786*
X036124Y019805*
X036129Y019824*
X036134Y019844*
X036137Y019864*
X036139Y019884*
X036140Y019900*
X036216Y042450D02*
D01*
X036214Y042479*
X036211Y042507*
X036206Y042536*
X036199Y042564*
X036190Y042592*
X036180Y042619*
X036167Y042645*
X036152Y042670*
X036136Y042694*
X036118Y042717*
X036099Y042738*
X036078Y042759*
X036056Y042777*
X036032Y042794*
X036008Y042810*
X035982Y042823*
X035955Y042835*
X035928Y042845*
X035900Y042853*
X035872Y042859*
X035843Y042863*
X035814Y042865*
X035785*
X035756Y042863*
X035727Y042859*
X035699Y042853*
X035671Y042845*
X035644Y042835*
X035617Y042823*
X035592Y042810*
X035567Y042794*
X035543Y042777*
X035521Y042759*
X035500Y042738*
X035481Y042717*
X035463Y042694*
X035447Y042670*
X035432Y042645*
X035419Y042619*
X035409Y042592*
X035400Y042564*
X035393Y042536*
X035388Y042507*
X035385Y042479*
X035384Y042450*
X035385Y042420*
X035388Y042392*
X035393Y042363*
X035400Y042335*
X035409Y042307*
X035410Y042306*
X035225Y044000D02*
D01*
X035223Y044037*
X035219Y044074*
X035213Y044111*
X035204Y044147*
X035192Y044182*
X035178Y044217*
X035162Y044250*
X035143Y044282*
X035123Y044313*
X035100Y044343*
X035075Y044370*
X035048Y044396*
X035019Y044420*
X034989Y044442*
X034958Y044462*
X034925Y044479*
X034891Y044495*
X034856Y044507*
X034820Y044518*
X034783Y044525*
X034746Y044531*
X034709Y044533*
X034672*
X034635Y044531*
X034598Y044525*
X034561Y044518*
X034525Y044507*
X034490Y044495*
X034456Y044479*
X034424Y044462*
X034392Y044442*
X034362Y044420*
X034333Y044396*
X034306Y044370*
X034281Y044343*
X034258Y044313*
X034238Y044282*
X034219Y044250*
X034203Y044217*
X034189Y044182*
X034177Y044147*
X034168Y044111*
X034162Y044074*
X034158Y044037*
X034157Y044000*
X034158Y043962*
X034162Y043925*
X034168Y043888*
X034177Y043852*
X034189Y043817*
X034203Y043782*
X034219Y043749*
X034238Y043717*
X034258Y043686*
X034281Y043656*
X034306Y043629*
X034333Y043603*
X034362Y043579*
X034392Y043557*
X034424Y043537*
X034456Y043520*
X034490Y043504*
X034525Y043492*
X034561Y043481*
X034598Y043474*
X034635Y043468*
X034672Y043466*
X034709*
X034746Y043468*
X034783Y043474*
X034820Y043481*
X034856Y043492*
X034891Y043504*
X034925Y043520*
X034958Y043537*
X034989Y043557*
X035019Y043579*
X035048Y043603*
X035075Y043629*
X035100Y043656*
X035123Y043686*
X035143Y043717*
X035162Y043749*
X035178Y043782*
X035192Y043817*
X035204Y043852*
X035213Y043888*
X035219Y043925*
X035223Y043962*
X035225Y044000*
X034650Y037990D02*
D01*
X034622Y037989*
X034595Y037986*
X034568Y037981*
X034542Y037974*
X034516Y037966*
X034491Y037956*
X034466Y037944*
X034443Y037930*
X034420Y037915*
X034399Y037898*
X034379Y037880*
X034374Y037876*
X034650Y037990D02*
D01*
X034622Y037989*
X034595Y037986*
X034568Y037981*
X034542Y037974*
X034516Y037966*
X034491Y037956*
X034466Y037944*
X034443Y037930*
X034420Y037915*
X034399Y037898*
X034379Y037880*
X034374Y037876*
X033785Y038145D02*
D01*
X033784Y038154*
X033783Y038164*
X033781Y038174*
X033779Y038183*
X033776Y038192*
X033772Y038201*
X033768Y038210*
X033763Y038219*
X033758Y038227*
X033752Y038234*
X033745Y038242*
X033738Y038249*
X033731Y038255*
X033723Y038261*
X033715Y038266*
X033706Y038270*
X033697Y038274*
X033688Y038278*
X033678Y038280*
X033669Y038282*
X033659Y038284*
X033649Y038284*
X033645Y038285*
Y037415D02*
D01*
X033654Y037415*
X033664Y037416*
X033674Y037418*
X033683Y037420*
X033692Y037423*
X033701Y037427*
X033710Y037431*
X033719Y037436*
X033727Y037441*
X033734Y037447*
X033742Y037454*
X033749Y037461*
X033755Y037468*
X033761Y037476*
X033766Y037485*
X033770Y037493*
X033774Y037502*
X033778Y037511*
X033780Y037521*
X033782Y037530*
X033784Y037540*
X033784Y037550*
X033785Y037555*
Y038850D02*
D01*
X033783Y038880*
X033780Y038910*
X033775Y038940*
X033768Y038969*
X033758Y038998*
X033747Y039026*
X033734Y039054*
X033718Y039080*
X033701Y039105*
X033683Y039129*
X033662Y039152*
X033641Y039173*
X033617Y039192*
X033593Y039210*
X033567Y039226*
X033540Y039240*
X033512Y039253*
X033484Y039263*
X033455Y039272*
X033425Y039278*
X033395Y039282*
X033365Y039284*
X033334*
X033304Y039282*
X033274Y039278*
X033244Y039272*
X033215Y039263*
X033187Y039253*
X033159Y039240*
X033132Y039226*
X033106Y039210*
X033082Y039192*
X033058Y039173*
X033037Y039152*
X033016Y039129*
X032998Y039105*
X032981Y039080*
X032965Y039054*
X032952Y039026*
X032941Y038998*
X032931Y038969*
X032924Y038940*
X032919Y038910*
X032916Y038880*
X032915Y038850*
X032916Y038819*
X032919Y038789*
X032924Y038759*
X032931Y038730*
X032941Y038701*
X032952Y038673*
X032965Y038645*
X032981Y038619*
X032998Y038594*
X033016Y038570*
X033037Y038547*
X033058Y038526*
X033082Y038507*
X033106Y038489*
X033132Y038473*
X033159Y038459*
X033187Y038446*
X033215Y038436*
X033244Y038427*
X033274Y038421*
X033304Y038417*
X033334Y038415*
X033365*
X033395Y038417*
X033425Y038421*
X033455Y038427*
X033484Y038436*
X033512Y038446*
X033540Y038459*
X033567Y038473*
X033593Y038489*
X033617Y038507*
X033641Y038526*
X033662Y038547*
X033683Y038570*
X033701Y038594*
X033718Y038619*
X033734Y038645*
X033747Y038673*
X033758Y038701*
X033768Y038730*
X033775Y038759*
X033780Y038789*
X033783Y038819*
X033785Y038850*
X035600Y035890D02*
D01*
X035579Y035889*
X035559Y035887*
X035539Y035883*
X035520Y035878*
X035500Y035872*
X035482Y035864*
X035463Y035856*
X035446Y035845*
X035429Y035834*
X035413Y035822*
X035398Y035808*
X035384Y035794*
X035371Y035778*
X035359Y035762*
X035348Y035745*
X035339Y035727*
X035331Y035708*
X035324Y035689*
X035318Y035670*
X035314Y035650*
X035311Y035630*
X035310Y035610*
Y035589*
X035311Y035569*
X035314Y035549*
X035318Y035529*
X035324Y035510*
X035331Y035491*
X035339Y035472*
X035348Y035455*
X035359Y035437*
X035371Y035421*
X035384Y035405*
X035398Y035391*
X035413Y035377*
X035429Y035365*
X035446Y035354*
X035463Y035343*
X035482Y035335*
X035500Y035327*
X035520Y035321*
X035539Y035316*
X035559Y035312*
X035579Y035310*
X035600Y035310*
Y035890D02*
D01*
X035579Y035889*
X035559Y035887*
X035539Y035883*
X035520Y035878*
X035500Y035872*
X035482Y035864*
X035463Y035856*
X035446Y035845*
X035429Y035834*
X035413Y035822*
X035398Y035808*
X035384Y035794*
X035371Y035778*
X035359Y035762*
X035348Y035745*
X035339Y035727*
X035331Y035708*
X035324Y035689*
X035318Y035670*
X035314Y035650*
X035311Y035630*
X035310Y035610*
Y035589*
X035311Y035569*
X035314Y035549*
X035318Y035529*
X035324Y035510*
X035331Y035491*
X035339Y035472*
X035348Y035455*
X035359Y035437*
X035371Y035421*
X035384Y035405*
X035398Y035391*
X035413Y035377*
X035429Y035365*
X035446Y035354*
X035463Y035343*
X035482Y035335*
X035500Y035327*
X035520Y035321*
X035539Y035316*
X035559Y035312*
X035579Y035310*
X035600Y035310*
X034929Y036461D02*
D01*
X034949Y036460*
X034969Y036460*
X034989Y036462*
X035009Y036466*
X035029Y036471*
X035048Y036477*
X035067Y036484*
X035085Y036493*
X035102Y036503*
X035119Y036515*
X035135Y036527*
X035150Y036541*
X035164Y036555*
X035177Y036570*
X035189Y036587*
X035200Y036604*
X035210Y036622*
X035218Y036640*
X035225Y036659*
X035230Y036679*
X035235Y036698*
X035238Y036718*
X035239Y036739*
X035240Y036750*
D01*
X035239Y036770*
X035237Y036790*
X035233Y036810*
X035228Y036829*
X035222Y036849*
X035214Y036867*
X035206Y036886*
X035195Y036903*
X035184Y036920*
X035172Y036936*
X035158Y036951*
X035144Y036965*
X035128Y036978*
X035112Y036990*
X035095Y037001*
X035077Y037010*
X035058Y037018*
X035039Y037025*
X035020Y037031*
X035000Y037035*
X034980Y037038*
X034960Y037039*
X034939*
X034919Y037038*
X034899Y037035*
X034879Y037031*
X034860Y037025*
X034841Y037018*
X034822Y037010*
X034805Y037001*
X034787Y036990*
X034771Y036978*
X034755Y036965*
X034741Y036951*
X034727Y036936*
X034715Y036920*
X034704Y036903*
X034693Y036886*
X034685Y036867*
X034677Y036849*
X034671Y036829*
X034666Y036810*
X034662Y036790*
X034660Y036770*
X034660Y036750*
X034660Y036729*
X034661Y036729*
X035290Y032900D02*
D01*
X035289Y032920*
X035287Y032940*
X035283Y032960*
X035278Y032979*
X035272Y032999*
X035264Y033017*
X035256Y033036*
X035245Y033053*
X035234Y033070*
X035222Y033086*
X035208Y033101*
X035194Y033115*
X035178Y033128*
X035162Y033140*
X035145Y033151*
X035127Y033160*
X035108Y033168*
X035089Y033175*
X035070Y033181*
X035050Y033185*
X035030Y033188*
X035010Y033189*
X034989*
X034969Y033188*
X034949Y033185*
X034929Y033181*
X034910Y033175*
X034891Y033168*
X034872Y033160*
X034855Y033151*
X034837Y033140*
X034821Y033128*
X034805Y033115*
X034791Y033101*
X034777Y033086*
X034765Y033070*
X034754Y033053*
X034743Y033036*
X034735Y033017*
X034727Y032999*
X034721Y032979*
X034716Y032960*
X034712Y032940*
X034710Y032920*
X034710Y032900*
X034710Y032879*
X034711Y032879*
X035540Y031731D02*
D01*
X035554Y031744*
X035568Y031759*
X035581Y031775*
X035593Y031791*
X035603Y031809*
X035612Y031827*
X035620Y031845*
X035627Y031864*
X035632Y031884*
X035636Y031904*
X035638Y031924*
X035639Y031944*
X035640Y031950*
X035242Y032740D02*
D01*
X035252Y032757*
X035261Y032775*
X035269Y032793*
X035276Y032812*
X035282Y032832*
X035286Y032852*
X035288Y032872*
X035290Y032892*
X035290Y032900*
X034316Y036385D02*
D01*
X034306Y036375*
X034298Y036365*
X034290Y036354*
X034283Y036342*
X034277Y036331*
X034272Y036318*
X034268Y036306*
X034264Y036293*
X034262Y036280*
X034260Y036267*
X034259Y036254*
X034260Y036250*
X034316Y036384D02*
D01*
X034306Y036374*
X034298Y036364*
X034291Y036353*
X034284Y036341*
X034278Y036330*
X034273Y036317*
X034268Y036305*
X034265Y036292*
X034262Y036279*
X034261Y036266*
X034260Y036253*
X034260Y036250*
X033750Y036310D02*
D01*
X033777Y036310*
X033804Y036313*
X033831Y036318*
X033857Y036325*
X033883Y036333*
X033908Y036343*
X033933Y036355*
X033956Y036369*
X033979Y036384*
X034000Y036401*
X034020Y036419*
X034026Y036424*
X033750Y036310D02*
D01*
X033777Y036310*
X033804Y036313*
X033831Y036318*
X033857Y036325*
X033883Y036333*
X033908Y036343*
X033933Y036355*
X033956Y036369*
X033979Y036384*
X034000Y036401*
X034020Y036419*
X034026Y036424*
X033785Y035100D02*
D01*
X033783Y035130*
X033780Y035160*
X033775Y035190*
X033768Y035219*
X033758Y035248*
X033747Y035276*
X033734Y035304*
X033718Y035330*
X033701Y035355*
X033683Y035379*
X033662Y035402*
X033641Y035423*
X033617Y035442*
X033593Y035460*
X033567Y035476*
X033540Y035490*
X033512Y035503*
X033484Y035513*
X033455Y035522*
X033425Y035528*
X033395Y035532*
X033365Y035534*
X033334*
X033304Y035532*
X033274Y035528*
X033244Y035522*
X033215Y035513*
X033187Y035503*
X033159Y035490*
X033132Y035476*
X033106Y035460*
X033082Y035442*
X033058Y035423*
X033037Y035402*
X033016Y035379*
X032998Y035355*
X032981Y035330*
X032965Y035304*
X032952Y035276*
X032941Y035248*
X032940Y035246*
X033785Y034395D02*
D01*
X033784Y034404*
X033783Y034414*
X033781Y034424*
X033779Y034433*
X033776Y034442*
X033772Y034451*
X033768Y034460*
X033763Y034469*
X033758Y034477*
X033752Y034484*
X033745Y034492*
X033738Y034499*
X033731Y034505*
X033723Y034511*
X033715Y034516*
X033706Y034520*
X033697Y034524*
X033688Y034528*
X033678Y034530*
X033669Y034532*
X033659Y034534*
X033649Y034534*
X033645Y034535*
X032940Y034954D02*
D01*
X032951Y034925*
X032964Y034898*
X032979Y034871*
X032996Y034846*
X033014Y034822*
X033034Y034799*
X033056Y034778*
X033079Y034758*
X033104Y034740*
X033129Y034724*
X033156Y034710*
X033184Y034697*
X033212Y034687*
X033241Y034678*
X033271Y034671*
X033301Y034667*
X033331Y034665*
X033362Y034664*
X033392Y034666*
X033422Y034670*
X033452Y034676*
X033481Y034685*
X033510Y034695*
X033538Y034707*
X033564Y034721*
X033590Y034737*
X033615Y034755*
X033638Y034774*
X033660Y034795*
X033681Y034817*
X033700Y034841*
X033717Y034866*
X033732Y034893*
X033746Y034920*
X033757Y034948*
X033767Y034977*
X033775Y035006*
X033780Y035036*
X033783Y035066*
X033785Y035096*
X033785Y035100*
X034260Y032056D02*
D01*
X034237Y032076*
X034214Y032096*
X034189Y032113*
X034163Y032129*
X034136Y032143*
X034108Y032155*
X034080Y032165*
X034050Y032173*
X034020Y032179*
X033990Y032183*
X033960Y032185*
X033930Y032185*
X033899Y032182*
X033869Y032178*
X033839Y032171*
X033810Y032162*
X033782Y032152*
X033754Y032139*
X033728Y032124*
X033702Y032108*
X033695Y032103*
X033645Y033665D02*
D01*
X033654Y033665*
X033664Y033666*
X033674Y033668*
X033683Y033670*
X033692Y033673*
X033701Y033677*
X033710Y033681*
X033719Y033686*
X033727Y033691*
X033734Y033697*
X033742Y033704*
X033749Y033711*
X033755Y033718*
X033761Y033726*
X033766Y033735*
X033770Y033743*
X033774Y033752*
X033778Y033761*
X033780Y033771*
X033782Y033780*
X033784Y033790*
X033784Y033800*
X033785Y033805*
X033695Y032544D02*
D01*
X033694Y032571*
X033691Y032598*
X033686Y032625*
X033679Y032651*
X033671Y032677*
X033661Y032702*
X033649Y032727*
X033635Y032750*
X033620Y032773*
X033603Y032794*
X033585Y032814*
X033581Y032820*
X033695Y032544D02*
D01*
X033694Y032571*
X033691Y032598*
X033686Y032625*
X033679Y032651*
X033671Y032677*
X033661Y032702*
X033649Y032727*
X033635Y032750*
X033620Y032773*
X033603Y032794*
X033585Y032814*
X033581Y032820*
X033695Y030397D02*
D01*
X033720Y030380*
X033746Y030364*
X033773Y030351*
X033802Y030340*
X033831Y030331*
X033860Y030323*
X033890Y030318*
X033920Y030315*
X033951Y030314*
X033981Y030315*
X034011Y030318*
X034041Y030324*
X034071Y030331*
X034100Y030341*
X034128Y030352*
X034155Y030366*
X034181Y030381*
X034206Y030398*
X034230Y030417*
X034253Y030437*
X034260Y030444*
X033100Y040340D02*
D01*
X033072Y040339*
X033045Y040336*
X033018Y040331*
X032992Y040324*
X032966Y040316*
X032941Y040306*
X032916Y040294*
X032893Y040280*
X032870Y040265*
X032849Y040248*
X032829Y040230*
X032824Y040226*
X033252Y041086D02*
D01*
X033250Y041136*
X033244Y041187*
X033236Y041237*
X033223Y041287*
X033207Y041336*
X033188Y041383*
X033166Y041429*
X033140Y041473*
X033112Y041515*
X033080Y041555*
X033046Y041593*
X033010Y041629*
X032971Y041662*
X032929Y041692*
X032886Y041719*
X032841Y041743*
X032794Y041763*
X032746Y041781*
X032697Y041795*
X032647Y041805*
X032597Y041812*
X032546Y041816*
X032495*
X032444Y041812*
X032394Y041805*
X032344Y041795*
X032295Y041781*
X032247Y041763*
X032200Y041743*
X032155Y041719*
X032112Y041692*
X032070Y041662*
X032031Y041629*
X031995Y041593*
X031961Y041555*
X031929Y041515*
X031901Y041473*
X031875Y041429*
X031853Y041383*
X031834Y041336*
X031818Y041287*
X031805Y041237*
X031797Y041187*
X031791Y041136*
X031790Y041086*
X031791Y041035*
X031797Y040984*
X031805Y040934*
X031818Y040884*
X031834Y040835*
X031853Y040788*
X031875Y040742*
X031901Y040698*
X031929Y040656*
X031961Y040616*
X031995Y040578*
X032031Y040542*
X032070Y040509*
X032112Y040479*
X032155Y040452*
X032200Y040428*
X032247Y040408*
X032295Y040390*
X032344Y040376*
X032394Y040366*
X032444Y040359*
X032495Y040355*
X032546*
X032597Y040359*
X032647Y040366*
X032697Y040376*
X032746Y040390*
X032794Y040408*
X032841Y040428*
X032886Y040452*
X032929Y040479*
X032971Y040509*
X033010Y040542*
X033046Y040578*
X033080Y040616*
X033112Y040656*
X033140Y040698*
X033166Y040742*
X033188Y040788*
X033207Y040835*
X033223Y040884*
X033236Y040934*
X033244Y040984*
X033250Y041035*
X033252Y041086*
Y044039D02*
D01*
X033250Y044089*
X033244Y044140*
X033236Y044190*
X033223Y044240*
X033207Y044289*
X033188Y044336*
X033166Y044382*
X033140Y044426*
X033112Y044468*
X033080Y044508*
X033046Y044546*
X033010Y044582*
X032971Y044615*
X032929Y044645*
X032886Y044672*
X032841Y044696*
X032794Y044716*
X032746Y044734*
X032697Y044748*
X032647Y044758*
X032597Y044765*
X032546Y044769*
X032495*
X032444Y044765*
X032394Y044758*
X032344Y044748*
X032295Y044734*
X032247Y044716*
X032200Y044696*
X032155Y044672*
X032112Y044645*
X032070Y044615*
X032031Y044582*
X031995Y044546*
X031961Y044508*
X031929Y044468*
X031901Y044426*
X031875Y044382*
X031853Y044336*
X031834Y044289*
X031818Y044240*
X031805Y044190*
X031797Y044140*
X031791Y044089*
X031790Y044039*
X031791Y043988*
X031797Y043937*
X031805Y043887*
X031818Y043837*
X031834Y043788*
X031853Y043741*
X031875Y043695*
X031901Y043651*
X031929Y043609*
X031961Y043569*
X031995Y043531*
X032031Y043495*
X032070Y043462*
X032112Y043432*
X032155Y043405*
X032200Y043381*
X032247Y043361*
X032295Y043343*
X032344Y043329*
X032394Y043319*
X032444Y043312*
X032495Y043308*
X032546*
X032597Y043312*
X032647Y043319*
X032697Y043329*
X032746Y043343*
X032794Y043361*
X032841Y043381*
X032886Y043405*
X032929Y043432*
X032971Y043462*
X033010Y043495*
X033046Y043531*
X033080Y043569*
X033112Y043609*
X033140Y043651*
X033166Y043695*
X033188Y043741*
X033207Y043788*
X033223Y043837*
X033236Y043887*
X033244Y043937*
X033250Y043988*
X033252Y044039*
X033100Y040340D02*
D01*
X033072Y040339*
X033045Y040336*
X033018Y040331*
X032992Y040324*
X032966Y040316*
X032941Y040306*
X032916Y040294*
X032893Y040280*
X032870Y040265*
X032849Y040248*
X032829Y040230*
X032824Y040226*
X031532Y039200D02*
D01*
X031531Y039226*
X031528Y039252*
X031523Y039278*
X031517Y039303*
X031509Y039328*
X031499Y039352*
X031487Y039376*
X031474Y039399*
X031460Y039421*
X031444Y039441*
X031426Y039461*
X031407Y039479*
X031387Y039496*
X031366Y039511*
X031344Y039525*
X031320Y039537*
X031296Y039548*
X031272Y039557*
X031246Y039564*
X031221Y039570*
X031195Y039573*
X031169Y039575*
X031156Y039576*
X031674Y039076D02*
D01*
X031655Y039056*
X031638Y039034*
X031622Y039012*
X031608Y038989*
X031596Y038964*
X031585Y038939*
X031576Y038914*
X031569Y038887*
X031564Y038861*
X031561Y038834*
X031559Y038806*
X031560Y038800*
X031674Y039076D02*
D01*
X031655Y039056*
X031638Y039034*
X031622Y039012*
X031608Y038989*
X031596Y038964*
X031585Y038939*
X031576Y038914*
X031569Y038887*
X031564Y038861*
X031561Y038834*
X031559Y038806*
X031560Y038800*
X031156Y038824D02*
D01*
X031182Y038824*
X031208Y038827*
X031234Y038832*
X031259Y038838*
X031284Y038846*
X031308Y038856*
X031332Y038868*
X031355Y038881*
X031377Y038895*
X031397Y038911*
X031417Y038929*
X031435Y038948*
X031452Y038968*
X031467Y038989*
X031481Y039012*
X031493Y039035*
X031504Y039059*
X031513Y039083*
X031520Y039109*
X031526Y039134*
X031529Y039160*
X031531Y039186*
X031532Y039200*
Y038200D02*
D01*
X031531Y038226*
X031528Y038252*
X031523Y038278*
X031517Y038303*
X031509Y038328*
X031499Y038352*
X031487Y038376*
X031474Y038399*
X031460Y038421*
X031444Y038441*
X031426Y038461*
X031407Y038479*
X031387Y038496*
X031366Y038511*
X031344Y038525*
X031320Y038537*
X031296Y038548*
X031272Y038557*
X031246Y038564*
X031221Y038570*
X031195Y038573*
X031169Y038575*
X031156Y038576*
X030644Y039576D02*
D01*
X030617Y039575*
X030591Y039572*
X030565Y039567*
X030540Y039561*
X030515Y039553*
X030491Y039543*
X030467Y039531*
X030444Y039518*
X030422Y039504*
X030402Y039488*
X030382Y039470*
X030364Y039451*
X030347Y039431*
X030332Y039410*
X030318Y039388*
X030306Y039364*
X030295Y039340*
X030286Y039316*
X030279Y039290*
X030273Y039265*
X030270Y039239*
X030268Y039213*
Y039186*
X030270Y039160*
X030273Y039134*
X030279Y039109*
X030286Y039083*
X030295Y039059*
X030306Y039035*
X030318Y039012*
X030332Y038989*
X030347Y038968*
X030364Y038948*
X030382Y038929*
X030402Y038911*
X030422Y038895*
X030444Y038881*
X030467Y038868*
X030491Y038856*
X030515Y038846*
X030540Y038838*
X030565Y038832*
X030591Y038827*
X030617Y038824*
X030644Y038824*
Y038576D02*
D01*
X030617Y038575*
X030591Y038572*
X030565Y038567*
X030540Y038561*
X030515Y038553*
X030491Y038543*
X030467Y038531*
X030444Y038518*
X030422Y038504*
X030402Y038488*
X030382Y038470*
X030364Y038451*
X030347Y038431*
X030332Y038410*
X030318Y038388*
X030306Y038364*
X030295Y038340*
X030286Y038316*
X030279Y038290*
X030273Y038265*
X030270Y038239*
X030268Y038213*
Y038186*
X030270Y038160*
X030273Y038134*
X030279Y038109*
X030286Y038083*
X030295Y038059*
X030306Y038035*
X030318Y038012*
X030332Y037989*
X030347Y037968*
X030364Y037948*
X030382Y037929*
X030402Y037911*
X030422Y037895*
X030444Y037881*
X030467Y037868*
X030491Y037856*
X030515Y037846*
X030540Y037838*
X030565Y037832*
X030591Y037827*
X030617Y037824*
X030644Y037824*
X032915Y037555D02*
D01*
X032915Y037545*
X032916Y037535*
X032918Y037525*
X032920Y037516*
X032923Y037507*
X032927Y037498*
X032931Y037489*
X032936Y037480*
X032941Y037472*
X032947Y037465*
X032954Y037457*
X032961Y037450*
X032968Y037444*
X032976Y037438*
X032985Y037433*
X032993Y037429*
X033002Y037425*
X033011Y037421*
X033021Y037419*
X033030Y037417*
X033040Y037415*
X033050Y037415*
X033055Y037415*
Y038285D02*
D01*
X033045Y038284*
X033035Y038283*
X033025Y038281*
X033016Y038279*
X033007Y038276*
X032998Y038272*
X032989Y038268*
X032980Y038263*
X032972Y038258*
X032965Y038252*
X032957Y038245*
X032950Y038238*
X032944Y038231*
X032938Y038223*
X032933Y038215*
X032929Y038206*
X032925Y038197*
X032921Y038188*
X032919Y038178*
X032917Y038169*
X032915Y038159*
X032915Y038149*
X032915Y038145*
X033000Y037090D02*
D01*
X032972Y037089*
X032945Y037086*
X032918Y037081*
X032892Y037074*
X032866Y037066*
X032841Y037056*
X032816Y037044*
X032793Y037030*
X032770Y037015*
X032749Y036998*
X032729Y036980*
X032724Y036976*
X033000Y037090D02*
D01*
X032972Y037089*
X032945Y037086*
X032918Y037081*
X032892Y037074*
X032866Y037066*
X032841Y037056*
X032816Y037044*
X032793Y037030*
X032770Y037015*
X032749Y036998*
X032729Y036980*
X032724Y036976*
X032940Y033724D02*
D01*
X032945Y033716*
X032952Y033708*
X032959Y033701*
X032966Y033695*
X032974Y033689*
X032982Y033684*
X032991Y033679*
X032999Y033675*
X033008Y033671*
X033018Y033668*
X033027Y033666*
X033037Y033665*
X033047Y033664*
X033055Y033665*
Y034535D02*
D01*
X033045Y034534*
X033035Y034533*
X033025Y034531*
X033016Y034529*
X033007Y034526*
X032998Y034522*
X032989Y034518*
X032980Y034513*
X032972Y034508*
X032965Y034502*
X032957Y034495*
X032950Y034488*
X032944Y034481*
X032940Y034476*
X031156Y037824D02*
D01*
X031182Y037824*
X031208Y037827*
X031234Y037832*
X031259Y037838*
X031284Y037846*
X031308Y037856*
X031332Y037868*
X031355Y037881*
X031377Y037895*
X031397Y037911*
X031417Y037929*
X031435Y037948*
X031452Y037968*
X031467Y037989*
X031481Y038012*
X031493Y038035*
X031504Y038059*
X031513Y038083*
X031520Y038109*
X031526Y038134*
X031529Y038160*
X031531Y038186*
X031532Y038200*
Y037436D02*
D01*
X031531Y037445*
X031530Y037455*
X031528Y037465*
X031526Y037474*
X031523Y037483*
X031519Y037492*
X031515Y037501*
X031510Y037510*
X031505Y037518*
X031499Y037525*
X031492Y037533*
X031485Y037540*
X031478Y037546*
X031470Y037552*
X031462Y037557*
X031453Y037561*
X031444Y037565*
X031435Y037569*
X031425Y037571*
X031416Y037573*
X031406Y037575*
X031396Y037575*
X031392Y037576*
Y036824D02*
D01*
X031401Y036824*
X031411Y036825*
X031421Y036827*
X031430Y036829*
X031439Y036832*
X031448Y036836*
X031457Y036840*
X031466Y036845*
X031474Y036850*
X031481Y036856*
X031489Y036863*
X031496Y036870*
X031502Y036877*
X031508Y036885*
X031513Y036894*
X031517Y036902*
X031521Y036911*
X031525Y036920*
X031527Y036930*
X031529Y036939*
X031531Y036949*
X031531Y036959*
X031532Y036964*
X030268D02*
D01*
X030268Y036954*
X030269Y036944*
X030271Y036934*
X030273Y036925*
X030276Y036916*
X030280Y036907*
X030284Y036898*
X030289Y036889*
X030294Y036881*
X030300Y036874*
X030307Y036866*
X030314Y036859*
X030321Y036853*
X030329Y036847*
X030338Y036842*
X030346Y036838*
X030355Y036834*
X030364Y036830*
X030374Y036828*
X030383Y036826*
X030393Y036824*
X030403Y036824*
X030408Y036824*
Y037576D02*
D01*
X030398Y037575*
X030388Y037574*
X030378Y037572*
X030369Y037570*
X030360Y037567*
X030351Y037563*
X030342Y037559*
X030333Y037554*
X030325Y037549*
X030318Y037543*
X030310Y037536*
X030303Y037529*
X030297Y037522*
X030291Y037514*
X030286Y037506*
X030282Y037497*
X030278Y037488*
X030274Y037479*
X030272Y037469*
X030270Y037460*
X030268Y037450*
X030268Y037440*
X030268Y037436*
X034260Y026150D02*
D01*
X034260Y026136*
X034261Y026123*
X034264Y026110*
X034267Y026097*
X034271Y026085*
X034276Y026072*
X034282Y026060*
X034288Y026049*
X034296Y026038*
X034304Y026027*
X034313Y026018*
X034316Y026016*
X034260Y026150D02*
D01*
X034260Y026136*
X034261Y026123*
X034264Y026110*
X034267Y026097*
X034271Y026085*
X034276Y026072*
X034282Y026060*
X034288Y026049*
X034296Y026038*
X034304Y026027*
X034313Y026018*
X034316Y026015*
X034340Y022335D02*
D01*
X034339Y022355*
X034337Y022375*
X034333Y022395*
X034328Y022414*
X034322Y022434*
X034314Y022452*
X034306Y022471*
X034295Y022488*
X034284Y022505*
X034272Y022521*
X034258Y022536*
X034244Y022550*
X034228Y022563*
X034212Y022575*
X034195Y022586*
X034177Y022595*
X034158Y022603*
X034139Y022610*
X034120Y022616*
X034100Y022620*
X034080Y022623*
X034060Y022624*
X034039*
X034019Y022623*
X033999Y022620*
X033979Y022616*
X033960Y022610*
X033941Y022603*
X033922Y022595*
X033905Y022586*
X033887Y022575*
X033871Y022563*
X033855Y022550*
X033841Y022536*
X033827Y022521*
X033815Y022505*
X033804Y022488*
X033793Y022471*
X033785Y022452*
X033777Y022434*
X033771Y022414*
X033766Y022395*
X033762Y022375*
X033760Y022355*
X033760Y022335*
X033760Y022314*
X033762Y022294*
X033766Y022274*
X033771Y022255*
X033777Y022235*
X033785Y022217*
X033793Y022198*
X033804Y022181*
X033815Y022164*
X033827Y022148*
X033841Y022133*
X033855Y022119*
X033871Y022106*
X033887Y022094*
X033905Y022083*
X033922Y022074*
X033941Y022066*
X033960Y022059*
X033979Y022053*
X033999Y022049*
X034019Y022046*
X034039Y022045*
X034060*
X034080Y022046*
X034100Y022049*
X034120Y022053*
X034139Y022059*
X034158Y022066*
X034177Y022074*
X034195Y022083*
X034212Y022094*
X034228Y022106*
X034244Y022119*
X034258Y022133*
X034272Y022148*
X034284Y022164*
X034295Y022181*
X034306Y022198*
X034314Y022217*
X034322Y022235*
X034328Y022255*
X034333Y022274*
X034337Y022294*
X034339Y022314*
X034340Y022335*
X033581Y024629D02*
D01*
X033599Y024648*
X033616Y024670*
X033632Y024692*
X033646Y024715*
X033658Y024740*
X033669Y024765*
X033678Y024790*
X033685Y024817*
X033690Y024843*
X033693Y024870*
X033695Y024898*
X033695Y024905*
X033581Y024629D02*
D01*
X033599Y024648*
X033616Y024670*
X033632Y024692*
X033646Y024715*
X033658Y024740*
X033669Y024765*
X033678Y024790*
X033685Y024817*
X033690Y024843*
X033693Y024870*
X033695Y024898*
X033695Y024905*
X035416Y019766D02*
D01*
X035425Y019756*
X035435Y019748*
X035446Y019741*
X035458Y019734*
X035469Y019728*
X035482Y019723*
X035494Y019718*
X035507Y019715*
X035520Y019712*
X035533Y019711*
X035546Y019710*
X035550Y019710*
X035415Y019766D02*
D01*
X035424Y019756*
X035434Y019748*
X035445Y019740*
X035457Y019733*
X035468Y019727*
X035481Y019722*
X035493Y019718*
X035506Y019714*
X035519Y019712*
X035532Y019710*
X035545Y019709*
X035550Y019710*
X034860Y021150D02*
D01*
X034860Y021136*
X034861Y021123*
X034864Y021110*
X034867Y021097*
X034871Y021085*
X034876Y021072*
X034882Y021060*
X034888Y021049*
X034896Y021038*
X034904Y021027*
X034913Y021018*
X034916Y021015*
X034860Y021150D02*
D01*
X034860Y021136*
X034861Y021123*
X034864Y021110*
X034867Y021097*
X034871Y021085*
X034876Y021072*
X034882Y021060*
X034888Y021049*
X034896Y021038*
X034904Y021027*
X034913Y021018*
X034916Y021016*
X034285Y021434D02*
D01*
X034275Y021443*
X034265Y021451*
X034254Y021459*
X034242Y021466*
X034231Y021472*
X034218Y021477*
X034206Y021481*
X034193Y021485*
X034180Y021487*
X034167Y021489*
X034154Y021490*
X034150Y021490*
X034284Y021434D02*
D01*
X034274Y021443*
X034264Y021451*
X034253Y021458*
X034241Y021465*
X034230Y021471*
X034217Y021476*
X034205Y021481*
X034192Y021484*
X034179Y021487*
X034166Y021488*
X034153Y021489*
X034150Y021490*
X034140Y020456D02*
D01*
X034139Y020476*
X034137Y020496*
X034133Y020516*
X034128Y020535*
X034122Y020555*
X034114Y020573*
X034106Y020592*
X034095Y020609*
X034084Y020626*
X034072Y020642*
X034058Y020657*
X034044Y020671*
X034028Y020684*
X034012Y020696*
X033995Y020707*
X033977Y020716*
X033958Y020724*
X033939Y020731*
X033920Y020737*
X033900Y020741*
X033880Y020744*
X033860Y020745*
X033839*
X033819Y020744*
X033799Y020741*
X033779Y020737*
X033760Y020731*
X033741Y020724*
X033722Y020716*
X033705Y020707*
X033687Y020696*
X033671Y020684*
X033655Y020671*
X033641Y020657*
X033627Y020642*
X033615Y020626*
X033604Y020609*
X033593Y020592*
X033585Y020573*
X033577Y020555*
X033571Y020535*
X033566Y020516*
X033562Y020496*
X033560Y020476*
X033560Y020456*
X033560Y020435*
X033562Y020415*
X033566Y020395*
X033571Y020376*
X033577Y020356*
X033585Y020338*
X033593Y020319*
X033604Y020302*
X033615Y020285*
X033627Y020269*
X033641Y020254*
X033655Y020240*
X033671Y020227*
X033687Y020215*
X033705Y020204*
X033722Y020195*
X033741Y020187*
X033760Y020180*
X033779Y020174*
X033799Y020170*
X033819Y020167*
X033839Y020166*
X033860*
X033880Y020167*
X033900Y020170*
X033920Y020174*
X033939Y020180*
X033958Y020187*
X033977Y020195*
X033995Y020204*
X034012Y020215*
X034028Y020227*
X034044Y020240*
X034058Y020254*
X034072Y020269*
X034084Y020285*
X034095Y020302*
X034106Y020319*
X034114Y020338*
X034122Y020356*
X034128Y020376*
X034133Y020395*
X034137Y020415*
X034139Y020435*
X034140Y020456*
X033269Y021490D02*
D01*
X033255Y021504*
X033240Y021518*
X033224Y021531*
X033208Y021543*
X033190Y021553*
X033172Y021562*
X033154Y021570*
X033135Y021577*
X033115Y021582*
X033095Y021586*
X033075Y021588*
X033055Y021589*
X033035Y021589*
X033014Y021587*
X032994Y021584*
X032975Y021580*
X032955Y021574*
X032936Y021566*
X032918Y021558*
X032900Y021548*
X032883Y021537*
X032867Y021525*
X032852Y021512*
X032838Y021497*
X032824Y021482*
X032812Y021466*
X032801Y021449*
X032791Y021431*
X032783Y021413*
X032775Y021394*
X032770Y021375*
X032765Y021355*
X032762Y021335*
X032760Y021315*
X032760Y021295*
X032761Y021275*
X032763Y021254*
X032767Y021235*
X032772Y021215*
X032779Y021196*
X032787Y021177*
X032796Y021159*
X032806Y021142*
X032818Y021125*
X032831Y021110*
X032844Y021095*
X032859Y021081*
X032875Y021068*
X032891Y021056*
X032909Y021046*
X032927Y021037*
X032945Y021029*
X032964Y021022*
X032984Y021017*
X033004Y021013*
X033024Y021011*
X033044Y021010*
X033064Y021010*
X033085Y021012*
X033105Y021015*
X033124Y021019*
X033144Y021025*
X033163Y021033*
X033181Y021041*
X033199Y021051*
X033216Y021062*
X033232Y021074*
X033247Y021087*
X033261Y021102*
X033269Y021110*
X029174Y021326D02*
D01*
X029155Y021306*
X029138Y021284*
X029122Y021262*
X029108Y021239*
X029096Y021214*
X029085Y021189*
X029076Y021164*
X029069Y021137*
X029064Y021111*
X029061Y021084*
X029059Y021056*
X029060Y021050*
X029174Y021326D02*
D01*
X029155Y021306*
X029138Y021284*
X029122Y021262*
X029108Y021239*
X029096Y021214*
X029085Y021189*
X029076Y021164*
X029069Y021137*
X029064Y021111*
X029061Y021084*
X029059Y021056*
X029060Y021050*
X025018Y020740D02*
D01*
X024990Y020739*
X024963Y020736*
X024936Y020731*
X024910Y020724*
X024884Y020716*
X024859Y020706*
X024834Y020694*
X024811Y020680*
X024788Y020665*
X024767Y020648*
X024747Y020630*
X024743Y020626*
X025018Y020740D02*
D01*
X024990Y020739*
X024963Y020736*
X024936Y020731*
X024910Y020724*
X024884Y020716*
X024859Y020706*
X024834Y020694*
X024811Y020680*
X024788Y020665*
X024767Y020648*
X024747Y020630*
X024743Y020626*
X029925Y019200D02*
D01*
X029923Y019233*
X029920Y019266*
X029914Y019298*
X029906Y019330*
X029896Y019362*
X029883Y019393*
X029869Y019422*
X029852Y019451*
X029840Y019471*
X029060D02*
D01*
X029042Y019443*
X029026Y019414*
X029012Y019383*
X029000Y019353*
X028990Y019321*
X028983Y019288*
X028978Y019256*
X028975Y019223*
X028975Y019190*
X028977Y019156*
X028981Y019124*
X028987Y019091*
X028996Y019059*
X029007Y019028*
X029020Y018997*
X029035Y018968*
X029052Y018939*
X029071Y018912*
X029092Y018887*
X029115Y018862*
X029139Y018840*
X029165Y018819*
X029192Y018800*
X029221Y018783*
X029250Y018768*
X029281Y018756*
X029312Y018745*
X029344Y018736*
X029377Y018730*
X029410Y018726*
X029443Y018725*
X029476Y018725*
X029509Y018728*
X029542Y018734*
X029574Y018741*
X029606Y018751*
X029637Y018763*
X029667Y018777*
X029696Y018793*
X029723Y018811*
X029750Y018831*
X029775Y018853*
X029798Y018877*
X029820Y018902*
X029840Y018929*
X029857Y018956*
X029873Y018985*
X029887Y019016*
X029899Y019046*
X029909Y019078*
X029916Y019111*
X029921Y019143*
X029924Y019176*
X029925Y019200*
X028925D02*
D01*
X028923Y019233*
X028920Y019266*
X028914Y019298*
X028906Y019330*
X028896Y019362*
X028883Y019393*
X028869Y019422*
X028852Y019451*
X028834Y019479*
X028813Y019505*
X028791Y019529*
X028767Y019552*
X028742Y019574*
X028715Y019593*
X028687Y019611*
X028658Y019626*
X028627Y019640*
X028596Y019651*
X028564Y019660*
X028532Y019667*
X028499Y019672*
X028466Y019674*
X028433*
X028400Y019672*
X028367Y019667*
X028335Y019660*
X028303Y019651*
X028272Y019640*
X028241Y019626*
X028212Y019611*
X028184Y019593*
X028157Y019574*
X028132Y019552*
X028108Y019529*
X028086Y019505*
X028065Y019479*
X028047Y019451*
X028030Y019422*
X028016Y019393*
X028003Y019362*
X027993Y019330*
X027985Y019298*
X027979Y019266*
X027976Y019233*
X027975Y019200*
X027976Y019166*
X027979Y019133*
X027985Y019101*
X027993Y019069*
X028003Y019037*
X028016Y019006*
X028030Y018977*
X028047Y018948*
X028065Y018920*
X028086Y018894*
X028108Y018870*
X028132Y018847*
X028157Y018825*
X028184Y018806*
X028212Y018788*
X028241Y018773*
X028272Y018759*
X028303Y018748*
X028335Y018739*
X028367Y018732*
X028400Y018727*
X028433Y018725*
X028466*
X028499Y018727*
X028532Y018732*
X028564Y018739*
X028596Y018748*
X028627Y018759*
X028658Y018773*
X028687Y018788*
X028715Y018806*
X028742Y018825*
X028767Y018847*
X028791Y018870*
X028813Y018894*
X028834Y018920*
X028852Y018948*
X028869Y018977*
X028883Y019006*
X028896Y019037*
X028906Y019069*
X028914Y019101*
X028920Y019133*
X028923Y019166*
X028925Y019200*
X027925Y019535D02*
D01*
X027924Y019544*
X027923Y019554*
X027921Y019564*
X027919Y019573*
X027916Y019582*
X027912Y019591*
X027908Y019600*
X027903Y019609*
X027898Y019617*
X027892Y019624*
X027885Y019632*
X027878Y019639*
X027871Y019645*
X027863Y019651*
X027855Y019656*
X027846Y019660*
X027837Y019664*
X027828Y019668*
X027818Y019670*
X027809Y019672*
X027799Y019674*
X027789Y019674*
X027785Y019675*
X027115D02*
D01*
X027105Y019674*
X027095Y019673*
X027085Y019671*
X027076Y019669*
X027067Y019666*
X027058Y019662*
X027049Y019658*
X027040Y019653*
X027032Y019648*
X027025Y019642*
X027017Y019635*
X027010Y019628*
X027004Y019621*
X026998Y019613*
X026993Y019605*
X026989Y019596*
X026985Y019587*
X026981Y019578*
X026979Y019568*
X026977Y019559*
X026975Y019549*
X026975Y019539*
X026975Y019535*
Y018865D02*
D01*
X026975Y018855*
X026976Y018845*
X026978Y018835*
X026980Y018826*
X026983Y018817*
X026987Y018808*
X026991Y018799*
X026996Y018790*
X027001Y018782*
X027007Y018775*
X027014Y018767*
X027021Y018760*
X027028Y018754*
X027036Y018748*
X027045Y018743*
X027053Y018739*
X027062Y018735*
X027071Y018731*
X027081Y018729*
X027090Y018727*
X027100Y018725*
X027110Y018725*
X027115Y018725*
X027785D02*
D01*
X027794Y018725*
X027804Y018726*
X027814Y018728*
X027823Y018730*
X027832Y018733*
X027841Y018737*
X027850Y018741*
X027859Y018746*
X027867Y018751*
X027874Y018757*
X027882Y018764*
X027889Y018771*
X027895Y018778*
X027901Y018786*
X027906Y018795*
X027910Y018803*
X027914Y018812*
X027918Y018821*
X027920Y018831*
X027922Y018840*
X027924Y018850*
X027924Y018860*
X027925Y018865*
X024314Y018915D02*
D01*
X024323Y018915*
X024333Y018916*
X024343Y018918*
X024352Y018920*
X024361Y018923*
X024370Y018927*
X024379Y018931*
X024388Y018936*
X024396Y018941*
X024403Y018947*
X024411Y018954*
X024418Y018961*
X024424Y018968*
X024430Y018976*
X024435Y018985*
X024439Y018993*
X024443Y019002*
X024447Y019011*
X024449Y019021*
X024451Y019030*
X024453Y019040*
X024453Y019050*
X024454Y019055*
X023723Y019785D02*
D01*
X023713Y019784*
X023703Y019783*
X023693Y019781*
X023684Y019779*
X023675Y019776*
X023666Y019772*
X023657Y019768*
X023648Y019763*
X023640Y019758*
X023633Y019752*
X023625Y019745*
X023618Y019738*
X023612Y019731*
X023606Y019723*
X023601Y019715*
X023597Y019706*
X023593Y019697*
X023589Y019688*
X023587Y019678*
X023585Y019669*
X023583Y019659*
X023583Y019649*
X023583Y019645*
X022485Y019350D02*
D01*
X022483Y019380*
X022480Y019410*
X022475Y019440*
X022468Y019469*
X022458Y019498*
X022447Y019526*
X022434Y019554*
X022418Y019580*
X022401Y019605*
X022383Y019629*
X022362Y019652*
X022341Y019673*
X022317Y019692*
X022293Y019710*
X022267Y019726*
X022240Y019740*
X022212Y019753*
X022184Y019763*
X022155Y019772*
X022125Y019778*
X022095Y019782*
X022065Y019784*
X022034*
X022004Y019782*
X021974Y019778*
X021944Y019772*
X021915Y019763*
X021887Y019753*
X021859Y019740*
X021832Y019726*
X021806Y019710*
X021782Y019692*
X021758Y019673*
X021737Y019652*
X021716Y019629*
X021698Y019605*
X021681Y019580*
X021665Y019554*
X021652Y019526*
X021641Y019498*
X021631Y019469*
X021624Y019440*
X021619Y019410*
X021616Y019380*
X021615Y019350*
X021616Y019319*
X021619Y019289*
X021624Y019259*
X021631Y019230*
X021641Y019201*
X021652Y019173*
X021665Y019145*
X021681Y019119*
X021698Y019094*
X021716Y019070*
X021737Y019047*
X021758Y019026*
X021782Y019007*
X021806Y018989*
X021832Y018973*
X021859Y018959*
X021887Y018946*
X021915Y018936*
X021944Y018927*
X021974Y018921*
X022004Y018917*
X022034Y018915*
X022065*
X022095Y018917*
X022125Y018921*
X022155Y018927*
X022184Y018936*
X022212Y018946*
X022240Y018959*
X022267Y018973*
X022293Y018989*
X022317Y019007*
X022341Y019026*
X022362Y019047*
X022383Y019070*
X022401Y019094*
X022418Y019119*
X022434Y019145*
X022447Y019173*
X022458Y019201*
X022468Y019230*
X022475Y019259*
X022480Y019289*
X022483Y019319*
X022485Y019350*
X023583Y019055D02*
D01*
X023583Y019045*
X023584Y019035*
X023586Y019025*
X023588Y019016*
X023591Y019007*
X023595Y018998*
X023599Y018989*
X023604Y018980*
X023609Y018972*
X023615Y018965*
X023622Y018957*
X023629Y018950*
X023636Y018944*
X023644Y018938*
X023653Y018933*
X023661Y018929*
X023670Y018925*
X023679Y018921*
X023689Y018919*
X023698Y018917*
X023708Y018915*
X023718Y018915*
X023723Y018915*
X043075Y045738D02*
X043506Y045307D01*
X043358Y045738D02*
X043506Y045589D01*
X042509Y045738D02*
X043506Y044741D01*
X042792Y045738D02*
X043506Y045024D01*
X041944Y045738D02*
X043506Y044175D01*
X042227Y045738D02*
X043506Y044458D01*
X041378Y045738D02*
X043506Y043610D01*
X041661Y045738D02*
X043506Y043892D01*
X042594Y044291D02*
X043506Y045203D01*
X042497Y044477D02*
X043506Y045486D01*
X042635Y043766D02*
X043506Y044637D01*
X042649Y044063D02*
X043506Y044920D01*
X041817Y043036D02*
X043506Y041347D01*
X042047Y043088D02*
X043506Y041630D01*
X041513Y043057D02*
X043506Y041064D01*
X042207Y044753D02*
X043192Y045738D01*
X042013Y044841D02*
X042909Y045738D01*
X042619Y044213D02*
X043506Y043327D01*
X042368Y044630D02*
X043475Y045738D01*
X041774Y044885D02*
X042626Y045738D01*
X041095D02*
X041982Y044851D01*
X041450Y044844D02*
X042343Y045738D01*
X042606Y043661D02*
X043506Y042761D01*
X042653Y043897D02*
X043506Y043044D01*
X042391Y043311D02*
X043506Y042195D01*
X042515Y043469D02*
X043506Y042478D01*
X041025Y040177D02*
X043506Y042658D01*
X042235Y043183D02*
X043506Y041912D01*
X041166Y040035D02*
X043506Y042375D01*
X041874Y039328D02*
X043506Y040960D01*
X041732Y039469D02*
X043506Y041243D01*
X042123Y039012D02*
X043506Y040395D01*
X042015Y039187D02*
X043506Y040678D01*
X041449Y039752D02*
X043506Y041809D01*
X041308Y039894D02*
X043506Y042092D01*
X041591Y039611D02*
X043506Y041526D01*
X042218Y037975D02*
X043506Y039263D01*
X042140Y038463D02*
X043506Y039829D01*
X042231Y037140D02*
X043506Y038415D01*
X042329Y037804D02*
X043506Y038981D01*
X042140Y038180D02*
X043506Y039546D01*
X042140Y038746D02*
X043506Y040112D01*
X041833Y036177D02*
X043506Y037849D01*
X042096Y039080D02*
X043506Y037670D01*
X042140Y038047D02*
Y038900D01*
Y038753D02*
X043506Y037387D01*
X042382Y037573D02*
X043506Y038698D01*
X041360Y038047D02*
Y038738D01*
X042140Y038470D02*
X043506Y037104D01*
X042382Y037573D02*
X043506Y038698D01*
X042370Y037675D02*
X043506Y036538D01*
X042140Y038187D02*
X043506Y036821D01*
X041508Y036134D02*
X043506Y038132D01*
X039491Y040340D02*
X043506Y044355D01*
X039343Y044096D02*
X043506Y039933D01*
X039343Y044379D02*
X043506Y040215D01*
X038550Y045738D02*
X043506Y040781D01*
X039080Y042757D02*
X042061Y045738D01*
X038267D02*
X043506Y040498D01*
X040340Y040340D02*
X043506Y043506D01*
X040057Y040340D02*
X043506Y043789D01*
X040868Y040302D02*
X043506Y042940D01*
X040623Y040340D02*
X043506Y043223D01*
X039343Y043813D02*
X043506Y039650D01*
X039774Y040340D02*
X043506Y044072D01*
X039328Y043545D02*
X043506Y039367D01*
X040812Y045738D02*
X041666Y044884D01*
X040529Y045738D02*
X041430Y044837D01*
X040247Y045738D02*
X041238Y044747D01*
X039964Y045738D02*
X041079Y044622D01*
X039341Y043584D02*
X041495Y045738D01*
X039343Y043868D02*
X041212Y045738D01*
X038895Y042855D02*
X041778Y045738D01*
X039209Y040340D02*
X041921Y043052D01*
X038926Y040340D02*
X041623Y043038D01*
X038360Y040340D02*
X041210Y043190D01*
X038077Y040340D02*
X041056Y043319D01*
X038643Y040340D02*
X041396Y043093D01*
X039124Y043466D02*
X043506Y039084D01*
X040976Y040226D02*
X042026Y039176D01*
X039179Y042280D02*
X043506Y037953D01*
X039207Y042535D02*
X043506Y038235D01*
X038558Y043466D02*
X043506Y038518D01*
X038841Y043466D02*
X043506Y038801D01*
X036808Y039560D02*
X043506Y032861D01*
X039919Y039560D02*
X041360Y038119D01*
X040202Y039560D02*
X041360Y038402D01*
X038787Y039560D02*
X043506Y034841D01*
X038505Y039560D02*
X041901Y036164D01*
X038222Y039560D02*
X041614Y036167D01*
X037939Y039560D02*
X041414Y036085D01*
X036525Y039560D02*
X041928Y034156D01*
X040485Y039560D02*
X041360Y038685D01*
X040538Y039560D02*
X041360Y038738D01*
X039636Y039560D02*
X041254Y037942D01*
X039070Y039560D02*
X041119Y037511D01*
X037656Y039560D02*
X041263Y035953D01*
X037373Y039560D02*
X041159Y035774D01*
X037090Y039560D02*
X041118Y035532D01*
X039340Y036512D02*
X041360Y038532D01*
X039353Y039560D02*
X041154Y037760D01*
X039481Y036370D02*
X041360Y038249D01*
X039623Y036229D02*
X041154Y037759D01*
X039057Y036794D02*
X041181Y038918D01*
X038916Y036936D02*
X041039Y039059D01*
X039199Y036653D02*
X041322Y038776D01*
X042208Y035986D02*
X043506Y037284D01*
X042364Y037398D02*
X043506Y036256D01*
X042323Y035817D02*
X043506Y037001D01*
X042277Y037201D02*
X043506Y035973D01*
X042142Y037054D02*
X043506Y035690D01*
X042047Y036108D02*
X043506Y037566D01*
X041960Y036954D02*
X043506Y035407D01*
X042364Y035701D02*
X043506Y034559D01*
X042381Y035592D02*
X043506Y036718D01*
X042379Y033611D02*
X043506Y034738D01*
X042367Y035414D02*
X043506Y034276D01*
X041711Y036919D02*
X043506Y035124D01*
X042286Y035215D02*
X043506Y036435D01*
X041815Y034179D02*
X043506Y035869D01*
X042198Y033996D02*
X043506Y035304D01*
X042034Y034115D02*
X043506Y035586D01*
X042153Y035063D02*
X043506Y033710D01*
X042285Y035214D02*
X043506Y033993D01*
X042312Y033261D02*
X043506Y034455D01*
X042316Y033831D02*
X043506Y035021D01*
X042371Y033431D02*
X043506Y032296D01*
X042356Y033728D02*
X043506Y032579D01*
X041732Y034918D02*
X043506Y033144D01*
X041974Y034959D02*
X043506Y033427D01*
X041828Y032212D02*
X043506Y033889D01*
X042288Y031252D02*
X043506Y030033D01*
X042211Y030049D02*
X043506Y031344D01*
X042381Y029653D02*
X043506Y030778D01*
X042325Y029879D02*
X043506Y031061D01*
X041979Y030995D02*
X043506Y029467D01*
X042156Y031100D02*
X043506Y029750D01*
X041738Y030952D02*
X043506Y029185D01*
X042366Y029759D02*
X043506Y028619D01*
X042276Y029265D02*
X043506Y030495D01*
X042218Y028075D02*
X043506Y029364D01*
X042366Y029476D02*
X043506Y028336D01*
X041540Y028246D02*
X043506Y030212D01*
X041851Y028274D02*
X043506Y029930D01*
X042060Y028201D02*
X043506Y029647D01*
X042293Y033226D02*
X043506Y032013D01*
X042205Y032023D02*
X043506Y033324D01*
X042164Y033072D02*
X043506Y031730D01*
X042321Y031856D02*
X043506Y033041D01*
X041989Y032965D02*
X043506Y031447D01*
X042044Y032144D02*
X043506Y033607D01*
X041753Y032918D02*
X043506Y031164D01*
X042295Y031264D02*
X043506Y032475D01*
X042380Y031632D02*
X043506Y032758D01*
X042368Y031454D02*
X043506Y030316D01*
X042362Y031743D02*
X043506Y030599D01*
X041517Y030203D02*
X043506Y032192D01*
X041838Y030242D02*
X043506Y031909D01*
X042051Y030172D02*
X043506Y031627D01*
X039940Y035132D02*
X041727Y036918D01*
X041471Y034117D02*
X043506Y036152D01*
X039940Y034849D02*
X042160Y037069D01*
X039940Y035132D02*
X041727Y036918D01*
X039915Y035887D02*
X041631Y034171D01*
X041011Y033940D02*
X042085Y035014D01*
X041498Y032164D02*
X043506Y034172D01*
X040728Y033940D02*
X041708Y034919D01*
X040662Y033160D02*
X041619Y032203D01*
X040945Y033160D02*
X041909Y032196D01*
X039940Y035415D02*
X041496Y036971D01*
X039940Y034566D02*
X041166Y035792D01*
X039940Y035579D02*
X041426Y034093D01*
X040029Y034372D02*
X041123Y035467D01*
X039894Y035934D02*
X041199Y037240D01*
X039764Y036087D02*
X041126Y037449D01*
X039940Y035697D02*
X041325Y037082D01*
X040453Y033948D02*
X041483Y034977D01*
X040312Y034090D02*
X041314Y035092D01*
X040300Y033160D02*
X041253D01*
X040462Y033940D02*
X041253D01*
X039940Y035296D02*
X041272Y033964D01*
X040171Y034231D02*
X041192Y035253D01*
X039940Y035013D02*
X041013Y033940D01*
X041228Y033160D02*
X043506Y030882D01*
X040379Y033160D02*
X041417Y032122D01*
X038840Y033568D02*
X043506Y028902D01*
X038840Y033285D02*
X041894Y030231D01*
X038840Y033002D02*
X041610Y030232D01*
X038840Y030355D02*
X041469Y032984D01*
X038840Y029789D02*
X042039Y032988D01*
X038840Y030072D02*
X041689Y032921D01*
X038840Y031305D02*
X041875Y028270D01*
X038840Y031022D02*
X041598Y028264D01*
X038840Y028375D02*
X041479Y031013D01*
X038840Y028092D02*
X041702Y030954D01*
X038840Y030638D02*
X041304Y033102D01*
X038840Y030920D02*
X041080Y033160D01*
X038840Y032719D02*
X041410Y030149D01*
X038840Y032436D02*
X041261Y030016D01*
X038840Y034416D02*
X041266Y031991D01*
X038840Y034133D02*
X041161Y031813D01*
X038840Y033851D02*
X041118Y031573D01*
X038840Y028940D02*
X041190Y031291D01*
X038840Y029223D02*
X041123Y031506D01*
X038840Y030739D02*
X041402Y028178D01*
X038840Y028658D02*
X041311Y031129D01*
X038840Y032154D02*
X041157Y029836D01*
X038840Y031871D02*
X041118Y029592D01*
X038840Y029506D02*
X041170Y031837D01*
X039681Y045738D02*
X040952Y044467D01*
X039160Y044534D02*
X040364Y045738D01*
X039343Y044151D02*
X040929Y045738D01*
X039398D02*
X040857Y044279D01*
X038877Y044534D02*
X040081Y045738D01*
X038594Y044534D02*
X039798Y045738D01*
X038832D02*
X040825Y043745D01*
X039115Y045738D02*
X040804Y044048D01*
X039192Y042587D02*
X040843Y044237D01*
X039338Y044429D02*
X040646Y045738D01*
X039054Y042121D02*
X040880Y040296D01*
X039187Y042298D02*
X040801Y043913D01*
X037794Y040340D02*
X040934Y043479D01*
X037512Y040340D02*
X040845Y043674D01*
X038855Y042038D02*
X040553Y040340D01*
X038415Y044534D02*
X039203D01*
X038275Y043606D02*
Y044394D01*
X037701Y045738D02*
X038905Y044534D01*
X037418Y045738D02*
X038622Y044534D01*
X037984Y045738D02*
X039188Y044534D01*
X039343Y043606D02*
Y044394D01*
X038415Y043466D02*
X039203D01*
X037424Y037990D02*
X038994Y039560D01*
X037707Y037990D02*
X039277Y039560D01*
X038491Y037360D02*
X040615Y039484D01*
X038350Y037502D02*
X040409Y039560D01*
X038774Y037077D02*
X040898Y039201D01*
X038633Y037219D02*
X040756Y039342D01*
X038067Y037784D02*
X039843Y039560D01*
X037921Y037921D02*
X039560Y039560D01*
X038209Y037643D02*
X040126Y039560D01*
X039940Y034462D02*
Y035750D01*
X039160Y034300D02*
Y035588D01*
X037976Y037876D02*
X039826Y036026D01*
X037538Y037210D02*
X039160Y035588D01*
X038768Y035091D02*
X039160Y035483D01*
X038061Y035799D02*
X038506Y036243D01*
X037869Y035889D02*
X038364Y036384D01*
X037587Y035890D02*
X038223Y036526D01*
X037304Y035890D02*
X038081Y036667D01*
X037460Y037210D02*
X039160Y035510D01*
X038344Y035516D02*
X038788Y035960D01*
X038203Y035657D02*
X038647Y036101D01*
X038627Y035233D02*
X039071Y035677D01*
X038486Y035374D02*
X038930Y035819D01*
X038055Y035805D02*
X038755Y035105D01*
X036157Y042663D02*
X039232Y045738D01*
X036017Y042805D02*
X038949Y045738D01*
X036215Y042438D02*
X039515Y045738D01*
X036190Y041281D02*
X038380Y043471D01*
X036004Y045738D02*
X038885Y042857D01*
X035794Y042866D02*
X038666Y045738D01*
X035721D02*
X038630Y042829D01*
X036663Y040340D02*
X038493Y042170D01*
X036380Y040340D02*
X038395Y042355D01*
X037229Y040340D02*
X038952Y042063D01*
X036946Y040340D02*
X038663Y042058D01*
X036190Y040715D02*
X038941Y043466D01*
X036190Y040998D02*
X038658Y043466D01*
X036190Y040433D02*
X039226Y043468D01*
X037135Y045738D02*
X038354Y044519D01*
X036853Y045738D02*
X038275Y044315D01*
X036287Y045738D02*
X038275Y043749D01*
X036570Y045738D02*
X038275Y044032D01*
X036190Y041847D02*
X038275Y043932D01*
X036190Y042130D02*
X038275Y044215D01*
X036190Y041564D02*
X038275Y043649D01*
X036214Y042416D02*
X038290Y040340D01*
X036190Y042157D02*
X038007Y040340D01*
X036190Y041875D02*
X037725Y040340D01*
X036190Y041592D02*
X037442Y040340D01*
X036190Y041309D02*
X037159Y040340D01*
X036190Y041026D02*
X036876Y040340D01*
X036859Y037990D02*
X038429Y039560D01*
X036576Y037990D02*
X038146Y039560D01*
X037178Y037210D02*
X039160Y035228D01*
X037141Y037990D02*
X038711Y039560D01*
X036190Y040340D02*
X040700D01*
X036293Y037990D02*
X037863Y039560D01*
X036242D02*
X037837Y037965D01*
X037021Y035890D02*
X037940Y036809D01*
X036739Y035890D02*
X037798Y036950D01*
X036895Y037210D02*
X039160Y034945D01*
X037098Y035310D02*
X038260Y034148D01*
X036612Y037210D02*
X037950Y035872D01*
X035600Y035890D02*
X037850D01*
X035966Y035310D02*
X038260Y033016D01*
X036190Y040743D02*
X036593Y040340D01*
X036190Y040460D02*
X036310Y040340D01*
X036010Y037990D02*
X037580Y039560D01*
X036190Y040340D02*
Y042306D01*
X035727Y037990D02*
X037297Y039560D01*
X035676D02*
X037246Y037990D01*
X035959Y039560D02*
X037529Y037990D01*
X036173Y035890D02*
X037493Y037210D01*
X036046D02*
X037366Y035890D01*
X036456D02*
X037657Y037091D01*
X036329Y037210D02*
X037649Y035890D01*
X035763Y037210D02*
X037083Y035890D01*
X035607D02*
X036927Y037210D01*
X035890Y035890D02*
X037210Y037210D01*
X039940Y034462D02*
X040462Y033940D01*
X039940Y034730D02*
X040730Y033940D01*
X039274Y034024D02*
X040024Y033274D01*
X038840Y034699D02*
X039160Y034379D01*
X038840Y033749D02*
X039206Y034115D01*
X038840Y032335D02*
X039902Y033397D01*
X038840Y032617D02*
X039760Y033538D01*
X038840Y033183D02*
X039478Y033821D01*
X038840Y033466D02*
X039336Y033962D01*
X038840Y032900D02*
X039619Y033679D01*
X038822Y035000D02*
X039160Y034662D01*
X038840Y034880D02*
X039160Y035200D01*
X037663Y035310D02*
X038260Y034713D01*
X037730Y035310D02*
X038260Y034780D01*
X037381Y035310D02*
X038260Y034431D01*
X038840Y034315D02*
X039160Y034635D01*
X038840Y034597D02*
X039160Y034917D01*
X038840Y034032D02*
X039160Y034352D01*
X038840Y034032D02*
X039160Y034352D01*
X037430Y032339D02*
X038260Y033169D01*
X038840Y031769D02*
X040236Y033165D01*
X038840Y032052D02*
X040044Y033256D01*
X038840Y031203D02*
X040797Y033160D01*
X038840Y031486D02*
X040514Y033160D01*
X037490Y031833D02*
X038260Y032603D01*
X037490Y032116D02*
X038260Y032886D01*
X037490Y031550D02*
X038260Y032320D01*
X037490Y031524D02*
X038260Y030754D01*
X037490Y030985D02*
X038260Y031755D01*
X037490Y031241D02*
X038260Y030471D01*
X037490Y030702D02*
X038260Y031472D01*
X037490Y031267D02*
X038260Y032037D01*
X037490Y032089D02*
X038260Y031319D01*
X037490Y031806D02*
X038260Y031036D01*
X037490Y030675D02*
X038260Y029905D01*
X037490Y030136D02*
X038260Y030906D01*
X037490Y030392D02*
X038260Y029622D01*
X037490Y029853D02*
X038260Y030623D01*
X037490Y030958D02*
X038260Y030188D01*
X037490Y030419D02*
X038260Y031189D01*
X037490Y029719D02*
Y032200D01*
Y030109D02*
X038260Y029339D01*
X037556Y029636D02*
X038260Y030340D01*
X037585Y029448D02*
X038260Y028774D01*
X037541Y029338D02*
X038260Y030058D01*
X037490Y029827D02*
X038260Y029057D01*
X037479Y029272D02*
X038260Y028491D01*
X036532Y035310D02*
X038260Y033582D01*
X036815Y035310D02*
X038260Y033865D01*
X036249Y035310D02*
X038260Y033299D01*
X035851Y032740D02*
X038076Y034964D01*
X035568Y032740D02*
X037934Y035106D01*
X035600Y035310D02*
X037730D01*
X035684D02*
X038260Y032734D01*
X037147Y032622D02*
X038260Y033735D01*
X036980Y032738D02*
X038260Y034017D01*
X037289Y032480D02*
X038260Y033452D01*
X037289Y032480D02*
X038260Y033452D01*
X036417Y032740D02*
X038260Y034583D01*
X036134Y032740D02*
X038217Y034823D01*
X036700Y032740D02*
X038260Y034300D01*
X037085Y032684D02*
X037434Y032335D01*
X036871Y032360D02*
X037110Y032121D01*
X036559Y032360D02*
X036871D01*
X036581Y032338D02*
X036603Y032360D01*
X036559D02*
X036834Y032085D01*
X036860Y032052D02*
X037020Y032211D01*
X036860Y032052D02*
X037020Y032211D01*
X036722Y032197D02*
X036878Y032353D01*
X035550Y032160D02*
X036221D01*
X035640Y031963D02*
X035837Y032160D01*
X036890Y031841D02*
X037110Y031621D01*
X036890Y031799D02*
X037110Y032019D01*
Y029719D02*
Y032121D01*
X036890Y031233D02*
X037110Y031453D01*
X036890Y031516D02*
X037110Y031736D01*
X036654Y032360D02*
X037110Y031904D01*
X036890Y031558D02*
X037110Y031338D01*
X036890Y030992D02*
X037110Y030772D01*
X036890Y030950D02*
X037110Y031170D01*
X037254Y029214D02*
X038260Y028208D01*
X036672Y030361D02*
X037110Y029924D01*
X036890Y031275D02*
X037110Y031055D01*
X035540Y028186D02*
X037110Y029756D01*
X036005Y032160D02*
X036510Y031655D01*
X036221Y032160D02*
X036510Y031871D01*
X036890Y030869D02*
Y031950D01*
X036510Y030869D02*
Y031871D01*
X035722Y032160D02*
X036510Y031372D01*
X035640Y031960D02*
X036510Y031089D01*
X036972Y030750D02*
X037110Y030887D01*
X036888Y030429D02*
X037110Y030207D01*
X036987Y030612D02*
X037110Y030489D01*
X035563Y031753D02*
X036479Y030838D01*
X035540Y028469D02*
X037110Y030039D01*
X042370Y027775D02*
X043506Y026639D01*
X042382Y027674D02*
X043506Y028798D01*
X042382Y025694D02*
X043506Y026818D01*
X042364Y027498D02*
X043506Y026356D01*
X042329Y027904D02*
X043506Y029081D01*
X042283Y029276D02*
X043506Y028053D01*
X042332Y025927D02*
X043506Y027101D01*
X042278Y027302D02*
X043506Y026073D01*
X042930Y023696D02*
X043506Y024273D01*
X042680Y023730D02*
X043506Y024556D01*
X043178Y023379D02*
X043506Y023707D01*
X043089Y023573D02*
X043506Y023990D01*
X042361Y025521D02*
X043506Y024376D01*
X042372Y025793D02*
X043506Y024659D01*
X042273Y025326D02*
X043506Y024093D01*
X043328Y022964D02*
X043506Y023141D01*
X043118Y023067D02*
X043198Y022987D01*
X043185Y023283D02*
X043506Y022962D01*
X043069Y022987D02*
X043506Y023424D01*
X043391Y022794D02*
X043506Y022679D01*
X043391Y022744D02*
X043506Y022859D01*
X043391Y022461D02*
X043506Y022576D01*
X043391Y022453D02*
Y022847D01*
X043052Y022987D02*
X043251D01*
X043391Y022511D02*
X043506Y022396D01*
Y016590D02*
Y045738D01*
X043298Y022321D02*
X043506Y022113D01*
X043200Y021987D02*
X043506Y022293D01*
X042818Y022313D02*
X043251D01*
X043024D02*
X043506Y021831D01*
X043391Y021612D02*
X043506Y021727D01*
X043385Y021889D02*
X043506Y022010D01*
X043391Y021663D02*
X043506Y021548D01*
X043391Y021453D02*
Y021847D01*
X042818Y021987D02*
X043251D01*
X042917D02*
X043244Y022313D01*
X042690Y022364D02*
X043067Y021987D01*
X042352D02*
X042719Y022354D01*
X042627Y021979D02*
X042961Y022313D01*
X042297D02*
X042582D01*
X042236Y022252D02*
X042501Y021987D01*
X042458Y022313D02*
X042788Y021983D01*
X041970Y029023D02*
X043506Y027487D01*
X042150Y029126D02*
X043506Y027770D01*
X041860Y026304D02*
X043506Y027950D01*
X042234Y027243D02*
X043506Y028515D01*
X038840Y031588D02*
X043506Y026922D01*
X041727Y028984D02*
X043506Y027205D01*
X041557Y026283D02*
X043506Y028233D01*
X042223Y026101D02*
X043506Y027384D01*
X042067Y026228D02*
X043506Y027667D01*
X041960Y027054D02*
X043506Y025508D01*
X042142Y027154D02*
X043506Y025790D01*
X040989Y023735D02*
X043506Y026253D01*
X041712Y027019D02*
X043506Y025225D01*
X041830Y023728D02*
X043506Y025404D01*
X038890Y025879D02*
X042100Y029090D01*
X038840Y029608D02*
X043506Y024942D01*
X039050Y024060D02*
X042157Y027166D01*
X038840Y027628D02*
X042733Y023735D01*
X038840Y027809D02*
X042070Y031039D01*
X038840Y027345D02*
X042517Y023668D01*
X041178Y023641D02*
X043506Y025970D01*
X042136Y025181D02*
X043506Y023811D01*
X041951Y025082D02*
X043506Y023528D01*
X042023Y023639D02*
X043506Y025121D01*
X040706Y023735D02*
X043506Y026535D01*
X038840Y027062D02*
X042377Y023525D01*
X042147Y023479D02*
X043506Y024838D01*
X042152Y023468D02*
X042315Y023305D01*
X042166Y023171D02*
X042350Y022987D01*
X042179Y023229D02*
X042320Y023370D01*
X041700Y025051D02*
X043506Y023245D01*
X041185Y023366D02*
X043506Y025687D01*
X042149Y022987D02*
X042448D01*
X042220D02*
X042354Y023120D01*
X042149Y021987D02*
X042582D01*
X042095Y022111D02*
X042218Y021987D01*
X041922Y021840D02*
X042395Y022313D01*
X041824Y021840D02*
X042297Y022313D01*
X041897Y021460D02*
X042320Y021037D01*
X042060Y022994D02*
X042083Y022971D01*
X042009Y022562D02*
Y022847D01*
X041885Y022886D02*
X042009Y022762D01*
X041595Y022893D02*
X041967Y022521D01*
X041273Y022040D02*
X042009Y022775D01*
X041953Y021969D02*
X042020Y021902D01*
X041614Y021460D02*
X042065Y021009D01*
X041824Y021840D02*
X042009D01*
X037550Y021460D02*
X042009D01*
X041487Y022040D02*
X042009Y022562D01*
X036532Y022016D02*
X041958Y016590D01*
X043345Y021001D02*
X043506Y021161D01*
X043378Y021393D02*
X043506Y021265D01*
X043391Y020503D02*
Y020897D01*
X043099Y021037D02*
X043506Y021444D01*
X043175Y021313D02*
X043506Y020982D01*
X043391Y020814D02*
X043506Y020699D01*
X043391Y020764D02*
X043506Y020879D01*
X043391Y020531D02*
X043506Y020416D01*
X043389Y020479D02*
X043506Y020596D01*
X043047Y020137D02*
X043276Y020365D01*
X042818Y021313D02*
X043251D01*
X042892D02*
X043168Y021037D01*
X042818D02*
X043251D01*
X042816D02*
X043092Y021313D01*
X042607Y021315D02*
X042886Y021037D01*
X042818Y020363D02*
X043251D01*
X042994D02*
X043220Y020137D01*
X042675Y020399D02*
X042937Y020137D01*
X043391Y019966D02*
X043506Y019851D01*
X043391Y019915D02*
X043506Y020030D01*
X043391Y019683D02*
X043506Y019568D01*
X043391Y019632D02*
X043506Y019747D01*
X043315Y020122D02*
X043506Y020313D01*
X043275Y020365D02*
X043506Y020134D01*
X042735Y019491D02*
X043506Y018719D01*
X043045Y019463D02*
X043506Y019002D01*
X043313Y019478D02*
X043506Y019285D01*
X043177Y016590D02*
X043506Y016919D01*
X043460Y016590D02*
X043506Y016636D01*
X042894Y016590D02*
X043506Y017202D01*
X042635Y018176D02*
X043506Y017305D01*
X042612Y016590D02*
X043506Y017485D01*
X043391Y019603D02*
Y019997D01*
X042818Y020137D02*
X043251D01*
X042741Y020114D02*
X042991Y020363D01*
X042818Y019463D02*
X043251D01*
X042654Y018330D02*
X043506Y019182D01*
X042629Y018587D02*
X043506Y019464D01*
X042652Y018442D02*
X043506Y017588D01*
X042533Y021037D02*
X042809Y021313D01*
X042326D02*
X042605Y021035D01*
X042149Y021037D02*
X042582D01*
X042149Y021313D02*
X042582D01*
X042250Y021037D02*
X042526Y021313D01*
X042481Y020137D02*
X042735Y020390D01*
X042199Y020137D02*
X042425Y020363D01*
X042428D02*
X042708Y020083D01*
X042149Y020137D02*
X042582D01*
X042149Y020363D02*
X042582D01*
X042145D02*
X042371Y020137D01*
X041979Y020510D02*
X042009D01*
X041940Y020444D02*
X042006Y020510D01*
X041670Y020739D02*
X042244Y021313D01*
X041900Y020890D02*
X042009D01*
X041939Y020471D02*
X041979Y020510D01*
X041908Y020317D02*
X042098Y020127D01*
X041869Y019990D02*
X042009D01*
X041816Y020038D02*
X042142Y020363D01*
X041761Y020182D02*
X041953Y019990D01*
X041869Y019610D02*
X042009D01*
X042479Y019463D02*
X043506Y018436D01*
X042552Y018793D02*
X043222Y019463D01*
X042509Y018868D02*
X043506Y017871D01*
X042553Y017946D02*
X043506Y018899D01*
X042197Y019463D02*
X043506Y018154D01*
X042439Y018963D02*
X042939Y019463D01*
X041480Y016590D02*
X043506Y018616D01*
X042454Y017792D02*
X043506Y016739D01*
X042563Y017966D02*
X043506Y017022D01*
X042329Y016590D02*
X043506Y017767D01*
X042313Y017649D02*
X043373Y016590D01*
X042046D02*
X043506Y018050D01*
X041763Y016590D02*
X043506Y018333D01*
X042141Y017539D02*
X043090Y016590D01*
X042295Y019102D02*
X042709Y019516D01*
X041906Y019279D02*
X042100Y019472D01*
X041815Y019562D02*
X042227Y019150D01*
X041636Y019291D02*
X041955Y019610D01*
X037238Y016590D02*
X042029Y021381D01*
X042149Y019463D02*
X042582D01*
X042119Y019209D02*
X042373Y019463D01*
X041933Y017464D02*
X042807Y016590D01*
X041671Y017443D02*
X042524Y016590D01*
X041197D02*
X042150Y017543D01*
X041269Y017563D02*
X042241Y016590D01*
X038887Y026442D02*
X041486Y029041D01*
X038840Y026678D02*
X041317Y029155D01*
X038890Y026162D02*
X041713Y028985D01*
X038840Y029042D02*
X041589Y026293D01*
X038840Y030456D02*
X041254Y028042D01*
X038840Y027526D02*
X041162Y029849D01*
X038840Y029325D02*
X041861Y026304D01*
X038840Y026961D02*
X041194Y029315D01*
X038890Y024748D02*
X041325Y027182D01*
X038890Y025031D02*
X041199Y027340D01*
X038909Y024201D02*
X041726Y027018D01*
X038890Y024465D02*
X041496Y027071D01*
X038840Y028759D02*
X041395Y026204D01*
X038840Y028477D02*
X041249Y026067D01*
X038890Y025596D02*
X041154Y027860D01*
X038840Y028194D02*
X041151Y025883D01*
X038840Y027243D02*
X041124Y029528D01*
X038890Y025314D02*
X041126Y027549D01*
X038840Y027911D02*
X041120Y025631D01*
X038840Y030174D02*
X041154Y027860D01*
X038840Y029891D02*
X041119Y027612D01*
X038840Y026563D02*
Y034900D01*
X039192Y023918D02*
X041148Y025875D01*
X038890Y024220D02*
Y026400D01*
X039333Y023777D02*
X041128Y025571D01*
X038890Y025315D02*
X040470Y023735D01*
X040418Y023730D02*
X041737Y025050D01*
X039475Y023635D02*
X041203Y025364D01*
X039758Y023353D02*
X041504Y025099D01*
X039616Y023494D02*
X041331Y025209D01*
X038840Y026780D02*
X041918Y023702D01*
X038885Y026451D02*
X041621Y023716D01*
X038890Y026164D02*
X041444Y023610D01*
X041185Y023083D02*
X041322Y023220D01*
X041185Y023586D02*
X041336Y023435D01*
X041185Y023303D02*
X041343Y023145D01*
X038890Y025881D02*
X041036Y023735D01*
X038890Y025598D02*
X040753Y023735D01*
X038890Y025032D02*
X040315Y023607D01*
X038890Y024750D02*
X040315Y023325D01*
X038890Y024220D02*
X040705Y022405D01*
X038890Y024467D02*
X040315Y023042D01*
X038395Y023895D02*
X040250Y022040D01*
X040455Y023735D02*
X041045D01*
X041185Y023005D02*
Y023595D01*
X040315Y023005D02*
Y023595D01*
X039899Y023211D02*
X040320Y023632D01*
X040040Y023070D02*
X040315Y023344D01*
X040182Y022928D02*
X040315Y023061D01*
X035540Y030362D02*
X038260Y027642D01*
X035540Y030645D02*
X038260Y027925D01*
X035676Y026342D02*
X038260Y028926D01*
Y026450D02*
Y034780D01*
X035540Y026772D02*
X038260Y029492D01*
X035540Y030080D02*
X038260Y027360D01*
X035540Y029231D02*
X038260Y026511D01*
X038310Y024100D02*
Y026287D01*
X036090Y024211D02*
X038267Y026387D01*
X036090Y023928D02*
X038310Y026148D01*
X035818Y026201D02*
X038260Y028643D01*
X035540Y027620D02*
X037164Y029244D01*
X036083Y025901D02*
X038260Y028078D01*
X035959Y026060D02*
X038260Y028361D01*
X035540Y029514D02*
X038260Y026794D01*
X035540Y029797D02*
X038260Y027077D01*
X035540Y026479D02*
Y031731D01*
X036090Y025342D02*
X038260Y027512D01*
X036090Y025625D02*
X038260Y027795D01*
X036090Y024776D02*
X038260Y026946D01*
X036090Y025059D02*
X038260Y027229D01*
X036090Y024493D02*
X038260Y026663D01*
X036090Y025287D02*
X039337Y022040D01*
X036090Y025004D02*
X039054Y022040D01*
X036090Y024721D02*
X038771Y022040D01*
X036090Y024438D02*
X038488Y022040D01*
X035540Y026685D02*
X040185Y022040D01*
X036090Y025853D02*
X039903Y022040D01*
X036090Y025570D02*
X039620Y022040D01*
X037738Y022181D02*
X038923Y023367D01*
X037596Y022323D02*
X038782Y023508D01*
X038162Y022040D02*
X039206Y023084D01*
X037879Y022040D02*
X039065Y023225D01*
X037313Y022605D02*
X038499Y023791D01*
X037172Y022747D02*
X038361Y023936D01*
X037455Y022464D02*
X038640Y023650D01*
X036606Y023313D02*
X038310Y025016D01*
X036526Y023515D02*
X038310Y025299D01*
X036889Y023030D02*
X038310Y024451D01*
X036748Y023171D02*
X038310Y024734D01*
X036401Y023673D02*
X038310Y025582D01*
X036137Y023692D02*
X038310Y025865D01*
X036090Y023667D02*
Y025850D01*
X037030Y022888D02*
X038310Y024168D01*
X036540Y023423D02*
X037923Y022040D01*
X036537Y023382D02*
X037879Y022040D01*
X036090Y023873D02*
X036248Y023715D01*
X036090Y024155D02*
X038205Y022040D01*
X041185Y023020D02*
X041826Y022379D01*
X040990Y022040D02*
X041821Y022871D01*
X041057Y022865D02*
X041685Y022238D01*
X040775Y022107D02*
X041571Y022903D01*
X040743Y022358D02*
X041411Y023027D01*
X040775Y022865D02*
X041543Y022096D01*
X040742Y022040D02*
X041487D01*
X040771Y022303D02*
X041034Y022040D01*
X041331Y021460D02*
X041901Y020890D01*
X040455Y022865D02*
X041045D01*
X040606Y022504D02*
X040967Y022865D01*
X040492D02*
X041317Y022040D01*
X040323Y022787D02*
X040409Y022872D01*
X040465Y022646D02*
X040684Y022865D01*
X039293Y022040D02*
X039772Y022518D01*
X038728Y022040D02*
X039489Y022801D01*
X038445Y022040D02*
X039347Y022942D01*
X039011Y022040D02*
X039630Y022660D01*
X039859Y022040D02*
X040054Y022235D01*
X039576Y022040D02*
X039913Y022377D01*
X040142Y022040D02*
X040196Y022094D01*
X041048Y021460D02*
X041720Y020788D01*
X041671Y020739D02*
X041765Y020834D01*
X040200Y021460D02*
X041579Y020081D01*
X040765Y021460D02*
X041517Y020708D01*
X039351Y021460D02*
X041535Y019276D01*
X041577Y020081D02*
X041656Y020160D01*
X041574Y019520D02*
X041801Y019293D01*
X041175Y019114D02*
X041580Y019519D01*
X040632Y016590D02*
X041509Y017467D01*
X038369Y016590D02*
X041413Y019634D01*
X040914Y016590D02*
X041766Y017442D01*
X039917Y021460D02*
X041412Y019965D01*
X040483Y021460D02*
X041382Y020561D01*
X039634Y021460D02*
X041370Y019724D01*
X039068Y021460D02*
X041325Y019204D01*
X038786Y021460D02*
X041151Y019095D01*
X038503Y021460D02*
X041008Y018954D01*
X038220Y021460D02*
X040898Y018782D01*
X039783Y016590D02*
X040994Y017801D01*
X039500Y016590D02*
X040887Y017977D01*
X040349Y016590D02*
X041303Y017544D01*
X040066Y016590D02*
X041133Y017657D01*
X038652Y016590D02*
X040983Y018921D01*
X038935Y016590D02*
X040805Y018460D01*
X039217Y016590D02*
X040817Y018190D01*
X037879Y022040D02*
X040250D01*
X036508Y022083D02*
X036678Y022253D01*
X036540Y021549D02*
X036961Y021970D01*
X036476Y021768D02*
X036820Y022112D01*
X036271Y022661D02*
X037415Y021516D01*
X036081Y020525D02*
X037244Y021687D01*
X036134Y020860D02*
X037102Y021829D01*
X036135Y020296D02*
X037385Y021546D01*
X036090Y022379D02*
Y022708D01*
X036360Y022218D02*
X036537Y022395D01*
X036164Y022305D02*
X036395Y022536D01*
X036090Y022514D02*
X036237Y022660D01*
X036090Y022379D02*
X036229Y022239D01*
X036090Y022458D02*
X036316Y022232D01*
X037937Y021460D02*
X040823Y018574D01*
X037654Y021460D02*
X040802Y018312D01*
X036955Y016590D02*
X041825Y021460D01*
X036485Y021780D02*
X041676Y016590D01*
X036389D02*
X041259Y021460D01*
X036155Y022676D02*
X040922Y017910D01*
X036106Y016590D02*
X040976Y021460D01*
X036672Y016590D02*
X041542Y021460D01*
X037520Y016590D02*
X041361Y020430D01*
X037803Y016590D02*
X041452Y020238D01*
X038086Y016590D02*
X041369Y019873D01*
X036399Y021301D02*
X041110Y016590D01*
X036321Y021096D02*
X040827Y016590D01*
X036525Y021458D02*
X041393Y016590D01*
X036124Y020444D02*
X039979Y016590D01*
X036122Y020000D02*
X037582Y021460D01*
X036189Y020945D02*
X040544Y016590D01*
X036129Y020722D02*
X040261Y016590D01*
X035823D02*
X040693Y021460D01*
X035540Y016590D02*
X040410Y021460D01*
X036093Y020192D02*
X039696Y016590D01*
X036138Y019865D02*
X039413Y016590D01*
X036040Y019681D02*
X039130Y016590D01*
X035826Y019611D02*
X038847Y016590D01*
X035550Y019710D02*
X035631D01*
X035056Y044390D02*
X036404Y045738D01*
X034882Y044498D02*
X036121Y045738D01*
X035438D02*
X038471Y042704D01*
X035155Y045738D02*
X038388Y042505D01*
X034307Y045738D02*
X039705Y040340D01*
X034024Y045738D02*
X039422Y040340D01*
X034873Y045738D02*
X040270Y040340D01*
X034590Y045738D02*
X039987Y040340D01*
X035225Y043993D02*
X036969Y045738D01*
X035450Y039560D02*
X040538D01*
X035224Y043972D02*
X038856Y040340D01*
X035175Y044226D02*
X036687Y045738D01*
X034631Y044530D02*
X035838Y045738D01*
X035163Y043750D02*
X038573Y040340D01*
X035037Y043594D02*
X035766Y042864D01*
X034855Y043492D02*
X035559Y042789D01*
X034588Y043476D02*
X035428Y042636D01*
X035410Y040462D02*
Y042306D01*
X034117Y040340D02*
X035410Y041633D01*
X033835Y040340D02*
X035410Y041915D01*
X034966Y040340D02*
X035410Y040784D01*
X034683Y040340D02*
X035410Y041067D01*
X035288Y040340D02*
X035410Y040462D01*
X035249Y040340D02*
X035410Y040501D01*
X034400Y040340D02*
X035410Y041350D01*
X033785Y038876D02*
X034469Y039560D01*
X033785Y038028D02*
X035317Y039560D01*
X035162Y037990D02*
X036732Y039560D01*
X035110D02*
X036680Y037990D01*
X035444D02*
X037014Y039560D01*
X035393D02*
X036963Y037990D01*
X034879D02*
X036449Y039560D01*
X034545D02*
X036115Y037990D01*
X034591Y037986D02*
X036166Y039560D01*
X034828D02*
X036398Y037990D01*
X034915Y037210D02*
X036235Y035890D01*
X035481Y037210D02*
X036801Y035890D01*
X035198Y037210D02*
X036518Y035890D01*
X034650Y037990D02*
X037700D01*
X034812Y037210D02*
X037538D01*
X034640Y035489D02*
X036361Y037210D01*
X034262Y039560D02*
X035832Y037990D01*
X033979Y039560D02*
X035549Y037990D01*
X033785Y037745D02*
X035600Y039560D01*
X033785Y038057D02*
X034170Y037672D01*
X033781Y038909D02*
X034701Y037990D01*
X033744Y038664D02*
X034465Y037943D01*
X033785Y037555D02*
Y038145D01*
X035200Y036897D02*
X035513Y037210D01*
X034640Y035771D02*
X036079Y037210D01*
X035212Y036627D02*
X035796Y037210D01*
X033785Y037774D02*
X034029Y037530D01*
X033775Y037502D02*
X033887Y037389D01*
X033187Y041389D02*
X037535Y045738D01*
X033207Y044292D02*
X035410Y042089D01*
X033213Y040850D02*
X038101Y045738D01*
X033248Y041167D02*
X037818Y045738D01*
X029650D02*
X043506D01*
X032044D02*
X035388Y042393D01*
X033076Y041562D02*
X037252Y045738D01*
X033190Y043743D02*
X035410Y041523D01*
X033249Y043967D02*
X035410Y041806D01*
X033081Y043569D02*
X035410Y041240D01*
X033269Y040340D02*
X035384Y042456D01*
X032742Y043343D02*
X035410Y040675D01*
X032933Y043435D02*
X035410Y040958D01*
X032493Y043309D02*
X035375Y040427D01*
X033458Y045738D02*
X034663Y044533D01*
X033176Y045738D02*
X034441Y044472D01*
X033251Y043999D02*
X034990Y045738D01*
X033221Y044251D02*
X034707Y045738D01*
X033130Y044444D02*
X034424Y045738D01*
X032997Y044594D02*
X034141Y045738D01*
X032893D02*
X034284Y044346D01*
X032734Y041785D02*
X034465Y043516D01*
X032824Y044704D02*
X033858Y045738D01*
X032926Y041694D02*
X034698Y043466D01*
X033223Y040882D02*
X033765Y040340D01*
X032610Y045738D02*
X034183Y044164D01*
X032327Y045738D02*
X034167Y043897D01*
X032482Y041816D02*
X034301Y043635D01*
X033741Y045738D02*
X039139Y040340D01*
X033552D02*
X035410Y042198D01*
X032960Y040314D02*
X038384Y045738D01*
X029781D02*
X035179Y040340D01*
X029650Y040115D02*
X035272Y045738D01*
X029650Y045586D02*
X034896Y040340D01*
X029650Y039832D02*
X035555Y045738D01*
X033731Y038256D02*
X035035Y039560D01*
X033477Y038285D02*
X034752Y039560D01*
X033696D02*
X035266Y037990D01*
X033413Y039560D02*
X034983Y037990D01*
X033262Y039560D02*
X035450D01*
X033100Y040340D02*
X035288D01*
X033413Y037090D02*
X035883Y039560D01*
X029650Y045020D02*
X034330Y040340D01*
X033250Y041137D02*
X034048Y040340D01*
X033714Y039088D02*
X034186Y039560D01*
X033569Y039226D02*
X033903Y039560D01*
X029650Y045303D02*
X034613Y040340D01*
X029650Y039550D02*
X034161Y044060D01*
X029650Y039267D02*
X034193Y043809D01*
X033618Y038507D02*
X034312Y037813D01*
X033588Y037090D02*
X034374Y037876D01*
X033579Y037415D02*
X033746Y037248D01*
X035213Y036629D02*
X035952Y035890D01*
X035072Y036487D02*
X035669Y035890D01*
X034640Y035206D02*
X036644Y037210D01*
X034873Y036404D02*
X035437Y035840D01*
X034640Y034640D02*
X035395Y035395D01*
X034640Y033226D02*
X036724Y035310D01*
X034640Y034357D02*
X035593Y035310D01*
X035136Y033156D02*
X037290Y035310D01*
X034837Y033140D02*
X037007Y035310D01*
X034640Y033791D02*
X036159Y035310D01*
X034640Y034074D02*
X035876Y035310D01*
X034640Y033509D02*
X036441Y035310D01*
X035044Y037024D02*
X035230Y037210D01*
X034722Y037120D02*
X034829Y037013D01*
X034580Y036979D02*
X034687Y036872D01*
X034439Y036837D02*
X034604Y036673D01*
X034316Y036385D02*
X034661Y036729D01*
X034640Y036054D02*
X035073Y036488D01*
X034640Y036171D02*
X034929Y036461D01*
X034731Y036262D02*
X035320Y035674D01*
X034640Y033242D02*
X034786Y033096D01*
X034640Y034923D02*
X035310Y035593D01*
X034298Y036696D02*
X034462Y036531D01*
X034640Y033525D02*
X034976Y033189D01*
X035286Y032740D02*
X037793Y035247D01*
X035270Y033007D02*
X037573Y035310D01*
X034640Y035788D02*
X038260Y032168D01*
X034640Y036071D02*
X038260Y032451D01*
X034640Y035505D02*
X038260Y031885D01*
X034640Y034939D02*
X036839Y032740D01*
X034640Y035222D02*
X038260Y031602D01*
X035540Y030732D02*
X036510Y031702D01*
X035540Y030732D02*
X036510Y031702D01*
X035540Y030166D02*
X036510Y031136D01*
X035540Y030449D02*
X036510Y031419D01*
X035242Y032740D02*
X036950D01*
X034640Y034656D02*
X036556Y032740D01*
X035540Y031015D02*
X036453Y031928D01*
X034640Y032809D02*
Y036171D01*
Y034374D02*
X036274Y032740D01*
X034640Y034091D02*
X035991Y032740D01*
X034640Y032943D02*
X034760Y033063D01*
X034640Y032959D02*
X034710Y032889D01*
X034640Y033808D02*
X035708Y032740D01*
X035540Y031580D02*
X036120Y032160D01*
X035540Y031494D02*
X036411Y030622D01*
X035540Y031297D02*
X036312Y032069D01*
X034640Y032809D02*
X034711Y032879D01*
X035289Y032876D02*
X035425Y032740D01*
X034026Y036424D02*
X034812Y037210D01*
X034156Y036555D02*
X034321Y036390D01*
X033827Y036318D02*
X034260Y035885D01*
X034014Y036413D02*
X034260Y036168D01*
X033264Y035527D02*
X034947Y037210D01*
X033683Y035380D02*
X034260Y035957D01*
X033552Y036310D02*
X034260Y035602D01*
X033682Y034530D02*
X034260Y035109D01*
X033776Y035190D02*
X034260Y035674D01*
X033269Y036310D02*
X034260Y035319D01*
X033521Y035500D02*
X034260Y036240D01*
X033404Y034535D02*
X034260Y035391D01*
X033162Y036310D02*
X033750D01*
X033756Y035258D02*
X034260Y034754D01*
X032940Y035486D02*
X033765Y036310D01*
X033074Y036222D02*
X034260Y035036D01*
X033785Y034351D02*
X034260Y034826D01*
X033764Y034966D02*
X034260Y034471D01*
X033785Y034068D02*
X034260Y034543D01*
X033657Y034791D02*
X034260Y034188D01*
X033785Y034097D02*
X034260Y033622D01*
X033785Y034380D02*
X034260Y033905D01*
Y032056D02*
Y036250D01*
X033785Y033814D02*
X034260Y033339D01*
X033341Y033059D02*
X034260Y033977D01*
X033784Y033784D02*
X034260Y034260D01*
X033483Y032917D02*
X034260Y033694D01*
X033694Y032563D02*
X034260Y033129D01*
X033652Y033665D02*
X034260Y033057D01*
X033695Y032281D02*
X034260Y032846D01*
X033621Y032772D02*
X034260Y033411D01*
X033369Y033665D02*
X034260Y032774D01*
X033086Y033665D02*
X034260Y032491D01*
X033785Y033805D02*
Y034395D01*
X033876Y032179D02*
X034260Y032563D01*
X033200Y033200D02*
X033666Y033666D01*
X032940Y033528D02*
X034260Y032208D01*
X034127Y032147D02*
X034260Y032280D01*
X033695Y032490D02*
X034003Y032182D01*
X034133Y030355D02*
X034260Y030228D01*
X033695Y032103D02*
Y032544D01*
Y032208D02*
X033760Y032142D01*
X033695Y030301D02*
X033755Y030361D01*
X033134Y040688D02*
X033482Y040340D01*
X033003Y040536D02*
X033199Y040340D01*
X032832Y040425D02*
X032947Y040309D01*
X032603Y044765D02*
X033575Y045738D01*
X032285Y044730D02*
X033292Y045738D01*
X033346Y039285D02*
X033620Y039560D01*
X033196Y039495D02*
X033409Y039281D01*
X033055Y039353D02*
X033164Y039244D01*
X032913Y039212D02*
X033007Y039118D01*
X031674Y039076D02*
X032824Y040226D01*
X032772Y039070D02*
X032921Y038921D01*
X031761Y045738D02*
X032775Y044724D01*
X031479Y045738D02*
X032450Y044766D01*
X031196Y045738D02*
X032226Y044707D01*
X031331Y039533D02*
X032219Y040421D01*
X030913Y045738D02*
X032052Y044598D01*
X031091Y039576D02*
X032046Y040532D01*
X030808Y039576D02*
X031913Y040682D01*
X032612Y040361D02*
X032786Y040187D01*
X032301Y040390D02*
X032645Y040046D01*
X031531Y039167D02*
X032758Y040395D01*
X031532Y039179D02*
X031655Y039055D01*
X031477Y039396D02*
X032441Y040360D01*
X031455Y038972D02*
X031565Y038863D01*
X032340Y038563D02*
X033337Y039560D01*
X032340Y038638D02*
X033262Y039560D01*
X032630Y038929D02*
X033274Y038285D01*
X032489Y038787D02*
X033002Y038275D01*
X032340Y038280D02*
X032915Y038854D01*
X033421Y038421D02*
X033557Y038285D01*
X033194D02*
X033324Y038415D01*
X032348Y038646D02*
X032915Y038079D01*
X032340Y036592D02*
Y038638D01*
Y037997D02*
X032974Y038631D01*
X032340Y038371D02*
X032915Y037796D01*
X032340Y037714D02*
X033112Y038486D01*
X031295Y038850D02*
X031560Y038585D01*
X031217Y038571D02*
X031586Y038940D01*
X031038Y038824D02*
X031327Y038535D01*
X030756Y038824D02*
X031003Y038576D01*
X030657D02*
X030904Y038824D01*
X030939Y038576D02*
X031188Y038825D01*
X031517Y038305D02*
X031560Y038348D01*
X031408Y038479D02*
X031560Y038631D01*
Y033540D02*
Y038800D01*
X031491Y038371D02*
X031560Y038302D01*
X030644Y038576D02*
X031156D01*
X029650Y043226D02*
X032161Y045738D01*
X030630D02*
X031918Y044450D01*
X029650Y042378D02*
X033010Y045738D01*
X029650Y042944D02*
X032444Y045738D01*
X029650Y042661D02*
X032727Y045738D01*
X029650Y043509D02*
X031878Y045738D01*
X029650Y044738D02*
X032573Y041815D01*
X029650Y041247D02*
X031967Y043564D01*
X029650Y043606D02*
X031860Y041396D01*
X029650Y040681D02*
X032309Y043340D01*
X029650Y040964D02*
X032117Y043431D01*
X029650Y044455D02*
X032317Y041788D01*
X029650Y044172D02*
X032123Y041699D01*
X029650Y043889D02*
X031972Y041567D01*
X030347Y045738D02*
X031825Y044260D01*
X029650Y044075D02*
X031313Y045738D01*
X030064D02*
X031792Y044010D01*
X029650Y043792D02*
X031595Y045738D01*
X029650Y045206D02*
X030181Y045738D01*
X029650Y045489D02*
X029898Y045738D01*
X029650Y044358D02*
X031030Y045738D01*
X029650Y041529D02*
X031857Y043736D01*
X029650Y041812D02*
X031796Y043958D01*
X029650Y043041D02*
X031825Y040865D01*
X029650Y043323D02*
X031797Y041177D01*
X029650Y044641D02*
X030747Y045738D01*
X029650Y044924D02*
X030464Y045738D01*
X029650Y042095D02*
X031830Y044276D01*
X029650Y042192D02*
X032220Y039622D01*
X029650Y041909D02*
X032079Y039480D01*
X029650Y041626D02*
X031937Y039339D01*
X029650Y041344D02*
X031796Y039198D01*
X029650Y040398D02*
X032561Y043310D01*
X029650Y042758D02*
X032503Y039905D01*
X029650Y042475D02*
X032362Y039763D01*
X030644Y039576D02*
X031156D01*
X029650Y041061D02*
X031134Y039576D01*
X030494Y039545D02*
X031823Y040874D01*
X030644Y038824D02*
X031156D01*
X029650Y038984D02*
X031792Y041126D01*
X029650Y040778D02*
X030852Y039576D01*
X029650Y039646D02*
X030720Y038576D01*
X029650Y040495D02*
X030575Y039570D01*
X029650Y040212D02*
X030387Y039475D01*
X029650Y035450D02*
Y045738D01*
Y038701D02*
X030299Y039350D01*
X029650Y039929D02*
X030281Y039298D01*
X029650Y039364D02*
X030477Y038537D01*
X029650Y039081D02*
X030328Y038403D01*
X029650Y038418D02*
X030294Y039062D01*
X029650Y038135D02*
X030416Y038901D01*
X029650Y037852D02*
X030622Y038824D01*
X029650Y038798D02*
X030268Y038180D01*
X029650Y038515D02*
X030589Y037576D01*
X033055Y038285D02*
X033645D01*
X032340Y037805D02*
X033055Y037090D01*
Y037415D02*
X033645D01*
X033296D02*
X033605Y037106D01*
X033130Y037090D02*
X033455Y037415D01*
X033003Y037424D02*
X033338Y037090D01*
X033000D02*
X033588D01*
X032778Y037021D02*
X033172Y037415D01*
X032340Y038088D02*
X032924Y037503D01*
X032915Y037555D02*
Y038145D01*
X032340Y037431D02*
X032915Y038006D01*
X032340Y037522D02*
X032817Y037045D01*
X031528Y037468D02*
X031560Y037500D01*
X031509Y038070D02*
X031560Y038019D01*
X032340Y037148D02*
X032915Y037723D01*
X031532Y037189D02*
X031560Y037217D01*
X032340Y037239D02*
X032664Y036915D01*
X031532Y036964D02*
Y037436D01*
Y037199D02*
X031560Y037171D01*
X031520Y037494D02*
X031560Y037454D01*
X031526Y036922D02*
X031560Y036888D01*
X032940Y036074D02*
X033508Y035506D01*
X032940Y035791D02*
X033216Y035514D01*
X033480Y034685D02*
X033630Y034535D01*
X033185Y034697D02*
X033347Y034535D01*
X032940Y036051D02*
X033199Y036310D01*
X032940Y036088D02*
X033162Y036310D01*
X032940Y035768D02*
X033482Y036310D01*
X033121Y034535D02*
X033260Y034674D01*
X033059Y033341D02*
X033382Y033665D01*
X033055D02*
X033645D01*
X033055Y034535D02*
X033645D01*
X032940Y033460D02*
X033581Y032820D01*
X032340Y036592D02*
X032724Y036976D01*
X032340Y036956D02*
X032522Y036774D01*
X032940Y035508D02*
X033041Y035407D01*
X032940Y035246D02*
Y036088D01*
X032340Y036865D02*
X032944Y037469D01*
X031497Y036871D02*
X031560Y036934D01*
X032340Y036674D02*
X032381Y036633D01*
X032940Y033506D02*
X033099Y033665D01*
X032940Y033460D02*
Y033724D01*
Y034637D02*
X033070Y034767D01*
X032940Y034659D02*
X033064Y034535D01*
X032940Y034476D02*
Y034954D01*
X031391Y037906D02*
X031560Y037736D01*
X031071Y037576D02*
X031560Y038065D01*
X031188Y037825D02*
X031450Y037564D01*
X030907Y037824D02*
X031155Y037576D01*
X030788D02*
X031036Y037824D01*
X031354Y037576D02*
X031560Y037783D01*
X031341Y036824D02*
X031560Y036605D01*
X030408Y037576D02*
X031392D01*
X030644Y037824D02*
X031156D01*
X030408Y036824D02*
X031392D01*
X029650Y038232D02*
X030330Y037552D01*
X029650Y037570D02*
X030268Y038188D01*
X029650Y037287D02*
X030341Y037977D01*
X029650Y037949D02*
X030268Y037332D01*
X029650Y037004D02*
X030499Y037853D01*
X030624Y037824D02*
X030872Y037576D01*
X030505D02*
X030753Y037824D01*
X030268Y036964D02*
Y037436D01*
X029650Y037667D02*
X030268Y037049D01*
X029650Y036721D02*
X030268Y037339D01*
X030776Y036824D02*
X031560Y036039D01*
X031058Y036824D02*
X031560Y036322D01*
X030004Y035096D02*
X031560Y036651D01*
X030493Y036824D02*
X031560Y035757D01*
X029650Y037101D02*
X031560Y035191D01*
X029650Y037384D02*
X031560Y035474D01*
X029650Y036818D02*
X031560Y034908D01*
X030429Y034671D02*
X031560Y035803D01*
X030287Y034813D02*
X031560Y036085D01*
X031277Y033823D02*
X031560Y034106D01*
X031136Y033964D02*
X031560Y034388D01*
X029650Y036535D02*
X031560Y034625D01*
X030146Y034954D02*
X031560Y036368D01*
X029650Y035450D02*
X031560Y033540D01*
X029722Y035378D02*
X031167Y036824D01*
X029650Y036438D02*
X030268Y037056D01*
X029650Y036252D02*
X031560Y034342D01*
X029863Y035237D02*
X031485Y036859D01*
X029650Y035873D02*
X030601Y036824D01*
X029650Y036155D02*
X030337Y036843D01*
X029650Y035590D02*
X030884Y036824D01*
X030853Y034247D02*
X031560Y034954D01*
X030712Y034388D02*
X031560Y035237D01*
X031419Y033681D02*
X031560Y033823D01*
X030994Y034106D02*
X031560Y034671D01*
X029650Y035970D02*
X031560Y034060D01*
X030570Y034530D02*
X031560Y035520D01*
X029650Y035687D02*
X031560Y033777D01*
X035540Y031211D02*
X037072Y029679D01*
X035540Y029883D02*
X036445Y030788D01*
X035540Y029035D02*
X037110Y030605D01*
X035540Y030928D02*
X037014Y029454D01*
X035540Y029600D02*
X036447Y030508D01*
X033886Y030319D02*
X034260Y029945D01*
X035540Y028752D02*
X037110Y030322D01*
X035540Y029317D02*
X036600Y030378D01*
X035540Y027338D02*
X037462Y029259D01*
X035540Y027903D02*
X037030Y029394D01*
X035540Y026489D02*
X038260Y029209D01*
X035540Y027055D02*
X038260Y029775D01*
X033695Y029945D02*
X034260Y029380D01*
X033695Y030228D02*
X034260Y029662D01*
X033695Y029169D02*
X034260Y029735D01*
X033695Y027755D02*
X034260Y028320D01*
X033695Y028531D02*
X034260Y027965D01*
X033695Y027472D02*
X034260Y028037D01*
X033695Y028248D02*
X034260Y027683D01*
X033695Y029452D02*
X034260Y030017D01*
X033695Y030018D02*
X033994Y030317D01*
X033695Y028038D02*
X034260Y028603D01*
X033695Y027399D02*
X034260Y026834D01*
X033695Y026906D02*
X034260Y027472D01*
X033695Y027116D02*
X034260Y026551D01*
X033695Y026624D02*
X034260Y027189D01*
X033695D02*
X034260Y027755D01*
X033695Y027965D02*
X034260Y027400D01*
X033695Y027682D02*
X034260Y027117D01*
X035540Y027817D02*
X038310Y025047D01*
X035540Y028100D02*
X038310Y025330D01*
X035540Y027251D02*
X038310Y024481D01*
X035540Y027534D02*
X038310Y024764D01*
X035540Y028665D02*
X038310Y025895D01*
X035540Y028948D02*
X038310Y026178D01*
X035540Y028382D02*
X038310Y025612D01*
X035540Y026968D02*
X038310Y024198D01*
X035540Y026479D02*
X036034Y025985D01*
X034860Y021150D02*
Y025471D01*
X034325Y022243D02*
X034860Y021709D01*
X034209Y021481D02*
X034860Y022132D01*
X033935Y021490D02*
X034860Y022415D01*
X033934Y022069D02*
X034860Y021143D01*
X034260Y026150D02*
Y030444D01*
X034316Y026015D02*
X034860Y025471D01*
X034187Y022590D02*
X034860Y023263D01*
X033695Y024905D02*
Y030397D01*
X033891Y022577D02*
X034860Y023546D01*
X034320Y022441D02*
X034860Y022981D01*
X034200Y022086D02*
X034860Y021426D01*
X033695Y025209D02*
X034408Y025923D01*
X033695Y025492D02*
X034276Y026074D01*
X033695Y025985D02*
X034860Y024820D01*
X033695Y024927D02*
X034550Y025782D01*
X033695Y026551D02*
X034860Y025385D01*
X033695Y029379D02*
X034260Y028814D01*
X033695Y026268D02*
X034860Y025103D01*
X033695Y025419D02*
X034860Y024254D01*
X033695Y025702D02*
X034860Y024537D01*
X033692Y024857D02*
X034860Y023688D01*
X033695Y025137D02*
X034860Y023971D01*
X033467Y024516D02*
X034860Y023123D01*
X033607Y024658D02*
X034860Y023406D01*
X033326Y024374D02*
X034860Y022840D01*
X033695Y028604D02*
X034260Y029169D01*
X033695Y028886D02*
X034260Y029452D01*
X033695Y028321D02*
X034260Y028886D01*
X033695Y029096D02*
X034260Y028531D01*
X033695Y029662D02*
X034260Y029097D01*
X033695Y029735D02*
X034260Y030300D01*
X033695Y028886D02*
X034260Y029452D01*
X033695Y026341D02*
X034260Y026906D01*
X033695Y028814D02*
X034260Y028248D01*
X033695Y026058D02*
X034260Y026623D01*
X033695Y026834D02*
X034260Y026268D01*
X033695Y025775D02*
X034260Y026340D01*
X029840Y019941D02*
X034860Y024960D01*
X033184Y024233D02*
X034860Y022557D01*
X029876Y019410D02*
X034860Y024395D01*
X029840Y019658D02*
X034860Y024678D01*
X029840Y020506D02*
X034833Y025499D01*
X029840Y020789D02*
X034691Y025640D01*
X029840Y020223D02*
X034860Y025243D01*
X032901Y023950D02*
X034860Y021991D01*
X033043Y024091D02*
X034860Y022274D01*
X032336Y023384D02*
X035630Y020090D01*
X033652Y021490D02*
X034860Y022698D01*
X029924Y019176D02*
X034860Y024112D01*
X031346Y022394D02*
X034350Y019390D01*
X027621Y016590D02*
X034860Y023829D01*
X032760Y023809D02*
X033959Y022610D01*
X032619Y023667D02*
X033802Y022484D01*
X032194Y023243D02*
X033947Y021490D01*
X032477Y023526D02*
X033784Y022219D01*
X032053Y023101D02*
X033664Y021490D01*
X031912Y022960D02*
X033382Y021490D01*
X029840Y020888D02*
X033581Y024629D01*
X033163Y021567D02*
X033794Y022198D01*
X031770Y022819D02*
X033003Y021586D01*
X031629Y022677D02*
X032824Y021482D01*
X031487Y022536D02*
X032763Y021260D01*
X030704Y019390D02*
X033808Y022494D01*
X031063Y022111D02*
X033784Y019390D01*
X031204Y022253D02*
X034067Y019390D01*
X034916Y021015D02*
X035561Y020371D01*
X035213Y020505D02*
X035320Y020612D01*
X034590Y018185D02*
X037865Y021460D01*
X035355Y020364D02*
X035461Y020470D01*
X034285Y021434D02*
X035629Y020090D01*
X034071Y021110D02*
X035415Y019766D01*
X034590Y017902D02*
X038148Y021460D01*
X035496Y020223D02*
X035566Y020292D01*
X034590Y019316D02*
X035227Y019954D01*
X034590Y018751D02*
X035549Y019710D01*
X034590Y019034D02*
X035369Y019812D01*
X034590Y018468D02*
X035750Y019628D01*
X034648Y021071D02*
X034860Y021284D01*
X034506Y021213D02*
X034860Y021566D01*
X034365Y021354D02*
X034860Y021849D01*
X034930Y020788D02*
X035037Y020895D01*
X034789Y020930D02*
X034897Y021038D01*
X035072Y020647D02*
X035178Y020753D01*
X034381Y019390D02*
X035086Y020095D01*
X034125Y020548D02*
X034379Y020802D01*
X033999Y020705D02*
X034237Y020944D01*
X034098Y019390D02*
X034945Y020237D01*
X034692Y016590D02*
X039562Y021460D01*
X034590Y017337D02*
X038713Y021460D01*
X035258Y016590D02*
X040128Y021460D01*
X034975Y016590D02*
X039845Y021460D01*
X034590Y017054D02*
X038996Y021460D01*
X034590Y017619D02*
X038431Y021460D01*
X034590Y016771D02*
X039279Y021460D01*
X034140Y020449D02*
X037999Y016590D01*
X034590Y018584D02*
X036584Y016590D01*
X034590Y019150D02*
X037150Y016590D01*
X034590Y018867D02*
X036867Y016590D01*
X034044Y021110D02*
X038564Y016590D01*
X033857Y020166D02*
X037433Y016590D01*
X034055Y020251D02*
X037716Y016590D01*
X034590Y017736D02*
X035736Y016590D01*
X034590Y017453D02*
X035453Y016590D01*
X034590Y017170D02*
X035170Y016590D01*
X034590Y016887D02*
X034887Y016590D01*
X034590Y018302D02*
X036302Y016590D01*
X034590Y016710D02*
Y019390D01*
Y018019D02*
X036019Y016590D01*
X034485Y016710D02*
X034605Y016590D01*
X034529Y016710D02*
X034590Y016771D01*
X034409Y016590D02*
X034529Y016710D01*
X034202D02*
X034322Y016590D01*
X033919Y016710D02*
X034039Y016590D01*
X033843D02*
X033963Y016710D01*
X034126Y016590D02*
X034246Y016710D01*
X033369Y021490D02*
X033944Y022065D01*
X033479Y021110D02*
X033843Y020746D01*
X033731Y020720D02*
X034096Y021085D01*
X033269Y021490D02*
X034150D01*
X033269Y021110D02*
X034071D01*
X032118Y019390D02*
X033838Y021110D01*
X030660Y019390D02*
X034590D01*
X033249D02*
X034520Y020661D01*
X033532Y019390D02*
X034662Y020520D01*
X031835Y019390D02*
X033555Y021110D01*
X030639Y021687D02*
X032936Y019390D01*
X030497Y021546D02*
X032653Y019390D01*
X030214Y021263D02*
X032087Y019390D01*
X030073Y021121D02*
X031805Y019390D01*
X030356Y021404D02*
X032370Y019390D01*
X033232Y021074D02*
X033645Y020661D01*
X033010Y021013D02*
X033560Y020463D01*
X032966Y019390D02*
X033757Y020181D01*
X032684Y019390D02*
X033601Y020307D01*
X029932Y020980D02*
X031522Y019390D01*
X029840Y020789D02*
X031239Y019390D01*
X032401D02*
X033586Y020575D01*
X033815Y019390D02*
X034803Y020378D01*
X031552Y019390D02*
X033272Y021110D01*
X033762D02*
X038282Y016590D01*
X033636Y016710D02*
X033756Y016590D01*
X030922Y021970D02*
X033502Y019390D01*
X030780Y021829D02*
X033219Y019390D01*
X031269D02*
X032920Y021041D01*
X033278Y016590D02*
X033398Y016710D01*
X033070D02*
X033190Y016590D01*
X033561D02*
X033681Y016710D01*
X033353D02*
X033473Y016590D01*
X030660Y016710D02*
X034590D01*
X032995Y016590D02*
X033115Y016710D01*
X021100Y016590D02*
X043506D01*
X032505Y016710D02*
X032625Y016590D01*
X032429D02*
X032549Y016710D01*
X032787D02*
X032907Y016590D01*
X032712D02*
X032832Y016710D01*
X030987Y019390D02*
X032783Y021187D01*
X032146Y016590D02*
X032266Y016710D01*
X032222D02*
X032342Y016590D01*
X031656Y016710D02*
X031776Y016590D01*
X031581D02*
X031701Y016710D01*
X031939D02*
X032059Y016590D01*
X031864D02*
X031984Y016710D01*
X031298Y016590D02*
X031418Y016710D01*
X031090D02*
X031210Y016590D01*
X031373Y016710D02*
X031493Y016590D01*
X029295Y021900D02*
X029522Y021673D01*
X029012Y021900D02*
X029380Y021532D01*
X029174Y021326D02*
X029748Y021900D01*
X028729D02*
X029239Y021390D01*
X028446Y021900D02*
X029108Y021238D01*
X028163Y021900D02*
X029060Y021003D01*
X028094Y020740D02*
X029254Y021900D01*
X027880D02*
X029040Y020740D01*
X029577Y021900D02*
X029663Y021814D01*
X029060Y020740D02*
Y021050D01*
X028377Y020740D02*
X029537Y021900D01*
X028660Y020740D02*
X029074Y021155D01*
X028942Y020740D02*
X029060Y020858D01*
X025900Y021900D02*
X027060Y020740D01*
X025831D02*
X026991Y021900D01*
X026183D02*
X027343Y020740D01*
X026114D02*
X027274Y021900D01*
X025548Y020740D02*
X026708Y021900D01*
X025548Y020740D02*
X026708Y021900D01*
X025618D02*
X026778Y020740D01*
X027528D02*
X028688Y021900D01*
X027315D02*
X028475Y020740D01*
X027811D02*
X028971Y021900D01*
X027597D02*
X028757Y020740D01*
X026466Y021900D02*
X027626Y020740D01*
X026397D02*
X027557Y021900D01*
X027245Y020740D02*
X028405Y021900D01*
X029840Y019471D02*
Y020350D01*
Y020888*
Y020506D02*
X030956Y019390D01*
X029840Y020223D02*
X030673Y019390D01*
X028689Y019960D02*
X029060Y019589D01*
X028972Y019960D02*
X029060Y019872D01*
Y019471D02*
Y019960D01*
X028443Y019675D02*
X028728Y019960D01*
X028123D02*
X028410Y019673D01*
X028671Y019620D02*
X029011Y019960D01*
X028406D02*
X029004Y019362D01*
X027925Y019439D02*
X028445Y019960D01*
X027840D02*
X028198Y019602D01*
X025578Y019960D02*
X028948Y016590D01*
X026963Y020740D02*
X028123Y021900D01*
X026749D02*
X027909Y020740D01*
X027032Y021900D02*
X028192Y020740D01*
X027558Y019960D02*
X028055Y019463D01*
X026680Y020740D02*
X027840Y021900D01*
X026143Y019960D02*
X026975Y019128D01*
X025861Y019960D02*
X026977Y018843D01*
X027311Y019675D02*
X027597Y019960D01*
X027275D02*
X027560Y019675D01*
X027857Y019655D02*
X028162Y019960D01*
X027594Y019675D02*
X027880Y019960D01*
X026992D02*
X027277Y019675D01*
X026709Y019960D02*
X027026Y019643D01*
X026426Y019960D02*
X026975Y019411D01*
X025335Y021900D02*
X026495Y020740D01*
X025265D02*
X026425Y021900D01*
X025052D02*
X026212Y020740D01*
X024981Y020738D02*
X026143Y021900D01*
X022150D02*
X029748D01*
X024203D02*
X025363Y020740D01*
X024769Y021900D02*
X025929Y020740D01*
X025018D02*
X029060D01*
X025180Y019960D02*
X029060D01*
X024486Y021900D02*
X025646Y020740D01*
X023921Y021900D02*
X025081Y020740D01*
X023745Y019785D02*
X025860Y021900D01*
X023638D02*
X024841Y020697D01*
X023355Y021900D02*
X024686Y020569D01*
X023072Y021900D02*
X024544Y020428D01*
X022789Y021900D02*
X024403Y020286D01*
X022506Y021900D02*
X024262Y020145D01*
X021100Y020534D02*
X022466Y021900D01*
X022223D02*
X024120Y020003D01*
X022045Y021795D02*
X023979Y019862D01*
X021100Y020850D02*
X022150Y021900D01*
X023902Y019785D02*
X024743Y020626D01*
X021904Y021654D02*
X023773Y019785D01*
X021100Y020251D02*
X022749Y021900D01*
X021100Y020817D02*
X022183Y021900D01*
X021100Y019969D02*
X023031Y021900D01*
X023095Y016590D02*
X026465Y019960D01*
X021338Y021088D02*
X025836Y016590D01*
X023944D02*
X027314Y019960D01*
X023378Y016590D02*
X026748Y019960D01*
X021100Y017423D02*
X025577Y021900D01*
X021100Y017706D02*
X025294Y021900D01*
X021197Y020947D02*
X025554Y016590D01*
X024454Y019080D02*
X025334Y019960D01*
X024454Y019234D02*
X025180Y019960D01*
X025295D02*
X028665Y016590D01*
X023661D02*
X027031Y019960D01*
X022530Y016590D02*
X025900Y019960D01*
X022247Y016590D02*
X025617Y019960D01*
X022813Y016590D02*
X026183Y019960D01*
X022271Y019725D02*
X024446Y021900D01*
X022048Y019785D02*
X024163Y021900D01*
X022485Y019373D02*
X025011Y021900D01*
X022415Y019587D02*
X024728Y021900D01*
X021100Y019403D02*
X023597Y021900D01*
X021100Y019686D02*
X023314Y021900D01*
X021100Y019120D02*
X023880Y021900D01*
X021762Y021512D02*
X023589Y019686D01*
X021621Y021371D02*
X023583Y019409D01*
X021480Y021230D02*
X023583Y019126D01*
X021100Y016590D02*
Y020850D01*
Y020761D02*
X022076Y019784D01*
X021100Y020478D02*
X021844Y019734D01*
X021100Y020195D02*
X021694Y019601D01*
X029840Y019940D02*
X030660Y019120D01*
X029840Y019657D02*
X030660Y018837D01*
X028825Y019491D02*
X029060Y019726D01*
X028914Y019298D02*
X029022Y019405D01*
X030660Y019346D02*
X030704Y019390D01*
X029914Y019301D02*
X030660Y018555D01*
X029785Y018864D02*
X030660Y017989D01*
X029896Y019036D02*
X030660Y018272D01*
X028923Y019160D02*
X028987Y019096D01*
X028860Y018960D02*
X028989Y019089D01*
X027925Y019310D02*
X027979Y019256D01*
X027925Y018865D02*
Y019535D01*
X027115Y019675D02*
X027785D01*
X026975Y018865D02*
Y019535D01*
X027925Y019157D02*
X027975Y019207D01*
X027925Y018874D02*
X028030Y018979D01*
X027115Y018725D02*
X027785D01*
X030660Y016710D02*
Y019390D01*
X028852Y018948D02*
X030660Y017140D01*
X029035Y016590D02*
X030660Y018215D01*
X029318Y016590D02*
X030660Y017932D01*
X028752Y016590D02*
X030660Y018498D01*
X028713Y018805D02*
X030660Y016858D01*
X027904Y016590D02*
X030660Y019346D01*
X030732Y016590D02*
X030852Y016710D01*
X030449Y016590D02*
X030660Y016801D01*
X031015Y016590D02*
X031135Y016710D01*
X030808D02*
X030928Y016590D01*
X029884D02*
X030660Y017366D01*
X029601Y016590D02*
X030660Y017649D01*
X030166Y016590D02*
X030660Y017084D01*
X027925Y019027D02*
X030362Y016590D01*
X027893Y018776D02*
X030079Y016590D01*
X028469D02*
X030660Y018781D01*
X028187Y016590D02*
X030660Y019063D01*
X026772Y016590D02*
X029082Y018900D01*
X026490Y016590D02*
X028690Y018791D01*
X027055Y016590D02*
X029240Y018774D01*
X029346Y018737D02*
X030660Y017423D01*
X029612Y018754D02*
X030660Y017706D01*
X028506Y018729D02*
X030645Y016590D01*
X027661Y018725D02*
X029796Y016590D01*
X027338D02*
X029474Y018726D01*
X027093Y018727D02*
X029231Y016590D01*
X027378Y018725D02*
X029513Y016590D01*
X024454Y019055D02*
Y019234D01*
X025096Y019876D02*
X028382Y016590D01*
X024354Y018921D02*
X026685Y016590D01*
X023723Y019785D02*
X023902D01*
X024227Y016590D02*
X026975Y019339D01*
X025358Y016590D02*
X027493Y018725D01*
X025075Y016590D02*
X027211Y018725D01*
X026207Y016590D02*
X028352Y018736D01*
X025924Y016590D02*
X028159Y018825D01*
X023795Y018915D02*
X026119Y016590D01*
X023723Y018915D02*
X024314D01*
X024077D02*
X026402Y016590D01*
X023583Y019055D02*
Y019645D01*
X021100Y019912D02*
X021617Y019395D01*
X021100Y017140D02*
X023583Y019623D01*
X021100Y016857D02*
X023583Y019341D01*
X021100Y018837D02*
X021615Y019352D01*
X021100Y018272D02*
X021813Y018985D01*
X021100Y018554D02*
X021675Y019129D01*
X021100Y017989D02*
X022027Y018915D01*
X024672Y019452D02*
X027533Y016590D01*
X024530Y019310D02*
X027251Y016590D01*
X024955Y019735D02*
X028099Y016590D01*
X024813Y019593D02*
X027816Y016590D01*
X022434Y019144D02*
X024988Y016590D01*
X021100Y019629D02*
X024139Y016590D01*
X022484Y019376D02*
X025271Y016590D01*
X024510D02*
X026975Y019056D01*
X024454Y019104D02*
X026968Y016590D01*
X025641D02*
X027776Y018725D01*
X024792Y016590D02*
X026995Y018793D01*
X022095Y018917D02*
X024422Y016590D01*
X021964D02*
X024289Y018915D01*
X022301Y018994D02*
X024705Y016590D01*
X021398D02*
X023723Y018915D01*
X021115Y016590D02*
X023583Y019058D01*
X021681Y016590D02*
X024006Y018915D01*
X021398Y016590D02*
X023723Y018915D01*
X021100Y019064D02*
X023574Y016590D01*
X021100Y018781D02*
X023291Y016590D01*
X021100Y019347D02*
X023857Y016590D01*
X021100Y017649D02*
X022159Y016590D01*
X021100Y017367D02*
X021877Y016590D01*
X021100Y017084D02*
X021594Y016590D01*
X021100Y016801D02*
X021311Y016590D01*
X021100Y018498D02*
X023008Y016590D01*
X021100Y018215D02*
X022725Y016590D01*
X021100Y017932D02*
X022442Y016590D01*
G54D15*
X042365Y019800D03*
X043035D03*
X042365Y020700D03*
X043035D03*
X042365Y021650D03*
X043035D03*
X042365Y022650D03*
X043035D03*
G54D29*
X014750Y021981D02*
X019969D01*
X020000Y021950*
X023984Y024300D02*
X030900D01*
X033100Y039950D02*
X035450D01*
X035800Y040300*
Y042450*
X035450Y039950D02*
X040700D01*
X041750Y037550D02*
Y038900D01*
X040700Y039950D02*
X041750Y038900D01*
X031950Y038800D02*
X033100Y039950D01*
X031950Y033050D02*
Y038800D01*
X032705Y026105D02*
Y032295D01*
X032550Y036250D02*
X033000Y036700D01*
X033750*
X040300Y033550D02*
X041750D01*
X031950Y033050D02*
X032705Y032295D01*
X030900Y024300D02*
X032705Y026105D01*
X029450Y021050D02*
X033305Y024905D01*
X032550Y033299D02*
X033305Y032544D01*
X032550Y033299D02*
Y036250D01*
X033305Y024905D02*
Y031700D01*
Y032544*
X033750Y036700D02*
X034650Y037600D01*
X037700*
X039550Y034300D02*
X040300Y033550D01*
X039550Y034300D02*
Y035750D01*
X037700Y037600D02*
X039550Y035750D01*
X024018Y019350D02*
X025018Y020350D01*
X029450*
Y019200D02*
Y020350D01*
Y021050*
G54D30*
X041750Y035550D02*
X042342D01*
X041750D02*
Y036142D01*
Y034958D02*
Y035550D01*
X041158D02*
X041750D01*
X043035Y022650D02*
Y022947D01*
Y022650D02*
X043351D01*
X043035Y021650D02*
X043351D01*
X043035Y022353D02*
Y022650D01*
Y021353D02*
Y021650D01*
Y021947*
X041750Y023300D02*
X042145D01*
X043035Y020700D02*
X043351D01*
X043035Y020403D02*
Y020700D01*
Y020997*
Y019800D02*
Y020097D01*
Y019800D02*
X043351D01*
X043035Y019503D02*
Y019800D01*
X041355Y023300D02*
X041750D01*
Y023695*
Y022905D02*
Y023300D01*
X033350Y037850D02*
X033745D01*
X033350Y034100D02*
X033745D01*
X030900Y038200D02*
Y038536D01*
X033350Y037850D02*
Y038245D01*
Y037455D02*
Y037850D01*
X032955D02*
X033350D01*
Y034100D02*
Y034495D01*
Y033705D02*
Y034100D01*
X030900Y038200D02*
X031492D01*
X030900Y037864D02*
Y038200D01*
X030308D02*
X030900D01*
X034050Y022335D02*
Y022585D01*
Y022085D02*
Y022335D01*
X034300*
X033800D02*
X034050D01*
X033850Y020456D02*
Y020706D01*
X033600Y020456D02*
X033850D01*
X034100*
X033850Y020206D02*
Y020456D01*
X028450Y019200D02*
X028885D01*
X028450D02*
Y019635D01*
X028015Y019200D02*
X028450D01*
Y018765D02*
Y019200D01*
X022050Y019350D02*
X022445D01*
X021655D02*
X022050D01*
Y019745*
Y018955D02*
Y019350D01*
X041650Y019800D02*
X042365D01*
X041650Y020450D02*
X041900Y020700D01*
X042365*
X036250Y023400D02*
Y023425D01*
X035350Y026400D02*
Y031950D01*
Y026400D02*
X035900Y025850D01*
X036300Y032350D02*
X036700Y031950D01*
Y030650D02*
Y031950D01*
X036950Y032550D02*
X037300Y032200D01*
Y029500D02*
Y032200D01*
X035300Y021350D02*
Y025601D01*
X035500Y021750D02*
Y025684D01*
X035900Y022300D02*
Y025850D01*
X035700Y022076D02*
Y025767D01*
Y022076D02*
X036226Y021550D01*
X035300Y021350D02*
X035850Y020800D01*
X035500Y021750D02*
X036050Y021200D01*
X035900Y022300D02*
X036250Y021950D01*
X036226Y021550D02*
X036250D01*
X035050Y026417D02*
X035700Y025767D01*
X035050Y026417D02*
Y032250D01*
X034850Y026334D02*
X035500Y025684D01*
X034850Y026334D02*
Y032333D01*
X034650Y026251D02*
X035300Y025601D01*
X035050Y032250D02*
X035150Y032350D01*
X036300*
X034850Y032333D02*
X035067Y032550D01*
X036950*
X034650Y026251D02*
Y032550D01*
X035000Y032900*
X035050Y021150D02*
X035850Y020350D01*
X035050Y021150D02*
Y025550D01*
X034450Y026150D02*
X035050Y025550D01*
X034450Y026150D02*
Y036250D01*
X034950Y036750*
X036250Y022950D02*
X037550Y021650D01*
X042365*
X036250Y023400D02*
X037800Y021850D01*
X041565*
X042365Y022650*
X033050Y021300D02*
X034150D01*
X035550Y019900*
X035850*
G54D31*
X022750Y029350D02*
Y033000D01*
X027500Y030750D02*
X030950D01*
X027150Y031100D02*
X027500Y030750D01*
X027150Y031100D02*
Y031900D01*
X016200Y032600D02*
Y035150D01*
X017500Y036450*
Y039803*
G54D32*
X020450Y038887D02*
X024550D01*
G54D34*
X022500Y041050D02*
X023950Y042500D01*
X026550*
X027900Y041150*
Y039200D02*
Y041150D01*
G54D35*
X033355Y031750D02*
X033950D01*
X033305Y031700D02*
X033355Y031750D01*
X038600Y024100D02*
X040500Y022200D01*
X038600Y024100D02*
Y026400D01*
X038550Y026450D02*
X038600Y026400D01*
X038550Y026450D02*
Y034900D01*
X037850Y035600D02*
X038550Y034900D01*
X035600Y035600D02*
X037850D01*
G54D36*
X032625Y018050D03*
G54D37*
X041728Y018369D03*
X012987D03*
Y043959D03*
X041728D03*
X017500Y039803D03*
Y033897D03*
G54D38*
X014700Y028734D03*
Y026766D03*
X014750Y023950D03*
Y021981D03*
X032522Y044039D03*
Y041086D03*
X026222Y044275D03*
X025750Y040850D03*
X014650Y034400D03*
Y040306D03*
Y036369D03*
Y038337D03*
G54D39*
X033350Y035100D03*
Y038850D03*
X042750Y023300D03*
X041750D03*
X020450Y034950D03*
Y038887D03*
X024550Y034950D03*
Y038887D03*
X030950Y030750D03*
X033950Y031750D03*
Y030750D03*
X022050Y019350D03*
G54D40*
X033350Y034100D03*
Y037850D03*
G54D41*
X021900Y024300D03*
G54D42*
X023869Y024300D03*
X040750Y023300D03*
X030950Y031750D03*
X024018Y019350D03*
G54D43*
X038800Y042450D03*
X035800D03*
G54D44*
X034691Y044000D03*
G54D45*
X038809Y044000D03*
G54D46*
X020500Y041050D03*
G54D47*
X021500Y041050D03*
X022500D03*
G54D48*
X041750Y033550D03*
Y035550D03*
Y037550D03*
Y029616D03*
Y031584D03*
Y025682D03*
Y027650D03*
G54D49*
X027900Y039200D03*
Y038200D03*
Y037200D03*
X030900Y039200D03*
Y038200D03*
G54D50*
X030900Y037200D03*
G54D51*
X027450Y019200D03*
G54D52*
X028450Y019200D03*
X029450D03*
G54D53*
X019969Y021981D03*
X022750Y029350D03*
Y033000D03*
X027150Y031900D03*
X016200Y032600D03*
X032183Y018750D03*
X033117D03*
X034050D03*
X033117Y017300D03*
X031250Y018750D03*
X032183Y017300D03*
X034050D03*
X031250D03*
Y018050D03*
X034050D03*
X032183D03*
X033117D03*
G54D54*
X041650Y019800D03*
Y020450D03*
X035850Y019900D03*
X033050Y021300D03*
X035850Y020350D03*
X036250Y023425D03*
Y022950D03*
X036700Y030650D03*
X037300Y029500D03*
X035350Y031950D03*
X035850Y020800D03*
X036050Y021200D03*
X036250Y021950D03*
Y021550D03*
X035000Y032900D03*
X034950Y036750D03*
X040500Y022200D03*
X038600Y026400D03*
X035600Y035600D03*
X034050Y022335D03*
X033850Y020456D03*
M02*