%FSDAX24Y24*%
%MOIN*%
%SFA1B1*%

%IPPOS*%
%ADD64R,0.051300X0.047400*%
%ADD78C,0.068000*%
%ADD79C,0.126100*%
%ADD80C,0.067100*%
%ADD81R,0.067100X0.067100*%
%ADD82C,0.067100*%
%ADD83R,0.067100X0.067100*%
%ADD84C,0.063100*%
%ADD85C,0.086700*%
%ADD86R,0.086700X0.086700*%
%ADD87R,0.071000X0.071000*%
%ADD88C,0.071000*%
%ADD89C,0.106400*%
%ADD90O,0.106400X0.055200*%
%ADD91R,0.106400X0.055200*%
%ADD92R,0.074900X0.074900*%
%ADD93C,0.074900*%
%ADD94C,0.058000*%
%ADD95C,0.038000*%
%LNde-160724-1*%
%LPD*%
G54D64*
X042365Y019800D03*
X043035D03*
X042365Y020700D03*
X043035D03*
X042365Y021650D03*
X043035D03*
X042365Y022650D03*
X043035D03*
G54D78*
X041728Y018369D03*
X012987D03*
Y043959D03*
X041728D03*
X017500Y039803D03*
Y033897D03*
G54D79*
X014700Y028734D03*
Y026766D03*
X014750Y023950D03*
Y021981D03*
X032522Y044039D03*
Y041086D03*
X026222Y044275D03*
X025750Y040850D03*
X014650Y034400D03*
Y040306D03*
Y036369D03*
Y038337D03*
G54D80*
X033350Y035100D03*
Y038850D03*
X042750Y023300D03*
X041750D03*
X020450Y034950D03*
Y038887D03*
X024550Y034950D03*
Y038887D03*
X030950Y030750D03*
X033950Y031750D03*
Y030750D03*
X022050Y019350D03*
G54D81*
X033350Y034100D03*
Y037850D03*
G54D82*
X021900Y024300D03*
G54D83*
X023869Y024300D03*
X040750Y023300D03*
X030950Y031750D03*
X024018Y019350D03*
G54D84*
X038800Y042450D03*
X035800D03*
G54D85*
X034691Y044000D03*
G54D86*
X038809Y044000D03*
G54D87*
X020500Y041050D03*
G54D88*
X021500Y041050D03*
X022500D03*
G54D89*
X041750Y033550D03*
Y035550D03*
Y037550D03*
Y029616D03*
Y031584D03*
Y025682D03*
Y027650D03*
G54D90*
X027900Y039200D03*
Y038200D03*
Y037200D03*
X030900Y039200D03*
Y038200D03*
G54D91*
X030900Y037200D03*
G54D92*
X027450Y019200D03*
G54D93*
X028450Y019200D03*
X029450D03*
G54D94*
X019969Y021981D03*
X022750Y029350D03*
Y033000D03*
X027150Y031900D03*
X016200Y032600D03*
X032183Y018750D03*
X033117D03*
X034050D03*
X033117Y017300D03*
X031250Y018750D03*
X032183Y017300D03*
X034050D03*
X031250D03*
Y018050D03*
X034050D03*
X032183D03*
X033117D03*
G54D95*
X041650Y019800D03*
Y020450D03*
X035850Y019900D03*
X033050Y021300D03*
X035850Y020350D03*
X036250Y023425D03*
Y022950D03*
X036700Y030650D03*
X037300Y029500D03*
X035350Y031950D03*
X035850Y020800D03*
X036050Y021200D03*
X036250Y021950D03*
Y021550D03*
X035000Y032900D03*
X034950Y036750D03*
X040500Y022200D03*
X038600Y026400D03*
X035600Y035600D03*
X034050Y022335D03*
X033850Y020456D03*
M02*