%FSDAX24Y24*%
%MOIN*%
%SFA1B1*%

%IPPOS*%
%ADD96C,0.003900*%
%ADD98C,0.002000*%
%LNde-160724-1*%
%LPD*%
G54D96*
X038204Y024785D02*
Y026163D01*
X036669Y024785D02*
Y026163D01*
Y024785D02*
X038204D01*
X036669Y026163D02*
X038204D01*
X037240Y025474D02*
X037633D01*
X037437Y025277D02*
Y025671D01*
X036782Y027061D02*
Y028439D01*
X038318Y027061D02*
Y028439D01*
X036782D02*
X038318D01*
X036782Y027061D02*
X038318D01*
X037353Y027750D02*
X037747D01*
X037550Y027553D02*
Y027947D01*
X035868Y040161D02*
Y041539D01*
X034332Y040161D02*
Y041539D01*
Y040161D02*
X035868D01*
X034332Y041539D02*
X035868D01*
X034903Y040850D02*
X035297D01*
X035100Y040653D02*
Y041047D01*
X021500Y040853D02*
Y041247D01*
X021303Y041050D02*
X021697D01*
X032253Y031250D02*
X032647D01*
X032450Y031053D02*
Y031447D01*
X027903Y030450D02*
X028297D01*
X028100Y030253D02*
Y030647D01*
X036911Y029626D02*
Y031674D01*
X039589Y029626D02*
Y031674D01*
X036911D02*
X039589D01*
X036911Y029626D02*
X039589D01*
X038053Y030650D02*
X038447D01*
X038250Y030453D02*
Y030847D01*
Y021953D02*
Y022347D01*
X038053Y022150D02*
X038447D01*
X028450Y019003D02*
Y019397D01*
X028253Y019200D02*
X028647D01*
G54D98*
X019374Y040082D02*
X023626D01*
X019374Y042188D02*
X023626D01*
X019374Y040082D02*
Y042188D01*
X023626Y040082D02*
Y042188D01*
X026624Y029367D02*
Y031533D01*
X029576Y029367D02*
Y031533D01*
X026624D02*
X029576D01*
X026624Y029367D02*
X029576D01*
X036685Y020752D02*
X039815D01*
X036685Y023548D02*
X039815D01*
Y020752D02*
Y023548D01*
X036685Y020752D02*
Y023548D01*
M02*